<?xml version="1.0" encoding="UTF-8"?>
<svg width="38px" height="32px" viewBox="0 0 38 32" version="1.1" xmlns="http://www.w3.org/2000/svg" xmlns:xlink="http://www.w3.org/1999/xlink">
    <!-- Generator: Sketch 43.2 (39069) - http://www.bohemiancoding.com/sketch -->
    <title>Shape</title>
    <desc>Created with Sketch.</desc>
    <defs></defs>
    <g id="Page-1" stroke="none" stroke-width="1" fill="none" fill-rule="evenodd">
        <g id="homepage" transform="translate(-183.000000, -2113.000000)" fill-rule="nonzero" fill="#FFFFFF">
            <path d="M197.289062,2113.33333 C195.541063,2113.33333 194.122396,2114.752 194.122396,2116.5 L194.122396,2119.66667 L197.289062,2119.66667 L197.289062,2117.29167 C197.289062,2116.85467 197.643729,2116.5 198.080729,2116.5 L205.997396,2116.5 C206.434396,2116.5 206.789062,2116.85467 206.789062,2117.29167 L206.789062,2119.66667 L209.955729,2119.66667 L209.955729,2116.5 C209.955729,2114.752 208.537062,2113.33333 206.789062,2113.33333 L197.289062,2113.33333 Z M217.177312,2132.33333 L215.277312,2141.83333 L188.802396,2141.83333 L186.902396,2132.33333 L217.177312,2132.33333 Z M221.039062,2129.16667 L183.039062,2129.16667 L186.205729,2145 L217.872396,2145 L221.039062,2129.16667 Z M219.455729,2121.25 L219.455729,2126 L216.289062,2126 L216.289062,2124.41667 L187.789062,2124.41667 L187.789062,2126 L184.622396,2126 L184.622396,2121.25 L219.455729,2121.25 Z" id="Shape"></path>
        </g>
    </g>
</svg>