<?xml version="1.0" encoding="UTF-8"?>
<svg width="36px" height="36px" viewBox="0 0 36 36" version="1.1" xmlns="http://www.w3.org/2000/svg" xmlns:xlink="http://www.w3.org/1999/xlink">
    <!-- Generator: Sketch 43.2 (39069) - http://www.bohemiancoding.com/sketch -->
    <title>Shape</title>
    <desc>Created with Sketch.</desc>
    <defs></defs>
    <g id="Page-1" stroke="none" stroke-width="1" fill="none" fill-rule="evenodd">
        <g id="homepage" transform="translate(-1041.000000, -2031.000000)" fill-rule="nonzero" fill="#FFFFFF">
            <g id="iconmonstr-note-19(2)" transform="translate(1041.000000, 2031.000000)">
                <path d="M8.90192535,32.6403929 L8.90192535,8.90192535 L32.6403929,8.90192535 L32.6403929,20.0931292 C32.6403929,26.1864971 23.7384676,23.7384676 23.7384676,23.7384676 C23.7384676,23.7384676 25.9906547,32.6403929 19.8245877,32.6403929 L8.90192535,32.6403929 Z M35.6077014,21.3438497 L35.6077014,5.9346169 L5.9346169,5.9346169 L5.9346169,35.6077014 L21.0515698,35.6077014 C25.7443681,35.6077014 35.6077014,24.8912669 35.6077014,21.3438497 Z M20.7711591,23.7384676 L13.352888,23.7384676 L13.352888,22.2548134 L20.7711591,22.2548134 L20.7711591,23.7384676 Z M28.1894303,17.8038507 L13.352888,17.8038507 L13.352888,19.2875049 L28.1894303,19.2875049 L28.1894303,17.8038507 Z M28.1894303,13.352888 L13.352888,13.352888 L13.352888,14.8365422 L28.1894303,14.8365422 L28.1894303,13.352888 Z M31.1567387,2.96730845 L2.96730845,2.96730845 L2.96730845,31.1567387 L0,31.1567387 L0,0 L31.1567387,0 L31.1567387,2.96730845 Z" id="Shape"></path>
            </g>
        </g>
    </g>
</svg>