<?xml version="1.0" encoding="UTF-8"?>
<svg width="34px" height="37px" viewBox="0 0 34 37" version="1.1" xmlns="http://www.w3.org/2000/svg" xmlns:xlink="http://www.w3.org/1999/xlink">
    <!-- Generator: Sketch 43.2 (39069) - http://www.bohemiancoding.com/sketch -->
    <title>Shape</title>
    <desc>Created with Sketch.</desc>
    <defs></defs>
    <g id="Page-1" stroke="none" stroke-width="1" fill="none" fill-rule="evenodd">
        <g id="homepage" transform="translate(-755.000000, -2123.000000)" fill-rule="nonzero" fill="#FFFFFF">
            <g id="iconmonstr-chart-6" transform="translate(755.000000, 2123.000000)">
                <path d="M6.03483111,30.1741556 L6.03483111,33.1915711 L3.01741556,33.1915711 L3.01741556,30.1741556 L6.03483111,30.1741556 Z M9.05224667,27.15674 L0,27.15674 L0,36.2089867 L9.05224667,36.2089867 L9.05224667,27.15674 Z M18.1044933,25.6480322 L18.1044933,33.1915711 L15.0870778,33.1915711 L15.0870778,25.6480322 L18.1044933,25.6480322 Z M21.1219089,22.6306167 L12.0696622,22.6306167 L12.0696622,36.2089867 L21.1219089,36.2089867 L21.1219089,22.6306167 Z M30.1741556,19.6132011 L30.1741556,33.1915711 L27.15674,33.1915711 L27.15674,19.6132011 L30.1741556,19.6132011 Z M33.1915711,16.5957856 L24.1393244,16.5957856 L24.1393244,36.2089867 L33.1915711,36.2089867 L33.1915711,16.5957856 Z M33.1915711,1.34000169e-15 L24.1393244,1.8421322 L26.728267,4.41900508 L16.3936187,14.5771345 L11.8659867,10.0479938 L0.0362089867,21.8113883 L2.16348695,23.950736 L11.8599518,14.3100933 L16.3724968,18.8256557 L28.8645972,6.54930046 L31.3796131,9.05375537 L33.1915711,0 L33.1915711,1.34000169e-15 Z" id="Shape"></path>
            </g>
        </g>
    </g>
</svg>