<?xml version="1.0" encoding="UTF-8"?>
<svg width="246px" height="49px" viewBox="0 0 246 49" version="1.1" xmlns="http://www.w3.org/2000/svg" xmlns:xlink="http://www.w3.org/1999/xlink">
    <!-- Generator: Sketch 43.2 (39069) - http://www.bohemiancoding.com/sketch -->
    <title>meson-logo</title>
    <desc>Created with Sketch.</desc>
    <defs>
        <linearGradient x1="0.000263220236%" y1="49.9996065%" x2="100.00079%" y2="49.9996065%" id="linearGradient-1">
            <stop stop-color="#0092C8" offset="0%"></stop>
            <stop stop-color="#24A2D0" offset="9.61%"></stop>
            <stop stop-color="#4CB2D8" offset="21.84%"></stop>
            <stop stop-color="#68BFDF" offset="33.06%"></stop>
            <stop stop-color="#79C6E2" offset="42.81%"></stop>
            <stop stop-color="#80C9E4" offset="50%"></stop>
            <stop stop-color="#7DC7E3" offset="62.2%"></stop>
            <stop stop-color="#73C4E1" offset="70.82%"></stop>
            <stop stop-color="#64BDDE" offset="78.34%"></stop>
            <stop stop-color="#4EB3D9" offset="85.23%"></stop>
            <stop stop-color="#31A7D3" offset="91.69%"></stop>
            <stop stop-color="#0F99CB" offset="97.75%"></stop>
            <stop stop-color="#0092C8" offset="100%"></stop>
        </linearGradient>
        <linearGradient x1="-9.47272274%" y1="111.168744%" x2="65.1554153%" y2="24.7867876%" id="linearGradient-2">
            <stop stop-color="#8DA0BE" offset="52.76%"></stop>
            <stop stop-color="#416092" offset="100%"></stop>
        </linearGradient>
    </defs>
    <g id="Page-1" stroke="none" stroke-width="1" fill="none" fill-rule="evenodd">
        <g id="Product-detail" transform="translate(-686.000000, -169.000000)" fill-rule="nonzero">
            <g id="meson-logo" transform="translate(686.000000, 169.292969)">
                <g id="Group" transform="translate(153.447366, 0.500000)">
                    <path d="M24.5908507,0.191366365 C11.5226722,0.191366365 0.260457078,10.5170729 0.260457078,23.9568321 C0.260457078,36.6789674 11.0304849,47.5613761 24.5908507,47.5613761 C37.2549378,47.5613761 48.7654809,38.3646069 48.7654809,23.8002596 C48.7654809,21.26217 48.376072,18.8558001 47.654708,16.6128372 L38.1959028,19.5908209 C38.6197839,20.9154738 38.8534293,22.3389165 38.8534293,23.8331895 C38.8534293,32.4434333 32.0489881,37.8830843 24.564039,37.8830843 C16.5454082,37.8830843 10.1725087,31.4443518 10.1725087,23.9276301 C10.1725087,15.9741209 16.8339538,9.87587131 24.564039,9.87587131 C24.569146,9.87587131 24.5838286,9.87773527 24.5908507,9.87773527 L24.5908507,0.198200878" id="Shape" fill="url(#linearGradient-1)"></path>
                    <path d="M24.5908507,9.87835659 C30.7939425,9.88954034 36.343338,13.8044737 38.1959028,19.5908209 L47.654708,16.6128372 C45.2537789,9.13463731 39.205174,3.51169705 31.7955531,1.26997678 C31.6442582,1.22027123 31.4859412,1.17988547 31.3346463,1.13639312 C30.8009646,0.981684597 30.2647294,0.854935447 29.7163651,0.741234003 C29.489742,0.695877689 29.2631188,0.644929501 29.0364956,0.605786381 C28.5487769,0.515695073 28.062335,0.451699179 27.5695094,0.3914312 C27.3090523,0.356637316 27.0479568,0.321222112 26.7798393,0.297611976 C26.2321134,0.247906427 25.6760886,0.231130804 25.1130416,0.218083097 C24.9419571,0.214355181 24.7695958,0.197579558 24.5914891,0.197579558 L24.5914891,9.87835659 L24.5908507,9.87835659 Z" id="Shape" fill="url(#linearGradient-2)"></path>
                </g>
                <g id="Group" fill="#222936">
                    <path d="M10.4258264,1.75511156 L10.4258264,6.9110668 C11.9652034,4.84848308 13.7319082,3.32271551 15.7259407,2.33275597 C17.7189652,1.34279644 19.9947632,0.848320723 22.5518226,0.848320723 C26.208221,0.848320723 29.3363722,1.49451631 31.9342599,2.78690747 C34.5326516,4.07929864 36.7666133,6.10055003 38.6366489,8.84965355 C40.4235157,6.15498773 42.4311577,4.14784981 44.6580626,2.82823979 C46.8854716,1.50812573 49.3457529,0.848320723 52.0404187,0.848320723 C57.5945756,0.848320723 61.8568454,2.59486339 64.8262199,6.08643656 C67.7955945,9.57851378 69.2805338,14.5822451 69.2805338,21.0991427 L69.2805338,47.1243926 L58.8869668,47.1243926 L58.8869668,27.0378918 C58.8869668,20.8788716 58.2064956,16.6932179 56.8455533,14.4794183 C55.4846109,12.2661229 53.1261483,11.1592231 49.7721815,11.1592231 C46.2796002,11.1592231 43.7845393,12.4037293 42.2859905,14.8917335 C40.7869377,17.3807458 40.0384195,21.6490642 40.0384195,27.6976968 L40.0384195,47.1238885 L29.5626918,47.1238885 L29.5626918,27.0373877 C29.5626918,20.9065945 28.8676031,16.7264854 27.479442,14.4995805 C26.0907767,12.2721715 23.664771,11.158719 20.2004167,11.158719 C16.6806166,11.158719 14.150776,12.4032252 12.611399,14.8912294 C11.0710139,17.3802417 10.3013254,21.6485601 10.3013254,27.6971927 L10.3013254,47.1233844 L0.114419967,47.1233844 L0.114419967,1.75460751 L10.4258264,1.75460751 L10.4258264,1.75511156 Z" id="Shape"></path>
                    <path d="M83.3073128,27.7798574 C83.6641821,31.0526717 84.963126,33.6303973 87.2046484,35.5135382 C89.4451627,37.3971832 92.3394334,38.3387537 95.8864524,38.3387537 C98.2509637,38.3387537 100.375042,37.8437739 102.259191,36.8538144 C104.141828,35.8643589 105.633824,34.4761977 106.734171,32.6883227 L118.117193,32.6883227 C116.19272,37.6371123 113.312563,41.4800102 109.476218,44.2155043 C105.640881,46.9525106 101.207233,48.3200056 96.1752746,48.3200056 C92.7930809,48.3200056 89.6790432,47.721191 86.8336656,46.5250739 C83.9877839,45.3289568 81.4367731,43.5627561 79.1826494,41.2254636 C77.0379051,38.9980547 75.3740271,36.4208331 74.1925275,33.4922868 C73.0095158,30.5632365 72.418766,27.5595863 72.418766,24.4798242 C72.418766,21.3189097 72.9611267,18.3414703 74.0473603,15.5505304 C75.1330899,12.7600945 76.7349694,10.2504161 78.8524949,8.02351115 C81.1620644,5.57683926 83.7740656,3.6926902 86.6884984,2.37308019 C89.6029312,1.05347018 92.6136381,0.393161119 95.7211231,0.393161119 C99.6527343,0.393161119 103.32375,1.28684659 106.733667,3.07371347 C110.142575,4.86158845 113.043903,7.37731556 115.436137,10.6219029 C116.893353,12.5740991 117.97253,14.7601757 118.673668,17.1796287 C119.375309,19.5995858 119.725626,22.3764123 119.725626,25.5106121 C119.725626,25.7581019 119.711512,26.1361415 119.684293,26.6447307 C119.65657,27.154328 119.642961,27.5318634 119.642961,27.7788493 L83.3073128,27.7788493 L83.3073128,27.7798574 Z M108.342099,19.4075418 C107.434804,16.3832255 105.915589,14.0812167 103.784958,12.4994993 C101.65332,10.9182859 98.9657104,10.1279312 95.7216271,10.1279312 C92.9170778,10.1279312 90.4008467,10.9802844 88.1739418,12.6849907 C85.9465328,14.390201 84.44748,16.6307153 83.6782956,19.4075418 L108.342099,19.4075418 Z" id="Shape"></path>
                    <path d="M130.800672,32.069346 L130.800672,32.6888268 C130.800672,34.6959647 131.308757,36.3255671 132.326439,37.5761219 C133.343618,38.8271808 134.662724,39.4527102 136.28527,39.4527102 C137.825151,39.4527102 139.083266,38.9854533 140.059616,38.0504355 C141.035462,37.1159218 141.523385,35.9198047 141.523385,34.4625883 C141.523385,33.1157594 141.166012,32.0083556 140.451265,31.141889 C139.73551,30.2759264 138.456729,29.4034112 136.615928,28.5233351 C135.570523,28.0560783 134.030642,27.4093786 131.995781,26.5847484 C129.96092,25.7596141 128.655424,25.1139226 128.077779,24.6461616 C126.4013,23.2711058 125.16385,21.7382815 124.366439,20.0471847 C123.569028,18.3565918 123.170322,16.4245578 123.170322,14.2525946 C123.170322,10.4308669 124.511102,7.19988901 127.191654,4.56016493 C129.872207,1.92044085 133.123347,0.600830839 136.946083,0.600830839 C140.987577,0.600830839 144.183776,1.76972909 146.534677,4.10651748 C148.885579,6.44380993 150.17041,9.71561612 150.390681,13.9229441 L140.905417,13.9229441 L140.905417,13.6754543 C140.905417,12.2182379 140.526369,11.0770625 139.771298,10.2519282 C139.014211,9.42729796 137.962757,9.01498284 136.615928,9.01498284 C135.432412,9.01498284 134.450014,9.42124933 133.666212,10.2317661 C132.88241,11.0427869 132.490761,12.0534126 132.490761,13.2631391 C132.490761,15.2430582 134.525622,17.0853709 138.595343,18.7900772 C139.667463,19.2301152 140.492598,19.5738792 141.069234,19.820865 C144.973626,21.5810171 147.640569,23.4712148 149.071071,25.4919621 C150.500564,27.5132135 151.215311,30.2421549 151.215311,33.6792904 C151.215311,37.9133332 149.785818,41.4124672 146.925822,44.1751801 C144.065827,46.9383971 140.464875,48.3210137 136.11994,48.3210137 C131.747787,48.3210137 128.221434,46.8637973 125.540882,43.9488604 C122.859825,41.0349317 121.396056,37.089207 121.148566,32.1121905 L130.800672,32.069346 Z" id="Shape"></path>
                </g>
                <path d="M215.352491,1.75511156 L215.352491,6.9110668 C216.891364,4.84848308 218.658573,3.32271551 220.652101,2.33275597 C222.64563,1.34279644 224.920924,0.848320723 227.477983,0.848320723 C230.749285,0.848320723 233.602224,1.46729746 236.03579,2.70424283 C238.468348,3.94169225 240.496657,5.79761435 242.118698,8.27251319 C243.163095,9.92177368 243.912622,11.798866 244.366269,13.902278 C244.819917,16.00569 245.04674,19.0783953 245.04674,23.11989 L245.04674,47.1243926 L234.48986,47.1243926 L234.48986,27.0378918 C234.48986,20.9615363 233.787715,16.7960446 232.385944,14.5409128 C230.984174,12.286789 228.564217,11.1592231 225.128089,11.1592231 C221.607785,11.1592231 219.078449,12.4037293 217.538567,14.8917335 C215.998686,17.3807458 215.228998,21.6490642 215.228998,27.6976968 L215.228998,47.1238885 L205.042093,47.1238885 L205.042093,1.75511156 L215.352491,1.75511156 L215.352491,1.75511156 Z" id="Shape" fill="#222936"></path>
            </g>
        </g>
    </g>
</svg>