<?xml version="1.0" encoding="UTF-8"?>
<svg width="65px" height="57px" viewBox="0 0 65 57" version="1.1" xmlns="http://www.w3.org/2000/svg" xmlns:xlink="http://www.w3.org/1999/xlink">
    <!-- Generator: Sketch 43.1 (39012) - http://www.bohemiancoding.com/sketch -->
    <title>tata-logo</title>
    <desc>Created with Sketch.</desc>
    <defs></defs>
    <g id="Page-1" stroke="none" stroke-width="1" fill="none" fill-rule="evenodd">
        <path d="M55.2666,10.8662 C50.6166,9.7422 42.6646,8.2582 35.2806,8.1012 C34.5666,8.0852 34.0746,8.3142 33.7546,8.7222 C33.3596,9.2202 33.3886,11.0012 33.4006,11.7932 L33.6096,32.3492 C33.1936,32.3622 32.7726,32.3722 32.3516,32.3722 C31.9316,32.3722 31.5156,32.3602 31.0986,32.3492 L31.3086,11.7932 C31.3196,11.0012 31.3486,9.2202 30.9556,8.7222 C30.6316,8.3142 30.1436,8.0852 29.4296,8.1012 C22.0416,8.2582 14.0866,9.7422 9.4356,10.8682 C10.0156,9.7262 10.7836,8.6282 11.7366,7.6012 C13.8746,5.2892 16.8956,3.3692 20.4696,2.0432 C24.0696,0.7072 28.1766,0.0002 32.3516,0.0002 C36.5286,0.0002 40.6346,0.7072 44.2376,2.0432 C47.8086,3.3692 50.8286,5.2892 52.9676,7.6012 C53.9186,8.6282 54.6856,9.7262 55.2666,10.8662 Z M27.8584,15.3144 C27.4494,17.9514 26.5054,23.3654 24.5334,31.5154 C23.1274,31.2024 21.7644,30.8104 20.4684,30.3294 C16.8954,29.0024 13.8634,27.0904 11.7364,24.7694 C6.9204,19.5164 8.2374,14.4074 8.4444,13.5394 C15.2534,12.0004 19.8004,11.7134 24.2894,11.4664 C28.1984,11.2494 28.2584,12.7304 27.8584,15.3144 Z M55.0342,46.9882 L51.7592,56.5982 L45.5282,56.5982 L51.6392,40.4762 L58.4012,40.4762 L64.6572,56.5982 L58.3552,56.5982 L55.0342,46.9882 Z M36.8438,15.3144 C36.4428,12.7304 36.5038,11.2494 40.4118,11.4664 C44.9008,11.7134 49.4478,12.0004 56.2578,13.5394 C56.4648,14.4074 57.7818,19.5164 52.9658,24.7694 C50.8388,27.0904 47.8068,29.0024 44.2318,30.3294 C42.9378,30.8104 41.5738,31.2024 40.1688,31.5154 C38.1958,23.3654 37.2528,17.9514 36.8438,15.3144 Z M0,40.4765 L15.565,40.4765 L15.565,45.2125 L11.102,45.2125 L11.102,56.5985 L4.614,56.5985 L4.614,45.2125 L0,45.2125 L0,40.4765 Z M23.4502,46.9882 L20.1712,56.5982 L13.9412,56.5982 L20.0522,40.4762 L26.8162,40.4762 L33.0742,56.5982 L26.7662,56.5982 L23.4502,46.9882 Z M31.585,40.4765 L47.15,40.4765 L47.15,45.2125 L42.688,45.2125 L42.688,56.5985 L36.199,56.5985 L36.199,45.2125 L31.585,45.2125 L31.585,40.4765 Z" id="tata-logo" fill="#4F84C4"></path>
    </g>
</svg>