<?xml version="1.0" encoding="utf-8"?>
<!-- Generator: Adobe Illustrator 15.0.2, SVG Export Plug-In . SVG Version: 6.00 Build 0)  -->
<!DOCTYPE svg PUBLIC "-//W3C//DTD SVG 1.1//EN" "http://www.w3.org/Graphics/SVG/1.1/DTD/svg11.dtd">
<svg version="1.1" id="Layer_1" xmlns="http://www.w3.org/2000/svg" xmlns:xlink="http://www.w3.org/1999/xlink" x="0px" y="0px"
	 width="29px" height="24px" viewBox="0 0 29 24" enable-background="new 0 0 29 24" xml:space="preserve">
<g>
	<path id="path-1" fill="#FFFFFF" d="M25.6,3.7C26.8,3,27.8,1.8,28.2,0.4c-1.2,0.7-2.4,1.2-3.8,1.4C23.3,0.7,21.8,0,20.1,0
		c-3.8,0-6.7,3.6-5.8,7.3C9.3,7.1,5,4.7,2,1.1C0.5,3.8,1.2,7.3,3.9,9C2.9,9,2,8.7,1.2,8.3c-0.1,2.8,1.9,5.3,4.8,5.9
		c-0.8,0.2-1.8,0.3-2.7,0.1c0.8,2.4,3,4.101,5.6,4.101c-2.5,2-5.7,2.8-8.8,2.5C2.7,22.6,5.9,23.6,9.2,23.6
		c11.1,0,17.3-9.3,16.899-17.7C27.2,5,28.2,4,29,2.8C27.9,3.3,26.8,3.6,25.6,3.7z"/>
</g>
<title>twitter</title>
<g id="Page-1">
	<g id="twitter">
		<g id="SVGID_1_">
			<path id="path-1_1_" fill="#ffffff" d="M25.6,3.7C26.8,3,27.8,1.8,28.2,0.4c-1.2,0.7-2.4,1.2-3.8,1.4C23.3,0.7,21.8,0,20.1,0
				c-3.8,0-6.7,3.6-5.8,7.3C9.3,7.1,5,4.7,2,1.1C0.5,3.8,1.2,7.3,3.9,9C2.9,9,2,8.7,1.2,8.3c-0.1,2.8,1.9,5.3,4.8,5.9
				c-0.8,0.2-1.8,0.3-2.7,0.1c0.8,2.4,3,4.101,5.6,4.101c-2.5,2-5.7,2.8-8.8,2.5C2.7,22.6,5.9,23.6,9.2,23.6
				c11.1,0,17.3-9.3,16.899-17.7C27.2,5,28.2,4,29,2.8C27.9,3.3,26.8,3.6,25.6,3.7z"/>
		</g>
	</g>
</g>
</svg>
