<?xml version="1.0" encoding="utf-8"?>
<!-- Generator: Adobe Illustrator 15.0.2, SVG Export Plug-In . SVG Version: 6.00 Build 0)  -->
<!DOCTYPE svg PUBLIC "-//W3C//DTD SVG 1.1//EN" "http://www.w3.org/Graphics/SVG/1.1/DTD/svg11.dtd">
<svg version="1.1" id="Layer_1" xmlns="http://www.w3.org/2000/svg" xmlns:xlink="http://www.w3.org/1999/xlink" x="0px" y="0px"
	 width="250.252px" height="68.334px" viewBox="0 0 250.252 68.334" enable-background="new 0 0 250.252 68.334"
	 xml:space="preserve">
<g>
	<path fill="#222936" d="M26.39,27.422c5.823-0.016,10.012,2.518,12.76,7.607l12.098-0.033
		c-2.853-11.641-12.427-18.803-24.251-18.77c-7.373,0.02-13.82,2.861-18.905,8.241c-4.625,4.837-6.978,10.941-6.959,17.766
		c0.018,6.456,2.675,13.186,7.422,17.994c4.922,4.992,11.119,7.61,18.397,7.591c12.289-0.034,21.364-7.247,24.24-19.268l-12.1,0.033
		c-1.986,5.285-6.072,7.936-12.26,7.953c-8.006,0.022-13.942-6.149-13.965-14.432C12.844,33.554,18.746,27.443,26.39,27.422z"/>
	
		<rect x="53.894" y="1.761" transform="matrix(-1 0.0028 -0.0028 -1 118.9859 68.0489)" fill="#222936" width="11.103" height="64.694"/>
	<path fill="#222936" d="M207.888,1.349l0.055,19.746c-4.38-3.627-9.118-5.071-15.213-5.055c-6.368,0.018-12.273,2.222-16.813,6.51
		c-5.361,4.927-8.336,11.85-8.316,19.039c0.021,7.824,3.313,15.002,9.239,20.081c4.291,3.721,9.846,5.705,16.033,5.688
		c5.731-0.016,10.643-1.667,15.184-5.32l0.012,4.006l11.191-0.031l-0.18-64.694L207.888,1.349z M194.208,56.072
		c-8.646,0.024-14.762-6.237-14.785-14.334c-0.021-7.825,6.241-14.484,14.159-14.506c7.913-0.022,13.936,6.237,13.959,14.609
		C207.563,49.938,201.488,56.053,194.208,56.072z"/>
	<path fill="#222936" d="M153.744,38.532c0.033,11.828-2.312,17.933-10.594,17.955c-8.371,0.023-10.117-5.612-10.149-17.17
		l-0.061-21.927l-11.46,0.032l0.079,28.297c0.039,14.194,6.976,21.816,19.075,21.782c5.549-0.015,9.731-2.119,13.086-6.588
		l0.015,5.279l11.285-0.031l-0.136-48.86l-11.199,0.031L153.744,38.532z"/>
	<path fill="#222936" d="M110.79,22.852c-2.504-2.34-5.252-4.095-8.244-5.264c-2.991-1.165-6.257-1.743-9.794-1.733
		c-3.331,0.009-6.54,0.68-9.628,2.013c-3.089,1.331-5.864,3.234-8.325,5.708c-2.401,2.415-4.231,5.178-5.485,8.287
		c-1.255,3.111-1.878,6.392-1.868,9.841c0.009,3.419,0.628,6.666,1.855,9.74c1.228,3.073,3.035,5.887,5.42,8.437
		c2.505,2.61,5.275,4.565,8.312,5.863c3.036,1.3,6.397,1.945,10.085,1.935c3.657-0.01,7.045-0.667,10.164-1.967
		c3.118-1.304,5.892-3.221,8.324-5.755c2.431-2.505,4.252-5.304,5.462-8.401c1.21-3.094,1.812-6.516,1.801-10.263
		c-0.01-3.39-0.718-6.695-2.124-9.918C115.339,28.154,113.354,25.314,110.79,22.852z M103.267,52.244
		c-2.505,2.726-5.869,4.096-10.091,4.107c-4.281,0.012-7.674-1.31-10.179-3.963c-2.505-2.654-3.764-6.257-3.777-10.806
		c-0.012-4.252,1.272-7.727,3.851-10.424c2.58-2.699,5.921-4.054,10.024-4.065c3.984-0.011,7.297,1.311,9.935,3.963
		c2.64,2.654,3.964,6.049,3.976,10.181C107.018,45.849,105.771,49.514,103.267,52.244z"/>
</g>
</svg>
