<?xml version="1.0" encoding="UTF-8"?>
<svg width="314px" height="356px" viewBox="0 0 314 356" version="1.1" xmlns="http://www.w3.org/2000/svg" xmlns:xlink="http://www.w3.org/1999/xlink">
    <!-- Generator: Sketch 43.2 (39069) - http://www.bohemiancoding.com/sketch -->
    <title>Group 10</title>
    <desc>Created with Sketch.</desc>
    <defs>
        <polygon id="path-1" points="0 105.233522 0 0.28082487 104.95497 0.28082487 104.95497 105.233522 2.74301394e-15 105.233522"></polygon>
        <path d="M3.28878993,0.369525854 C1.47711486,0.369525854 0,1.84805266 0,3.6985959 L0,97.468992 C0,99.3004575 1.47711486,100.791703 3.28878993,100.791703 L82.1439986,100.791703 C83.9588299,100.791703 85.4296323,99.3004575 85.4296323,97.468992 L85.4296323,3.6985959 C85.4296323,1.84805266 83.9588299,0.369525854 82.1439986,0.369525854 L3.28878993,0.369525854 Z" id="path-3"></path>
        <linearGradient x1="50%" y1="0%" x2="50%" y2="100%" id="linearGradient-5">
            <stop stop-color="#FFFFFF" offset="0%"></stop>
            <stop stop-color="#000000" offset="100%"></stop>
        </linearGradient>
        <polygon id="path-6" points="0.10224537 11.6890745 13.1690174 11.6890745 13.1690174 0.68703125 0.10224537 0.68703125"></polygon>
        <polygon id="path-7" points="51.798634 0.0654858184 51.798634 51.8699552 0.000162093611 51.8699552 0.000162093611 0.0654858184"></polygon>
        <polygon id="path-9" points="0 23.745 117.14216 23.745 117.14216 0.473592722 0 0.473592722"></polygon>
        <polygon id="path-10" points="0 29.5284091 122.860689 29.5284091 122.860689 0.0626425528 0 0.0626425528"></polygon>
        <path d="M4.30450918,0.384293227 C1.92728024,0.384293227 0,2.31799781 0,4.69851956 L0,84.3971863 C0,86.7814629 1.92728024,88.7151674 4.30450918,88.7151674 L108.268905,88.7151674 C110.638635,88.7151674 112.569664,86.7814629 112.569664,84.3971863 L112.569664,4.69851956 C112.569664,2.31799781 110.638635,0.384293227 108.268905,0.384293227 L4.30450918,0.384293227 Z" id="path-12"></path>
    </defs>
    <g id="Page-1" stroke="none" stroke-width="1" fill="none" fill-rule="evenodd" opacity="0.75">
        <g id="homepage" transform="translate(-1126.000000, -2486.000000)">
            <g id="Group-10" transform="translate(1125.515625, 2486.000000)">
                <g id="lines" transform="translate(46.963560, 28.286790)" stroke-linecap="square" stroke-width="3" stroke="#FDB933" stroke-dasharray="3,7">
                    <polygon id="Line" points="230.404932 8.87212412 275.572418 163.659578 140.577458 150.972082 105.559969 0.244626675 0.50749985 47.9496125 22.8374932 177.869574 27.9124917 241.307055 69.0199796 310.834535 177.624947 273.279546 275.572418 270.742047 289.782414 172.287076 392.297384 135.747087 339.0099 73.8321049"></polygon>
                </g>
                <g id="Page-1" transform="translate(151.285281, 133.446257)">
                    <g id="Group-7" transform="translate(0.000000, 0.530612)">
                        <g id="Group-3" transform="translate(0.096374, 0.000000)">
                            <mask id="mask-2" fill="white">
                                <use xlink:href="#path-1"></use>
                            </mask>
                            <g id="Clip-2"></g>
                            <path d="M104.95497,52.7639933 C104.95497,81.7410177 81.4596245,105.233522 52.4740749,105.233522 C23.4913671,105.233522 -0.00113668822,81.7410177 -0.00113668822,52.7639933 C-0.00113668822,23.7727603 23.4913671,0.280256526 52.4740749,0.280256526 C81.4596245,0.280256526 104.95497,23.7727603 104.95497,52.7639933" id="Fill-1" fill="#7272B5" mask="url(#mask-2)"></path>
                        </g>
                        <g id="Group-6" fill="#0092C8">
                            <path d="M105.051344,52.7639933 C105.051344,81.7410177 81.5559982,105.233522 52.5704487,105.233522 C23.5877408,105.233522 0.0952370206,81.7410177 0.0952370206,52.7639933 C0.0952370206,23.7727603 23.5877408,0.280256526 52.5704487,0.280256526 C81.5559982,0.280256526 105.051344,23.7727603 105.051344,52.7639933" id="Fill-4"></path>
                        </g>
                    </g>
                    <g id="Group-381" transform="translate(20.299994, 16.166734)">
                        <polygon id="Fill-209" fill="#8C3694" points="56.6087851 70.5545915 21.8147587 71.7481142 21.638572 66.431255 56.4240732 65.2377324"></polygon>
                        <path d="M56.274473,68.8263526 L56.6410549,49.6902065 C56.6410549,49.6902065 69.0082227,31.5799214 64.9815047,17.9084039 C64.9815047,17.9084039 64.1431972,10.84957 53.4810617,3.96123941 C53.4810617,3.96123941 38.377317,-4.66622417 24.2880665,3.67422564 C24.2880665,3.67422564 13.9299951,7.8458714 10.3352186,18.0590151 C10.3352186,18.0590151 6.6011978,23.8078157 6.88252814,26.6893204 L6.52447135,31.3611089 C6.52447135,31.3611089 6.33975951,31.7049571 0.511390669,38.8945101 C0.511390669,38.8945101 -1.70515136,42.4978118 3.57760714,43.1570909 C3.57760714,43.1570909 4.86490655,43.0775228 4.93879128,44.0891753 C4.93879128,44.0891753 3.50372241,45.8140996 4.14595125,47.8231961 L4.1118506,49.8209256 C4.1118506,49.8209256 3.64296671,50.7700603 4.44433191,51.4861739 C4.44433191,51.4861739 3.29059336,54.2255925 5.6605883,55.0155908 C5.6605883,55.0155908 7.0984989,55.59246 6.23177413,58.8291797 C6.23177413,58.8291797 5.23717194,62.1369425 11.9862582,64.5126208 C11.9862582,64.5126208 20.9717786,64.5126208 22.1937184,64.1574058 C22.1937184,64.1574058 21.7646186,69.6135092 25.4304382,69.5424662 L56.274473,68.8263526 Z" id="Fill-211" fill="#FFFFFF"></path>
                        <path d="M7.90412667,22.3596749 C7.90412667,22.3596749 10.5497685,15.9658037 13.3261295,12.3085094 C16.1053322,8.65121501 13.1897269,17.6424188 13.1897269,17.6424188 L10.8651995,23.4537373 L8.42984498,25.5765026 C8.42984498,25.5765026 6.83848147,25.9715017 7.90412667,22.3596749" id="Fill-213" fill="#FFFFFF"></path>
                        <path d="M17.7182928,19.7012454 C17.7182928,28.5276294 27.4057181,35.6859234 39.3523113,35.6859234 C51.2903793,35.6859234 60.9778047,28.5276294 60.9778047,19.7012454 C60.9778047,10.8720196 51.2903793,3.71372555 39.3523113,3.71372555 C27.4057181,3.71372555 17.7182928,10.8720196 17.7182928,19.7012454" id="Fill-215" fill="#72BF44"></path>
                        <path d="M38.2528496,9.96892082 C41.3048575,11.7279458 42.3619775,15.6438368 40.6057942,18.7015281 C38.8240354,21.7563777 34.9251948,22.810656 31.8589784,21.0431058 C28.8069705,19.2783973 27.7612173,15.3710316 29.5259258,12.3104986 C31.2849508,9.25564897 35.1923166,8.21273753 38.2528496,9.96892082" id="Fill-217" fill="#F7F7F7"></path>
                        <path d="M36.42676,13.1351659 C37.7367932,13.8910635 38.1829433,15.5648369 37.4298873,16.8748701 C36.6768314,18.1820616 34.9945328,18.6367368 33.6844997,17.8779975 C32.3858334,17.1277832 31.9254746,15.4454847 32.6927392,14.1354515 C33.4401117,12.8254183 35.1082016,12.3735848 36.42676,13.1351659" id="Fill-219" fill="#19B0BF"></path>
                        <path d="M30.7157542,16.2127492 L27.0811936,15.9030017 C26.8680646,15.8859513 26.6947196,15.6870309 26.7089282,15.4596933 L26.873748,13.6466756 C26.8964818,13.4164962 27.0982439,13.2516764 27.3142147,13.2744102 L30.9601422,13.5898411 L30.7157542,16.2127492 Z" id="Fill-221" fill="#F7F7F7"></path>
                        <path d="M31.9379782,18.8325314 L28.7666181,20.6682829 C28.5904314,20.7677431 28.3375183,20.7109087 28.218166,20.5091465 L27.3144989,18.9291499 C27.2008301,18.7359129 27.2605062,18.4858415 27.4622683,18.3693309 L30.6251033,16.5477881 L31.9379782,18.8325314 Z" id="Fill-223" fill="#F7F7F7"></path>
                        <path d="M34.4080017,20.0232123 L32.8621057,23.3252916 C32.7796958,23.5298954 32.523941,23.6265139 32.3193371,23.524212 L30.6739809,22.7569475 C30.4665353,22.6660124 30.378442,22.4102576 30.4750605,22.2113371 L32.0266399,18.9120996 L34.4080017,20.0232123 Z" id="Fill-225" fill="#F7F7F7"></path>
                        <path d="M37.1232657,19.5818931 L37.7484442,23.1766696 C37.7825449,23.3926403 37.6404588,23.6029277 37.4244881,23.6427118 L35.6171538,23.9581427 C35.4040248,24.0036103 35.1908957,23.8529991 35.1482699,23.6285032 L34.5202497,20.0337267 L37.1232657,19.5818931 Z" id="Fill-227" fill="#F7F7F7"></path>
                        <path d="M39.0672867,17.6643001 L41.6560941,20.2417406 C41.8180722,20.400877 41.8180722,20.6594735 41.6560941,20.8157682 L40.3716364,22.1059093 C40.2068167,22.2650456 39.9539035,22.2650456 39.7947672,22.1059093 L37.2116432,19.5284687 L39.0672867,17.6643001 Z" id="Fill-229" fill="#F7F7F7"></path>
                        <path d="M39.5850482,14.9669389 L43.1855081,15.606326 C43.3929537,15.6262181 43.5435649,15.8421889 43.5037808,16.0723682 L43.1883499,17.874019 C43.1542492,18.0843064 42.9439619,18.240601 42.719466,18.1922917 L39.1388981,17.5671132 L39.5850482,14.9669389 Z" id="Fill-231" fill="#F7F7F7"></path>
                        <path d="M38.4540434,12.4636673 L41.7703313,10.9234548 C41.9578849,10.8211528 42.210798,10.9149296 42.301733,11.11385 L43.074681,12.7677314 C43.1656161,12.9694936 43.0803645,13.2081981 42.8729189,13.3133417 L39.5736813,14.8620794 L38.4540434,12.4636673 Z" id="Fill-233" fill="#F7F7F7"></path>
                        <path d="M36.0979729,11.0706559 L37.9195158,7.90213747 C38.038868,7.70605875 38.2804143,7.63785746 38.476493,7.76289316 L40.0621731,8.66087686 C40.2440432,8.78022912 40.3122445,9.02745881 40.2071008,9.23490441 L38.3770328,12.3948977 L36.0979729,11.0706559 Z" id="Fill-235" fill="#F7F7F7"></path>
                        <path d="M32.95503,11.3786984 L32.6253904,7.73561265 C32.6111818,7.51395844 32.7788433,7.31219628 33.006181,7.30367112 L34.8163569,7.13032617 C35.0465363,7.12180101 35.2482985,7.2866208 35.2625071,7.508275 L35.5807798,11.1513607 L32.95503,11.3786984 Z" id="Fill-237" fill="#F7F7F7"></path>
                        <path d="M30.9959478,13.5153881 L28.4469245,10.9038469 C28.3019968,10.7361854 28.2934716,10.486114 28.452608,10.3241359 L29.7654828,9.05957025 C29.9359861,8.9004339 30.1775323,8.9004339 30.3451938,9.06241197 L32.8885337,11.68532 L30.9959478,13.5153881 Z" id="Fill-239" fill="#F7F7F7"></path>
                        <g id="Group-257" transform="translate(32.167021, 12.274977)" fill="#FFFFFF">
                            <polygon id="Fill-241" points="3.00749793 3.21086005 2.83905435 3.25632758 2.19778667 0.636261231 2.38100601 0.596477143"></polygon>
                            <polygon id="Fill-243" points="2.85422412 3.30804689 0.572322518 1.8843449 0.660415855 1.74225887 2.94231746 3.1574357"></polygon>
                            <polygon id="Fill-245" points="2.91532111 3.3200251 0.306621647 3.95538247 0.261154118 3.78693889 2.88122046 3.14862637"></polygon>
                            <polygon id="Fill-247" points="1.55271611 5.56124711 1.4134718 5.47315377 2.82864863 3.18556873 2.97357638 3.27366207"></polygon>
                            <polygon id="Fill-249" points="3.62471963 5.8278005 3.45036575 5.86758459 2.81500837 3.2560434 2.98345196 3.21057587"></polygon>
                            <polygon id="Fill-251" points="5.13953578 4.71214101 2.85479246 3.30833106 2.9428858 3.15771987 5.22194568 4.57858015"></polygon>
                            <polygon id="Fill-253" points="5.53510328 2.70405352 2.91503694 3.34532119 2.88093629 3.17392246 5.4953192 2.52969963"></polygon>
                            <polygon id="Fill-255" points="2.97215552 3.27451459 2.82722777 3.18642125 4.23672116 0.90451965 4.39301579 0.995454708"></polygon>
                        </g>
                        <path d="M51.3168073,15.8021206 C53.5276659,17.0752114 54.2807218,19.9112485 53.007631,22.1221071 C51.7203316,24.3358074 48.8956614,25.0973885 46.6848028,23.8186143 C44.4711025,22.5483652 43.7066797,19.7123281 44.9911374,17.4986278 C46.2642282,15.279244 49.0974236,14.5176629 51.3168073,15.8021206" id="Fill-258" fill="#FFFFFF"></path>
                        <path d="M49.9860296,18.1027775 C50.9323225,18.637021 51.2591204,19.8504357 50.7078266,20.8109372 C50.165058,21.748705 48.9573267,22.0698194 48.0025086,21.5298925 C47.0590574,20.9785987 46.7294178,19.7651841 47.2750282,18.8188911 C47.8177968,17.8754399 49.0312115,17.5429586 49.9860296,18.1027775" id="Fill-260" fill="#42C2CA"></path>
                        <path d="M45.8553046,20.3227296 L43.2295548,20.1010754 C43.0704185,20.0840251 42.942541,19.9334139 42.9652748,19.7685941 L43.0732602,18.4642444 C43.0846271,18.3022663 43.2323965,18.1800723 43.3858494,18.1914392 L46.0314913,18.4159352 L45.8553046,20.3227296 Z" id="Fill-262" fill="#FFFFFF"></path>
                        <path d="M46.7405005,22.2099163 L44.4415486,23.5455249 C44.305146,23.6250931 44.1318011,23.5796256 44.0550746,23.4318561 L43.3844286,22.2866427 C43.299177,22.1502401 43.3503279,21.9655283 43.4867305,21.8831184 L45.7913659,20.5617183 L46.7405005,22.2099163 Z" id="Fill-264" fill="#FFFFFF"></path>
                        <path d="M48.5276586,23.0757885 L47.405179,25.4742006 C47.3455028,25.6219701 47.1664744,25.6901714 47.0243884,25.6219701 L45.8194989,25.0593094 C45.6717294,24.9939499 45.6120533,24.8177632 45.6717294,24.667152 L46.7970508,22.2715816 L48.5276586,23.0757885 Z" id="-" fill="#FFFFFF"></path>
                        <path d="M50.4841832,22.759505 L50.9445419,25.362521 C50.9672757,25.5188157 50.8649737,25.6665851 50.7086791,25.6978441 L49.4071711,25.9308651 C49.245193,25.9621241 49.0974236,25.8569804 49.0633229,25.6893189 L48.6058059,23.0891446 L50.4841832,22.759505 Z" id="Fill-268" fill="#FFFFFF"></path>
                        <path d="M51.9078852,21.3662094 L53.7777373,23.2360615 C53.8914061,23.3554138 53.8914061,23.5429674 53.7777373,23.6537945 L52.8399695,24.5972457 C52.7177755,24.6967059 52.5415889,24.7052311 52.4222366,24.5972457 L50.5552262,22.7217101 L51.9078852,21.3662094 Z" id="Fill-270" fill="#FFFFFF"></path>
                        <path d="M52.2770247,19.4125265 L54.8857241,19.8785687 C55.0363353,19.9069859 55.1500042,20.0547554 55.1187452,20.21105 L54.8914076,21.5267666 C54.8601487,21.6745361 54.7152209,21.7882049 54.5504011,21.7541043 L51.9417017,21.3022707 L52.2770247,19.4125265 Z" id="Fill-272" fill="#FFFFFF"></path>
                        <path d="M51.4611667,17.6199692 L53.8624206,16.4946479 C54.0073483,16.4236049 54.1721681,16.483281 54.2432111,16.6338922 L54.7973466,17.83594 C54.8683896,17.9837095 54.8087135,18.1542127 54.6495772,18.2195723 L52.2682153,19.3363684 L51.4611667,17.6199692 Z" id="Fill-274" fill="#FFFFFF"></path>
                        <path d="M49.7487459,16.5986549 L51.0673042,14.2997029 C51.1553976,14.1604586 51.3401094,14.1235163 51.4651451,14.1945593 L52.6217254,14.8623636 C52.7666531,14.9334066 52.8007538,15.1152767 52.7183439,15.2658879 L51.405469,17.5591564 L49.7487459,16.5986549 Z" id="Fill-276" fill="#FFFFFF"></path>
                        <path d="M47.4759378,16.8262767 L47.240075,14.1834766 C47.2258664,14.0243402 47.3480604,13.8794125 47.5100385,13.8708873 L48.8172299,13.751535 C48.9905749,13.7344847 49.1355026,13.8566787 49.1525529,14.0129733 L49.3884157,16.6529317 L47.4759378,16.8262767 Z" id="Fill-278" fill="#FFFFFF"></path>
                        <path d="M46.0522358,18.3690468 L44.2164843,16.4707774 C44.0971321,16.3571086 44.0971321,16.1752385 44.2221678,16.0558862 L45.1599356,15.1323271 C45.2849713,15.0271834 45.4696831,15.0300251 45.5890354,15.1351688 L47.4191034,17.0305964 L46.0522358,18.3690468 Z" id="Fill-280" fill="#FFFFFF"></path>
                        <g id="Group-298" transform="translate(46.375624, 17.146697)" fill="#FFFFFF">
                            <polygon id="Fill-282" points="2.70436157 2.64889348 2.57729009 2.67162725 2.1221969 0.790408245 2.24926838 0.750624157"></polygon>
                            <polygon id="Fill-284" points="2.58511318 2.71538974 0.956807308 1.69521207 1.01364172 1.59006841 2.65331448 2.61024608"></polygon>
                            <polygon id="Fill-286" points="2.64194759 2.72276867 0.75504515 3.1867273 0.718102782 3.06852128 2.61637211 2.60456264"></polygon>
                            <polygon id="Fill-288" points="1.65672308 4.34710568 1.54589598 4.28742955 2.57744054 2.63070647 2.6825842 2.69322432"></polygon>
                            <polygon id="Fill-290" points="3.15590977 4.54147937 3.03179344 4.56989657 2.55896935 2.67162725 2.68604083 2.64889348"></polygon>
                            <polygon id="Fill-292" points="4.25433983 3.73670411 2.58624987 2.71652643 2.65445116 2.61138277 4.31401596 3.63440217"></polygon>
                            <polygon id="Fill-294" points="4.53879606 2.28167632 2.64336845 2.73972466 2.61495125 2.62151864 4.51322057 2.15756"></polygon>
                            <polygon id="Fill-296" points="2.68201585 2.69322432 2.57687219 2.63354819 3.59989159 0.979666833 3.70219353 1.04218469"></polygon>
                        </g>
                        <path d="M38.2528496,9.96892082 C41.3048575,11.7279458 42.3619775,15.6438368 40.6057942,18.7015281 C38.8240354,21.7563777 34.9251948,22.810656 31.8589784,21.0431058 C28.8069705,19.2783973 27.7612173,15.3710316 29.5259258,12.3104986 C31.2849508,9.25564897 35.1923166,8.21273753 38.2528496,9.96892082" id="Fill-299" fill="#FFFFFF"></path>
                        <path d="M36.42676,13.1351659 C37.7367932,13.8910635 38.1829433,15.5648369 37.4298873,16.8748701 C36.6768314,18.1820616 34.9945328,18.6367368 33.6844997,17.8779975 C32.3858334,17.1277832 31.9254746,15.4454847 32.6927392,14.1354515 C33.4401117,12.8254183 35.1082016,12.3735848 36.42676,13.1351659" id="Fill-301" fill="#42C2CA"></path>
                        <path d="M30.7157542,16.2127492 L27.0811936,15.9030017 C26.8680646,15.8859513 26.6947196,15.6870309 26.7089282,15.4596933 L26.873748,13.6466756 C26.8964818,13.4164962 27.0982439,13.2516764 27.3142147,13.2744102 L30.9601422,13.5898411 L30.7157542,16.2127492 Z" id="Fill-303" fill="#FFFFFF"></path>
                        <path d="M31.9379782,18.8325314 L28.7666181,20.6682829 C28.5904314,20.7677431 28.3375183,20.7109087 28.218166,20.5091465 L27.3144989,18.9291499 C27.2008301,18.7359129 27.2605062,18.4858415 27.4622683,18.3693309 L30.6251033,16.5477881 L31.9379782,18.8325314 Z" id="Fill-305" fill="#FFFFFF"></path>
                        <path d="M34.4080017,20.0232123 L32.8621057,23.3252916 C32.7796958,23.5298954 32.523941,23.6265139 32.3193371,23.524212 L30.6739809,22.7569475 C30.4665353,22.6660124 30.378442,22.4102576 30.4750605,22.2113371 L32.0266399,18.9120996 L34.4080017,20.0232123 Z" id="Fill-307" fill="#FFFFFF"></path>
                        <path d="M37.1232657,19.5818931 L37.7484442,23.1766696 C37.7825449,23.3926403 37.6404588,23.6029277 37.4244881,23.6427118 L35.6171538,23.9581427 C35.4040248,24.0036103 35.1908957,23.8529991 35.1482699,23.6285032 L34.5202497,20.0337267 L37.1232657,19.5818931 Z" id="Fill-309" fill="#FFFFFF"></path>
                        <path d="M39.0672867,17.6643001 L41.6560941,20.2417406 C41.8180722,20.400877 41.8180722,20.6594735 41.6560941,20.8157682 L40.3716364,22.1059093 C40.2068167,22.2650456 39.9539035,22.2650456 39.7947672,22.1059093 L37.2116432,19.5284687 L39.0672867,17.6643001 Z" id="Fill-311" fill="#FFFFFF"></path>
                        <path d="M39.5850482,14.9669389 L43.1855081,15.606326 C43.3929537,15.6262181 43.5435649,15.8421889 43.5037808,16.0723682 L43.1883499,17.874019 C43.1542492,18.0843064 42.9439619,18.240601 42.719466,18.1922917 L39.1388981,17.5671132 L39.5850482,14.9669389 Z" id="Fill-313" fill="#FFFFFF"></path>
                        <path d="M38.4540434,12.4636673 L41.7703313,10.9234548 C41.9578849,10.8211528 42.210798,10.9149296 42.301733,11.11385 L43.074681,12.7677314 C43.1656161,12.9694936 43.0803645,13.2081981 42.8729189,13.3133417 L39.5736813,14.8620794 L38.4540434,12.4636673 Z" id="Fill-315" fill="#FFFFFF"></path>
                        <path d="M36.0979729,11.0706559 L37.9195158,7.90213747 C38.038868,7.70605875 38.2804143,7.63785746 38.476493,7.76289316 L40.0621731,8.66087686 C40.2440432,8.78022912 40.3122445,9.02745881 40.2071008,9.23490441 L38.3770328,12.3948977 L36.0979729,11.0706559 Z" id="Fill-317" fill="#FFFFFF"></path>
                        <path d="M32.95503,11.3786984 L32.6253904,7.73561265 C32.6111818,7.51395844 32.7788433,7.31219628 33.006181,7.30367112 L34.8163569,7.13032617 C35.0465363,7.12180101 35.2482985,7.2866208 35.2625071,7.508275 L35.5807798,11.1513607 L32.95503,11.3786984 Z" id="Fill-319" fill="#FFFFFF"></path>
                        <path d="M30.9959478,13.5153881 L28.4469245,10.9038469 C28.3019968,10.7361854 28.2934716,10.486114 28.452608,10.3241359 L29.7654828,9.05957025 C29.9359861,8.9004339 30.1775323,8.9004339 30.3451938,9.06241197 L32.8885337,11.68532 L30.9959478,13.5153881 Z" id="Fill-321" fill="#FFFFFF"></path>
                        <g id="Group-339" transform="translate(32.167021, 12.274977)" fill="#FFFFFF">
                            <polygon id="Fill-323" points="3.00749793 3.21086005 2.83905435 3.25632758 2.19778667 0.636261231 2.38100601 0.596477143"></polygon>
                            <polygon id="Fill-325" points="2.85422412 3.30804689 0.572322518 1.8843449 0.660415855 1.74225887 2.94231746 3.1574357"></polygon>
                            <polygon id="Fill-327" points="2.91532111 3.3200251 0.306621647 3.95538247 0.261154118 3.78693889 2.88122046 3.14862637"></polygon>
                            <polygon id="Fill-329" points="1.55271611 5.56124711 1.4134718 5.47315377 2.82864863 3.18556873 2.97357638 3.27366207"></polygon>
                            <polygon id="Fill-331" points="3.62471963 5.8278005 3.45036575 5.86758459 2.81500837 3.2560434 2.98345196 3.21057587"></polygon>
                            <polygon id="Fill-333" points="5.13953578 4.71214101 2.85479246 3.30833106 2.9428858 3.15771987 5.22194568 4.57858015"></polygon>
                            <polygon id="Fill-335" points="5.53510328 2.70405352 2.91503694 3.34532119 2.88093629 3.17392246 5.4953192 2.52969963"></polygon>
                            <polygon id="Fill-337" points="2.97215552 3.27451459 2.82722777 3.18642125 4.23672116 0.90451965 4.39301579 0.995454708"></polygon>
                        </g>
                        <path d="M42.589031,24.2190127 C44.4418328,25.2846579 45.0897451,27.6489694 44.0155747,29.5017712 C42.9442461,31.3630981 40.5770928,31.9939601 38.7214493,30.9283149 C36.8601224,29.8569862 36.2264187,27.4983582 37.3062725,25.6341895 C38.3633925,23.7870712 40.7362292,23.1420006 42.589031,24.2190127" id="Fill-340" fill="#FFFFFF"></path>
                        <path d="M41.4901377,26.1340482 C42.2772942,26.5887234 42.5557829,27.6117428 42.0897407,28.4045829 C41.6379071,29.1888977 40.6177294,29.4759115 39.8220477,29.0212362 C39.0320494,28.5438272 38.7649276,27.5293329 39.2224447,26.7364929 C39.6771199,25.9464946 40.6887725,25.668006 41.4901377,26.1340482" id="Fill-342" fill="#42C2CA"></path>
                        <path d="M38.0294904,27.9987852 L35.8271569,27.8112316 C35.6907544,27.8027065 35.5856107,27.6890376 35.5941359,27.5441099 L35.6964378,26.4557309 C35.7078047,26.3051197 35.8271569,26.211343 35.9578761,26.2170264 L38.1602095,26.4074217 L38.0294904,27.9987852 Z" id="Fill-344" fill="#FFFFFF"></path>
                        <path d="M38.7649276,29.5861703 L36.8439246,30.697283 C36.7302557,30.7654843 36.5796445,30.7228585 36.5114433,30.5978228 L35.9573077,29.6486881 C35.8919482,29.5350193 35.9232071,29.3787247 36.0539262,29.3133651 L37.9635625,28.2136193 L38.7649276,29.5861703 Z" id="Fill-346" fill="#FFFFFF"></path>
                        <path d="M40.2676295,30.3076831 L39.3241783,32.3167796 C39.2730273,32.4332901 39.1195744,32.4958079 38.9945387,32.4304484 L37.9999365,31.9729314 C37.8720591,31.9075718 37.8152246,31.7569606 37.8805842,31.6347666 L38.8098268,29.6285119 L40.2676295,30.3076831 Z" id="Fill-348" fill="#FFFFFF"></path>
                        <path d="M41.9007663,30.0468132 L42.290082,32.2235711 C42.309974,32.3514485 42.2247224,32.4764842 42.0797947,32.4935346 L40.9999409,32.6981385 C40.8635383,32.7208722 40.7356608,32.6356206 40.7157688,32.4935346 L40.3236114,30.3139349 L41.9007663,30.0468132 Z" id="Fill-350" fill="#FFFFFF"></path>
                        <path d="M43.0843429,28.8785819 L44.6558143,30.4415282 C44.741066,30.5466718 44.7552746,30.697283 44.6558143,30.7910598 L43.8743412,31.5753747 C43.7805644,31.6719932 43.6214281,31.6719932 43.5248096,31.5753747 L41.9590215,30.0039032 L43.0843429,28.8785819 Z" id="Fill-352" fill="#FFFFFF"></path>
                        <path d="M43.3992055,27.235499 L45.5901721,27.6333399 C45.7152078,27.6390234 45.8033011,27.7754259 45.7748839,27.9203537 L45.5901721,29.0002075 C45.5560714,29.1422935 45.4395609,29.2247034 45.3088417,29.1962862 L43.1264003,28.8183374 L43.3992055,27.235499 Z" id="Fill-354" fill="#FFFFFF"></path>
                        <path d="M42.719466,25.7259771 L44.7228789,24.7882093 C44.8450729,24.7342166 44.9928424,24.7882093 45.0354682,24.9104033 L45.5185607,25.9106889 C45.5697117,26.021516 45.5185607,26.1806524 45.3963667,26.2403285 L43.390112,27.1752546 L42.719466,25.7259771 Z" id="Fill-356" fill="#FFFFFF"></path>
                        <path d="M41.2832604,24.8740293 L42.3915314,22.9615513 C42.456891,22.8336739 42.6160273,22.8080984 42.7296962,22.8762997 L43.687356,23.4190683 C43.8010248,23.4872696 43.8464923,23.6407226 43.778291,23.7629165 L42.6671783,25.6810779 L41.2832604,24.8740293 Z" id="Fill-358" fill="#FFFFFF"></path>
                        <path d="M39.3838544,25.068403 L39.1820922,22.8603861 C39.1735671,22.7268252 39.2815524,22.6046312 39.4094299,22.5989478 L40.5120174,22.505171 C40.64842,22.4881207 40.770614,22.5875809 40.7848226,22.7211418 L40.9695345,24.9291586 L39.3838544,25.068403 Z" id="Fill-360" fill="#FFFFFF"></path>
                        <path d="M38.1877742,26.3613858 L36.6504034,24.772864 C36.5594683,24.6734038 36.5594683,24.5256343 36.6504034,24.4318576 L37.4460851,23.6475427 C37.5427036,23.5622911 37.70184,23.5622911 37.8013002,23.6532261 L39.3528796,25.2445896 L38.1877742,26.3613858 Z" id="Fill-362" fill="#FFFFFF"></path>
                        <g id="Group-380" transform="translate(38.865462, 25.671859)" fill="#FFFFFF">
                            <polygon id="Fill-364" points="1.86333964 1.8830498 1.75695422 1.911467 1.3757398 0.322945215 1.48212522 0.303053171"></polygon>
                            <polygon id="Fill-366" points="1.76988644 1.95854695 0.391651972 1.09272172 0.439961221 1.00325311 1.82387913 1.87196443"></polygon>
                            <polygon id="Fill-368" points="1.80455543 1.94783267 0.216033642 2.34086769 0.198983319 2.24925802 1.78466338 1.8444024"></polygon>
                            <polygon id="Fill-370" points="0.982431078 3.30646762 0.89349982 3.25247493 1.75699365 1.87139874 1.84879366 1.93391659"></polygon>
                            <polygon id="Fill-372" points="2.23992373 3.47015072 2.13649346 3.49288449 1.74345844 1.91004614 1.84984386 1.88162894"></polygon>
                            <polygon id="Fill-374" points="3.153236 2.81333649 1.76931809 1.94410516 1.82331078 1.85804265 3.20722869 2.72440523"></polygon>
                            <polygon id="Fill-376" points="3.39051967 1.56704331 1.8048396 1.96303348 1.78494756 1.85960321 3.3677859 1.47838879"></polygon>
                            <polygon id="Fill-378" points="1.83981452 1.9327799 1.74828936 1.87310377 2.61205804 0.486344146 2.7035832 0.546020278"></polygon>
                        </g>
                    </g>
                </g>
                <g id="tab" transform="translate(290.882510, 149.773489)">
                    <g transform="translate(0.331579, 0.200981)">
                        <path d="M9.46868501,13.8814063 C9.46868501,13.8814063 8.7553774,11.0992322 13.2403779,10.7017787 L91.5811214,10.7017787 C91.5811214,10.7017787 94.8762238,10.8321434 94.8951611,14.011771 L94.8951611,108.077872 C94.8951611,108.077872 94.7815369,110.933178 91.7484015,111.225704 L12.1861976,111.225704 C12.1861976,111.225704 9.46868501,110.990411 9.46868501,108.077872 L9.46868501,13.8814063 Z" id="Fill-1" fill="#E0F7FF"></path>
                        <g id="Group-5" transform="translate(0.000000, 0.895754)">
                            <mask id="mask-4" fill="white">
                                <use xlink:href="#path-3"></use>
                            </mask>
                            <use id="Clip-4" fill="#D4D4D4" xlink:href="#path-3"></use>
                        </g>
                        <g id="Group-13" transform="translate(3.031579, 4.967826)">
                            <path d="M76.0650812,87.727326 L3.30139321,87.727326 C1.63174842,87.727326 0.26194532,86.4363972 0.26194532,84.8370446 L0.26194532,3.07610176 C0.26194532,1.49264724 1.63174842,0.185820313 3.30139321,0.185820313 L76.0650812,0.185820313 C77.7252573,0.185820313 79.0919042,1.49264724 79.0919042,3.07610176 L79.0919042,84.8370446 C79.0919042,86.4363972 77.7252573,87.727326 76.0650812,87.727326 Z" id="Fill-6" fill="#FFFFFF"></path>
                            <path d="M41.9538279,92.4904081 C41.9538279,93.746361 40.9406786,94.7860992 39.6718748,94.7860992 C38.4535707,94.7860992 37.4341089,93.746361 37.4341089,92.4904081 C37.4341089,91.2471737 38.4535707,90.2296929 39.6718748,90.2296929 C40.9406786,90.2296929 41.9538279,91.2471737 41.9538279,92.4904081" id="Fill-8" fill="#FFFFFF"></path>
                            <polygon id="Fill-10" fill="#0092C8" points="5.61648669 79.6736474 18.9073642 79.6736474 18.9073642 68.2746826 5.61648669 68.2746826"></polygon>
                            <polygon id="Fill-12" fill="#BEDC8F" points="5.61648669 58.3542447 18.9073642 58.3542447 18.9073642 46.9521003 5.61648669 46.9521003"></polygon>
                        </g>
                        <g id="Fill-14" transform="translate(8.544067, 30.604123)">
                            <g>
                                <use fill="url(#linearGradient-5)" xlink:href="#path-6"></use>
                                <use fill="#FDB933" xlink:href="#path-6"></use>
                            </g>
                        </g>
                        <g id="Group-25" transform="translate(8.211138, 10.434637)">
                            <polygon id="Fill-16" fill="#E66E3D" points="0.913517962 17.1102649 66.3421313 17.1102649 66.3421313 13.7303208 0.913517962 13.7303208"></polygon>
                            <polygon id="Fill-18" fill="#FCC016" points="18.3327421 30.9575429 66.3421313 30.9575429 66.3421313 22.2072079 18.3327421 22.2072079"></polygon>
                            <polygon id="Fill-19" fill="#BEDC8F" points="18.3327421 51.4756795 66.3421313 51.4756795 66.3421313 42.8111944 18.3327421 42.8111944"></polygon>
                            <polygon id="Fill-20" fill="#0092C8" points="18.3327421 72.890471 66.3421313 72.890471 66.3421313 64.1274175 18.3327421 64.1274175"></polygon>
                            <polygon id="Fill-21" fill="#0092C8" points="0.913517962 9.72399011 66.3421313 9.72399011 66.3421313 6.34404602 0.913517962 6.34404602"></polygon>
                            <polygon id="Fill-22" fill="#72BF44" points="0.913517962 38.5218768 66.3421313 38.5218768 66.3421313 35.1419327 0.913517962 35.1419327"></polygon>
                            <polygon id="Fill-23" fill="#436291" points="0.913517962 59.4883409 66.3421313 59.4883409 66.3421313 56.1083968 0.913517962 56.1083968"></polygon>
                            <polygon id="Fill-24" fill="#0092C8" points="19.6836079 2.54121147 49.307967 2.54121147 49.307967 0.054742726 19.6836079 0.054742726"></polygon>
                        </g>
                    </g>
                </g>
                <g id="Page-1" transform="translate(0.062800, 34.269869)">
                    <g id="Group-5" transform="translate(0.000000, 0.164657)" fill="#FDB933">
                        <path d="M31.059692,15.1995076 C31.1665412,15.5940278 30.8816099,15.9748495 30.4843499,16.0652604 L27.2185987,16.4816985 C27.2240781,17.2378624 27.1418864,17.9008756 26.8569551,18.5803272 L29.7528436,20.1008741 C30.1336652,20.2789562 30.2322953,20.7638874 30.0405146,21.1501885 L28.5309266,24.046077 C28.3336664,24.4405972 27.9583242,24.5310081 27.5747628,24.3501863 L24.7802442,22.92279 C24.3007924,23.509091 23.7309298,24.0899125 23.1665466,24.5748437 L24.6213402,27.352924 C24.8158606,27.7255265 24.7172305,28.1967591 24.3227102,28.3858001 L21.3583287,29.9584017 C20.977507,30.0542921 20.5966853,29.9474428 20.3994252,29.5666212 L18.851481,26.6953902 C18.3638101,26.9008696 17.8788789,27.015938 17.3172355,27.0981297 C17.1254548,27.1036091 16.835044,27.2022392 16.6377839,27.1227872 L16.27888,30.3693604 C16.1829897,30.7666204 15.8925789,31.048812 15.4213463,30.9474422 L12.1446362,30.5775794 C11.7665543,30.4816891 11.4734038,30.1118263 11.4679243,29.7200457 L11.928198,26.5721027 C11.2542259,26.3721028 10.498062,25.9912811 9.90628156,25.6104595 L7.71724194,28.0323756 C7.43231062,28.3145672 6.95833834,28.3090878 6.6706673,28.0323756 L4.25423057,25.8351168 C3.96381981,25.5529253 3.96108008,25.0679941 4.12820326,24.7775833 L6.3419004,22.366626 C5.85422949,21.8049826 5.46792838,21.1337501 5.26518879,20.4652574 L2.09532791,21.144709 C1.62135563,21.2460788 1.24327369,20.9529283 1.23779424,20.5638875 L0.454233125,17.331013 C0.355603054,16.9447119 0.635054921,16.536493 1.02135603,16.4625204 L4.19121691,15.7721099 C4.18025802,14.9858091 4.26244974,14.2296452 4.36107981,13.5447142 L1.37752018,12.3173177 C0.985739617,12.1364959 0.791219199,11.728277 0.988479341,11.3748526 L2.21039633,8.29266289 C2.30354695,7.88992343 2.78025896,7.70910164 3.17751896,7.88170426 L6.16381833,9.12553904 C6.62957144,8.35841627 7.19669434,7.67622495 7.96655684,7.0817048 L6.31724288,4.60499414 C6.12272246,4.20773413 6.22409226,3.83513164 6.50902357,3.55294005 L9.3665559,1.81321519 C9.66792556,1.60499615 10.1473773,1.70362622 10.3364183,1.97759864 L11.9829925,4.58581607 C12.6569646,4.37759703 13.4295669,4.18855606 14.1912102,4.06526847 L14.5747716,4.07896709 L15.0323055,0.985818488 C15.0295658,0.602257102 15.4131272,0.317325787 15.802168,0.42417503 L19.1528507,0.884448693 C19.5555901,0.876229521 19.8514804,1.25705118 19.7446311,1.64061257 L19.3857272,4.61595303 C20.2460006,4.89266518 21.0103837,5.26800739 21.7802462,5.75567829 L24.1638062,3.54472088 C24.4514773,3.24609094 24.930929,3.2296526 25.2322987,3.52280308 L27.4569547,6.01047264 C27.7309271,6.28992451 27.7446257,6.78581459 27.4596944,6.96663638 L25.1665453,9.09266235 C25.8432571,9.87622347 26.3336678,10.725538 26.629558,11.6734825 L29.7829805,11.2789623 C30.265172,11.2597842 30.5583225,11.4515649 30.6542128,11.9255372 L31.059692,15.1995076 Z" id="Fill-3"></path>
                    </g>
                    <path d="M16.4040854,20.6825176 C13.6835393,21.0633392 11.1766917,19.1729295 10.8150481,16.4332054 C10.4451853,13.715399 12.3492936,11.2058116 15.0534014,10.8523872 C17.7903859,10.4797847 20.2972335,12.3674547 20.6506579,15.1126583 C21.0205207,17.8195058 19.1191521,20.3126548 16.4040854,20.6825176 Z" id="Fill-6" fill="#436291"></path>
                    <path d="M74.0887042,37.6351089 C74.2448684,38.2734646 73.7736359,38.925519 73.1434993,39.0789436 L67.7325441,39.7474363 C67.7544618,41.0186683 67.6092565,42.133736 67.1298047,43.2515435 L71.9215823,45.7611308 C72.5681572,46.0789389 72.7188421,46.8570205 72.4092532,47.5035954 L69.888707,52.2926333 C69.5873373,52.9337288 68.9572008,53.0953725 68.3270642,52.7830439 L63.6996701,50.418662 C62.8969309,51.3748257 61.951726,52.3501675 61.0010417,53.1446875 L63.411999,57.7337255 C63.7435056,58.3693415 63.5818619,59.1529027 62.9489856,59.4953682 L58.0366602,62.0515309 C57.3983044,62.2159143 56.776387,62.0734486 56.4448804,61.4405724 L53.8914575,56.6953701 C53.0941977,57.0104384 52.296938,57.1474246 51.3380345,57.3282464 C51.025706,57.3474244 50.5435145,57.4898901 50.231186,57.3446847 L49.6229672,62.7446811 C49.4695426,63.3857765 48.9983101,63.867968 48.2010503,63.7200229 L42.7791362,63.1063247 C42.1435202,62.9501604 41.6805068,62.3200238 41.6750273,61.692627 L42.4257118,56.4296168 C41.3298221,56.1227677 40.0284531,55.4926312 39.0805085,54.8816727 L35.450374,58.8597522 C34.9764017,59.3529025 34.1818817,59.3419436 33.7133888,58.8898891 L29.7133915,55.2350971 C29.2312001,54.7638645 29.2284604,53.974824 29.5435286,53.4898928 L33.1709235,49.5090735 C32.3681843,48.5474303 31.7188696,47.4488009 31.3928425,46.3364729 L26.162709,47.4816776 C25.3599698,47.6405816 24.7407921,47.1666094 24.732573,46.5309933 L23.4147656,41.1556545 C23.2586014,40.5172988 23.7243545,39.8734636 24.3599705,39.6953815 L29.6065423,38.5556562 C29.6010628,37.2926434 29.7490079,36.0159319 29.8887339,34.9063436 L24.9654495,32.8679888 C24.3188746,32.5584 23.9901077,31.9118251 24.3188746,31.2789488 L26.3490102,26.1885413 C26.510654,25.5529253 27.2942151,25.2159392 27.9216119,25.5447061 L32.8750332,27.5748417 C33.6531149,26.30087 34.6120184,25.1803228 35.8722915,24.2214193 L33.1462659,20.111833 C32.8120196,19.4597787 32.9791428,18.8378613 33.4503753,18.3584095 L38.1873584,15.4652608 C38.6750293,15.1501925 39.4695494,15.2926582 39.7928368,15.761151 L42.5133829,20.0460796 C43.6394096,19.7255319 44.9133813,19.3830664 46.1572161,19.2269021 L46.7983116,19.2186829 L47.5599549,14.1173165 C47.5626946,13.4871799 48.2037901,13.0323857 48.8284472,13.1556733 L54.3983064,13.9310153 C55.028443,13.9310153 55.5188536,14.569371 55.3599496,15.1967678 L54.7489911,20.1145727 C56.1763874,20.5912848 57.4476195,21.224161 58.7352898,21.9885441 L62.6887118,18.3173137 C63.1572047,17.8515606 63.9462452,17.8460811 64.4284367,18.3173137 L68.1161054,22.4323794 C68.5955572,22.8981325 68.5900777,23.6789539 68.1215849,24.0132003 L64.3352861,27.541965 C65.4476141,28.7967587 66.2448738,30.2296344 66.7407639,31.813195 L71.9928152,31.1364831 C72.7845954,31.1337434 73.2585677,31.4488117 73.414732,32.2515509 L74.0887042,37.6351089 Z" id="Fill-11" fill="#0092C8"></path>
                    <path d="M56.8583048,37.2044243 C57.4692633,41.7030514 54.3295394,45.8455144 49.8363917,46.4509934 C45.324066,47.1030478 41.181603,43.9140088 40.5733842,39.4181214 C39.9569463,34.9331929 43.1268072,30.7496341 47.6062562,30.1523742 C52.1185819,29.5359363 56.2637846,32.6783999 56.8583048,37.2044243" id="Fill-13" fill="#436291"></path>
                </g>
                <g id="Page-1" transform="translate(128.702755, 0.003483)">
                    <g id="Group-3" transform="translate(0.000000, 0.723482)">
                        <mask id="mask-8" fill="white">
                            <use xlink:href="#path-7"></use>
                        </mask>
                        <g id="Clip-2"></g>
                        <path d="M51.7987961,25.9777703 C51.7987961,40.2728057 40.209103,51.8706035 25.9011,51.8706035 C11.5995808,51.8706035 0.000162093611,40.2728057 0.000162093611,25.9777703 C0.000162093611,11.6681464 11.5995808,0.0654858184 25.9011,0.0654858184 C40.209103,0.0654858184 51.7987961,11.6681464 51.7987961,25.9777703" id="Fill-1" fill="#FDB933" mask="url(#mask-8)"></path>
                    </g>
                    <path d="M24.183394,15.3561582 C24.1509753,14.2409541 24.2239174,13.1662735 24.4200507,12.1564303 C24.6080793,11.1579337 24.8998478,10.0800112 25.3050818,8.96804899 C25.9275213,8.85134159 26.5710329,8.74435981 27.2680354,8.70221547 C27.9601751,8.66007113 28.5550587,8.61306399 29.0932095,8.61306399 C29.6605371,8.61306399 30.2619044,8.66007113 30.9264882,8.70221547 C31.6024186,8.74435981 32.224858,8.85134159 32.7873228,8.96804899 C32.7873228,10.0800112 32.6868248,11.1579337 32.4858287,12.188849 C32.2783489,13.2213853 31.9946851,14.2749938 31.5699998,15.3561582 C30.9540441,15.461519 30.3089115,15.5409449 29.6605371,15.5668798 C28.9797439,15.5944358 28.3735138,15.6057823 27.8256374,15.6057823 C27.3134216,15.6057823 26.7136753,15.5944358 26.0409868,15.5668798 C25.3650564,15.5409449 24.7247867,15.461519 24.183394,15.3561582 L24.183394,15.3561582 Z M22.6986166,24.7770388 L19.4697119,24.7770388 C19.4697119,24.6651942 19.4697119,24.5744217 19.4486397,24.4755446 C19.4259466,24.3863932 19.4259466,24.2729276 19.4259466,24.1497365 C19.4259466,23.3133335 19.5118562,22.5352841 19.6869173,21.8155885 C19.8619784,21.0813045 20.1018769,20.3470204 20.4422735,19.5689711 L30.7951924,19.5689711 L26.1285173,44.4649286 C24.8252847,44.6480944 23.5982361,44.7696646 22.4360249,44.7696646 C21.3791746,44.7696646 20.2558659,44.6480944 19.0126079,44.4649286 L22.6986166,24.7770388 Z" id="Fill-4" fill="#FFFFFF"></path>
                </g>
                <g id="((0))" transform="translate(309.108891, 285.646662)" fill="#FDB933">
                    <g id="Group-4">
                        <path d="M18.7735907,14.285614 C18.7735907,16.5768421 16.7957562,18.4680702 14.3501656,18.4680702 C11.9193075,18.4680702 9.94515608,16.5768421 9.94515608,14.285614 C9.94515608,11.9698246 11.9193075,10.0891228 14.3501656,10.0891228 C16.7957562,10.0891228 18.7735907,11.9698246 18.7735907,14.285614" id="Fill-1"></path>
                        <path d="M14.349429,7.32315789 C10.3164144,7.32315789 7.03843911,10.4635088 7.03843911,14.2845614 C7.03843911,18.1091228 10.3164144,21.2389474 14.349429,21.2389474 C18.3824435,21.2389474 21.6604188,18.1091228 21.6604188,14.2845614 C21.6604188,10.4635088 18.3824435,7.32315789 14.349429,7.32315789 M14.349429,23.4178947 C9.06415418,23.4178947 4.74385639,19.3126316 4.74385639,14.2845614 C4.74385639,9.2354386 9.06415418,5.13017544 14.349429,5.13017544 C19.6678518,5.13017544 23.9550015,9.2354386 23.9550015,14.2845614 C23.9550015,19.3126316 19.6678518,23.4178947 14.349429,23.4178947" id="Fill-3"></path>
                        <path d="M14.349429,2.21754386 C7.71613288,2.21754386 2.29458271,7.62807018 2.29458271,14.2842105 C2.29458271,20.922807 7.71613288,26.3438596 14.349429,26.3438596 C21.0158731,26.3438596 26.4190077,20.922807 26.4190077,14.2842105 C26.4190077,7.62807018 21.0158731,2.21754386 14.349429,2.21754386 M14.349429,28.5473684 C6.43072458,28.5473684 0,22.1508772 0,14.2842105 C0,6.4 6.43072458,0 14.349429,0 C22.2828658,0 28.7356891,6.4 28.7356891,14.2842105 C28.7356891,22.1508772 22.2828658,28.5473684 14.349429,28.5473684" id="Fill-5"></path>
                    </g>
                </g>
                <g id="((0))" transform="translate(102.996335, 327.373656)" fill="#FDB933">
                    <g id="Group-4">
                        <path d="M18.7735907,14.285614 C18.7735907,16.5768421 16.7957562,18.4680702 14.3501656,18.4680702 C11.9193075,18.4680702 9.94515608,16.5768421 9.94515608,14.285614 C9.94515608,11.9698246 11.9193075,10.0891228 14.3501656,10.0891228 C16.7957562,10.0891228 18.7735907,11.9698246 18.7735907,14.285614" id="Fill-1"></path>
                        <path d="M14.349429,7.32315789 C10.3164144,7.32315789 7.03843911,10.4635088 7.03843911,14.2845614 C7.03843911,18.1091228 10.3164144,21.2389474 14.349429,21.2389474 C18.3824435,21.2389474 21.6604188,18.1091228 21.6604188,14.2845614 C21.6604188,10.4635088 18.3824435,7.32315789 14.349429,7.32315789 M14.349429,23.4178947 C9.06415418,23.4178947 4.74385639,19.3126316 4.74385639,14.2845614 C4.74385639,9.2354386 9.06415418,5.13017544 14.349429,5.13017544 C19.6678518,5.13017544 23.9550015,9.2354386 23.9550015,14.2845614 C23.9550015,19.3126316 19.6678518,23.4178947 14.349429,23.4178947" id="Fill-3"></path>
                        <path d="M14.349429,2.21754386 C7.71613288,2.21754386 2.29458271,7.62807018 2.29458271,14.2842105 C2.29458271,20.922807 7.71613288,26.3438596 14.349429,26.3438596 C21.0158731,26.3438596 26.4190077,20.922807 26.4190077,14.2842105 C26.4190077,7.62807018 21.0158731,2.21754386 14.349429,2.21754386 M14.349429,28.5473684 C6.43072458,28.5473684 0,22.1508772 0,14.2842105 C0,6.4 6.43072458,0 14.349429,0 C22.2828658,0 28.7356891,6.4 28.7356891,14.2842105 C28.7356891,22.1508772 22.2828658,28.5473684 14.349429,28.5473684" id="Fill-5"></path>
                    </g>
                </g>
                <g id="Page-1" transform="translate(10.423571, 260.408457)">
                    <g transform="translate(0.000000, 0.083418)">
                        <polygon id="Fill-1" fill="#E0F7FF" points="5.71852896 29.5204981 122.856876 29.5204981 122.856876 6.24524055 5.71852896 6.24524055"></polygon>
                        <g id="Fill-2">
                            <use fill="url(#linearGradient-5)" xlink:href="#path-9"></use>
                            <use fill="#FDB933" xlink:href="#path-9"></use>
                        </g>
                        <g id="Group-26">
                            <g transform="translate(0.000000, 0.413810)">
                                <path d="M17.1929479,12.5265251 C17.1929479,14.7017977 15.4735769,16.4631047 13.3539088,16.4631047 C11.2342408,16.4631047 9.51105737,14.7017977 9.51105737,12.5265251 C9.51105737,10.3512525 11.2342408,8.58994557 13.3539088,8.58994557 C15.4735769,8.58994557 17.1929479,10.3512525 17.1929479,12.5265251 Z" id="Fill-4" fill="#E0F7FF"></path>
                                <path d="M108.72296,12.5265251 C108.72296,14.7017977 107.003589,16.4631047 104.880109,16.4631047 C102.76044,16.4631047 101.041069,14.7017977 101.041069,12.5265251 C101.041069,10.3512525 102.76044,8.58994557 104.880109,8.58994557 C107.003589,8.58994557 108.72296,10.3512525 108.72296,12.5265251" id="Fill-6" fill="#E0F7FF"></path>
                                <mask id="mask-11" fill="white">
                                    <use xlink:href="#path-10"></use>
                                </mask>
                                <g id="Clip-9"></g>
                                <polygon id="Fill-8" fill="#FFFFFF" mask="url(#mask-11)" points="11.6238632 5.54183015 13.5300395 5.54183015 13.5300395 0.0626425528 11.6238632 0.0626425528"></polygon>
                                <polygon id="Fill-10" fill="#FFFFFF" mask="url(#mask-11)" points="16.7438528 2.80028369 18.6500291 2.80028369 18.6500291 0.0626425528 16.7438528 0.0626425528"></polygon>
                                <polygon id="Fill-11" fill="#FFFFFF" mask="url(#mask-11)" points="23.1409805 2.80028369 25.0471568 2.80028369 25.0471568 0.0626425528 23.1409805 0.0626425528"></polygon>
                                <polygon id="Fill-12" fill="#FFFFFF" mask="url(#mask-11)" points="29.5419206 2.80028369 31.4480969 2.80028369 31.4480969 0.0626425528 29.5419206 0.0626425528"></polygon>
                                <polygon id="Fill-13" fill="#FFFFFF" mask="url(#mask-11)" points="39.7857122 2.80028369 41.6918885 2.80028369 41.6918885 0.0626425528 39.7857122 0.0626425528"></polygon>
                                <polygon id="Fill-14" fill="#FFFFFF" mask="url(#mask-11)" points="46.1828399 2.80028369 48.0928286 2.80028369 48.0928286 0.0626425528 46.1828399 0.0626425528"></polygon>
                                <polygon id="Fill-15" fill="#FFFFFF" mask="url(#mask-11)" points="52.58378 2.80028369 54.4899563 2.80028369 54.4899563 0.0626425528 52.58378 0.0626425528"></polygon>
                                <polygon id="Fill-16" fill="#FFFFFF" mask="url(#mask-11)" points="62.8237592 2.80028369 64.7299355 2.80028369 64.7299355 0.0626425528 62.8237592 0.0626425528"></polygon>
                                <polygon id="Fill-17" fill="#FFFFFF" mask="url(#mask-11)" points="69.2285116 2.80028369 71.1346879 2.80028369 71.1346879 0.0626425528 69.2285116 0.0626425528"></polygon>
                                <polygon id="Fill-18" fill="#FFFFFF" mask="url(#mask-11)" points="75.6294517 2.80028369 77.535628 2.80028369 77.535628 0.0626425528 75.6294517 0.0626425528"></polygon>
                                <polygon id="Fill-19" fill="#FFFFFF" mask="url(#mask-11)" points="85.8656185 2.80028369 87.7756072 2.80028369 87.7756072 0.0626425528 85.8656185 0.0626425528"></polygon>
                                <polygon id="Fill-20" fill="#FFFFFF" mask="url(#mask-11)" points="92.2703709 2.80028369 94.1765473 2.80028369 94.1765473 0.0626425528 92.2703709 0.0626425528"></polygon>
                                <polygon id="Fill-21" fill="#FFFFFF" mask="url(#mask-11)" points="98.671311 2.80028369 100.577487 2.80028369 100.577487 0.0626425528 98.671311 0.0626425528"></polygon>
                                <polygon id="Fill-22" fill="#FFFFFF" mask="url(#mask-11)" points="34.6199743 5.54183015 36.5261506 5.54183015 36.5261506 0.0626425528 34.6199743 0.0626425528"></polygon>
                                <polygon id="Fill-23" fill="#FFFFFF" mask="url(#mask-11)" points="57.6160854 5.54183015 59.5222618 5.54183015 59.5222618 0.0626425528 57.6160854 0.0626425528"></polygon>
                                <polygon id="Fill-24" fill="#FFFFFF" mask="url(#mask-11)" points="80.6160089 5.54183015 82.5221852 5.54183015 82.5221852 0.0626425528 80.6160089 0.0626425528"></polygon>
                                <polygon id="Fill-25" fill="#FFFFFF" mask="url(#mask-11)" points="103.61212 5.54183015 105.518296 5.54183015 105.518296 0.0626425528 103.61212 0.0626425528"></polygon>
                            </g>
                        </g>
                    </g>
                </g>
                <g id="Page-1" transform="translate(10.423571, 160.567676)">
                    <g transform="translate(0.000000, 0.518935)">
                        <g id="Group-15" transform="translate(0.000000, 0.005296)">
                            <mask id="mask-13" fill="white">
                                <use xlink:href="#path-12"></use>
                            </mask>
                            <use id="Clip-14" fill="#212936" xlink:href="#path-12"></use>
                        </g>
                        <g id="Group-60" transform="translate(3.951049, 4.747826)">
                            <g transform="translate(0.344335, 0.651826)">
                                <path d="M99.1682727,78.1248146 L4.71462142,78.1248146 C2.33586087,78.1248146 0.410375947,76.2017946 0.410375947,73.8251968 L0.410375947,4.34907072 C0.410375947,1.97622148 2.33586087,0.0457043228 4.71462142,0.0457043228 L99.1682727,0.0457043228 C101.543287,0.0457043228 103.468772,1.97622148 103.468772,4.34907072 L103.468772,73.8251968 C103.468772,76.2017946 101.543287,78.1248146 99.1682727,78.1248146" id="Fill-16" fill="#FFFFFF"></path>
                                <polygon id="Fill-18" fill="#C389BC" points="33.3024534 64.5328493 94.2549147 64.5328493 94.2549147 49.1149521 85.7288375 44.2380534 82.1251089 47.8554302 78.4464588 47.8554302 75.0262881 51.2703839 69.4034226 45.6400212 65.6835655 49.3623582 59.2665312 49.3623582 56.7229431 46.8170744 51.8305631 51.7127159 49.4592947 49.3398667 44.3796108 54.4229371 41.1954431 51.2403952 39.3711023 53.0659522 37.4156488 51.1129436 33.3024534 55.2288812"></polygon>
                                <polygon id="Fill-20" fill="#8C3694" points="33.3024534 60.2497252 40.4986723 60.2497252 42.8774329 57.1683949 44.7954256 59.65745 49.4143418 53.6747211 52.246378 57.3483266 55.6028653 57.3483266 57.9104503 54.3569622 60.9372827 58.2817223 64.9193653 53.1199317 67.0658689 55.9013759 69.1674196 53.1761604 73.6627151 59.0051976 78.5850637 52.6288682 82.5933689 52.6288682 85.7775366 48.4979363 94.2549147 54.7505627 94.2549147 64.5343487 33.3024534 64.5343487"></polygon>
                                <path d="M16.6136687,28.0865597 C16.6136687,38.1027574 24.7239311,46.2221752 34.7334558,46.2221752 L34.7334558,28.0865597 L16.6136687,28.0865597 Z" id="Fill-22" fill="#C389BC"></path>
                                <path d="M34.8390952,8.69217203 C24.8370627,8.69217203 16.7230542,16.8115898 16.7230542,26.8277875 L34.8390952,26.8277875 L34.8390952,8.69217203 Z" id="Fill-24" fill="#8C3694"></path>
                                <path d="M35.6437531,46.2218004 C45.6570239,46.2218004 53.7635402,38.1023826 53.7635402,28.0861848 L35.6437531,28.0861848 L35.6437531,46.2218004 Z" id="Fill-26" fill="#E66E3D"></path>
                                <path d="M35.6437531,9.03966511 L35.6437531,27.1715321 L53.7635402,27.1715321 C53.7635402,17.1628315 45.6570239,9.03966511 35.6437531,9.03966511" id="Fill-28" fill="#0092C8"></path>
                                <path d="M9.12862703,46.3829892 L9.12862703,63.6002033 C9.12862703,64.7172793 10.9304913,65.6206863 13.1631548,65.6206863 C15.3883261,65.6206863 17.1976825,64.7172793 17.1976825,63.6002033 L17.1976825,46.3829892 L12.681981,46.3829892 L9.12862703,46.3829892 Z" id="Fill-30" fill="#436291"></path>
                                <path d="M17.1969333,46.3829892 C17.1969333,47.4963165 15.3875768,48.3997236 13.1624056,48.3997236 C10.9297421,48.3997236 9.12787781,47.4963165 9.12787781,46.3829892 C9.12787781,45.2621646 10.9297421,44.3625062 13.1624056,44.3625062 C15.3875768,44.3625062 17.1969333,45.2621646 17.1969333,46.3829892" id="Fill-32" fill="#0092C8"></path>
                                <path d="M21.1718984,54.9927208 L21.1718984,63.5994536 C21.1718984,64.7165295 22.9812548,65.6199366 25.2101722,65.6199366 C27.4390896,65.6199366 29.2446999,64.7165295 29.2446999,63.5994536 L29.2446999,54.9927208 L21.1718984,54.9927208 Z" id="Fill-34" fill="#72BF44"></path>
                                <path d="M29.2435761,54.9927208 C29.2435761,56.1060482 27.4417118,57.0094552 25.2090484,57.0094552 C22.9838771,57.0094552 21.1707745,56.1060482 21.1707745,54.9927208 C21.1707745,53.8756449 22.9838771,52.9722378 25.2090484,52.9722378 C27.4417118,52.9722378 29.2435761,53.8756449 29.2435761,54.9927208" id="Fill-36" fill="#BEDC8F"></path>
                                <path d="M42.6365599,19.637642 L52.3051914,9.97006192 L42.6365599,19.637642 Z" id="Stroke-38" stroke="#0895A3" stroke-width="0.191"></path>
                                <path d="M52.303693,10.8299855 L71.0490754,10.8299855 L52.303693,10.8299855 Z" id="Stroke-40" stroke="#0895A3" stroke-width="0.191"></path>
                                <path d="M45.6637669,38.2268353 L70.0582373,38.2268353 L45.6637669,38.2268353 Z" id="Stroke-42" stroke="#D46237" stroke-width="0.191"></path>
                                <path d="M29.4305055,22.1780526 L70.0567389,22.1780526 L29.4305055,22.1780526 Z" id="Stroke-44" stroke="#434343" stroke-width="0.191"></path>
                                <path d="M74.2040236,10.8299855 L81.8722486,10.8299855 L74.2040236,10.8299855 Z" id="Stroke-46" stroke="#FCB31D" stroke-width="0.954"></path>
                                <path d="M84.5330889,10.8299855 L94.6025509,10.8299855 L84.5330889,10.8299855 Z" id="Stroke-48" stroke="#D46237" stroke-width="0.954"></path>
                                <path d="M75.9290933,23.7487064 L85.9985553,23.7487064 L75.9290933,23.7487064 Z" id="Stroke-50" stroke="#525252" stroke-width="0.954"></path>
                                <path d="M75.9290933,38.3842756 L85.9985553,38.3842756 L75.9290933,38.3842756 Z" id="Stroke-52" stroke="#525252" stroke-width="0.954"></path>
                                <path d="M88.8354613,38.3842756 L95.0352231,38.3842756 L88.8354613,38.3842756 Z" id="Stroke-54" stroke="#FCB31D" stroke-width="0.954"></path>
                                <path d="M9.18182136,72.1323394 L66.9238925,72.1323394 L9.18182136,72.1323394 Z" id="Stroke-56" stroke="#D46237" stroke-width="0.954"></path>
                                <path d="M71.570155,72.1323394 L94.4624475,72.1323394 L71.570155,72.1323394 Z" id="Stroke-58" stroke="#0895A3" stroke-width="0.954"></path>
                            </g>
                        </g>
                    </g>
                </g>
                <g id="Page-1" transform="translate(194.138517, 270.600849)">
                    <g id="Group-3" transform="translate(0.000000, 0.627473)">
                        <g id="Group-4" transform="translate(0.656083, 0.060592)">
                            <path d="M57.6770233,29.4575751 C57.6770233,45.3819016 44.7646194,58.2959248 28.8370543,58.2959248 C12.9094891,58.2959248 0.000323862651,45.3819016 0.000323862651,29.4575751 C0.000323862651,13.5300099 12.9094891,0.617606074 28.8370543,0.617606074 C44.7646194,0.617606074 57.6770233,13.5300099 57.6770233,29.4575751" id="Fill-1" fill="#E0F7FF"></path>
                            <g id="Group-12" transform="translate(10.730879, 9.715880)">
                                <path d="M18.8610989,37.6015872 L18.8610989,20.5550766 L32.7564259,10.6934589 C34.4048868,13.3361781 35.9092288,17.2241493 35.9092288,20.5550766 C35.9092288,29.9665252 28.2741668,37.6015872 18.8610989,37.6015872" id="Fill-4" fill="#E66E3D"></path>
                                <path d="M19.6613635,0.272044626 L19.6613635,17.3250325 L33.3137935,7.11850106 C30.2970129,2.31885658 25.7499813,0.272044626 19.6613635,0.272044626" id="Fill-6" fill="#F9C32A"></path>
                                <path d="M0.305388326,19.0079847 L17.3567569,19.0079847 L17.3567569,1.95499689 C7.94206962,1.95499689 0.305388326,9.59005887 0.305388326,19.0079847" id="Fill-8" fill="#31A2DB"></path>
                                <path d="M17.1737745,20.2856229 L0.120786616,20.2856229 C0.120786616,29.7035488 7.75746791,37.3386108 17.1753938,37.3386108 L17.1737745,20.2856229 Z" id="Fill-10" fill="#FFFFFF"></path>
                            </g>
                        </g>
                    </g>
                </g>
                <g id="Page-1" transform="translate(247.057271, 8.630980)">
                    <path d="M24.7836768,0.835577783 C23.2576479,1.36990779 21.810779,2.04936446 20.5552135,2.93111891 C19.3128412,3.8238678 18.1826123,4.78918003 17.3052557,5.87543115 C16.8280968,6.38337448 16.4696779,6.96388115 16.0826734,7.4894156 C15.7286523,8.03913783 15.4274045,8.59545672 15.1349523,9.12099117 C15.0975712,9.21114561 15.0601901,9.2925045 15.0206101,9.38046006 C14.5346556,9.32768672 14.0399056,9.29470339 13.5363601,9.29470339 C6.0623367,9.29470339 0,15.3548412 0,22.8332624 C0,29.9048891 5.42465892,35.7077569 12.3401645,36.3124513 C12.6194234,36.3476336 12.905279,36.3718213 13.1955323,36.3718213 L53.8024137,36.3718213 C54.1828214,36.3718213 54.5522348,36.3322413 54.9128526,36.2728713 C55.3460337,36.3278436 55.7836126,36.3674236 56.2343848,36.3674236 C61.8943248,36.3674236 66.4856049,31.7783424 66.4856049,26.1162035 C66.4856049,20.7882957 62.4176604,16.4103079 57.2172881,15.9155579 C55.5637237,12.1422645 51.717867,9.49700117 47.2343325,9.49700117 C46.5966547,9.49700117 45.9765681,9.56296784 45.3696747,9.66411673 C45.2113547,9.3518745 45.0420403,9.0352345 44.8771236,8.70540117 C44.5450914,8.1644745 44.1998658,7.59496227 43.8018669,7.04084227 C43.3686858,6.50871115 42.9662892,5.92600559 42.4429536,5.41806226 C41.4754425,4.33401003 40.2594569,3.3884878 38.9379247,2.53971668 C37.605398,1.69534334 36.0947613,1.07305778 34.5247547,0.604694448 C32.9459524,0.178110001 31.351758,0.0021988889 29.6608124,0 C28.0380324,0.0725633338 26.3031091,0.332032224 24.7836768,0.835577783 Z" id="Fill-1" fill="#4EC8EB"></path>
                    <path d="M33.0187357,19.4485127 C33.0187357,18.6942938 32.754869,18.0544171 32.2293345,17.5266838 C31.7016012,17.0011493 31.072719,16.7394815 30.3426879,16.7394815 C29.6104579,16.7394815 28.9793767,17.0011493 28.4538423,17.5266838 C27.9283078,18.0544171 27.6644412,18.6942938 27.6644412,19.4485127 C27.6644412,20.1807427 27.9283078,20.8096249 28.4538423,21.3351594 C28.9793767,21.8628927 29.6104579,22.1245605 30.3426879,22.1245605 C31.072719,22.1245605 31.7016012,21.8628927 32.2293345,21.3351594 C32.754869,20.8096249 33.0187357,20.1807427 33.0187357,19.4485127 M30.3426879,14.9539838 C30.9583767,14.9539838 31.5432812,15.068326 32.0908045,15.2970104 C32.6405268,15.5256949 33.1154868,15.8445338 33.5156845,16.2579249 C33.9158823,16.6691171 34.2369201,17.1484749 34.476599,17.6981971 C34.7162779,18.2479193 34.8372168,18.8306249 34.8372168,19.4485127 L34.8372168,22.1245605 L36.9987246,22.1245605 C37.3417512,21.302176 37.5132646,20.411626 37.5132646,19.4485127 C37.5132646,18.4656093 37.3241601,17.5332804 36.9481501,16.6537249 C36.5699412,15.7719704 36.059799,15.0045582 35.4199223,14.3536871 C34.7800457,13.7006171 34.0192301,13.1860771 33.1374757,12.8078682 C32.2579201,12.4318582 31.3233923,12.2427537 30.3426879,12.2427537 C29.3575856,12.2427537 28.4318534,12.4318582 27.5632923,12.8078682 C26.6925323,13.1860771 25.9317167,13.7006171 25.2808456,14.3536871 C24.6299745,15.0045582 24.1132356,15.7719704 23.7372256,16.6537249 C23.3590167,17.5332804 23.1699123,18.4656093 23.1699123,19.4485127 C23.1699123,20.431416 23.3590167,21.3593471 23.7372256,22.2279082 C24.1132356,23.0964694 24.6299745,23.8572849 25.2808456,24.5103549 C25.9317167,25.161226 26.6925323,25.675766 27.5632923,26.0539749 C28.4318534,26.4321838 29.3575856,26.6212883 30.3426879,26.6212883 C31.2794145,26.6212883 32.2051468,26.4365816 33.1198845,26.0715661 L33.8059379,27.7185338 C32.7086923,28.1759027 31.5520768,28.4045872 30.3426879,28.4045872 C29.1069123,28.4045872 27.9437001,28.1693061 26.8596478,27.7009427 C25.7733967,27.2325794 24.8234767,26.5905038 24.0120867,25.7791138 C23.1984978,24.9677238 22.5586211,24.0178038 22.0902578,22.9315527 C21.6196956,21.8453016 21.3866134,20.6842882 21.3866134,19.4485127 C21.3866134,18.2127371 21.6196956,17.0451271 22.0902578,15.9478815 C22.5586211,14.850636 23.1984978,13.8963182 24.0120867,13.0827293 C24.8234767,12.2713393 25.7733967,11.6314626 26.8596478,11.1609004 C27.9437001,10.694736 29.1069123,10.4594548 30.3426879,10.4594548 C31.5762645,10.4594548 32.7372779,10.694736 33.823529,11.1609004 C34.9097801,11.6314626 35.8597001,12.2713393 36.673289,13.0827293 C37.484679,13.8963182 38.1245557,14.850636 38.5951179,15.9478815 C39.0634812,17.0451271 39.2965635,18.2127371 39.2965635,19.4485127 C39.2965635,21.0954805 38.8963657,22.5819294 38.0959701,23.9078594 L37.5132646,23.9078594 L35.9344623,23.9078594 L34.8372168,23.9078594 L33.0187357,23.9078594 L33.0187357,23.0173094 C32.2865056,23.6132083 31.3937568,23.9078594 30.3426879,23.9078594 C29.7248001,23.9078594 29.1420945,23.795716 28.5923723,23.5670316 C28.0426501,23.3383471 27.5676901,23.0173094 27.1674923,22.6061171 C26.7672945,22.192726 26.4462567,21.717766 26.2065778,21.1812371 C25.9668989,20.6447082 25.8459601,20.0664005 25.8459601,19.4485127 C25.8459601,18.8306249 25.9668989,18.2479193 26.2065778,17.6981971 C26.4462567,17.1484749 26.7672945,16.6691171 27.1674923,16.2579249 C27.5676901,15.8445338 28.0426501,15.5256949 28.5923723,15.2970104 C29.1420945,15.068326 29.7248001,14.9539838 30.3426879,14.9539838" id="Fill-3" fill="#FFFFFF"></path>
                </g>
            </g>
        </g>
    </g>
</svg>