<?xml version="1.0" encoding="UTF-8"?>
<svg width="23px" height="28px" viewBox="0 0 23 28" version="1.1" xmlns="http://www.w3.org/2000/svg" xmlns:xlink="http://www.w3.org/1999/xlink">
    <!-- Generator: Sketch 43.2 (39069) - http://www.bohemiancoding.com/sketch -->
    <title>Shape</title>
    <desc>Created with Sketch.</desc>
    <defs></defs>
    <g id="Page-1" stroke="none" stroke-width="1" fill="none" fill-rule="evenodd">
        <g id="Product-detail" transform="translate(-329.000000, -2131.000000)" fill-rule="nonzero" fill="#FFFFFF">
            <path d="M341.676355,2147.36838 C341.748286,2147.66846 341.762897,2148.13152 341.652752,2148.43386 C341.50889,2148.82835 341.224536,2149.02729 340.805312,2149.02729 L340.089371,2149.02729 L340.089371,2146.64457 L340.646839,2146.64457 C341.179579,2146.64457 341.549351,2146.83901 341.676355,2147.36838 L341.676355,2147.36838 Z M345.150409,2137.64642 C347.451085,2137.10806 350.550873,2137.95999 351.995117,2138.97153 C350.315972,2136.72705 346.116985,2132.55616 343.642101,2131.23667 C344.942483,2132.54941 345.398797,2135.99649 345.150409,2137.64642 L345.150409,2137.64642 Z M336.769295,2146.58725 L336.155631,2146.58725 L336.155631,2147.64711 L336.769295,2147.64711 C337.033417,2147.64711 337.294168,2147.61676 337.416676,2147.39198 C337.491979,2147.25373 337.491979,2146.98062 337.416676,2146.84238 C337.294168,2146.61984 337.033417,2146.58725 336.769295,2146.58725 L336.769295,2146.58725 Z M351.995117,2143.51668 L351.995117,2158.12772 L329.516602,2158.12772 L329.516602,2131.1535 L338.967693,2131.1535 C344.427725,2131.1535 342.714862,2140.1449 342.714862,2140.1449 C346.099003,2139.30758 351.995117,2139.67286 351.995117,2143.51668 Z M338.386624,2146.61984 C338.206796,2146.07586 337.705525,2145.76453 337.010939,2145.76453 L335.13623,2145.76453 L335.13623,2149.90732 L336.155631,2149.90732 L336.155631,2148.47207 L337.010939,2148.47207 C337.706649,2148.47207 338.206796,2148.16074 338.386624,2147.61452 C338.492273,2147.28633 338.492273,2146.94353 338.386624,2146.61984 L338.386624,2146.61984 Z M342.215839,2146.27929 C341.882033,2145.94324 341.416728,2145.76453 340.868252,2145.76453 L339.071095,2145.76453 L339.071095,2149.90732 L340.868252,2149.90732 C341.4718,2149.90732 341.948345,2149.70389 342.286646,2149.30602 C342.909301,2148.56536 342.945267,2147.01883 342.215839,2146.27929 L342.215839,2146.27929 Z M346.375488,2145.76453 L343.421811,2145.76453 L343.421811,2149.90732 L344.441212,2149.90732 L344.441212,2148.2529 L346.115861,2148.2529 L346.115861,2147.43019 L344.441212,2147.43019 L344.441212,2146.64569 L346.375488,2146.64569 L346.375488,2145.76453 L346.375488,2145.76453 Z" id="Shape"></path>
        </g>
    </g>
</svg>