<?xml version="1.0" encoding="UTF-8"?>
<svg width="60px" height="49px" viewBox="0 0 60 49" version="1.1" xmlns="http://www.w3.org/2000/svg" xmlns:xlink="http://www.w3.org/1999/xlink">
    <!-- Generator: Sketch 43 (38999) - http://www.bohemiancoding.com/sketch -->
    <title>twitter-bird</title>
    <desc>Created with Sketch.</desc>
    <defs></defs>
    <g id="Symbols" stroke="none" stroke-width="1" fill="none" fill-rule="evenodd">
        <g id="twitter" fill-rule="nonzero" fill="#0092C8">
            <g id="iconmonstr-twitter-1(1)">
                <path d="M60,6.43783467 C57.7925,7.40462764 55.42,8.05573311 52.93,8.34922383 C55.4725,6.84724189 57.425,4.4672541 58.3425,1.63099922 C55.965,3.02199727 53.33,4.03318379 50.525,4.57823799 C48.2825,2.21798066 45.08,0.743128125 41.54,0.743128125 C33.5925,0.743128125 27.7525,8.05819941 29.5475,15.6519636 C19.32,15.1463703 10.25,10.3124055 4.1775,2.96527217 C0.9525,8.42321309 2.505,15.5631765 7.985,19.1787849 C5.97,19.1146608 4.07,18.5696066 2.4125,17.6595388 C2.2775,23.2851887 6.365,28.5482912 12.285,29.7197878 C10.5525,30.1834538 8.655,30.2919714 6.725,29.9269577 C8.29,34.7510573 12.835,38.2606145 18.225,38.3592668 C13.05,42.3620856 6.53,44.1501594 0,43.3905363 C5.4475,46.8359694 11.92,48.8460109 18.87,48.8460109 C41.725,48.8460109 54.6375,29.8036423 53.8575,12.7244553 C56.2625,11.0103708 58.35,8.87208125 60,6.43783467 L60,6.43783467 Z" id="twitter-bird"></path>
            </g>
        </g>
    </g>
</svg>