<?xml version="1.0" encoding="UTF-8"?>
<svg width="411px" height="237px" viewBox="0 0 411 237" version="1.1" xmlns="http://www.w3.org/2000/svg" xmlns:xlink="http://www.w3.org/1999/xlink">
    <!-- Generator: Sketch 42 (36781) - http://www.bohemiancoding.com/sketch -->
    <title>user-guide-graphic</title>
    <desc>Created with Sketch.</desc>
    <defs></defs>
    <g id="Page-1" stroke="none" stroke-width="1" fill="none" fill-rule="evenodd">
        <g id="User-guide" transform="translate(-884.000000, -220.000000)">
            <g id="user-guide-graphic" transform="translate(884.725968, 220.743164)">
                <g id="Layer_1">
                    <g id="Group" opacity="0.1" transform="translate(0.000000, 6.679433)">
                        <g>
                            <g>
                                <path d="M48.936864,142.461168 C48.936864,139.655806 51.22123,137.439348 53.9597974,137.439348 C56.6994781,137.439348 58.9827309,139.723714 58.9827309,142.461168 C58.9827309,145.200849 56.6994781,147.486328 53.9597974,147.486328 C51.2178903,147.485215 48.936864,145.268756 48.936864,142.461168 M57.2861549,155.12092 L57.2861549,152.185309 C58.4617351,151.728881 59.5694077,151.077636 60.5490578,150.29169 L63.2887385,151.858017 C63.7429399,152.056173 64.2672754,151.987152 64.5934544,151.466157 L67.0748636,147.162375 C67.2719069,146.707061 67.2028861,146.183839 66.6830036,145.855433 L63.9444361,144.291333 C64.0724586,143.702429 64.1414794,143.112413 64.1414794,142.460055 C64.1414794,141.482631 64.0134569,140.567549 63.7507326,139.654693 L66.2310286,137.761074 C66.6228887,137.434895 66.6863433,136.847105 66.3601643,136.456358 L63.3599858,132.539984 C63.0338068,132.15035 62.4460167,132.085783 62.0552699,132.411961 L59.7709039,134.106311 C59.0539781,133.583089 58.2680315,133.194568 57.4241965,132.866163 L57.4241965,129.867098 C57.4241965,129.343875 56.9677686,128.887447 56.4434332,128.887447 L51.4861808,128.887447 C50.9618454,128.887447 50.5065307,129.343875 50.5065307,129.867098 L50.5065307,132.73814 C49.3999713,133.130001 48.3524136,133.715564 47.37499,134.433603 L44.9614883,132.866163 C44.5061736,132.539984 43.9172703,132.73814 43.6567724,133.128887 L40.9827728,137.303533 C40.6554806,137.759961 40.8536371,138.347751 41.244384,138.609362 L43.7814552,140.112234 C43.5844119,140.893728 43.5209573,141.678561 43.5209573,142.458942 C43.5209573,143.310569 43.650093,144.09095 43.7814552,144.807875 L41.3000459,146.43877 C40.8458445,146.764949 40.7768237,147.353853 41.039548,147.743486 L43.7781154,151.85579 C44.1042944,152.311105 44.6931977,152.380126 45.0839445,152.118515 L47.4306519,150.551074 C48.3457342,151.268 49.3242711,151.790109 50.3673758,152.183082 L50.3673758,155.118693 C50.3673758,155.644142 50.8238038,156.09723 51.347026,156.09723 L56.3042783,156.09723 C56.8308403,156.099456 57.2861549,155.645255 57.2861549,155.12092" id="Shape" fill="#0092C8" fill-rule="nonzero"></path>
                                <path d="M67.8585837,162.233402 C67.1416579,163.800842 65.3126066,164.516655 63.6817118,163.800842 C62.1153848,163.08169 61.3973458,161.254865 62.1153848,159.62397 C62.8323106,158.05653 64.6602487,157.338491 66.2922568,158.05653 C67.9242648,158.773456 68.5766227,160.602507 67.8585837,162.233402 L67.8585837,162.233402 Z M72.8815172,157.665783 C72.8158361,157.405286 72.4896571,157.142561 72.1634781,157.211582 L70.4034476,157.602329 C70.1429497,157.147014 69.8167708,156.68836 69.4249107,156.297613 L70.2064043,154.601037 C70.33554,154.274858 70.2064043,153.948679 69.8802254,153.82177 L67.0726371,152.580509 C66.7464582,152.451373 66.419166,152.580509 66.2922568,152.906688 L65.5742177,154.470788 C64.8584052,154.405107 64.0724586,154.470788 63.3555328,154.597697 L62.3769959,153.164959 C62.1788394,152.837667 61.7880926,152.773099 61.5264815,152.966803 L58.9816176,154.663378 C58.6554386,154.859308 58.5897576,155.250055 58.7845743,155.511666 L59.7631112,157.014539 C59.4369323,157.406399 59.1753212,157.796032 58.9816176,158.254687 C58.7845743,158.710001 58.6554386,159.168656 58.5263029,159.689652 L56.6983649,160.014717 C56.3710726,160.079285 56.1729161,160.406577 56.1729161,160.732756 L56.6983649,163.731822 C56.7629327,164.059114 57.0891117,164.25727 57.4152906,164.25727 L59.1753212,163.995659 C59.5015001,164.583449 59.9568148,165.171239 60.4154692,165.690009 L59.6974302,167.322017 C59.5694077,167.649309 59.6974302,167.974375 60.0236091,168.10351 L62.8300841,169.343658 C63.1562631,169.472794 63.482442,169.343658 63.612691,169.017479 L64.3930714,167.322017 C65.1756782,167.387698 65.9593984,167.322017 66.740892,167.061519 L67.9175854,168.627846 C68.1157419,168.888344 68.4419209,168.954025 68.7680998,168.756982 L71.183828,166.867815 C71.4465524,166.669659 71.510007,166.34348 71.3129637,166.016188 L70.1362703,164.450974 C70.3344268,164.124795 70.5270171,163.799729 70.7240604,163.472437 C70.9845583,162.948102 71.1159204,162.364764 71.179375,161.775861 L73.071881,161.32166 C73.3323789,161.257092 73.5951032,160.930913 73.5271957,160.603621 L72.8815172,157.665783 Z" id="Shape" fill="#0092C8" fill-rule="nonzero"></path>
                                <path d="M70.8587623,143.311682 C69.9447932,143.37625 69.1632996,142.659325 69.0987317,141.680788 C69.0330507,140.765705 69.7510897,139.984212 70.7307398,139.919644 C71.7092767,139.853963 72.4262025,140.572002 72.4907703,141.550539 C72.4907703,142.525736 71.7738446,143.311682 70.8587623,143.311682 M75.0356342,142.594757 L74.1216652,142.140555 C74.1216652,141.942399 74.1873463,141.747582 74.1873463,141.551652 C74.1873463,141.225473 74.1216652,140.899294 73.9891898,140.637683 L74.7706834,139.985325 C74.8998191,139.856189 74.8998191,139.660259 74.8352512,139.53001 L73.7954862,138.286523 C73.6663505,138.1585 73.468194,138.1585 73.3401715,138.220841 L72.619906,138.809745 C72.3594082,138.680609 72.097797,138.548134 71.8384124,138.417885 L71.7738446,137.439348 C71.7738446,137.241191 71.6447089,137.113169 71.4476656,137.113169 L69.8156575,137.177737 C69.6186143,137.177737 69.4894786,137.305759 69.4894786,137.505029 L69.5551596,138.483566 C69.1632996,138.612702 68.8371206,138.809745 68.5755095,139.070243 L67.7249951,138.54702 C67.5980859,138.417885 67.3988161,138.482453 67.2707936,138.676156 L66.4904133,140.113347 C66.3601643,140.24137 66.4236189,140.439526 66.6184357,140.568662 L67.4689502,141.091884 C67.4021558,141.354609 67.4021558,141.61622 67.4021558,141.873378 C67.4021558,142.134989 67.4689502,142.3966 67.5324048,142.655985 L66.7497979,143.242662 C66.6228887,143.371797 66.5538679,143.568841 66.6863433,143.696863 L67.6648802,145.002692 C67.7940159,145.131828 67.9910591,145.200849 68.1201948,145.068373 L68.9016885,144.545151 C69.2278674,144.742194 69.5540464,144.935898 69.8802254,145.068373 L69.9447932,146.04691 C69.9447932,146.245067 70.0739289,146.373089 70.269859,146.373089 L71.901867,146.308521 C72.1011368,146.308521 72.228046,146.180499 72.228046,145.981229 L72.1634781,145.002692 C72.5542249,144.87467 72.8804039,144.611945 73.2076961,144.349221 L74.1216652,144.805649 C74.2508009,144.87133 74.4478441,144.805649 74.512412,144.676513 L75.2950189,143.242662 C75.2282245,142.920936 75.1658832,142.723892 75.0356342,142.594757" id="Shape" fill="#010101" fill-rule="nonzero"></path>
                                <path d="M353.886366,90.6554877 C323.77103,90.6554877 297.811415,115.106664 297.811415,146.930822 C297.811415,177.052837 322.6333,202.823202 353.886366,202.823202 C383.073261,202.823202 409.600628,181.046025 409.600628,146.559 C409.600628,140.549737 408.702244,134.852181 407.040178,129.540919 L385.236284,136.592173 C386.21816,139.72928 386.755854,143.100167 386.755854,146.63804 C386.755854,167.025895 371.071433,179.906068 353.822911,179.906068 C335.344261,179.906068 320.656188,164.65915 320.656188,146.861801 C320.656188,128.02914 336.009977,113.588207 353.822911,113.588207 C353.837383,113.588207 353.870781,113.593773 353.886366,113.593773 L353.886366,90.671073" id="Shape" fill="#0092C8" fill-rule="nonzero"></path>
                                <path d="M353.886366,113.594886 C368.180352,113.618264 380.969239,122.889317 385.236284,136.59106 L407.040178,129.539805 C401.507382,111.833742 387.561839,98.5194065 370.486983,93.2092575 C370.139652,93.0934806 369.776736,92.9966289 369.428293,92.8930977 C368.198164,92.5279553 366.964695,92.2262676 365.695603,91.9579771 C365.175721,91.8511061 364.654725,91.7297631 364.133729,91.6373643 C363.007131,91.4247357 361.8861,91.272222 360.75171,91.1297274 C360.146108,91.048461 359.548298,90.9649681 358.931564,90.9070797 C357.664698,90.7901896 356.385587,90.750113 355.089777,90.7189423 C354.693464,90.7111496 354.297151,90.671073 353.886366,90.671073 L353.886366,113.594886 L353.886366,113.594886 Z" id="Shape" fill="#426293" fill-rule="nonzero"></path>
                                <rect id="Rectangle-path" fill="#0092C8" fill-rule="nonzero" x="340.120055" y="150.473148" width="5.71982091" height="8.90591033"></rect>
                                <rect id="Rectangle-path" fill="#0092C8" fill-rule="nonzero" x="347.547584" y="147.278152" width="5.72427386" height="12.1009057"></rect>
                                <rect id="Rectangle-path" fill="#0092C8" fill-rule="nonzero" x="354.805901" y="142.576945" width="5.71870767" height="16.8043395"></rect>
                                <rect id="Rectangle-path" fill="#0092C8" fill-rule="nonzero" x="362.230091" y="137.429329" width="5.7253871" height="21.953069"></rect>
                                <path d="M366.196561,128.614704 L366.196561,132.432 C366.196561,133.039828 365.703396,133.534106 365.094454,133.534106 C364.486626,133.534106 363.994574,133.039828 363.994574,132.432 L363.994574,131.550315 C353.280764,143.263813 341.426997,147.124525 340.890416,147.291511 C340.781319,147.327135 340.672222,147.344947 340.560898,147.344947 C340.092224,147.344947 339.656948,147.043259 339.507774,146.575699 C339.327429,145.995701 339.645815,145.37674 340.225813,145.19083 C340.354948,145.151866 352.269943,141.254417 362.679839,129.719037 L361.273819,129.719037 C360.66599,129.719037 360.172825,129.225872 360.172825,128.61693 C360.172825,128.009102 360.66599,127.514824 361.273819,127.514824 L365.095567,127.514824 C365.149003,127.514824 365.196872,127.52039 365.251421,127.529296 C365.273686,127.529296 365.294837,127.533749 365.313762,127.539315 C365.818059,127.63728 366.196561,128.082576 366.196561,128.614704" id="Shape" fill="#426293" fill-rule="nonzero"></path>
                                <path d="M58.2424271,90.9237782 C26.9815686,90.9237782 0.0345104025,116.305623 0.0345104025,149.339871 C0.0345104025,180.608522 25.8015355,207.358537 58.2424271,207.358537 C88.5381075,207.358537 116.075182,184.751996 116.075182,148.953577 C116.075182,142.714986 115.142288,136.800349 113.417881,131.288704 L90.7846234,138.608249 C91.8043501,141.865585 92.3620828,145.363382 92.3620828,149.03707 C92.3620828,170.201965 76.0809654,183.569737 58.1756327,183.569737 C38.9956416,183.569737 23.7464966,167.743934 23.7464966,149.269736 C23.7464966,129.72015 39.6847364,114.73039 58.1756327,114.73039 C58.1912181,114.73039 58.2257285,114.737069 58.2424271,114.737069 L58.2424271,90.9427033" id="Shape" fill="#0092C8" fill-rule="nonzero"></path>
                                <path d="M58.2424271,114.735956 C73.0774472,114.76156 86.3550462,124.38551 90.7846234,138.607135 L113.417881,131.286477 C107.673569,112.906905 93.1992383,99.086045 75.4753635,93.575513 C75.1135609,93.4552832 74.7372862,93.356205 74.3754836,93.2459944 C73.0974855,92.8686064 71.8172609,92.5557863 70.5014126,92.2763634 C69.962605,92.1650395 69.421571,92.0403567 68.8783105,91.943505 C67.7094097,91.7219704 66.5460752,91.5650038 65.3693818,91.416943 C64.7415151,91.3312236 64.1214411,91.244391 63.4813288,91.1853894 C62.1654806,91.0629331 60.8373867,91.0228565 59.4925942,90.9905726 C59.0806959,90.9805534 58.6699108,90.9404768 58.2435403,90.9404768 L58.2435403,114.735956 L58.2424271,114.735956 Z" id="Shape" fill="#426293" fill-rule="nonzero"></path>
                                <path d="M327.315582,38.2742629 C322.085587,38.2742629 317.84526,42.5157027 317.84526,47.7456985 C317.84526,51.7800759 320.366746,55.221097 323.920204,56.5859277 L323.920204,54.6299672 C321.38202,53.3753471 319.630895,50.7681418 319.630895,47.7445853 C319.630895,43.500919 323.071916,40.0610111 327.314469,40.0610111 C331.558136,40.0610111 334.998043,43.500919 334.998043,47.7445853 C334.998043,50.624534 333.412791,53.1304345 331.067197,54.4462828 L331.067197,56.4412067 C334.430292,54.9873168 336.784792,51.640921 336.784792,47.7445853 C336.784792,42.5145894 332.546692,38.2742629 327.315582,38.2742629" id="Shape" fill="#0092C8"></path>
                                <path d="M331.06831,54.3561104 L331.06831,57.2650034 C331.06831,57.8294155 330.610769,58.2869566 330.046357,58.2869566 L324.943271,58.2869566 C324.378859,58.2869566 323.921317,57.8294155 323.921317,57.2650034 L323.921317,54.3561104 L322.133456,54.3561104 L322.133456,58.6454195 C322.133456,59.6328623 322.933875,60.4310545 323.921317,60.4310545 L331.06831,60.4310545 C332.05464,60.4310545 332.853945,59.6317491 332.853945,58.6454195 L332.853945,54.3561104 L331.06831,54.3561104 Z" id="Shape" fill="#0092C8"></path>
                                <path d="M330.352498,61.5042167 L324.634903,61.5042167 C324.240817,61.5042167 323.920204,61.8237162 323.920204,62.218916 L323.920204,62.9347286 C323.920204,63.3288151 324.239704,63.6494279 324.634903,63.6494279 L330.352498,63.6494279 C330.747698,63.6494279 331.06831,63.3288151 331.06831,62.9347286 L331.06831,62.218916 C331.06831,61.8237162 330.747698,61.5042167 330.352498,61.5042167" id="Shape" fill="#426293" fill-rule="nonzero"></path>
                                <path d="M328.832927,64.7203636 L326.155588,64.7203636 C325.97079,64.7203636 325.820503,65.0409764 325.820503,65.4361761 L325.820503,66.1508754 C325.820503,66.544962 325.97079,66.8655747 326.155588,66.8655747 L328.832927,66.8655747 C329.017725,66.8655747 329.166899,66.5460752 329.166899,66.1508754 L329.166899,65.4361761 C329.166899,65.0409764 329.017725,64.7203636 328.832927,64.7203636" id="Shape" fill="#426293" fill-rule="nonzero"></path>
                                <path d="M315.343813,47.3872356 C315.343813,47.0855479 315.359398,46.7894264 315.381663,46.4933049 L311.411853,46.4933049 L311.411853,48.638516 L315.409494,48.638516 C315.364964,48.2266177 315.343813,47.8102663 315.343813,47.3872356 L315.343813,47.3872356 Z M339.249502,46.4944181 C339.27288,46.7905396 339.287352,47.0855479 339.287352,47.3883488 C339.287352,47.8113796 339.265088,48.2277309 339.221671,48.6396292 L343.575548,48.6396292 L343.575548,46.4944181 L339.249502,46.4944181 Z M317.489024,40.5541759 L314.102551,38.5982154 L313.030502,40.4528712 L316.425881,42.4155112 C316.725342,41.7598135 317.081578,41.1363998 317.489024,40.5541759 L317.489024,40.5541759 Z M312.842365,54.6533452 L313.914414,56.5024348 L317.601461,54.3828282 C317.18511,53.8061705 316.817741,53.1916627 316.507147,52.5437577 L312.842365,54.6533452 Z M337.065328,54.3305059 L340.885963,56.535832 L341.958012,54.6800629 L338.150736,52.4814163 C337.844595,53.132661 337.479453,53.7493953 337.065328,54.3305059 L337.065328,54.3305059 Z M341.7888,40.4795889 L340.715638,38.629386 L337.210049,40.6465747 C337.609702,41.2321383 337.958145,41.8588918 338.250927,42.5157027 L341.7888,40.4795889 Z M318.557733,34.340077 L320.431314,37.5951872 C321.009085,37.188855 321.624706,36.8303922 322.272611,36.5298177 L320.39903,33.272481 L318.557733,34.340077 Z M332.454293,36.5743472 C333.103311,36.8816011 333.717819,37.2489699 334.293363,37.664208 L336.308325,34.1920162 L334.45367,33.1277599 L332.454293,36.5743472 Z M326.422765,35.4533158 C326.718887,35.4299378 327.013895,35.4165789 327.315582,35.4165789 C327.738613,35.4165789 328.156078,35.4388437 328.566863,35.48226 L328.566863,31.4857327 L326.422765,31.4857327 L326.422765,35.4533158 Z" id="Shape" fill="#0092C8"></path>
                                <path d="M326.540768,3.69372631 C302.118536,3.69372631 281.068303,23.5227356 281.068303,49.3287241 C281.068303,73.7565228 301.195661,94.6542414 326.540768,94.6542414 C350.208225,94.6542414 371.720451,76.9949345 371.720451,49.0281496 C371.720451,44.1543902 370.992393,39.5344492 369.645374,35.2284415 L351.963803,40.9471492 C352.760882,43.4908998 353.195045,46.2239011 353.195045,49.0927174 C353.195045,65.6276532 340.476291,76.0720595 326.489559,76.0720595 C311.504252,76.0720595 299.592597,63.7073163 299.592597,49.2752886 C299.592597,34.0027656 312.044173,22.2926068 326.489559,22.2926068 C326.500692,22.2926068 326.526296,22.2970597 326.540768,22.2970597 L326.540768,3.70708517" id="Shape" fill="#0092C8" fill-rule="nonzero"></path>
                                <path d="M326.540768,22.2959465 C338.130697,22.317098 348.503856,29.8336864 351.963803,40.946036 L369.645374,35.2273283 C365.157909,20.8687744 353.850742,10.0703581 340.003165,5.76657694 C339.721516,5.6708384 339.426507,5.59291168 339.144858,5.50941878 C338.147396,5.21218402 337.145481,4.96949796 336.117962,4.75018992 C335.696044,4.66335729 335.27524,4.56650552 334.851096,4.49080528 C333.937127,4.31936651 333.028724,4.19468376 332.106962,4.08002017 C331.617137,4.01322584 331.132878,3.94531827 330.631921,3.89967548 C329.604401,3.80393695 328.567976,3.77276626 327.517079,3.74604853 C327.194239,3.7393691 326.873627,3.70819841 326.540768,3.70819841 L326.540768,22.2959465 Z" id="Shape" fill="#426293" fill-rule="nonzero"></path>
                                <path d="M68.9117076,34.9401127 C63.6805985,34.9401127 59.4413852,39.1804392 59.4413852,44.4104351 C59.4413852,48.4448125 61.9628711,51.8858336 65.5163293,53.2517776 L65.5163293,51.295817 C62.9770316,50.0411969 61.2270203,47.4328784 61.2270203,44.4093218 C61.2270203,40.1656556 64.6669281,36.7257477 68.9105944,36.7257477 C73.1542607,36.7257477 76.5930553,40.1667688 76.5930553,44.4093218 C76.5930553,47.2892706 75.0078032,49.7951711 72.6633224,51.1121326 L72.6633224,53.1070565 C76.0264167,51.6520534 78.3809168,48.3067708 78.3809168,44.4104351 C78.38203,39.179326 74.1439299,34.9401127 68.9117076,34.9401127" id="Shape" fill="#0092C8"></path>
                                <path d="M72.6633224,51.0219603 L72.6633224,53.92974 C72.6633224,54.4952653 72.2068944,54.9528064 71.6402559,54.9528064 L66.5371693,54.9528064 C65.9738705,54.9528064 65.5152161,54.4952653 65.5152161,53.92974 L65.5152161,51.0219603 L63.7295811,51.0219603 L63.7295811,55.3101561 C63.7295811,56.2975989 64.5299997,57.0980176 65.5152161,57.0980176 L72.6633224,57.0980176 C73.6496519,57.0980176 74.4500706,56.2964856 74.4500706,55.3101561 L74.4500706,51.0219603 L72.6633224,51.0219603 Z" id="Shape" fill="#0092C8"></path>
                                <path d="M71.9497363,58.1689533 L66.2310286,58.1689533 C65.8369421,58.1689533 65.5152161,58.4884528 65.5152161,58.8847658 L65.5152161,59.5994651 C65.5152161,59.9935517 65.8358288,60.3152777 66.2310286,60.3152777 L71.9497363,60.3152777 C72.3438228,60.3152777 72.6655488,59.9946649 72.6655488,59.5994651 L72.6655488,58.8847658 C72.6644356,58.4884528 72.3438228,58.1689533 71.9497363,58.1689533" id="Shape" fill="#426293" fill-rule="nonzero"></path>
                                <path d="M70.4301653,61.3862134 L67.752826,61.3862134 C67.5680284,61.3862134 67.4177412,61.7057129 67.4177412,62.1009127 L67.4177412,62.8167252 C67.4177412,63.2108118 67.5680284,63.5314245 67.752826,63.5314245 L70.4301653,63.5314245 C70.614963,63.5314245 70.764137,63.2108118 70.764137,62.8167252 L70.764137,62.1009127 C70.7630237,61.7057129 70.614963,61.3862134 70.4301653,61.3862134" id="Shape" fill="#426293" fill-rule="nonzero"></path>
                                <path d="M56.9399377,44.0530854 C56.9399377,43.7513977 56.9544098,43.4552762 56.9766745,43.1580414 L53.0079783,43.1580414 L53.0079783,45.3043658 L57.0045055,45.3043658 C56.9633157,44.8924675 56.9399377,44.4761162 56.9399377,44.0530854 L56.9399377,44.0530854 Z M80.8467407,43.1591547 C80.8701187,43.4563894 80.8834776,43.7513977 80.8834776,44.0541987 C80.8834776,44.4772294 80.8612128,44.8935807 80.8177965,45.3054791 L85.1716734,45.3054791 L85.1716734,43.1591547 L80.8467407,43.1591547 Z M59.0851488,37.2189125 L55.6997897,35.2640652 L54.6277407,37.118721 L58.0220058,39.081361 C58.321467,38.4245501 58.6788167,37.8022496 59.0851488,37.2189125 L59.0851488,37.2189125 Z M54.4373769,51.3180818 L55.5094258,53.1682846 L59.1964727,51.048678 C58.7801214,50.4709071 58.4138658,49.8575125 58.102159,49.2096075 L54.4373769,51.3180818 Z M78.661453,50.9952425 L82.4820885,53.2016818 L83.5541374,51.3459127 L79.7468608,49.1472661 C79.4407201,49.7973976 79.0755778,50.4152451 78.661453,50.9952425 L78.661453,50.9952425 Z M83.3849251,37.1454387 L82.3128762,35.2952359 L78.8072872,37.3113113 C79.2058267,37.8979882 79.5553837,38.5247416 79.8481655,39.1804392 L83.3849251,37.1454387 Z M60.1538581,31.0048136 L62.0274389,34.261037 C62.6063231,33.8547049 63.2208309,33.496242 63.8687359,33.1956675 L61.9962683,29.9361043 L60.1538581,31.0048136 Z M74.0515311,33.2379706 C74.6994361,33.5463377 75.3139439,33.9125933 75.8906016,34.3289446 L77.9044506,30.8567528 L76.0497948,29.7924965 L74.0515311,33.2379706 Z M68.0188901,32.1180524 C68.3150116,32.0957876 68.6111332,32.0813155 68.9128209,32.0813155 C69.3347384,32.0813155 69.7522029,32.1046935 70.162988,32.1481098 L70.162988,28.1504693 L68.0188901,28.1504693 L68.0188901,32.1180524 Z" id="Shape" fill="#0092C8"></path>
                                <path d="M68.1368934,0.359576129 C43.7157741,0.359576129 22.6644285,20.1874722 22.6644285,45.9934606 C22.6644285,70.4212594 42.7917859,91.3200912 68.1368934,91.3200912 C91.8054634,91.3200912 113.31769,73.6607843 113.31769,45.6939994 C113.31769,40.8213532 112.589632,36.200299 111.241499,31.8931781 L93.5610409,37.612999 C94.3570067,40.1556364 94.7911698,42.8886377 94.7911698,45.7585673 C94.7911698,62.293503 82.0724166,72.7367961 68.0845712,72.7367961 C53.1003771,72.7367961 41.1898353,60.3720529 41.1898353,45.9400252 C41.1898353,30.6686154 53.6414111,18.9584566 68.0845712,18.9584566 C68.0979301,18.9584566 68.1235346,18.9629096 68.1368934,18.9629096 L68.1368934,0.374048234" id="Shape" fill="#0092C8" fill-rule="nonzero"></path>
                                <path d="M68.1368934,18.9617963 C79.7268225,18.9829479 90.0999815,26.4995362 93.5610409,37.6118858 L111.241499,31.8920649 C106.755147,17.533511 95.4468674,6.73620792 81.6004034,2.43131352 C81.3187539,2.33668822 81.0226324,2.25876151 80.7420963,2.1752686 C79.7435211,1.87803384 78.7427194,1.63534778 77.7152,1.41603974 C77.2921692,1.32920712 76.871365,1.2312421 76.447221,1.1566551 C75.5343652,0.98521633 74.6237359,0.860533585 73.7030874,0.744756751 C73.2143756,0.677962424 72.7290034,0.610054857 72.2291592,0.564412067 C71.2016398,0.468673531 70.1641013,0.438616084 69.1120906,0.411898353 C68.7914778,0.40521892 68.4708651,0.372934995 68.1368934,0.372934995 L68.1368934,18.9617963 L68.1368934,18.9617963 Z" id="Shape" fill="#426293" fill-rule="nonzero"></path>
                                <path d="M153.549026,31.6816627 C129.037735,31.6816627 107.910689,51.5819194 107.910689,77.4836463 C107.910689,101.999391 128.11152,122.97281 153.549026,122.97281 C177.302202,122.97281 198.893469,105.248935 198.893469,77.1808454 C198.893469,72.2892741 198.162071,67.6515213 196.809486,63.3299283 L179.063346,69.0686743 C179.863765,71.6224441 180.301268,74.3654645 180.301268,77.2454132 C180.301268,93.8393506 167.534645,104.321607 153.496704,104.321607 C138.457961,104.321607 126.50289,91.9134475 126.50289,77.4279844 C126.50289,62.1009127 138.998995,50.3462243 153.496704,50.3462243 C153.50895,50.3462243 153.535668,50.3529037 153.549026,50.3529037 L153.549026,31.6950216" id="Shape" fill="#0092C8" fill-rule="nonzero"></path>
                                <path d="M153.549026,50.3517905 C165.181259,50.3718288 175.591154,57.9173613 179.063346,69.0675611 L196.809486,63.3299283 C192.305322,48.9190522 180.956965,38.0805593 167.059292,33.7611928 C166.77653,33.6654543 166.481521,33.5864143 166.198759,33.5029214 C165.195731,33.2056867 164.191589,32.9607741 163.16073,32.7414661 C162.736586,32.6546334 162.314669,32.5566684 161.888298,32.4809682 C160.972103,32.3084162 160.058134,32.1826202 159.134145,32.0690698 C158.64432,32.0011623 158.155609,31.934368 157.654651,31.8864987 C156.622679,31.7907601 155.582914,31.7595895 154.52645,31.733985 C154.203611,31.7261923 153.881885,31.6939084 153.547913,31.6939084 L153.547913,50.3517905 L153.549026,50.3517905 Z" id="Shape" fill="#426293" fill-rule="nonzero"></path>
                                <path d="M154.402881,62.2845971 C146.297389,62.0708553 141.813263,68.4909034 141.813263,74.908725 C141.813263,80.4682395 140.736761,83.1945613 140.164556,84.2343263 C142.781781,88.2174947 147.085562,90.9794402 152.036135,91.5516449 C152.323351,90.1177934 152.539319,88.5748444 152.682927,87.319111 C148.627398,86.3160829 145.758581,80.6129606 145.758581,74.908725 C145.758581,72.2547637 146.943067,69.6386526 148.986974,67.9866062 C153.828449,73.0451633 157.521062,72.9360659 162.077549,72.577603 C162.221157,73.295642 162.293517,74.0481914 162.293517,74.908725 C162.293517,81.3666232 160.319745,86.4953143 155.54729,87.3914716 C155.478269,88.3588761 155.799995,89.9374487 156.229705,91.5516449 C161.106805,90.9059664 165.304828,88.144021 167.886429,84.2343263 C167.313111,83.1589377 166.202099,80.3613686 166.238835,74.6582463 C166.274459,68.0945904 161.003273,62.4638285 154.402881,62.2845971" id="Shape" fill="#0092C8" fill-rule="nonzero"></path>
                                <path d="M154.438504,84.092945 C156.699492,84.092945 158.134457,82.3006306 157.523289,81.2586391 C156.769626,81.6883492 155.658614,81.9777913 154.438504,81.9777913 C153.218394,81.9777913 152.107382,81.6883492 151.35372,81.2586391 C150.745891,82.2627804 152.180856,84.092945 154.438504,84.092945" id="Shape" fill="#426293" fill-rule="nonzero"></path>
                                <path d="M160.894176,77.5994231 C161.003273,77.3122075 161.073407,77.0261052 161.073407,76.7032659 C161.073407,75.4119089 160.069266,74.3699174 158.813533,74.3699174 C157.557799,74.3699174 156.552545,75.4119089 156.552545,76.7032659 C156.552545,77.0261052 156.623792,77.3122075 156.731776,77.5994231 C157.341831,77.3500577 158.058757,77.2053366 158.813533,77.2053366 C159.567195,77.2053366 160.285234,77.3500577 160.894176,77.5994231" id="Shape" fill="#426293" fill-rule="nonzero"></path>
                                <path d="M152.072872,77.5994231 C152.180856,77.3122075 152.25099,77.0261052 152.25099,76.7032659 C152.25099,75.4119089 151.246849,74.3699174 149.991115,74.3699174 C148.736495,74.3699174 147.73124,75.4119089 147.73124,76.7032659 C147.73124,77.0261052 147.801375,77.3122075 147.910472,77.5994231 C148.519414,77.3500577 149.235226,77.2053366 149.991115,77.2053366 C150.744778,77.2053366 151.462817,77.3500577 152.072872,77.5994231" id="Shape" fill="#426293" fill-rule="nonzero"></path>
                                <path d="M222.89601,142.581398 L259.492622,142.581398 L259.492622,143.038939 C259.492622,143.823772 258.903719,144.411562 258.119999,144.411562 L224.268634,144.411562 C223.484914,144.411562 222.897124,143.823772 222.897124,143.038939 L222.897124,142.581398 L222.89601,142.581398 Z M247.340508,123.169853 L242.809626,134.047309 L241.465947,129.914967 C241.330132,129.508635 240.98948,129.174663 240.579809,129.045527 L236.448579,127.700735 L247.340508,123.169853 Z M249.769595,119.252366 C249.634893,119.264611 249.491285,119.296895 249.35547,119.352557 L231.974473,126.600855 C231.459043,126.813484 231.108373,127.371216 231.129524,127.930062 C231.150676,128.487795 231.543649,129.002111 232.073551,129.172437 L239.063577,131.432311 L241.337924,138.422338 C241.506023,138.953353 242.022566,139.356345 242.579185,139.37861 C243.136918,139.401988 243.694651,139.049091 243.909506,138.534775 L251.157804,121.152664 C251.546324,120.096201 250.719187,119.176666 249.769595,119.252366 L249.769595,119.252366 Z M226.555226,118.794825 L255.833407,118.794825 C256.365535,118.794825 256.747376,119.178892 256.747376,119.708794 L256.747376,139.837264 L225.641257,139.837264 L225.641257,119.708794 C225.640144,119.178892 226.023098,118.794825 226.555226,118.794825 L226.555226,118.794825 Z M226.555226,116.050691 C224.551396,116.050691 222.89601,117.706077 222.89601,119.708794 L222.89601,139.837264 L221.523387,139.837264 C220.775291,139.837264 220.151877,140.525246 220.151877,141.209888 L220.151877,143.038939 C220.151877,145.295474 222.013212,147.156809 224.268634,147.156809 L258.119999,147.156809 C260.376534,147.156809 262.237869,145.295474 262.237869,143.038939 L262.237869,141.209888 C262.237869,140.489622 261.584398,139.837264 260.864133,139.837264 L259.493736,139.837264 L259.493736,119.708794 C259.493736,117.706077 257.837236,116.050691 255.83452,116.050691 L226.555226,116.050691 Z" id="Shape" fill="#426293" fill-rule="nonzero"></path>
                                <path d="M241.193203,73.2845096 C209.932345,73.2845096 182.985287,98.6652408 182.985287,131.700602 C182.985287,162.96814 208.752312,189.718155 241.193203,189.718155 C271.488884,189.718155 299.025958,167.111615 299.025958,131.315421 C299.025958,125.076831 298.093064,119.16108 296.368657,113.648322 L273.735399,120.96898 C274.755126,124.225203 275.312859,127.721886 275.312859,131.395574 C275.312859,152.561584 259.031742,165.929355 241.126409,165.929355 C221.946418,165.929355 206.698386,150.103552 206.698386,131.628241 C206.698386,112.078655 222.635513,97.0900079 241.126409,97.0900079 C241.141994,97.0900079 241.176505,97.0966873 241.193203,97.0966873 L241.193203,73.3023214" id="Shape" fill="#0092C8" fill-rule="nonzero"></path>
                                <path d="M241.193203,97.0966873 C256.029337,97.1222918 269.305822,106.745128 273.735399,120.96898 L296.368657,113.648322 C290.624345,95.267636 276.150014,81.4478896 258.425026,75.9373576 C258.064337,75.8160146 257.688062,75.7158231 257.32626,75.607839 C256.049375,75.2293378 254.768037,74.9165177 253.453302,74.6370947 C252.913381,74.5246576 252.372347,74.4010881 251.829087,74.3042363 C250.660186,74.083815 249.496851,73.9257351 248.320158,73.7765611 C247.692291,73.6930682 247.071104,73.6062356 246.432105,73.5450075 C245.115143,73.4247777 243.788163,73.3824746 242.44337,73.3513039 C242.031472,73.342398 241.620687,73.3012082 241.194316,73.3012082 L241.194316,97.0966873 L241.193203,97.0966873 Z" id="Shape" fill="#426293" fill-rule="nonzero"></path>
                            </g>
                        </g>
                    </g>
                    <path d="M151.796789,234.587244 C178.505614,234.587244 200.159221,212.93475 200.159221,186.223698 C200.159221,159.51376 178.505614,137.861265 151.796789,137.861265 C125.08685,137.861265 103.433243,159.51376 103.433243,186.223698 C103.433243,212.933636 125.08685,234.587244 151.796789,234.587244" id="Shape" fill="#FFFFFF" fill-rule="nonzero"></path>
                    <g id="Group" transform="translate(103.531208, 138.041610)">
                        <path d="M75.7225025,39.5266565 C75.7225025,36.3439068 73.5327618,33.6799264 70.5793393,32.9396226 C68.2181599,21.5367176 59.26772,13.0493851 48.5795144,13.0493851 C37.9068941,13.0493851 28.9675866,21.5111132 26.5908218,32.8884136 C23.5360945,33.5552436 21.2472756,36.2726595 21.2472756,39.5266565 C21.2472756,42.8841847 23.683042,45.6661684 26.8836036,46.2183349 C29.6377563,56.9532965 38.3043203,64.7938373 48.5784011,64.7938373 C58.8613878,64.7938373 67.5357445,56.9377112 70.2809913,46.1882774 C73.3858143,45.5592975 75.7225025,42.8162771 75.7225025,39.5266565 Z" id="Shape" stroke="#426192" stroke-width="3.057"></path>
                        <path d="M28.0447116,31.28201 C28.0447116,31.28201 41.8054563,41.0061509 60.9253325,26.9659832 L74.0771356,17.3075235 L60.0458739,18.3350429 L65.4473085,11.5520789 L48.8555976,13.8386714 C48.8555976,13.8386714 30.3056996,11.5520789 28.0447116,31.28201" id="Shape" fill="#426192" fill-rule="nonzero"></path>
                        <path d="M43.421879,38.9210546 C43.421879,40.8313724 41.8744771,42.3787743 39.9641593,42.3787743 C38.0560681,42.3787743 36.5086661,40.8302591 36.5086661,38.9210546 C36.5086661,37.0118501 38.0571813,35.4644482 39.9641593,35.4644482 C41.8744771,35.4633349 43.421879,37.0118501 43.421879,38.9210546" id="Shape" fill="#426192" fill-rule="nonzero"></path>
                        <path d="M60.3854117,38.9210546 C60.3854117,40.8313724 58.8380098,42.3787743 56.927692,42.3787743 C55.0196008,42.3787743 53.4721988,40.8302591 53.4721988,38.9210546 C53.4721988,37.0118501 55.020714,35.4644482 56.927692,35.4644482 C58.839123,35.4633349 60.3854117,37.0118501 60.3854117,38.9210546" id="Shape" fill="#426192" fill-rule="nonzero"></path>
                        <path d="M48.4848891,56.7206296 C52.5894005,56.7206296 56.0192892,53.8707383 56.9288053,50.0478763 L40.0409728,50.0478763 C40.9516022,53.8718516 44.3814909,56.7206296 48.4848891,56.7206296" id="Shape" fill="#426192" fill-rule="nonzero"></path>
                        <path d="M48.4848891,88.4568411 C60.3219571,88.4568411 70.9378022,83.2524497 78.1894397,75.0144827 L66.3356731,64.5901146 C61.9784564,69.5395743 55.5995982,72.6688885 48.4860023,72.6688885 C41.3724064,72.6688885 34.9935481,69.5395743 30.6363315,64.5901146 L18.7836781,75.0144827 C26.0330891,83.2524497 36.647821,88.4568411 48.4848891,88.4568411" id="Shape" fill="#0091C7" fill-rule="nonzero"></path>
                        <ellipse id="Oval" stroke="#0091C7" stroke-width="2.378" cx="48.4848891" cy="48.3791314" rx="48.1987867" ry="48.1987867"></ellipse>
                    </g>
                    <path d="M65.5697648,96.4287441 C90.6410156,96.4287441 110.965416,76.1043435 110.965416,51.0342059 C110.965416,25.9640683 90.6410156,5.63966771 65.5697648,5.63966771 C40.498514,5.63966771 20.1741134,25.9640683 20.1741134,51.0342059 C20.1741134,76.1043435 40.498514,96.4287441 65.5697648,96.4287441" id="Shape" fill="#FFFFFF" fill-rule="nonzero"></path>
                    <g id="Group" transform="translate(15.585343, 0.000000)" fill-rule="nonzero" fill="#E76E34">
                        <path d="M23.3112203,78.2284031 C8.08322686,63.0015229 8.08322686,38.2219406 23.3112203,22.9972869 C30.6886537,15.617627 40.4974007,11.5565319 50.927335,11.5565319 C61.3572692,11.5565319 71.1693559,15.617627 78.5456761,22.9972869 C93.7725563,38.2230539 93.7725563,63.0026361 78.5456761,78.2284031 C71.1693559,85.6058365 61.3583824,89.6691581 50.927335,89.6691581 C40.4918345,89.6702714 30.6886537,85.6058365 23.3112203,78.2284031 M114.892923,103.3876 L91.5282669,80.0285102 C105.764365,60.4232618 104.05443,32.8405443 86.3750845,15.1678785 C76.5841494,5.3780566 63.757412,0.479805919 50.927335,0.479805919 C38.0939182,0.479805919 25.2638411,5.3780566 15.4762457,15.1678785 C-4.10339818,34.7464091 -4.10339818,66.4926397 15.4762457,86.0711703 C25.2638411,95.8609923 38.1005976,100.759243 50.927335,100.759243 C61.2626439,100.759243 71.5923866,97.5787197 80.3379906,91.2265792 L103.695967,114.583442 C105.238916,116.127504 107.26501,116.901205 109.294445,116.901205 C111.320539,116.901205 113.351087,116.127504 114.891809,114.583442 C117.9855,111.490865 117.9855,106.479064 114.892923,103.3876" id="Shape"></path>
                        <path d="M31.0181724,31.6293405 L42.5980823,31.6293405 C42.8363154,31.6293405 43.006641,31.6972481 43.3740098,32.0635037 C45.0639062,34.2064883 46.5100034,36.5765737 48.0963687,38.9566782 C48.4091888,39.4331444 48.9736009,39.7359454 49.5435791,39.7359454 L73.8611673,39.7359454 C74.5335635,39.7359454 75.0189356,40.2213175 75.0189356,40.8937137 L75.0189356,66.367957 C75.0189356,67.0403532 74.5324503,67.5257253 73.8611673,67.5257253 L31.0181724,67.5257253 C30.3457762,67.5257253 29.8604041,67.0403532 29.8604041,66.367957 L29.8604041,32.7871089 C29.8604041,32.1169391 30.3457762,31.6293405 31.0181724,31.6293405 L31.0181724,31.6293405 Z M31.0181724,28.1560355 C28.4822145,28.1560355 26.3859858,30.2511509 26.3859858,32.7871089 L26.3859858,66.367957 C26.3859858,68.903915 28.4822145,70.9990304 31.0181724,70.9990304 L73.8611673,70.9990304 C76.396012,70.9990304 78.4922407,68.903915 78.4922407,66.367957 L78.4922407,40.8937137 C78.4922407,38.3577558 76.396012,36.2615271 73.8611673,36.2615271 L50.4853792,36.2615271 C48.8722962,34.1775441 47.5308434,31.3254263 45.8342675,29.6032459 C45.0895107,28.8584892 43.9629131,28.1560355 42.5980823,28.1560355 L31.0181724,28.1560355 L31.0181724,28.1560355 Z" id="Shape"></path>
                    </g>
                    <rect id="Rectangle-path" fill="#FFFFFF" fill-rule="nonzero" x="205.567335" y="2.79979556" width="98.3023249" height="60.5434916"></rect>
                    <path d="M300.662419,67.1104873 L208.008668,67.1104873 C206.204108,67.1104873 204.729067,65.6354459 204.729067,63.831999 L204.729067,5.36692421 C204.729067,3.56236413 206.204108,2.08732273 208.008668,2.08732273 L300.662419,2.08732273 C302.464753,2.08732273 303.940908,3.56236413 303.940908,5.36692421 L303.940908,63.831999 C303.940908,65.6354459 302.464753,67.1104873 300.662419,67.1104873 Z" id="Shape" stroke="#72BE44" stroke-width="5.197"></path>
                    <rect id="Rectangle-path" fill="#72BE44" fill-rule="nonzero" x="249.853088" y="65.5975957" width="8.96713846" height="12.7276591"></rect>
                    <rect id="Rectangle-path" fill="#72BE44" fill-rule="nonzero" x="239.729294" y="76.0453418" width="29.2136123" height="4.55982609"></rect>
                    <g id="Group" transform="translate(193.703550, 36.736880)">
                        <path d="M27.5136967,60.9676356 L6.9766675,60.9676356 C3.15937169,60.9676356 0.0356236413,57.8427743 0.0356236413,54.0254785 L0.0356236413,7.51436184 C0.0356236413,3.69595279 3.16048493,0.573317977 6.9766675,0.573317977 L27.5136967,0.573317977 C31.3321058,0.573317977 34.4547406,3.69706602 34.4547406,7.51436184 L34.4547406,54.0254785 C34.4547406,57.8427743 31.3321058,60.9676356 27.5136967,60.9676356" id="Shape" fill="#FFFFFF" fill-rule="nonzero"></path>
                        <path d="M27.5136967,60.9676356 L6.9766675,60.9676356 C3.15937169,60.9676356 0.0356236413,57.8427743 0.0356236413,54.0254785 L0.0356236413,7.51436184 C0.0356236413,3.69595279 3.16048493,0.573317977 6.9766675,0.573317977 L27.5136967,0.573317977 C31.3321058,0.573317977 34.4547406,3.69706602 34.4547406,7.51436184 L34.4547406,54.0254785 C34.4547406,57.8427743 31.3321058,60.9676356 27.5136967,60.9676356 Z" id="Shape" stroke="#72BE44" stroke-width="5.197"></path>
                        <rect id="Rectangle-path" fill="#BDDB8E" fill-rule="nonzero" x="4.29821497" y="6.63378995" width="25.892821" height="43.6645651"></rect>
                        <path d="M17.2451821,55.5528421 L17.2451821,55.5528421 C16.2555128,55.5528421 15.4473015,54.7435175 15.4473015,53.7549615 C15.4473015,52.7664054 16.2566261,51.9570808 17.2451821,51.9570808 C18.2337382,51.9570808 19.0419495,52.7675187 19.0419495,53.7549615 C19.0419495,54.7446308 18.2337382,55.5528421 17.2451821,55.5528421" id="Shape" fill="#72BE44" fill-rule="nonzero"></path>
                    </g>
                    <polygon id="Shape" fill="#FFFFFF" fill-rule="nonzero" points="290.511908 132.16037 303.449969 132.16037 307.236094 134.367922 307.516631 141.311192 308.072137 147.465176 307.552254 152.671794 302.502603 161.192524 296.507812 163.400076 291.774321 163.923299 286.40851 159.928998 282.148145 152.355634 280.729879 148.05074 282.307338 142.257445 285.14721 135.000242"></polygon>
                    <polygon id="Shape" fill="#FFFFFF" fill-rule="nonzero" points="321.279602 181.860915 334.217663 181.860915 338.003788 184.070694 338.284324 191.011738 338.83983 197.165722 338.318835 202.37234 333.270297 210.89307 327.274393 213.101736 322.540901 213.624958 317.176204 209.63177 312.915839 202.057293 311.497573 197.752399 313.075032 191.960218 315.913791 184.700787"></polygon>
                    <path d="M344.788979,208.842484 L344.788979,190.539725 C344.788979,190.539725 346.840678,187.699853 348.575104,187.699853 L369.717735,187.699853 C369.717735,187.699853 374.451226,188.172979 374.451226,192.433344 C374.451226,196.693709 374.293146,208.842484 374.293146,208.842484 C374.293146,208.842484 373.50386,211.524276 370.348941,211.682356 C367.192909,211.840436 359.619546,211.840436 359.619546,211.840436 L353.308595,217.67826 L352.677389,217.67826 L352.519309,211.682356 L346.996531,211.682356 C346.996531,211.681243 345.578265,211.681243 344.788979,208.842484" id="Shape" fill="#FFFFFF" fill-rule="nonzero"></path>
                    <g id="Group" transform="translate(271.630265, 125.795983)">
                        <path d="M66.5616605,12.2278149 L45.0204899,12.2278149 C42.8385419,12.2278149 41.0083773,13.9867322 41.0083773,16.2388142 L41.0083773,32.4998933 C41.0083773,34.680728 42.7684079,36.5108926 45.0204899,36.5108926 L49.0314893,36.5108926 L49.0314893,42.3553963 C49.0314893,42.6381589 49.314252,42.7071797 49.5224276,42.5680249 L55.5762202,36.5142323 L55.5762202,36.4452115 L66.5572076,36.4452115 C68.7380424,36.4452115 70.5693202,34.6862942 70.5693202,32.4342122 L70.5693202,16.1686802 C70.5737731,13.9867322 68.7436086,12.2278149 66.5616605,12.2278149 L66.5616605,12.2278149 Z M56.7061575,29.3316157 C56.7061575,29.7524199 56.3543741,30.1053166 55.9324566,30.1053166 L47.4840874,30.1053166 C47.0621699,30.1053166 46.7103864,29.7524199 46.7103864,29.3316157 L46.7103864,28.275152 C46.7103864,27.8543478 47.0621699,27.5025643 47.4840874,27.5025643 L55.9324566,27.5025643 C56.3543741,27.5025643 56.7061575,27.8543478 56.7061575,28.275152 L56.7061575,29.3316157 Z M64.80163,24.825225 C64.80163,25.2471425 64.4509598,25.598926 64.0301555,25.598926 L47.4852006,25.598926 C47.0632831,25.598926 46.7114997,25.2471425 46.7114997,24.825225 L46.7114997,23.7687614 C46.7114997,23.3479572 47.0632831,22.9961737 47.4852006,22.9961737 L64.0301555,22.9961737 C64.4509598,22.9961737 64.80163,23.3479572 64.80163,23.7687614 L64.80163,24.825225 Z M64.80163,20.3232874 C64.80163,20.7452049 64.4509598,21.0969883 64.0301555,21.0969883 L47.4852006,21.0969883 C47.0632831,21.0969883 46.7114997,20.7452049 46.7114997,20.3232874 L46.7114997,19.2668238 C46.7114997,18.8449062 47.0632831,18.494236 47.4852006,18.494236 L64.0301555,18.494236 C64.4509598,18.494236 64.80163,18.8449062 64.80163,19.2668238 L64.80163,20.3232874 Z" id="Shape" fill="#8B3693" fill-rule="nonzero"></path>
                        <path d="M8.69216848,24.4044208 C9.04395194,25.5287919 9.608364,27.7118532 10.9431373,28.978719 C11.9305801,32.7815427 14.9541367,37.2144595 19.7421767,38.9032428 C20.8687744,39.3273868 22.0677325,39.5389021 23.3334851,39.5389021 C24.601464,39.5389021 25.7970825,39.3273868 26.9225669,38.9032428 C31.710607,37.1454387 34.7375032,32.7815427 35.7216063,28.978719 C37.0608326,27.71074 37.6931522,25.5276787 37.9725752,24.4044208 C38.4635135,22.573143 39.0290388,19.9681642 37.6219049,18.1368864 C37.5528841,18.0678656 37.4816368,17.9988448 37.4816368,17.925371 C38.256451,13.1362177 37.6931522,9.54824911 35.8618744,7.15255923 C35.0180394,6.02707481 34.0317098,5.46154951 33.1845351,5.11087929 C32.549989,4.33606509 31.4946386,3.27960148 29.9472367,2.36451919 C28.0491646,1.23792154 25.9362373,0.67239623 23.612908,0.67239623 C23.1909905,0.67239623 22.839207,0.67239623 22.4172895,0.742530273 C21.3619392,0.811551078 20.3065888,1.02417969 19.319146,1.30694234 C18.1936616,1.65983904 17.1383112,2.22313787 16.0829608,2.99795206 C14.8873423,3.77165302 13.8308787,4.6177145 12.9146832,5.60070436 C11.0834054,7.49988973 9.88556046,9.61281696 9.32337487,12.0073936 C8.90257061,13.7651976 8.83243657,15.5964755 9.25435407,17.8518972 C9.18533326,17.9209181 9.11519922,17.9910521 9.11519922,18.0634126 C7.63459163,19.9703907 8.20011693,22.573143 8.69216848,24.4044208 M12.1420955,19.3369578 L12.3547241,19.3369578 C12.3547241,19.3369578 13.1974459,8.21236256 22.1400931,12.0830938 C26.8546593,14.055753 30.3056996,8.8190777 32.5600082,8.25800535 C35.3765023,10.2295512 34.6028013,18.7012984 34.3901727,19.1911235 L34.3901727,19.2612576 L34.6028013,19.2612576 C35.5189969,19.2612576 36.5019867,19.9659377 35.4455231,23.5550196 C34.6729354,26.3692872 33.8992344,27.1441014 33.3337091,27.212009 C32.843884,30.5216679 30.1665448,34.7452959 26.0130508,36.2259035 C25.1681026,36.5097794 24.2541335,36.7157286 23.3368248,36.7157286 C22.419516,36.7157286 21.505547,36.5776869 20.6594855,36.2949243 C16.4347443,34.8176564 13.9032393,30.5940284 13.337714,27.212009 C12.7733019,27.1429882 12.0686217,26.3692872 11.2270132,23.5550196 C10.2429101,20.1095455 11.2292397,19.3369578 12.1420955,19.3369578" id="Shape" fill="#8B3693" fill-rule="nonzero"></path>
                        <path d="M96.16268,72.773533 L79.6199516,72.773533 C79.1980341,72.773533 78.8451374,73.1253164 78.8451374,73.547234 L78.8451374,74.6025843 C78.8451374,75.0256151 79.1980341,75.3773985 79.6199516,75.3773985 L96.16268,75.3773985 C96.5845975,75.3773985 96.9363809,75.0256151 96.9363809,74.6025843 L96.9363809,73.547234 C96.9363809,73.1264297 96.5845975,72.773533 96.16268,72.773533" id="Shape" fill="#8B3693" fill-rule="nonzero"></path>
                        <path d="M96.16268,68.5821889 L79.6199516,68.5821889 C79.1980341,68.5821889 78.8451374,68.9339724 78.8451374,69.3558899 L78.8451374,70.4112403 C78.8451374,70.8331578 79.1980341,71.1849412 79.6199516,71.1849412 L96.16268,71.1849412 C96.5845975,71.1849412 96.9363809,70.8331578 96.9363809,70.4112403 L96.9363809,69.3558899 C96.9363809,68.9350856 96.5845975,68.5821889 96.16268,68.5821889" id="Shape" fill="#8B3693" fill-rule="nonzero"></path>
                        <path d="M88.0672075,77.2810369 L79.6188383,77.2810369 C79.1958076,77.2810369 78.8451374,77.6317071 78.8451374,78.0536246 L78.8451374,79.1089749 C78.8451374,79.5297792 79.1958076,79.8826759 79.6188383,79.8826759 L88.0672075,79.8826759 C88.4880118,79.8826759 88.838682,79.5297792 88.838682,79.1089749 L88.838682,78.0536246 C88.8397952,77.6317071 88.4880118,77.2810369 88.0672075,77.2810369" id="Shape" fill="#8B3693" fill-rule="nonzero"></path>
                        <path d="M58.8780864,91.2176733 C57.4008185,91.7074983 55.9202109,91.9891478 54.372809,91.9891478 C52.8910882,91.9891478 51.3436863,91.7074983 49.9365524,91.2176733 C46.9775637,90.1612097 44.6553476,88.3299319 42.9654511,86.2192311 C40.5018537,87.5573441 36.2771125,89.9519208 31.8419691,93.1892192 C36.9083189,100.159207 45.0739254,104.735732 54.4384901,104.735732 C63.8030548,104.735732 72.0387954,100.159207 76.9737829,93.2593532 C72.5364131,90.0220548 68.3127852,87.6263649 65.8480745,86.2882519 C64.0880439,88.3310451 61.8348486,90.1612097 58.8780864,91.2176733" id="Shape" fill="#C288BB" fill-rule="nonzero"></path>
                        <path d="M98.6964115,62.0051742 L77.1541276,62.0051742 C74.9721796,62.0051742 73.1431283,63.7652047 73.1431283,66.0172868 L73.1431283,82.2783658 C73.1431283,84.4592006 74.9020456,86.2893651 77.1541276,86.2893651 L81.1662402,86.2893651 L81.1662402,92.1338688 C81.1662402,92.4166315 81.4490029,92.4856523 81.6560653,92.3476106 L87.7109711,86.2938181 L87.7109711,86.2247973 L98.6919585,86.2247973 C100.872793,86.2247973 102.701845,84.4647668 102.701845,82.2126847 L102.701845,65.948266 C102.707411,63.7652047 100.87836,62.0051742 98.6964115,62.0051742 Z" id="Shape" stroke="#8B3693" stroke-width="1.392"></path>
                        <path d="M39.7927206,74.1828933 C40.1433908,75.3072645 40.7100293,77.4903257 42.0436894,78.7583047 C43.0311322,82.5611284 46.055802,86.9929321 50.8438421,88.6839418 C51.9693265,89.1058593 53.1682846,89.3173747 54.4351504,89.3173747 C55.7031294,89.3173747 56.8987478,89.1058593 58.023119,88.6839418 C62.8122723,86.9239113 65.8380553,82.5611284 66.8232717,78.7583047 C68.1613847,77.4892125 68.7948176,75.3061512 69.0742405,74.1828933 C69.5651788,72.3527287 70.1307041,69.7466367 68.7235703,67.9153589 C68.6545495,67.8463381 68.5833022,67.7773173 68.5833022,67.7038435 C69.3570031,62.9146903 68.7948176,59.3267216 66.9635397,56.9310318 C66.1185915,55.8055473 65.1333752,55.2411353 64.2862005,54.8893518 C63.6516543,54.1145376 62.5951907,53.0591872 61.048902,52.1429917 C59.1497167,51.0175073 57.0379027,50.4508688 54.7145733,50.4508688 C54.2915426,50.4508688 53.9408724,50.4508688 53.5189549,50.5210028 C52.4636045,50.5900236 51.4082541,50.8037655 50.4208113,51.0854149 C49.2953269,51.4383116 48.2388633,52.0016104 47.1835129,52.7775378 C45.9878944,53.5501256 44.9325441,54.396187 44.0152353,55.3802901 C42.1839575,57.2794755 40.9861126,59.3912895 40.4250402,61.7858661 C40.0031227,63.5458967 39.9341019,65.374948 40.3560194,67.6303698 C40.2869986,67.6993906 40.2168646,67.7695246 40.2168646,67.8418851 C38.7373702,69.7488632 39.3017823,72.3527287 39.7927206,74.1828933 M43.2437608,69.1154303 L43.4563894,69.1154303 C44.4672103,55.7821693 43.2894036,57.552219 53.2428716,61.8615664 C57.9574379,63.8342255 61.4084782,63.761865 63.6627867,63.2007926 C66.4781676,65.1723385 65.7044667,68.479771 65.4929513,68.9729358 L65.4929513,69.0419566 L65.7044667,69.0419566 C66.6206622,69.0419566 67.6047653,69.7466367 66.5483017,73.3357186 C65.775714,76.1499862 65.0008998,76.9248004 64.4364877,76.9949345 C63.9466626,80.3023669 61.2682101,84.5271081 57.1147162,86.0077157 C56.2708812,86.2904784 55.3557989,86.4975408 54.4396033,86.4975408 C53.5222946,86.4975408 52.6083255,86.358386 51.7622641,86.0756233 C47.5375228,84.5994687 45.0049046,80.3747275 44.4404925,76.9949345 C43.8760805,76.9248004 43.1714003,76.1499862 42.3286785,73.3357186 C41.3445755,69.888018 42.330905,69.1154303 43.2437608,69.1154303" id="Shape" fill="#C288BB" fill-rule="nonzero"></path>
                        <path d="M20.3856287,41.8700242 C19.8579535,41.7509076 19.3347313,41.6139792 18.8326606,41.4392007 C15.8747852,40.3827371 13.5536823,38.5525726 11.8615593,36.4407586 C9.39796187,37.7788716 5.17322066,40.1745615 0.738077318,43.4107466 C4.97506416,49.2385517 11.3817534,53.3809133 18.8393401,54.5854376 L23.3769014,47.2135704 L20.3856287,41.8700242 Z" id="Shape" fill="#8B3693" fill-rule="nonzero"></path>
                        <path d="M45.8710044,43.4808807 C41.4347478,40.2435823 37.2111198,37.8490056 34.7452959,36.5108926 C32.9874918,38.5536858 30.7331833,40.3827371 27.7753078,41.4392007 C27.486979,41.5349393 27.1975369,41.6162057 26.9092081,41.6952457 L23.4236574,47.2180233 L27.8098182,54.5921171 C35.2930094,53.3931589 41.7397752,49.2574768 45.8710044,43.4808807" id="Shape" fill="#8B3693" fill-rule="nonzero"></path>
                        <polygon id="Shape" fill="#FFFFFF" fill-rule="nonzero" points="23.3780146 47.2146836 23.4013926 47.2547602 23.4247706 47.2180233 23.4013926 47.1779467"></polygon>
                    </g>
                </g>
            </g>
        </g>
    </g>
</svg>