<?xml version="1.0" encoding="UTF-8"?>
<svg width="238px" height="187px" viewBox="0 0 238 187" version="1.1" xmlns="http://www.w3.org/2000/svg" xmlns:xlink="http://www.w3.org/1999/xlink">
    <!-- Generator: Sketch 43 (38999) - http://www.bohemiancoding.com/sketch -->
    <title>Group 10</title>
    <desc>Created with Sketch.</desc>
    <defs>
        <polygon id="path-1" points="0 55.0791378 0 0.146983504 54.9333442 0.146983504 54.9333442 55.0791378 1.43569122e-15 55.0791378"></polygon>
        <polygon id="path-3" points="0 21.036422 26.9726154 21.036422 26.9726154 2.19999999e-05 0 2.19999999e-05"></polygon>
        <path d="M1.71291142,0.192938277 C0.769330657,0.192938277 0,0.964912453 0,1.93112529 L0,50.8908896 C0,51.8471415 0.769330657,52.6257563 1.71291142,52.6257563 L42.7833326,52.6257563 C43.7285573,52.6257563 44.4946002,51.8471415 44.4946002,50.8908896 L44.4946002,1.93112529 C44.4946002,0.964912453 43.7285573,0.192938277 42.7833326,0.192938277 L1.71291142,0.192938277 Z" id="path-5"></path>
        <linearGradient x1="50%" y1="0%" x2="50%" y2="100%" id="linearGradient-7">
            <stop stop-color="#FFFFFF" offset="0%"></stop>
            <stop stop-color="#000000" offset="100%"></stop>
        </linearGradient>
        <polygon id="path-8" points="0.0511226852 5.84453726 6.58450868 5.84453726 6.58450868 0.343515625 0.0511226852 0.343515625"></polygon>
        <polygon id="path-9" points="0.084749512 26.2804182 26.450631 26.2804182 26.450631 0.073102444 0.084749512 0.073102444 0.084749512 26.2804182"></polygon>
        <polygon id="path-11" points="27.111362 0.034275223 27.111362 27.1486915 8.48396612e-05 27.1486915 8.48396612e-05 0.034275223"></polygon>
        <polygon id="path-13" points="0 11.8725 60.952018 11.8725 60.952018 0.236796361 0 0.236796361"></polygon>
        <polygon id="path-14" points="0 14.7642045 63.9275127 14.7642045 63.9275127 0.0313212764 0 0.0313212764"></polygon>
        <path d="M2.2474871,0.20270412 C1.00627907,0.20270412 0,1.22268016 0,2.47833999 L0,44.5171972 C0,45.7748376 1.00627907,46.7948136 2.2474871,46.7948136 L56.5297821,46.7948136 C57.7670747,46.7948136 58.7753115,45.7748376 58.7753115,44.5171972 L58.7753115,2.47833999 C58.7753115,1.22268016 57.7670747,0.20270412 56.5297821,0.20270412 L2.2474871,0.20270412 Z" id="path-16"></path>
    </defs>
    <g id="Page-1" stroke="none" stroke-width="1" fill="none" fill-rule="evenodd">
        <g id="homepage" transform="translate(-609.000000, -1031.000000)">
            <g id="CTA-Copy" transform="translate(545.000000, 736.000000)">
                <g id="Group-10" transform="translate(64.000000, 295.042969)">
                    <g id="lines" transform="translate(24.580688, 15.206672)" stroke-linecap="square" stroke-width="3" stroke="#FDB933" stroke-dasharray="3,7">
                        <polygon id="Line" points="120.59375 4.6436624 144.234375 85.6592874 73.578125 79.0186624 55.25 0.128037398 0.265625 25.0967874 11.953125 93.0967874 14.609375 126.299912 36.125 162.690537 92.96875 143.034287 144.234375 141.706162 151.671875 90.1749124 205.328125 71.0499124 177.4375 38.6436624"></polygon>
                    </g>
                    <g id="Page-1" transform="translate(79.182590, 70.247050)">
                        <g id="Group-7" transform="translate(0.000000, 0.277722)">
                            <g id="Group-3" transform="translate(0.050442, 0.000000)">
                                <mask id="mask-2" fill="white">
                                    <use xlink:href="#path-1"></use>
                                </mask>
                                <g id="Clip-2"></g>
                                <path d="M54.9333442,27.6166303 C54.9333442,42.7831808 42.6358999,55.0791378 27.4648873,55.0791378 C12.295362,55.0791378 -0.00059494167,42.7831808 -0.00059494167,27.6166303 C-0.00059494167,12.442643 12.295362,0.146686033 27.4648873,0.146686033 C42.6358999,0.146686033 54.9333442,12.442643 54.9333442,27.6166303" id="Fill-1" fill="#7272B5" mask="url(#mask-2)"></path>
                            </g>
                            <g id="Group-6" fill="#0092C8">
                                <path d="M54.9837861,27.6166303 C54.9837861,42.7831808 42.6863418,55.0791378 27.5153292,55.0791378 C12.3458039,55.0791378 0.0498469775,42.7831808 0.0498469775,27.6166303 C0.0498469775,12.442643 12.3458039,0.146686033 27.5153292,0.146686033 C42.6863418,0.146686033 54.9837861,12.442643 54.9837861,27.6166303" id="Fill-4"></path>
                            </g>
                        </g>
                        <g id="Group-381" transform="translate(10.625000, 8.461655)">
                            <polygon id="Fill-209" fill="#8C3694" points="29.6289911 36.9282146 11.4178266 37.5529034 11.3256106 34.7700637 29.5323131 34.145375"></polygon>
                            <path d="M29.4540124,36.0236558 L29.6458811,26.0078128 C29.6458811,26.0078128 36.1188465,16.5289047 34.0112656,9.37324371 C34.0112656,9.37324371 33.5724961,5.67865594 27.9919433,2.07330942 C27.9919433,2.07330942 20.0866558,-2.44229786 12.7123538,1.92308665 C12.7123538,1.92308665 7.29094787,4.10652258 5.40944484,9.45207349 C5.40944484,9.45207349 3.45506145,12.460991 3.60230951,13.9691681 L3.41490289,16.4143784 C3.41490289,16.4143784 3.31822487,16.5943482 0.267661452,20.3573543 C0.267661452,20.3573543 -0.892474805,22.2433194 1.87251661,22.5883856 C1.87251661,22.5883856 2.54628805,22.5467396 2.58495926,23.0762377 C2.58495926,23.0762377 1.8338454,23.9790617 2.16998744,25.0306211 L2.15213919,26.0762311 C2.15213919,26.0762311 1.90672575,26.5730074 2.32615963,26.9478207 C2.32615963,26.9478207 1.72229384,28.3816301 2.96274722,28.7951145 C2.96274722,28.7951145 3.71534843,29.0970474 3.26170541,30.7911438 C3.26170541,30.7911438 2.74113145,32.5224241 6.27359761,33.7658522 C6.27359761,33.7658522 10.9766115,33.7658522 11.6161738,33.5799329 C11.6161738,33.5799329 11.3915833,36.4356529 13.3102702,36.3984691 L29.4540124,36.0236558 Z" id="Fill-211" fill="#FFFFFF"></path>
                            <path d="M4.13701334,11.7030353 C4.13701334,11.7030353 5.52174008,8.3564884 6.97488511,6.44226358 C8.42951749,4.52803875 6.90349211,9.23402736 6.90349211,9.23402736 L5.68683639,12.2756667 L4.41217386,13.3867202 C4.41217386,13.3867202 3.57925552,13.5934625 4.13701334,11.7030353" id="Fill-213" fill="#FFFFFF"></path>
                            <path d="M9.27373972,10.3116155 C9.27373972,14.9313375 14.3441301,18.6779827 20.5969671,18.6779827 C26.8453419,18.6779827 31.9157323,14.9313375 31.9157323,10.3116155 C31.9157323,5.69040604 26.8453419,1.94376087 20.5969671,1.94376087 C14.3441301,1.94376087 9.27373972,5.69040604 9.27373972,10.3116155" id="Fill-215" fill="#72BF44"></path>
                            <path d="M20.0215097,5.21772488 C21.6189281,6.13839712 22.1722239,8.18797117 21.253039,9.78836426 C20.3204679,11.38727 18.279818,11.9390784 16.6749628,11.0139441 C15.0775444,10.0902972 14.5301981,8.04518517 15.4538451,6.44330472 C16.3745173,4.84439899 18.4196293,4.29854 20.0215097,5.21772488" id="Fill-217" fill="#F7F7F7"></path>
                            <path d="M19.0657359,6.87493491 C19.7514062,7.27057112 19.9849208,8.14662273 19.590772,8.832293 C19.1966231,9.51647592 18.3161094,9.75445259 17.6304392,9.35732902 C16.9507183,8.96466752 16.7097669,8.08415385 17.1113525,7.39848358 C17.5025267,6.7128133 18.3756036,6.47632399 19.0657359,6.87493491" id="Fill-219" fill="#19B0BF"></path>
                            <path d="M16.0766002,8.48573948 L14.1742743,8.32361787 C14.0627227,8.31469375 13.9719941,8.21057895 13.9794309,8.09159062 L14.0656974,7.14265866 C14.0775962,7.02218297 14.1831984,6.93591643 14.2962373,6.94781526 L16.2045127,7.11291157 L16.0766002,8.48573948 Z" id="Fill-221" fill="#F7F7F7"></path>
                            <path d="M16.7163113,9.85693129 L15.056424,10.8177621 C14.9642081,10.8698195 14.8318335,10.8400724 14.7693647,10.7344703 L14.296386,9.90750133 C14.2368919,9.80636125 14.2681263,9.67547408 14.3737285,9.61449256 L16.0291536,8.66109853 L16.7163113,9.85693129 Z" id="Fill-223" fill="#F7F7F7"></path>
                            <path d="M18.0091195,10.4801327 L17.1999989,12.2084382 C17.1568656,12.3155277 17.0230037,12.3660978 16.9159142,12.312553 L16.0547361,11.9109674 C15.9461593,11.8633721 15.9000513,11.7295102 15.9506213,11.6253954 L16.7627167,9.89857721 L18.0091195,10.4801327 Z" id="Fill-225" fill="#F7F7F7"></path>
                            <path d="M19.4302864,10.2491466 L19.7575044,12.1306496 C19.7753526,12.2436885 19.7009849,12.3537527 19.587946,12.3745757 L18.6419887,12.539672 C18.5304372,12.5634697 18.4188856,12.4846399 18.3965753,12.3671389 L18.06787,10.4856359 L19.4302864,10.2491466 Z" id="Fill-227" fill="#F7F7F7"></path>
                            <path d="M20.4477854,9.24547999 L21.8027651,10.5945102 C21.8875443,10.6778021 21.8875443,10.8131513 21.8027651,10.8949558 L21.130481,11.5702146 C21.0442145,11.6535064 20.9118399,11.6535064 20.8285481,11.5702146 L19.4765432,10.2211843 L20.4477854,9.24547999 Z" id="Fill-229" fill="#F7F7F7"></path>
                            <path d="M20.7187814,7.83368341 L22.6032591,8.1683381 C22.711836,8.17874958 22.7906657,8.29178849 22.7698428,8.41226418 L22.6047465,9.35524673 C22.5868982,9.46531094 22.476834,9.54711542 22.359333,9.5218304 L20.4852668,9.19461248 L20.7187814,7.83368341 Z" id="Fill-231" fill="#F7F7F7"></path>
                            <path d="M20.1268144,6.52347311 L21.8625567,5.71732715 C21.9607221,5.6637824 22.0930966,5.71286509 22.140692,5.81697988 L22.5452523,6.68262001 C22.5928476,6.78822216 22.548227,6.91315991 22.4396501,6.96819201 L20.7128319,7.77880004 L20.1268144,6.52347311 Z" id="Fill-233" fill="#F7F7F7"></path>
                            <path d="M18.8936491,5.7943721 L19.8470431,4.13597219 C19.909512,4.03334475 20.0359371,3.99764825 20.1385645,4.06309184 L20.9685081,4.53309576 C21.0636988,4.59556463 21.0993953,4.72496444 21.0443632,4.8335413 L20.0865071,6.48747914 L18.8936491,5.7943721 Z" id="Fill-235" fill="#F7F7F7"></path>
                            <path d="M17.2486353,5.95560129 L17.0761023,4.04881324 C17.0686655,3.93279961 17.1564194,3.82719746 17.2754077,3.8227354 L18.2228523,3.7320068 C18.343328,3.72754473 18.4489302,3.81381128 18.4563669,3.9298249 L18.6229506,5.83661296 L17.2486353,5.95560129 Z" id="Fill-237" fill="#F7F7F7"></path>
                            <path d="M16.2232534,7.07394289 L14.8890967,5.70706441 C14.8132416,5.61931051 14.8087795,5.48842334 14.8920714,5.40364416 L15.579229,4.74177155 C15.6684703,4.65847971 15.7948954,4.65847971 15.8826493,4.7432589 L17.2138312,6.11608681 L16.2232534,7.07394289 Z" id="Fill-239" fill="#F7F7F7"></path>
                            <g id="Group-257" transform="translate(16.836192, 6.424713)" fill="#FFFFFF">
                                <polygon id="Fill-241" points="1.57412192 1.68056148 1.48595869 1.70435915 1.15031972 0.3330186 1.24621657 0.312195641"></polygon>
                                <polygon id="Fill-243" points="1.49389853 1.731429 0.299553131 0.986264554 0.34566111 0.911896845 1.54000651 1.65259922"></polygon>
                                <polygon id="Fill-245" points="1.52587665 1.73769838 0.160485516 2.0702439 0.136687849 1.98208067 1.5080284 1.64798843"></polygon>
                                <polygon id="Fill-247" points="0.812690321 2.91075212 0.739809967 2.86464414 1.48051235 1.66732403 1.55636741 1.71343201"></polygon>
                                <polygon id="Fill-249" points="1.89717525 3.05026594 1.80591857 3.0710889 1.47337305 1.70421041 1.56153628 1.68041275"></polygon>
                                <polygon id="Fill-251" points="2.69002876 2.46633069 1.494196 1.73157773 1.54030398 1.65274796 2.73316203 2.39642505"></polygon>
                                <polygon id="Fill-253" points="2.89706846 1.41529936 1.52572791 1.75093833 1.50787966 1.66122838 2.8762455 1.32404269"></polygon>
                                <polygon id="Fill-255" points="1.55562373 1.71387822 1.47976867 1.66777024 2.21749634 0.473424834 2.29930082 0.521020168"></polygon>
                            </g>
                            <path d="M26.8591743,8.2708168 C28.0163359,8.93715147 28.4104847,10.4215309 27.7441501,11.5786925 C27.0703786,12.7373414 25.5919486,13.1359523 24.434787,12.4666429 C23.2761381,11.8017956 22.8760399,10.3174161 23.5483239,9.15876724 C24.2146586,7.99714363 25.6975507,7.59853271 26.8591743,8.2708168" id="Fill-258" fill="#FFFFFF"></path>
                            <path d="M26.1626464,9.47497874 C26.6579353,9.75460132 26.8289811,10.3897016 26.5404343,10.8924273 C26.2563497,11.3832541 25.6242242,11.5513252 25.1244732,11.2687279 C24.6306716,10.9801812 24.4581385,10.3450809 24.7437105,9.84979199 C25.0277951,9.35599041 25.6628954,9.18196997 26.1626464,9.47497874" id="Fill-260" fill="#42C2CA"></path>
                            <path d="M24.0006284,10.6368998 L22.6263131,10.5208862 C22.5430213,10.5119621 22.4760903,10.4331323 22.4879892,10.3468658 L22.5445086,9.66417019 C22.550458,9.579391 22.6278004,9.51543477 22.7081176,9.52138419 L24.0928443,9.63888517 L24.0006284,10.6368998 Z" id="Fill-262" fill="#FFFFFF"></path>
                            <path d="M24.4639392,11.6246517 L23.2606697,12.3237082 C23.1892766,12.3653541 23.098548,12.3415564 23.0583895,12.264214 L22.7073739,11.6648103 C22.6627533,11.5934173 22.6895256,11.4967393 22.7609186,11.453606 L23.9671629,10.7619863 L24.4639392,11.6246517 Z" id="Fill-264" fill="#FFFFFF"></path>
                            <path d="M25.3993362,12.0778485 L24.8118313,13.3331755 C24.7805969,13.4105179 24.6868936,13.4462144 24.6125259,13.4105179 L23.9818877,13.1160218 C23.9045453,13.0818126 23.8733108,12.9895967 23.9045453,12.9107669 L24.4935375,11.6569273 L25.3993362,12.0778485 Z" id="-" fill="#FFFFFF"></path>
                            <path d="M26.4233796,11.912306 L26.6643309,13.2747225 C26.6762298,13.3565269 26.622685,13.4338693 26.5408805,13.4502302 L25.8596723,13.5721933 C25.7748931,13.5885542 25.6975507,13.5335221 25.6797025,13.4457682 L25.4402385,12.0848391 L26.4233796,11.912306 Z" id="Fill-268" fill="#FFFFFF"></path>
                            <path d="M27.168544,11.1830563 L28.1472231,12.1617353 C28.2067172,12.2242042 28.2067172,12.3223696 28.1472231,12.3803764 L27.6563962,12.874178 C27.59244,12.9262354 27.500224,12.9306974 27.4377551,12.874178 L26.4605634,11.8925242 L27.168544,11.1830563 Z" id="Fill-270" fill="#FFFFFF"></path>
                            <path d="M27.3617513,10.1605003 L28.7271425,10.4044264 C28.8059722,10.4192999 28.8654664,10.4966423 28.8491055,10.5784468 L28.7301172,11.2670918 C28.7137563,11.3444342 28.6379012,11.4039284 28.5516347,11.3860801 L27.1862435,11.1495908 L27.3617513,10.1605003 Z" id="Fill-272" fill="#FFFFFF"></path>
                            <path d="M26.9347319,9.22227727 L28.1915462,8.63328501 C28.2674013,8.59610116 28.3536678,8.62733559 28.3908517,8.70616537 L28.6808857,9.33531618 C28.7180696,9.4126586 28.6868352,9.50189985 28.6035433,9.536109 L27.3571405,10.1206392 L26.9347319,9.22227727 Z" id="Fill-274" fill="#FFFFFF"></path>
                            <path d="M26.0384523,8.68772217 L26.7285846,7.48445265 C26.7746926,7.41157229 26.8713706,7.39223669 26.9368142,7.42942054 L27.5421674,7.77894877 C27.6180224,7.81613263 27.6358707,7.91132329 27.5927374,7.99015307 L26.9055798,9.19044789 L26.0384523,8.68772217 Z" id="Fill-276" fill="#FFFFFF"></path>
                            <path d="M24.8488664,8.80685924 L24.725416,7.42361986 C24.7179793,7.34032803 24.7819355,7.26447296 24.8667147,7.2600109 L25.5508976,7.19754203 C25.6416262,7.1886179 25.7174813,7.25257413 25.7264054,7.33437861 L25.8498558,8.71613064 L24.8488664,8.80685924 Z" id="Fill-278" fill="#FFFFFF"></path>
                            <path d="M24.103702,9.61434383 L23.1428712,8.62079124 C23.0804023,8.56129707 23.0804023,8.4661064 23.1458459,8.40363753 L23.6366728,7.92024742 C23.7021164,7.86521532 23.7987944,7.86670267 23.8612633,7.92173477 L24.8191194,8.91380001 L24.103702,9.61434383 Z" id="Fill-280" fill="#FFFFFF"></path>
                            <g id="Group-298" transform="translate(24.272963, 8.974567)" fill="#FFFFFF">
                                <polygon id="Fill-282" points="1.4154606 1.38642865 1.34895149 1.39832748 1.1107561 0.413699019 1.1772652 0.392876061"></polygon>
                                <polygon id="Fill-284" points="1.35304609 1.42123274 0.500792151 0.887272589 0.530539234 0.832240484 1.38874259 1.36620063"></polygon>
                                <polygon id="Fill-286" points="1.38279318 1.42509486 0.395190004 1.66793043 0.3758544 1.60606149 1.36940699 1.36322592"></polygon>
                                <polygon id="Fill-288" points="0.867127484 2.27527151 0.809120671 2.24403707 1.34903024 1.37690958 1.40406234 1.40963138"></polygon>
                                <polygon id="Fill-290" points="1.65180055 2.37700653 1.58683817 2.39188007 1.33936244 1.39832748 1.40587154 1.38642865"></polygon>
                                <polygon id="Fill-292" points="2.22671794 1.95578783 1.35364104 1.42182768 1.38933754 1.36679557 2.25795237 1.90224308"></polygon>
                                <polygon id="Fill-294" points="2.37560209 1.19422749 1.38353685 1.43396961 1.36866331 1.37210068 2.3622159 1.12926511"></polygon>
                                <polygon id="Fill-296" points="1.40376487 1.40963138 1.34873277 1.37839694 1.88418027 0.512756807 1.93772502 0.545478599"></polygon>
                            </g>
                            <path d="M20.0215097,5.21772488 C21.6189281,6.13839712 22.1722239,8.18797117 21.253039,9.78836426 C20.3204679,11.38727 18.279818,11.9390784 16.6749628,11.0139441 C15.0775444,10.0902972 14.5301981,8.04518517 15.4538451,6.44330472 C16.3745173,4.84439899 18.4196293,4.29854 20.0215097,5.21772488" id="Fill-299" fill="#FFFFFF"></path>
                            <path d="M19.0657359,6.87493491 C19.7514062,7.27057112 19.9849208,8.14662273 19.590772,8.832293 C19.1966231,9.51647592 18.3161094,9.75445259 17.6304392,9.35732902 C16.9507183,8.96466752 16.7097669,8.08415385 17.1113525,7.39848358 C17.5025267,6.7128133 18.3756036,6.47632399 19.0657359,6.87493491" id="Fill-301" fill="#42C2CA"></path>
                            <path d="M16.0766002,8.48573948 L14.1742743,8.32361787 C14.0627227,8.31469375 13.9719941,8.21057895 13.9794309,8.09159062 L14.0656974,7.14265866 C14.0775962,7.02218297 14.1831984,6.93591643 14.2962373,6.94781526 L16.2045127,7.11291157 L16.0766002,8.48573948 Z" id="Fill-303" fill="#FFFFFF"></path>
                            <path d="M16.7163113,9.85693129 L15.056424,10.8177621 C14.9642081,10.8698195 14.8318335,10.8400724 14.7693647,10.7344703 L14.296386,9.90750133 C14.2368919,9.80636125 14.2681263,9.67547408 14.3737285,9.61449256 L16.0291536,8.66109853 L16.7163113,9.85693129 Z" id="Fill-305" fill="#FFFFFF"></path>
                            <path d="M18.0091195,10.4801327 L17.1999989,12.2084382 C17.1568656,12.3155277 17.0230037,12.3660978 16.9159142,12.312553 L16.0547361,11.9109674 C15.9461593,11.8633721 15.9000513,11.7295102 15.9506213,11.6253954 L16.7627167,9.89857721 L18.0091195,10.4801327 Z" id="Fill-307" fill="#FFFFFF"></path>
                            <path d="M19.4302864,10.2491466 L19.7575044,12.1306496 C19.7753526,12.2436885 19.7009849,12.3537527 19.587946,12.3745757 L18.6419887,12.539672 C18.5304372,12.5634697 18.4188856,12.4846399 18.3965753,12.3671389 L18.06787,10.4856359 L19.4302864,10.2491466 Z" id="Fill-309" fill="#FFFFFF"></path>
                            <path d="M20.4477854,9.24547999 L21.8027651,10.5945102 C21.8875443,10.6778021 21.8875443,10.8131513 21.8027651,10.8949558 L21.130481,11.5702146 C21.0442145,11.6535064 20.9118399,11.6535064 20.8285481,11.5702146 L19.4765432,10.2211843 L20.4477854,9.24547999 Z" id="Fill-311" fill="#FFFFFF"></path>
                            <path d="M20.7187814,7.83368341 L22.6032591,8.1683381 C22.711836,8.17874958 22.7906657,8.29178849 22.7698428,8.41226418 L22.6047465,9.35524673 C22.5868982,9.46531094 22.476834,9.54711542 22.359333,9.5218304 L20.4852668,9.19461248 L20.7187814,7.83368341 Z" id="Fill-313" fill="#FFFFFF"></path>
                            <path d="M20.1268144,6.52347311 L21.8625567,5.71732715 C21.9607221,5.6637824 22.0930966,5.71286509 22.140692,5.81697988 L22.5452523,6.68262001 C22.5928476,6.78822216 22.548227,6.91315991 22.4396501,6.96819201 L20.7128319,7.77880004 L20.1268144,6.52347311 Z" id="Fill-315" fill="#FFFFFF"></path>
                            <path d="M18.8936491,5.7943721 L19.8470431,4.13597219 C19.909512,4.03334475 20.0359371,3.99764825 20.1385645,4.06309184 L20.9685081,4.53309576 C21.0636988,4.59556463 21.0993953,4.72496444 21.0443632,4.8335413 L20.0865071,6.48747914 L18.8936491,5.7943721 Z" id="Fill-317" fill="#FFFFFF"></path>
                            <path d="M17.2486353,5.95560129 L17.0761023,4.04881324 C17.0686655,3.93279961 17.1564194,3.82719746 17.2754077,3.8227354 L18.2228523,3.7320068 C18.343328,3.72754473 18.4489302,3.81381128 18.4563669,3.9298249 L18.6229506,5.83661296 L17.2486353,5.95560129 Z" id="Fill-319" fill="#FFFFFF"></path>
                            <path d="M16.2232534,7.07394289 L14.8890967,5.70706441 C14.8132416,5.61931051 14.8087795,5.48842334 14.8920714,5.40364416 L15.579229,4.74177155 C15.6684703,4.65847971 15.7948954,4.65847971 15.8826493,4.7432589 L17.2138312,6.11608681 L16.2232534,7.07394289 Z" id="Fill-321" fill="#FFFFFF"></path>
                            <g id="Group-339" transform="translate(16.836192, 6.424713)" fill="#FFFFFF">
                                <polygon id="Fill-323" points="1.57412192 1.68056148 1.48595869 1.70435915 1.15031972 0.3330186 1.24621657 0.312195641"></polygon>
                                <polygon id="Fill-325" points="1.49389853 1.731429 0.299553131 0.986264554 0.34566111 0.911896845 1.54000651 1.65259922"></polygon>
                                <polygon id="Fill-327" points="1.52587665 1.73769838 0.160485516 2.0702439 0.136687849 1.98208067 1.5080284 1.64798843"></polygon>
                                <polygon id="Fill-329" points="0.812690321 2.91075212 0.739809967 2.86464414 1.48051235 1.66732403 1.55636741 1.71343201"></polygon>
                                <polygon id="Fill-331" points="1.89717525 3.05026594 1.80591857 3.0710889 1.47337305 1.70421041 1.56153628 1.68041275"></polygon>
                                <polygon id="Fill-333" points="2.69002876 2.46633069 1.494196 1.73157773 1.54030398 1.65274796 2.73316203 2.39642505"></polygon>
                                <polygon id="Fill-335" points="2.89706846 1.41529936 1.52572791 1.75093833 1.50787966 1.66122838 2.8762455 1.32404269"></polygon>
                                <polygon id="Fill-337" points="1.55562373 1.71387822 1.47976867 1.66777024 2.21749634 0.473424834 2.29930082 0.521020168"></polygon>
                            </g>
                            <path d="M22.2910635,12.6762111 C23.2608184,13.2339689 23.5999351,14.4714476 23.0377153,15.4412025 C22.4769827,16.4154195 21.2380167,16.7456122 20.2667744,16.1878543 C19.2925574,15.6271218 18.9608775,14.3926178 19.5260721,13.4169135 C20.0793678,12.4501333 21.3213085,12.1125039 22.2910635,12.6762111" id="Fill-340" fill="#FFFFFF"></path>
                            <path d="M21.7159036,13.6785391 C22.1279007,13.9165158 22.2736614,14.4519633 22.0297353,14.8669351 C21.793246,15.2774448 21.2592859,15.4276676 20.8428267,15.189691 C20.4293422,14.9398155 20.2895309,14.40883 20.528995,13.9938582 C20.7669716,13.5803737 21.2964697,13.434613 21.7159036,13.6785391" id="Fill-342" fill="#42C2CA"></path>
                            <path d="M19.9046037,14.6545409 L18.7519042,14.5563755 C18.6805112,14.5519135 18.6254791,14.4924193 18.6299412,14.4165643 L18.6834859,13.8469076 C18.6894353,13.7680778 18.7519042,13.7189951 18.8203225,13.7219699 L19.973022,13.8216226 L19.9046037,14.6545409 Z" id="Fill-344" fill="#FFFFFF"></path>
                            <path d="M20.2895309,15.485377 L19.2840795,16.0669324 C19.2245854,16.1026289 19.1457556,16.0803186 19.1100591,16.014875 L18.820025,15.5180988 C18.7858159,15.4586046 18.8021768,15.3768001 18.8705951,15.342591 L19.8700971,14.7669849 L20.2895309,15.485377 Z" id="Fill-346" fill="#FFFFFF"></path>
                            <path d="M21.0760438,15.8630162 L20.5822423,16.9145756 C20.5554699,16.9755571 20.4751528,17.0082789 20.4097092,16.9740698 L19.8891352,16.7346057 C19.8222043,16.7003966 19.7924572,16.6215668 19.8266663,16.5576106 L20.3130311,15.5075385 L21.0760438,15.8630162 Z" id="Fill-348" fill="#FFFFFF"></path>
                            <path d="M21.9308263,15.7264771 L22.1345938,16.8657904 C22.1450053,16.9327213 22.1003847,16.9981649 22.0245296,17.007089 L21.459335,17.1141785 C21.387942,17.1260774 21.3210111,17.0814567 21.3105996,17.007089 L21.1053447,15.8662884 L21.9308263,15.7264771 Z" id="Fill-350" fill="#FFFFFF"></path>
                            <path d="M22.5503093,15.1150258 L23.3728162,15.9330706 C23.4174368,15.9881027 23.4248736,16.0669324 23.3728162,16.1160151 L22.9637938,16.5265249 C22.9147111,16.5770949 22.8314192,16.5770949 22.7808492,16.5265249 L21.961317,15.704018 L22.5503093,15.1150258 Z" id="Fill-352" fill="#FFFFFF"></path>
                            <path d="M22.7151081,14.2550376 L23.8618582,14.4632672 C23.9273018,14.4662419 23.9734098,14.5376349 23.9585362,14.6134899 L23.8618582,15.1786845 C23.84401,15.2530522 23.7830284,15.2961855 23.7146101,15.281312 L22.5723221,15.0834939 L22.7151081,14.2550376 Z" id="Fill-354" fill="#FFFFFF"></path>
                            <path d="M22.359333,13.4649551 L23.4079177,12.9741282 C23.4718739,12.9458684 23.5492164,12.9741282 23.5715267,13.0380844 L23.8243769,13.5616331 C23.8511493,13.6196399 23.8243769,13.7029317 23.7604207,13.7341662 L22.7103486,14.2235057 L22.359333,13.4649551 Z" id="Fill-356" fill="#FFFFFF"></path>
                            <path d="M21.6076242,13.0190463 L22.1876923,12.0180569 C22.2219015,11.951126 22.3051933,11.9377398 22.3646875,11.9734363 L22.8659259,12.2575209 C22.92542,12.2932174 22.9492177,12.3735346 22.9135212,12.4374908 L22.3319657,13.4414549 L21.6076242,13.0190463 Z" id="Fill-358" fill="#FFFFFF"></path>
                            <path d="M20.6134767,13.1207813 L20.5078745,11.9651071 C20.5034125,11.8952015 20.5599319,11.8312452 20.6268629,11.8282705 L21.2039563,11.7791878 C21.2753493,11.7702637 21.3393055,11.8223211 21.3467423,11.8922267 L21.4434203,13.0479009 L20.6134767,13.1207813 Z" id="Fill-360" fill="#FFFFFF"></path>
                            <path d="M19.9874493,13.7975274 L19.1827907,12.9660965 C19.1351954,12.9140391 19.1351954,12.8366966 19.1827907,12.787614 L19.5992499,12.3771042 C19.6498199,12.3324836 19.7331118,12.3324836 19.7851691,12.3800789 L20.5972645,13.2129973 L19.9874493,13.7975274 Z" id="Fill-362" fill="#FFFFFF"></path>
                            <g id="Group-380" transform="translate(20.342150, 13.436629)" fill="#FFFFFF">
                                <polygon id="Fill-364" points="0.975270421 0.9855867 0.919588381 1.00046024 0.720061068 0.169029257 0.775743109 0.158617778"></polygon>
                                <polygon id="Fill-366" points="0.926357092 1.02510185 0.204990317 0.571929641 0.230275338 0.525101847 0.954616821 0.979784626"></polygon>
                                <polygon id="Fill-368" points="0.944502813 1.019494 0.113071829 1.22520821 0.104147704 1.17725978 0.934091334 0.965358683"></polygon>
                                <polygon id="Fill-370" points="0.514203611 1.73060241 0.467657064 1.70234268 0.919609016 0.979488547 0.967657064 1.01221034"></polygon>
                                <polygon id="Fill-372" points="1.17237422 1.81627401 1.1182389 1.82817284 0.912524698 0.999716564 0.968206739 0.984843023"></polygon>
                                <polygon id="Fill-374" points="1.6504011 1.47249798 0.926059621 1.01754303 0.95431935 0.972497983 1.67866083 1.42595144"></polygon>
                                <polygon id="Fill-376" points="1.77459518 0.820189166 0.944651548 1.0274501 0.934240069 0.973314778 1.76269634 0.773787465"></polygon>
                                <polygon id="Fill-378" points="0.962957392 1.0116154 0.9150532 0.98038096 1.36714901 0.254552122 1.4150532 0.28578656"></polygon>
                            </g>
                        </g>
                    </g>
                    <g id="///" transform="translate(190.228745, 42.459470)">
                        <g id="Page-1">
                            <mask id="mask-4" fill="white">
                                <use xlink:href="#path-3"></use>
                            </mask>
                            <g id="Clip-2"></g>
                            <polygon id="Fill-1" fill="#BEDC8F" mask="url(#mask-4)" points="0 21.036422 8.37415385 21.036422 8.37415385 6.743022 0 6.743022"></polygon>
                            <polygon id="Fill-3" fill="#BEDC8F" mask="url(#mask-4)" points="9.296 21.036422 17.6701538 21.036422 17.6701538 -0.002178 9.296 -0.002178"></polygon>
                            <polygon id="Fill-4" fill="#BEDC8F" mask="url(#mask-4)" points="18.5963077 21.036422 26.9726154 21.036422 26.9726154 11.589622 18.5963077 11.589622"></polygon>
                        </g>
                    </g>
                    <g id="tab" transform="translate(152.247664, 78.792710)">
                        <g transform="translate(0.172697, 0.104937)">
                            <path d="M4.93160677,7.24781389 C4.93160677,7.24781389 4.5600924,5.79517431 6.89603014,5.58765437 L47.6985007,5.58765437 C47.6985007,5.58765437 49.4146999,5.65572091 49.4245631,7.31588043 L49.4245631,56.4300396 C49.4245631,56.4300396 49.3653838,57.9208628 47.7856258,58.0735975 L6.34697792,58.0735975 C6.34697792,58.0735975 4.93160677,57.9507457 4.93160677,56.4300396 L4.93160677,7.24781389 Z" id="Fill-1" fill="#E0F7FF"></path>
                            <g id="Group-5" transform="translate(0.000000, 0.467695)">
                                <mask id="mask-6" fill="white">
                                    <use xlink:href="#path-5"></use>
                                </mask>
                                <use id="Clip-4" fill="#D4D4D4" xlink:href="#path-5"></use>
                            </g>
                            <g id="Group-13" transform="translate(1.578947, 2.593821)">
                                <path d="M39.6172298,45.8045331 L1.71947563,45.8045331 C0.849868968,45.8045331 0.136429854,45.1305083 0.136429854,44.2954481 L0.136429854,1.60610623 C0.136429854,0.779346787 0.849868968,0.0970212253 1.71947563,0.0970212253 L39.6172298,0.0970212253 C40.4819049,0.0970212253 41.1937001,0.779346787 41.1937001,1.60610623 L41.1937001,44.2954481 C41.1937001,45.1305083 40.4819049,45.8045331 39.6172298,45.8045331 Z" id="Fill-6" fill="#FFFFFF"></path>
                                <path d="M21.850952,48.291452 C21.850952,48.947215 21.3232701,49.4900872 20.6624348,49.4900872 C20.0279014,49.4900872 19.4969317,48.947215 19.4969317,48.291452 C19.4969317,47.6423296 20.0279014,47.1110786 20.6624348,47.1110786 C21.3232701,47.1110786 21.850952,47.6423296 21.850952,48.291452" id="Fill-8" fill="#FFFFFF"></path>
                                <polygon id="Fill-10" fill="#0092C8" points="2.92525348 41.599515 9.84758553 41.599515 9.84758553 35.6478431 2.92525348 35.6478431"></polygon>
                                <polygon id="Fill-12" fill="#BEDC8F" points="2.92525348 30.4681455 9.84758553 30.4681455 9.84758553 24.5148134 2.92525348 24.5148134"></polygon>
                            </g>
                            <g id="Fill-14" transform="translate(4.450035, 15.979144)">
                                <g>
                                    <use fill="url(#linearGradient-7)" xlink:href="#path-8"></use>
                                    <use fill="#FDB933" xlink:href="#path-8"></use>
                                </g>
                            </g>
                            <g id="Group-25" transform="translate(4.276634, 5.448173)">
                                <polygon id="Fill-16" fill="#E66E3D" points="0.475790605 8.93367814 34.5531934 8.93367814 34.5531934 7.16892857 0.475790605 7.16892857"></polygon>
                                <polygon id="Fill-18" fill="#FCC016" points="9.5483032 16.1636728 34.5531934 16.1636728 34.5531934 11.5949138 9.5483032 11.5949138"></polygon>
                                <polygon id="Fill-19" fill="#BEDC8F" points="9.5483032 26.8766822 34.5531934 26.8766822 34.5531934 22.3527475 9.5483032 22.3527475"></polygon>
                                <polygon id="Fill-20" fill="#0092C8" points="9.5483032 38.0578566 34.5531934 38.0578566 34.5531934 33.4824569 9.5483032 33.4824569"></polygon>
                                <polygon id="Fill-21" fill="#0092C8" points="0.475790605 5.07712758 34.5531934 5.07712758 34.5531934 3.31237801 0.475790605 3.31237801"></polygon>
                                <polygon id="Fill-22" fill="#72BF44" points="0.475790605 20.1131923 34.5531934 20.1131923 34.5531934 18.3484428 0.475790605 18.3484428"></polygon>
                                <polygon id="Fill-23" fill="#436291" points="0.475790605 31.0602842 34.5531934 31.0602842 34.5531934 29.2955346 0.475790605 29.2955346"></polygon>
                                <polygon id="Fill-24" fill="#0092C8" points="10.2518791 1.32682723 25.6812328 1.32682723 25.6812328 0.0285824853 10.2518791 0.0285824853"></polygon>
                            </g>
                        </g>
                    </g>
                    <g id="cogs" transform="translate(0.000000, 18.338211)">
                        <g id="Page-1" transform="translate(0.032636, 0.000000)">
                            <path d="M18.9888115,10.7934091 C19.0443394,10.9977028 18.8962651,11.194903 18.6898154,11.2417203 L16.9926563,11.4573636 C16.9955039,11.8489265 16.9527901,12.1922534 16.8047158,12.5440926 L18.3096631,13.3314745 C18.5075701,13.4236904 18.5588266,13.6748014 18.4591612,13.874839 L17.6746523,15.3744115 C17.5721393,15.5787052 17.3770799,15.6255225 17.1777491,15.5318879 L15.7254821,14.792742 C15.4763187,15.0963451 15.1801701,15.3971108 14.8868691,15.6482218 L15.6429022,17.0867899 C15.7439914,17.279734 15.6927349,17.5237514 15.487709,17.6202235 L13.9471669,18.4359795 C13.7492599,18.4856343 13.551353,18.4303047 13.44884,18.2331045 L12.644398,16.7463004 C12.3909632,16.8527034 12.1389521,16.912289 11.8470749,16.9548502 C11.7474095,16.9576876 11.5964877,17.0087611 11.4939747,16.9676186 L11.3074581,18.6487855 C11.2576254,18.8530792 11.1067035,19.0006246 10.8618114,18.9481325 L9.15895715,18.7566071 C8.96247396,18.7055337 8.8101283,18.5168458 8.80728072,18.3125521 L9.04647764,16.6824586 C8.69622501,16.5774744 8.30325864,16.3816929 7.99571974,16.1844928 L6.85811058,17.4386291 C6.7100363,17.5847558 6.46372042,17.5819184 6.31422235,17.4400478 L5.05843851,16.3008267 C4.90751665,16.1546999 4.90609286,15.9035889 4.99294412,15.7532061 L6.1433674,14.5047446 C5.88993257,14.2139098 5.68917801,13.8663268 5.58381746,13.5201625 L3.93649106,13.8720016 C3.69017518,13.9244937 3.49369199,13.7726922 3.49084441,13.5712359 L3.08364013,11.8971626 C3.03238365,11.697125 3.17761035,11.4857377 3.37836491,11.4474327 L5.02569132,11.0899187 C5.01999615,10.68275 5.06270989,10.2911871 5.11396637,9.93651055 L3.56345776,9.30093016 C3.35985562,9.20729555 3.25876645,8.99590832 3.36127941,8.81289522 L3.99629029,7.21685072 C4.04469919,7.00830091 4.29243885,6.9146663 4.49888858,7.00404479 L6.05082097,7.64813741 C6.29286548,7.25089967 6.58759025,6.89764182 6.98767558,6.58978257 L6.13055328,5.30727214 C6.02946411,5.10155974 6.08214438,4.9086157 6.23021866,4.76248896 L7.71523288,3.8616105 C7.87184991,3.75378883 8.12101337,3.80486225 8.21925496,3.94673288 L9.07495347,5.2973412 C9.4252061,5.18951953 9.82671521,5.0916288 10.2225292,5.02778702 L10.4218599,5.03488055 L10.6596331,3.43316122 C10.6582093,3.23454235 10.85754,3.08699691 11.0597184,3.14232645 L12.801015,3.38066909 C13.0103123,3.37641298 13.1640818,3.57361314 13.1085539,3.77223201 L12.9220373,5.31294697 C13.3691077,5.4562363 13.7663454,5.65059905 14.1664308,5.90312876 L15.4051291,4.75823284 C15.5546272,4.60359386 15.8037906,4.59508162 15.9604077,4.74688319 L17.1165261,6.03506844 C17.2589052,6.17977647 17.2660242,6.4365623 17.1179499,6.53019691 L15.9262367,7.63111294 C16.2779131,8.03686292 16.5327717,8.47666185 16.6865412,8.9675342 L18.3253248,8.7632405 C18.5759121,8.75330956 18.7282577,8.852619 18.7780904,9.09805517 L18.9888115,10.7934091 Z" id="Fill-1" fill="#DFF4FF"></path>
                            <g id="Group-5" transform="translate(0.000000, 0.085264)" fill="#FDB933">
                                <path d="M16.1412291,7.87073242 C16.196757,8.07502612 16.0486827,8.27222628 15.842233,8.31904359 L14.1450739,8.53468693 C14.1479215,8.92624985 14.1052077,9.26957676 13.9571335,9.6214159 L15.4620808,10.4087979 C15.6599877,10.5010138 15.7112442,10.7521248 15.6115788,10.9521623 L14.8270699,12.4517348 C14.7245569,12.6560285 14.5294975,12.7028458 14.3301668,12.6092112 L12.8778997,11.8700653 C12.6287363,12.1736684 12.3325877,12.4744341 12.0392867,12.7255451 L12.7953198,14.1641132 C12.896409,14.3570573 12.8451525,14.6010747 12.6401266,14.6989655 L11.0995845,15.5133028 C10.9016776,15.5629576 10.7037706,15.507628 10.6012576,15.3104279 L9.7968156,13.8236237 C9.54338077,13.9300267 9.29136973,13.9896124 8.99949253,14.0321735 C8.89982715,14.035011 8.74890528,14.0860844 8.64639232,14.0449419 L8.45987567,15.7261088 C8.41004298,15.9318212 8.25912111,16.0779479 8.01422903,16.0254558 L6.31137476,15.8339304 C6.11489158,15.7842757 5.96254592,15.5927504 5.95969834,15.3898754 L6.19889526,13.759782 C5.84864263,13.6562164 5.45567626,13.4590162 5.14813736,13.2618161 L4.0105282,14.5159524 C3.86245391,14.6620791 3.61613804,14.6592417 3.46663996,14.5159524 L2.21085613,13.37815 C2.05993426,13.2320232 2.05851047,12.9809122 2.14536174,12.8305294 L3.29578502,11.5820679 C3.04235019,11.2912331 2.84159563,10.9436501 2.73623508,10.5974858 L1.08890867,10.9493249 C0.842592796,11.0018171 0.646109611,10.8500155 0.643262029,10.6485592 L0.236057748,8.97448586 C0.184801265,8.77444828 0.330027967,8.56306106 0.530782525,8.52475599 L2.17810893,8.16724202 C2.17241377,7.76007333 2.2151275,7.36851042 2.26638399,7.01383386 L0.71587538,6.37825347 C0.512273239,6.28461886 0.411184065,6.07323163 0.513697031,5.89021853 L1.1487079,4.29417403 C1.1971168,4.08562422 1.44485647,3.99198961 1.65130619,4.0813681 L3.20323859,4.72546072 C3.44528309,4.32822298 3.74000787,3.97496513 4.1400932,3.66710588 L3.2829709,2.38459545 C3.18188172,2.17888305 3.234562,1.98593901 3.38263628,1.83981226 L4.86765049,0.938933813 C5.02426753,0.83111214 5.27343098,0.882185564 5.37167258,1.02405619 L6.22737108,2.37466451 C6.57762372,2.26684284 6.97913283,2.16895211 7.37494678,2.10511033 L7.57427755,2.11220386 L7.81205068,0.510484534 C7.81062689,0.311865663 8.00995765,0.164320216 8.212136,0.219649758 L9.95343263,0.457992404 C10.1627299,0.453736285 10.3164994,0.65093645 10.2609715,0.849555321 L10.0744549,2.39027028 C10.5215253,2.53355961 10.9187631,2.72792236 11.3188484,2.98045207 L12.5575467,1.83555615 C12.7070448,1.68091717 12.9562083,1.67240493 13.1128253,1.8242065 L14.2689437,3.11239175 C14.4113229,3.25709978 14.4184418,3.51388561 14.2703675,3.60752022 L13.0786543,4.70843625 C13.4303307,5.11418623 13.6851893,5.55398516 13.8389588,6.04485751 L15.4777425,5.84056381 C15.7283297,5.83063287 15.8806754,5.92994231 15.9305081,6.17537848 L16.1412291,7.87073242 Z" id="Fill-3"></path>
                            </g>
                            <path d="M10.7318193,7.82575943 C10.9240311,9.22744118 9.93592,10.5184638 8.52494293,10.7099892 C7.11111828,10.9071893 5.80834933,9.92828205 5.6204089,8.50957583 C5.42819709,7.10221926 6.41773196,5.80268436 7.82301387,5.61967126 C9.24538127,5.42672721 10.5481502,6.4042158 10.7318193,7.82575943" id="Fill-6" fill="#DFF4FF"></path>
                            <g id="Group-10" transform="translate(14.915331, 9.566208)">
                                <mask id="mask-10" fill="white">
                                    <use xlink:href="#path-9"></use>
                                </mask>
                                <g id="Clip-9"></g>
                                <path d="M26.4349752,12.7597223 C26.5161313,13.0902809 26.2712392,13.427933 25.9437672,13.5073805 L23.1317796,13.8535448 C23.14317,14.5118245 23.067709,15.0892379 22.8185456,15.6680701 L25.3087564,16.967605 C25.6447711,17.1321749 25.7230796,17.5350875 25.5621912,17.8699021 L24.2523033,20.3498006 C24.0956863,20.6817779 23.7682143,20.7654815 23.4407423,20.603749 L21.035959,19.3794056 C20.6187882,19.874534 20.1275802,20.3795934 19.6335247,20.7910182 L20.8864609,23.1673512 C21.0587397,23.496491 20.974736,23.902241 20.6458402,24.0795793 L18.0929826,25.4032322 C17.7612393,25.4883546 17.4380387,25.4145818 17.2657599,25.0868607 L15.9387865,22.6296615 C15.5244633,22.7928127 15.1101401,22.863748 14.6118131,22.9573827 C14.4495009,22.9673136 14.1989137,23.0410863 14.0366015,22.9658949 L13.7205199,25.7621649 C13.6407876,26.0941421 13.3958955,26.3438344 12.9815722,26.2672243 L10.1638895,25.9494341 C9.83356991,25.8685678 9.5929492,25.5422654 9.59010161,25.2173817 L9.9802204,22.492047 C9.41070392,22.3331519 8.73440311,22.0068495 8.24177135,21.690478 L6.35524803,23.7504394 C6.10893215,24.0058066 5.6960327,24.0001317 5.45256441,23.7660452 L3.37382927,21.8734911 C3.12324202,21.6294736 3.12181823,21.2208862 3.28555422,20.9697752 L5.17065375,18.9083951 C4.75348294,18.4104292 4.41604442,17.841528 4.24661327,17.2655333 L1.52859589,17.8585525 C1.11142507,17.9408374 0.789648258,17.6954013 0.785376884,17.3662614 L0.100533321,14.5827598 C0.019377223,14.2522013 0.261421726,13.9188053 0.591741282,13.8265894 L3.31830141,13.2364076 C3.31545383,12.582384 3.39233856,11.9212669 3.46495191,11.3466909 L0.906399135,10.2911735 C0.570384414,10.1308597 0.399529471,9.79604502 0.570384414,9.46974259 L1.62541369,6.83236772 C1.70941737,6.50322788 2.11662165,6.32872701 2.44266983,6.49897176 L5.01688431,7.55023307 C5.421241,6.89053468 5.91956792,6.31028383 6.57451187,5.81373665 L5.15783963,3.68567732 C4.98413711,3.34802524 5.07098837,3.02597892 5.31588046,2.77770534 L7.77761543,1.27955156 C8.03105026,1.11640035 8.4439497,1.19159178 8.61195706,1.43277184 L10.0257817,3.65162837 C10.6109599,3.48563974 11.2730228,3.30830146 11.919424,3.22743521 L12.2525911,3.22317909 L12.6484051,0.581548102 C12.6498289,0.25524567 12.982996,0.0197404374 13.3076204,0.0835822175 L16.2021879,0.485076079 C16.5296599,0.485076079 16.7845185,0.815634629 16.7019386,1.14051835 L16.3844332,3.68709602 C17.1262284,3.93395091 17.7868675,4.26167204 18.4560494,4.65749108 L20.5105801,2.75642474 C20.7540483,2.51524468 21.1641002,2.51240727 21.4146875,2.75642474 L23.3311104,4.88732149 C23.5802739,5.12850155 23.5774263,5.53283282 23.333958,5.70591498 L21.3662786,7.53178989 C21.9443378,8.18297604 22.358661,8.9249594 22.6163672,9.7449716 L25.3457749,9.39455116 C25.7572506,9.39171375 26.0035665,9.55628367 26.0847226,9.97196459 L26.4349752,12.7597223 Z" id="Fill-8" fill="#DFF4FF" mask="url(#mask-10)"></path>
                            </g>
                            <path d="M38.5027241,19.4885177 C38.5838802,19.8190762 38.3389881,20.1567283 38.0115161,20.2361759 L35.1995285,20.5823402 C35.2109189,21.2406199 35.1354579,21.8180333 34.8862945,22.3968654 L37.3765053,23.6964003 C37.71252,23.8609703 37.7908285,24.2638828 37.6299401,24.5986975 L36.3200522,27.078596 C36.1634352,27.4105732 35.8359632,27.4942769 35.5084912,27.3325444 L33.1037079,26.1082009 C32.6865371,26.6033294 32.1953291,27.1083888 31.7012736,27.5198136 L32.9542098,29.8961465 C33.1264885,30.2252864 33.0424849,30.6310364 32.7135891,30.8083746 L30.1607315,32.1320275 C29.8289881,32.2171499 29.5057875,32.1433772 29.3335088,31.8156561 L28.0065354,29.3584569 C27.5922122,29.5216081 27.177889,29.5925434 26.679562,29.686178 C26.5172498,29.696109 26.2666626,29.7698817 26.1043504,29.6946902 L25.7882687,32.4909602 C25.7085364,32.8229375 25.4636444,33.0726298 25.0493211,32.9960196 L22.2316384,32.6782294 C21.9013188,32.5973632 21.6606981,32.2710607 21.6578505,31.946177 L22.0479693,29.2208424 C21.4784528,29.0619473 20.802152,28.7356448 20.3095202,28.4192734 L18.4229969,30.4792348 C18.176681,30.7346019 17.7637816,30.7289271 17.5203133,30.4948406 L15.4415782,28.6022865 C15.1909909,28.358269 15.1895671,27.9496816 15.3533031,27.6985706 L17.2384026,25.6371905 C16.8212318,25.1392246 16.4837933,24.5703234 16.3143622,23.9943286 L13.5963448,24.5873478 C13.179174,24.6696328 12.8573971,24.4241966 12.8531258,24.0950568 L12.1682822,21.3115552 C12.0871261,20.9809966 12.3291706,20.6476007 12.6594902,20.5553848 L15.3860503,19.965203 C15.3832027,19.3111794 15.4600874,18.6500623 15.5327008,18.0754863 L12.974148,17.0199689 C12.6381333,16.859655 12.4672784,16.5248404 12.6381333,16.1971192 L13.6931626,13.5611631 C13.7771663,13.2320232 14.1843705,13.0575224 14.5104187,13.2277671 L17.0846332,14.2790284 C17.4889899,13.61933 17.9873168,13.0390792 18.6422608,12.542532 L17.2255885,10.4144727 C17.051886,10.0768206 17.1387373,9.75477428 17.3836293,9.50650069 L19.8453643,8.00834692 C20.0987991,7.84519571 20.5116986,7.91896843 20.679706,8.16156719 L22.0935306,10.3804237 C22.6787088,10.2144351 23.3407717,10.0370968 23.9871729,9.95623057 L24.32034,9.95197445 L24.716154,7.31034346 C24.7175778,6.98404103 25.0507449,6.7485358 25.3753693,6.81237758 L28.2699368,7.21387144 C28.5974088,7.21387144 28.8522674,7.54442999 28.7696875,7.86931371 L28.4521821,10.4158914 C29.1939773,10.6627463 29.8546164,10.9904674 30.5237983,11.3862864 L32.5783289,9.4852201 C32.8217972,9.24404004 33.2318491,9.24120263 33.4824363,9.4852201 L35.3988593,11.6161168 C35.6480227,11.8572969 35.6451752,12.2616282 35.4017069,12.4347103 L33.4340274,14.262004 C34.0120867,14.9117714 34.4264099,15.6537548 34.6841161,16.473767 L37.4135238,16.1233465 C37.8249995,16.1219278 38.0713154,16.285079 38.1524715,16.70076 L38.5027241,19.4885177 Z" id="Fill-11" fill="#436291"></path>
                            <path d="M29.5483589,19.2654971 C29.8658643,21.5950127 28.2341996,23.7400965 25.8991821,24.0536306 C23.554198,24.3912826 21.4014257,22.7399086 21.0853441,20.4118117 C20.764991,18.0893896 22.4123175,15.9230252 24.7402161,15.6137472 C27.0852001,15.2945383 29.2393962,16.9217944 29.5483589,19.2654971" id="Fill-13" fill="#DFF4FF"></path>
                        </g>
                    </g>
                    <g id="Page-1" transform="translate(67.362915, 0.403213)">
                        <g id="Group-3" transform="translate(0.000000, 0.378670)">
                            <mask id="mask-12" fill="white">
                                <use xlink:href="#path-11"></use>
                            </mask>
                            <g id="Clip-2"></g>
                            <path d="M27.1114469,13.5967434 C27.1114469,21.0787531 21.0454111,27.1490308 13.5566142,27.1490308 C6.07121097,27.1490308 8.48396612e-05,21.0787531 8.48396612e-05,13.5967434 C8.48396612e-05,6.10709815 6.07121097,0.034275223 13.5566142,0.034275223 C21.0454111,0.034275223 27.1114469,6.10709815 27.1114469,13.5967434" id="Fill-1" fill="#FDB933" mask="url(#mask-12)"></path>
                        </g>
                        <path d="M12.6575684,8.03740043 C12.6406004,7.45370356 12.6787783,6.89121661 12.7814343,6.36266553 C12.8798483,5.84005322 13.0325597,5.27586947 13.2446588,4.6938694 C13.5704431,4.63278484 13.9072566,4.57679067 14.2720671,4.55473235 C14.6343325,4.53267404 14.945694,4.50807054 15.2273617,4.50807054 C15.5243005,4.50807054 15.8390556,4.53267404 16.1868982,4.55473235 C16.5406796,4.57679067 16.8664639,4.63278484 17.1608576,4.6938694 C17.1608576,5.27586947 17.108257,5.84005322 17.0030558,6.37963346 C16.894461,6.9200621 16.7459916,7.47151989 16.5237117,8.03740043 C16.201321,8.09254621 15.8636591,8.13411764 15.5243005,8.14769199 C15.1679739,8.16211473 14.8506736,8.16805351 14.5639155,8.16805351 C14.2958222,8.16805351 13.9819155,8.16211473 13.6298309,8.14769199 C13.2760495,8.13411764 12.9409328,8.09254621 12.6575684,8.03740043 L12.6575684,8.03740043 Z M11.8804371,12.9682815 L10.190431,12.9682815 C10.190431,12.9097422 10.190431,12.8622319 10.1794019,12.8104797 C10.1675243,12.7638179 10.1675243,12.7044302 10.1675243,12.639952 C10.1675243,12.2021794 10.2124893,11.794949 10.3041162,11.4182609 C10.395743,11.0339373 10.5213057,10.6496136 10.699469,10.2423832 L16.1181781,10.2423832 L13.6756443,23.2729067 C12.9935334,23.3687755 12.3512972,23.4324053 11.7429968,23.4324053 C11.1898422,23.4324053 10.6019034,23.3687755 9.95118318,23.2729067 L11.8804371,12.9682815 Z" id="Fill-4" fill="#FFFFFF"></path>
                    </g>
                    <g id="((0))" transform="translate(222.028778, 78.792710)" fill="#FDB933">
                        <g id="Group-4">
                            <path d="M10.0125817,7.61899415 C10.0125817,8.84098246 8.95773662,9.84963743 7.65342165,9.84963743 C6.356964,9.84963743 5.30408324,8.84098246 5.30408324,7.61899415 C5.30408324,6.38390643 6.356964,5.3808655 7.65342165,5.3808655 C8.95773662,5.3808655 10.0125817,6.38390643 10.0125817,7.61899415" id="Fill-1"></path>
                            <path d="M7.65302878,3.90568421 C5.50208769,3.90568421 3.75383419,5.58053801 3.75383419,7.61843275 C3.75383419,9.65819883 5.50208769,11.3274386 7.65302878,11.3274386 C9.80396988,11.3274386 11.5522234,9.65819883 11.5522234,7.61843275 C11.5522234,5.58053801 9.80396988,3.90568421 7.65302878,3.90568421 M7.65302878,12.4895439 C4.83421556,12.4895439 2.53005674,10.3000702 2.53005674,7.61843275 C2.53005674,4.92556725 4.83421556,2.73609357 7.65302878,2.73609357 C10.489521,2.73609357 12.7760008,4.92556725 12.7760008,7.61843275 C12.7760008,10.3000702 10.489521,12.4895439 7.65302878,12.4895439" id="Fill-3"></path>
                            <path d="M7.65302878,1.18269006 C4.11527087,1.18269006 1.22377745,4.06830409 1.22377745,7.61824561 C1.22377745,11.1588304 4.11527087,14.0500585 7.65302878,14.0500585 C11.2084657,14.0500585 14.0901374,11.1588304 14.0901374,7.61824561 C14.0901374,4.06830409 11.2084657,1.18269006 7.65302878,1.18269006 M7.65302878,15.2252632 C3.42971978,15.2252632 0,11.8138012 0,7.61824561 C0,3.41333333 3.42971978,0 7.65302878,0 C11.8841951,0 15.3257009,3.41333333 15.3257009,7.61824561 C15.3257009,11.8138012 11.8841951,15.2252632 7.65302878,15.2252632" id="Fill-5"></path>
                        </g>
                    </g>
                    <g id="((0))" transform="translate(161.787337, 149.908615)" fill="#FDB933">
                        <g id="Group-4">
                            <path d="M10.0125817,7.61899415 C10.0125817,8.84098246 8.95773662,9.84963743 7.65342165,9.84963743 C6.356964,9.84963743 5.30408324,8.84098246 5.30408324,7.61899415 C5.30408324,6.38390643 6.356964,5.3808655 7.65342165,5.3808655 C8.95773662,5.3808655 10.0125817,6.38390643 10.0125817,7.61899415" id="Fill-1"></path>
                            <path d="M7.65302878,3.90568421 C5.50208769,3.90568421 3.75383419,5.58053801 3.75383419,7.61843275 C3.75383419,9.65819883 5.50208769,11.3274386 7.65302878,11.3274386 C9.80396988,11.3274386 11.5522234,9.65819883 11.5522234,7.61843275 C11.5522234,5.58053801 9.80396988,3.90568421 7.65302878,3.90568421 M7.65302878,12.4895439 C4.83421556,12.4895439 2.53005674,10.3000702 2.53005674,7.61843275 C2.53005674,4.92556725 4.83421556,2.73609357 7.65302878,2.73609357 C10.489521,2.73609357 12.7760008,4.92556725 12.7760008,7.61843275 C12.7760008,10.3000702 10.489521,12.4895439 7.65302878,12.4895439" id="Fill-3"></path>
                            <path d="M7.65302878,1.18269006 C4.11527087,1.18269006 1.22377745,4.06830409 1.22377745,7.61824561 C1.22377745,11.1588304 4.11527087,14.0500585 7.65302878,14.0500585 C11.2084657,14.0500585 14.0901374,11.1588304 14.0901374,7.61824561 C14.0901374,4.06830409 11.2084657,1.18269006 7.65302878,1.18269006 M7.65302878,15.2252632 C3.42971978,15.2252632 0,11.8138012 0,7.61824561 C0,3.41333333 3.42971978,0 7.65302878,0 C11.8841951,0 15.3257009,3.41333333 15.3257009,7.61824561 C15.3257009,11.8138012 11.8841951,15.2252632 7.65302878,15.2252632" id="Fill-5"></path>
                        </g>
                    </g>
                    <g id="((0))" transform="translate(53.908196, 171.748490)" fill="#FDB933">
                        <g id="Group-4">
                            <path d="M10.0125817,7.61899415 C10.0125817,8.84098246 8.95773662,9.84963743 7.65342165,9.84963743 C6.356964,9.84963743 5.30408324,8.84098246 5.30408324,7.61899415 C5.30408324,6.38390643 6.356964,5.3808655 7.65342165,5.3808655 C8.95773662,5.3808655 10.0125817,6.38390643 10.0125817,7.61899415" id="Fill-1"></path>
                            <path d="M7.65302878,3.90568421 C5.50208769,3.90568421 3.75383419,5.58053801 3.75383419,7.61843275 C3.75383419,9.65819883 5.50208769,11.3274386 7.65302878,11.3274386 C9.80396988,11.3274386 11.5522234,9.65819883 11.5522234,7.61843275 C11.5522234,5.58053801 9.80396988,3.90568421 7.65302878,3.90568421 M7.65302878,12.4895439 C4.83421556,12.4895439 2.53005674,10.3000702 2.53005674,7.61843275 C2.53005674,4.92556725 4.83421556,2.73609357 7.65302878,2.73609357 C10.489521,2.73609357 12.7760008,4.92556725 12.7760008,7.61843275 C12.7760008,10.3000702 10.489521,12.4895439 7.65302878,12.4895439" id="Fill-3"></path>
                            <path d="M7.65302878,1.18269006 C4.11527087,1.18269006 1.22377745,4.06830409 1.22377745,7.61824561 C1.22377745,11.1588304 4.11527087,14.0500585 7.65302878,14.0500585 C11.2084657,14.0500585 14.0901374,11.1588304 14.0901374,7.61824561 C14.0901374,4.06830409 11.2084657,1.18269006 7.65302878,1.18269006 M7.65302878,15.2252632 C3.42971978,15.2252632 0,11.8138012 0,7.61824561 C0,3.41333333 3.42971978,0 7.65302878,0 C11.8841951,0 15.3257009,3.41333333 15.3257009,7.61824561 C15.3257009,11.8138012 11.8841951,15.2252632 7.65302878,15.2252632" id="Fill-5"></path>
                        </g>
                    </g>
                    <g id="Page-1" transform="translate(5.455688, 136.698960)">
                        <g transform="translate(0.000000, 0.041709)">
                            <polygon id="Fill-1" fill="#E0F7FF" points="2.97549474 14.7602491 63.9255291 14.7602491 63.9255291 3.12262027 2.97549474 3.12262027"></polygon>
                            <g id="Fill-2">
                                <use fill="url(#linearGradient-7)" xlink:href="#path-13"></use>
                                <use fill="#FDB933" xlink:href="#path-13"></use>
                            </g>
                            <g id="Group-26">
                                <g transform="translate(0.000000, 0.206905)">
                                    <path d="M8.94592413,6.26326256 C8.94592413,7.35089887 8.05129204,8.23155233 6.94837532,8.23155233 C5.84545861,8.23155233 4.94884286,7.35089887 4.94884286,6.26326256 C4.94884286,5.17562624 5.84545861,4.29497278 6.94837532,4.29497278 C8.05129204,4.29497278 8.94592413,5.17562624 8.94592413,6.26326256 Z" id="Fill-4" fill="#E0F7FF"></path>
                                    <path d="M56.5712963,6.26326256 C56.5712963,7.35089887 55.6766642,8.23155233 54.5717638,8.23155233 C53.4688471,8.23155233 52.574215,7.35089887 52.574215,6.26326256 C52.574215,5.17562624 53.4688471,4.29497278 54.5717638,4.29497278 C55.6766642,4.29497278 56.5712963,5.17562624 56.5712963,6.26326256" id="Fill-6" fill="#E0F7FF"></path>
                                    <mask id="mask-15" fill="white">
                                        <use xlink:href="#path-14"></use>
                                    </mask>
                                    <g id="Clip-9"></g>
                                    <polygon id="Fill-8" fill="#FFFFFF" mask="url(#mask-15)" points="6.04818898 2.77091508 7.04002056 2.77091508 7.04002056 0.0313212764 6.04818898 0.0313212764"></polygon>
                                    <polygon id="Fill-10" fill="#FFFFFF" mask="url(#mask-15)" points="8.71224861 1.40014184 9.70408019 1.40014184 9.70408019 0.0313212764 8.71224861 0.0313212764"></polygon>
                                    <polygon id="Fill-11" fill="#FFFFFF" mask="url(#mask-15)" points="12.0408354 1.40014184 13.032667 1.40014184 13.032667 0.0313212764 12.0408354 0.0313212764"></polygon>
                                    <polygon id="Fill-12" fill="#FFFFFF" mask="url(#mask-15)" points="15.3714058 1.40014184 16.3632374 1.40014184 16.3632374 0.0313212764 15.3714058 0.0313212764"></polygon>
                                    <polygon id="Fill-13" fill="#FFFFFF" mask="url(#mask-15)" points="20.7015088 1.40014184 21.6933403 1.40014184 21.6933403 0.0313212764 20.7015088 0.0313212764"></polygon>
                                    <polygon id="Fill-14" fill="#FFFFFF" mask="url(#mask-15)" points="24.0300955 1.40014184 25.0239108 1.40014184 25.0239108 0.0313212764 24.0300955 0.0313212764"></polygon>
                                    <polygon id="Fill-15" fill="#FFFFFF" mask="url(#mask-15)" points="27.360666 1.40014184 28.3524976 1.40014184 28.3524976 0.0313212764 27.360666 0.0313212764"></polygon>
                                    <polygon id="Fill-16" fill="#FFFFFF" mask="url(#mask-15)" points="32.6887853 1.40014184 33.6806168 1.40014184 33.6806168 0.0313212764 32.6887853 0.0313212764"></polygon>
                                    <polygon id="Fill-17" fill="#FFFFFF" mask="url(#mask-15)" points="36.0213394 1.40014184 37.0131709 1.40014184 37.0131709 0.0313212764 36.0213394 0.0313212764"></polygon>
                                    <polygon id="Fill-18" fill="#FFFFFF" mask="url(#mask-15)" points="39.3519098 1.40014184 40.3437414 1.40014184 40.3437414 0.0313212764 39.3519098 0.0313212764"></polygon>
                                    <polygon id="Fill-19" fill="#FFFFFF" mask="url(#mask-15)" points="44.6780454 1.40014184 45.6718606 1.40014184 45.6718606 0.0313212764 44.6780454 0.0313212764"></polygon>
                                    <polygon id="Fill-20" fill="#FFFFFF" mask="url(#mask-15)" points="48.0105995 1.40014184 49.0024311 1.40014184 49.0024311 0.0313212764 48.0105995 0.0313212764"></polygon>
                                    <polygon id="Fill-21" fill="#FFFFFF" mask="url(#mask-15)" points="51.34117 1.40014184 52.3330015 1.40014184 52.3330015 0.0313212764 51.34117 0.0313212764"></polygon>
                                    <polygon id="Fill-22" fill="#FFFFFF" mask="url(#mask-15)" points="18.0136452 2.77091508 19.0054768 2.77091508 19.0054768 0.0313212764 18.0136452 0.0313212764"></polygon>
                                    <polygon id="Fill-23" fill="#FFFFFF" mask="url(#mask-15)" points="29.9791014 2.77091508 30.970933 2.77091508 30.970933 0.0313212764 29.9791014 0.0313212764"></polygon>
                                    <polygon id="Fill-24" fill="#FFFFFF" mask="url(#mask-15)" points="41.9465412 2.77091508 42.9383728 2.77091508 42.9383728 0.0313212764 41.9465412 0.0313212764"></polygon>
                                    <polygon id="Fill-25" fill="#FFFFFF" mask="url(#mask-15)" points="53.9119974 2.77091508 54.903829 2.77091508 54.903829 0.0313212764 53.9119974 0.0313212764"></polygon>
                                </g>
                            </g>
                        </g>
                    </g>
                    <g id="Page-1" transform="translate(5.455688, 84.442378)">
                        <g transform="translate(0.000000, 0.273724)">
                            <g id="Group-15" transform="translate(0.000000, 0.002793)">
                                <mask id="mask-17" fill="white">
                                    <use xlink:href="#path-16"></use>
                                </mask>
                                <use id="Clip-14" fill="#212936" xlink:href="#path-16"></use>
                            </g>
                            <g id="Group-60" transform="translate(2.062937, 2.504348)">
                                <g transform="translate(0.180366, 0.346540)">
                                    <path d="M51.9452857,41.5347116 L2.4695636,41.5347116 C1.22354617,41.5347116 0.214958829,40.5123465 0.214958829,39.2488388 L0.214958829,2.31216418 C0.214958829,1.05064939 1.22354617,0.0242985008 2.4695636,0.0242985008 L51.9452857,0.0242985008 C53.1893409,0.0242985008 54.1979283,1.05064939 54.1979283,2.31216418 L54.1979283,39.2488388 C54.1979283,40.5123465 53.1893409,41.5347116 51.9452857,41.5347116" id="Fill-16" fill="#FFFFFF"></path>
                                    <polygon id="Fill-18" fill="#C389BC" points="17.4441422 34.3086034 49.371622 34.3086034 49.371622 26.1117467 44.9055816 23.5189651 43.0179142 25.4421275 41.0910022 25.4421275 39.2994842 27.2576724 36.3541737 24.2643151 34.4056772 26.243279 31.0443735 26.243279 29.7120178 24.8900902 27.1493426 27.4928363 25.9072496 26.2313215 23.2464628 28.9337134 21.5785654 27.2417291 20.6229584 28.2122784 19.5986732 27.17397 17.4441422 29.36219"></polygon>
                                    <polygon id="Fill-20" fill="#8C3694" points="17.4441422 32.0314995 21.2135903 32.0314995 22.4596077 30.3933239 23.4642706 31.716619 25.8837028 28.5359277 27.3671504 30.4889838 29.1253104 30.4889838 30.3340454 28.8986381 31.919529 30.9852194 34.0053818 28.2409764 35.1297409 29.7197188 36.2305531 28.2708701 38.5852317 31.3698519 41.1636048 27.9799046 43.2631932 27.9799046 44.9310906 25.783713 49.371622 29.1078941 49.371622 34.3094006 17.4441422 34.3094006"></polygon>
                                    <path d="M8.70239789,14.932095 C8.70239789,20.2571622 12.9506306,24.5738147 18.1937149,24.5738147 L18.1937149,14.932095 L8.70239789,14.932095 Z" id="Fill-22" fill="#C389BC"></path>
                                    <path d="M18.2490499,4.62115475 C13.00989,4.62115475 8.75969507,8.93780724 8.75969507,14.2628744 L18.2490499,14.2628744 L18.2490499,4.62115475 Z" id="Fill-24" fill="#8C3694"></path>
                                    <path d="M18.6705373,24.5736154 C23.915584,24.5736154 28.1618544,20.2569629 28.1618544,14.9318957 L18.6705373,14.9318957 L18.6705373,24.5736154 Z" id="Fill-26" fill="#E66E3D"></path>
                                    <path d="M18.6705373,4.80589791 L18.6705373,14.4456246 L28.1618544,14.4456246 C28.1618544,9.12454331 23.915584,4.80589791 18.6705373,4.80589791" id="Fill-28" fill="#0092C8"></path>
                                    <path d="M4.78166178,24.6593107 L4.78166178,33.8127663 C4.78166178,34.4066548 5.72549545,34.8869472 6.89498583,34.8869472 C8.06055174,34.8869472 9.00830989,34.4066548 9.00830989,33.8127663 L9.00830989,24.6593107 L6.64294244,24.6593107 L4.78166178,24.6593107 Z" id="Fill-30" fill="#436291"></path>
                                    <path d="M9.00791744,24.6593107 C9.00791744,25.2512063 8.0601593,25.7314986 6.89459338,25.7314986 C5.72510301,25.7314986 4.78126933,25.2512063 4.78126933,24.6593107 C4.78126933,24.0634293 5.72510301,23.5851299 6.89459338,23.5851299 C8.0601593,23.5851299 9.00791744,24.0634293 9.00791744,24.6593107" id="Fill-32" fill="#0092C8"></path>
                                    <path d="M11.090042,29.2366364 L11.090042,33.8123677 C11.090042,34.4062562 12.0378001,34.8865486 13.2053283,34.8865486 C14.3728564,34.8865486 15.3186523,34.4062562 15.3186523,33.8123677 L15.3186523,29.2366364 L11.090042,29.2366364 Z" id="Fill-34" fill="#72BF44"></path>
                                    <path d="M15.3180637,29.2366364 C15.3180637,29.8285319 14.37423,30.3088243 13.2047396,30.3088243 C12.0391737,30.3088243 11.0894533,29.8285319 11.0894533,29.2366364 C11.0894533,28.6427479 12.0391737,28.1624555 13.2047396,28.1624555 C14.37423,28.1624555 15.3180637,28.6427479 15.3180637,29.2366364" id="Fill-36" fill="#BEDC8F"></path>
                                    <path d="M22.3334362,10.4402654 L27.3979574,5.30053925 L22.3334362,10.4402654 Z" id="Stroke-38" stroke="#0895A3" stroke-width="0.191"></path>
                                </g>
                            </g>
                        </g>
                    </g>
                    <g id="Page-1" transform="translate(101.611938, 142.033649)">
                        <g id="Group-3" transform="translate(0.000000, 0.328419)">
                            <g id="Group-4" transform="translate(0.343393, 0.031714)">
                                <path d="M30.1881061,15.4180703 C30.1881061,23.7528496 23.4297646,30.5120386 15.0932903,30.5120386 C6.75681588,30.5120386 0.000169509443,23.7528496 0.000169509443,15.4180703 C0.000169509443,7.08159597 6.75681588,0.323254507 15.0932903,0.323254507 C23.4297646,0.323254507 30.1881061,7.08159597 30.1881061,15.4180703" id="Fill-1" fill="#E0F7FF"></path>
                                <g id="Group-12" transform="translate(5.616533, 5.085283)">
                                    <path d="M9.8718835,19.6806395 L9.8718835,10.75851 L17.1446861,5.59694752 C18.0074892,6.98014457 18.7948605,9.01510543 18.7948605,10.75851 C18.7948605,15.6844544 14.7986754,19.6806395 9.8718835,19.6806395" id="Fill-4" fill="#E66E3D"></path>
                                    <path d="M10.2907413,0.142387932 L10.2907413,9.06790762 L17.4364119,3.72581754 C15.8574314,1.21368761 13.4775188,0.142387932 10.2907413,0.142387932" id="Fill-6" fill="#F9C32A"></path>
                                    <path d="M0.159839996,9.94876344 L9.08451214,9.94876344 L9.08451214,1.02324375 C4.15687265,1.02324375 0.159839996,5.01942885 0.159839996,9.94876344" id="Fill-8" fill="#31A2DB"></path>
                                    <path d="M8.9887393,10.6174782 L0.0632196143,10.6174782 C0.0632196143,15.5468128 4.06025226,19.5429979 8.98958685,19.5429979 L8.9887393,10.6174782 Z" id="Fill-10" fill="#FFFFFF"></path>
                                </g>
                            </g>
                        </g>
                    </g>
                    <g id="Page-1" transform="translate(129.309570, 4.918838)">
                        <path d="M12.9717559,0.437340718 C12.1730336,0.717008598 11.4157436,1.07263566 10.7585817,1.5341452 C10.1083251,2.00140923 9.5167642,2.50665285 9.05755645,3.07519579 C8.80781188,3.34105291 8.62021573,3.64488961 8.41765792,3.91995391 C8.23236357,4.20767807 8.07469073,4.49885491 7.92162148,4.77391921 C7.90205624,4.82110597 7.88249099,4.86368914 7.86177485,4.90972501 C7.6074267,4.88210349 7.34847496,4.86484004 7.08491963,4.86484004 C3.173022,4.86484004 0,8.03671114 0,11.9509106 C0,15.6521941 2.83926198,18.6894103 6.45883187,19.0059069 C6.60499574,19.0243212 6.7546123,19.0369811 6.90653065,19.0369811 L28.1601386,19.0369811 C28.3592438,19.0369811 28.5525944,19.016265 28.7413414,18.9851907 C28.9680681,19.0139632 29.1970965,19.0346793 29.4330303,19.0346793 C32.3954382,19.0346793 34.7985104,16.632758 34.7985104,13.6691992 C34.7985104,10.8805767 32.6693516,8.58914152 29.9474811,8.33018978 C29.0820068,6.35525117 27.0690886,4.97072253 24.7224104,4.97072253 C24.3886504,4.97072253 24.0640976,5.00524943 23.7464501,5.05819067 C23.6635855,4.89476335 23.5749665,4.72903424 23.4886492,4.55639974 C23.3148639,4.27327917 23.1341731,3.97519695 22.9258608,3.685171 C22.6991342,3.40665401 22.4885201,3.10166641 22.2146067,2.83580929 C21.7082122,2.26841725 21.0717663,1.7735317 20.3800775,1.3292856 C19.6826341,0.887341299 18.8919681,0.561637554 18.0702279,0.316496572 C17.2438841,0.0932226267 16.4094841,0.00115089663 15.5244446,0 C14.6750829,0.0379795887 13.7670254,0.173785391 12.9717559,0.437340718 Z" id="Fill-1" fill="#4EC8EB"></path>
                        <path d="M17.2819788,10.1793354 C17.2819788,9.78457785 17.1438712,9.44966693 16.8688069,9.17345174 C16.5925917,8.89838744 16.2634353,8.76143075 15.8813376,8.76143075 C15.4980891,8.76143075 15.1677817,8.89838744 14.8927174,9.17345174 C14.6176531,9.44966693 14.4795455,9.78457785 14.4795455,10.1793354 C14.4795455,10.562584 14.6176531,10.8917404 14.8927174,11.1668047 C15.1677817,11.4430199 15.4980891,11.5799766 15.8813376,11.5799766 C16.2634353,11.5799766 16.5925917,11.4430199 16.8688069,11.1668047 C17.1438712,10.8917404 17.2819788,10.562584 17.2819788,10.1793354 M15.8813376,7.82690269 C16.2035887,7.82690269 16.5097272,7.88674931 16.7963005,8.00644256 C17.0840246,8.12613581 17.3326183,8.29301582 17.5420815,8.50938438 C17.7515447,8.72460205 17.9195756,8.97549752 18.0450233,9.26322167 C18.170471,9.55094583 18.2337703,9.85593344 18.2337703,10.1793354 L18.2337703,11.5799766 L19.3651017,11.5799766 C19.5446416,11.1495412 19.6344115,10.6834281 19.6344115,10.1793354 C19.6344115,9.6648846 19.5354344,9.17690443 19.3386311,8.71654578 C19.1406769,8.25503623 18.8736689,7.85337331 18.5387579,7.51270791 C18.203847,7.17089161 17.8056368,6.9015818 17.3441272,6.70362758 C16.8837686,6.50682426 16.3946375,6.40784715 15.8813376,6.40784715 C15.3657359,6.40784715 14.8812085,6.50682426 14.4266043,6.70362758 C13.9708492,6.9015818 13.572639,7.17089161 13.2319736,7.51270791 C12.8913082,7.85337331 12.6208475,8.25503623 12.4240442,8.71654578 C12.2260899,9.17690443 12.1271128,9.6648846 12.1271128,10.1793354 C12.1271128,10.6937862 12.2260899,11.1794646 12.4240442,11.6340687 C12.6208475,12.0886729 12.8913082,12.4868831 13.2319736,12.8286994 C13.572639,13.1693648 13.9708492,13.4386746 14.4266043,13.6366289 C14.8812085,13.8345831 15.3657359,13.9335602 15.8813376,13.9335602 C16.3716196,13.9335602 16.8561471,13.8368849 17.3349201,13.645836 L17.6939998,14.5078576 C17.1197024,14.7472441 16.5143308,14.8669373 15.8813376,14.8669373 C15.2345337,14.8669373 14.6257094,14.7437914 14.0583174,14.4986504 C13.4897744,14.2535094 12.9925871,13.9174476 12.5679062,13.4927668 C12.1420745,13.0680859 11.8071636,12.5708986 11.5620226,12.0023556 C11.3157307,11.4338127 11.1937357,10.8261393 11.1937357,10.1793354 C11.1937357,9.53253149 11.3157307,8.92140538 11.5620226,8.34710796 C11.8071636,7.77281054 12.1420745,7.27332141 12.5679062,6.84748966 C12.9925871,6.4228088 13.4897744,6.08789788 14.0583174,5.84160601 C14.6257094,5.59761592 15.2345337,5.47446998 15.8813376,5.47446998 C16.5269906,5.47446998 17.1346641,5.59761592 17.703207,5.84160601 C18.2717499,6.08789788 18.7689373,6.4228088 19.194769,6.84748966 C19.6194499,7.27332141 19.9543608,7.77281054 20.2006527,8.34710796 C20.4457937,8.92140538 20.5677887,9.53253149 20.5677887,10.1793354 C20.5677887,11.041357 20.3583255,11.8193631 19.9393991,12.5133537 L19.6344115,12.5133537 L18.8080678,12.5133537 L18.2337703,12.5133537 L17.2819788,12.5133537 L17.2819788,12.0472406 C16.8987303,12.3591336 16.4314662,12.5133537 15.8813376,12.5133537 C15.5579357,12.5133537 15.2529481,12.454658 14.9652239,12.3349648 C14.6774998,12.2152715 14.4289061,12.0472406 14.2194429,11.8320229 C14.0099797,11.6156544 13.8419488,11.3670607 13.7165011,11.0862419 C13.5910533,10.8054232 13.527754,10.5027373 13.527754,10.1793354 C13.527754,9.85593344 13.5910533,9.55094583 13.7165011,9.26322167 C13.8419488,8.97549752 14.0099797,8.72460205 14.2194429,8.50938438 C14.4289061,8.29301582 14.6774998,8.12613581 14.9652239,8.00644256 C15.2529481,7.88674931 15.5579357,7.82690269 15.8813376,7.82690269" id="Fill-3" fill="#FFFFFF"></path>
                    </g>
                </g>
            </g>
        </g>
    </g>
</svg>