<?xml version="1.0" encoding="UTF-8"?>
<svg width="1315px" height="111px" viewBox="0 0 1315 111" version="1.1" xmlns="http://www.w3.org/2000/svg" xmlns:xlink="http://www.w3.org/1999/xlink">
    <!-- Generator: Sketch 43.1 (39012) - http://www.bohemiancoding.com/sketch -->
    <title>case-icons</title>
    <desc>Created with Sketch.</desc>
    <defs></defs>
    <g id="Page-1" stroke="none" stroke-width="1" fill="none" fill-rule="evenodd" opacity="0.14453125">
        <g id="Case-study" transform="translate(-59.000000, -1829.000000)" fill-rule="nonzero">
            <g id="case-icons" transform="translate(59.000000, 1828.961914)">
                <g id="Group" transform="translate(576.109817, 8.931238)" fill="#000000">
                    <path d="M6.17814484,14.6366392 L23.2425536,6.10336654 L40.2984162,14.6366392 L40.2984162,43.0737595 L6.17814484,43.0737595 L6.17814484,14.6366392 L6.17814484,14.6366392 Z M23.240417,0.418078991 L0.488584248,11.7907906 L0.488584248,17.4846242 L3.33656933,16.0617 L3.33656933,45.9196081 L43.1442648,45.9196081 L43.1442648,16.0617 L45.1803711,17.0786849 L45.1803711,11.3848512 L23.240417,0.418078991 Z" id="Shape"></path>
                    <path d="M30.3507654,22.9028464 L30.3507654,31.9552941 C30.2118914,32.0044341 30.0730174,32.0599837 29.940553,32.1240794 L18.5486127,20.7300026 C18.8135415,20.1745066 18.9716442,19.5570515 18.9716442,18.8968659 C18.9716442,16.5445541 17.0615927,14.6345026 14.7092809,14.6345026 C12.3569692,14.6345026 10.4469177,16.5466907 10.4469177,18.8968659 C10.4469177,20.7577774 11.6348244,22.3217122 13.2863567,22.9028464 L13.2863567,31.9552941 C11.6348244,32.547111 10.4469177,34.1089092 10.4469177,35.9612746 C10.4469177,38.3157229 12.3569692,40.2236379 14.7092809,40.2236379 C17.0615927,40.2236379 18.9716442,38.3135864 18.9716442,35.9612746 C18.9716442,34.1089092 17.7837375,32.547111 16.1322052,31.9552941 L16.1322052,22.9028464 C16.2710792,22.8579794 16.4035436,22.8067029 16.5424176,22.7383341 L27.9343579,34.1388206 C27.6630195,34.6857704 27.5027803,35.3053621 27.5027803,35.9634112 C27.5027803,38.3178594 29.4128318,40.2257744 31.7736897,40.2257744 C34.1281379,40.2257744 36.0360529,38.3157229 36.0360529,35.9634112 C36.0360529,34.1110458 34.8481462,32.5492475 33.1880679,31.9574306 L33.1880679,22.9049829 C34.8481462,22.3238487 36.0360529,20.7599139 36.0360529,18.905412 C36.0360529,16.5466907 34.1281379,14.6366392 31.7736897,14.6366392 C29.4128318,14.6366392 27.5027803,16.5488272 27.5027803,18.905412 C27.5027803,20.7577774 28.6970966,22.3217122 30.3507654,22.9028464" id="Shape"></path>
                </g>
                <path d="M137.893327,83.0636316 L133.98349,83.0636316 C130.36422,83.0636316 127.405136,86.0013507 127.405136,89.622757 L127.405136,107.85798 L144.473818,107.85798 L144.473818,96.0750563 C146.962867,98.2543097 150.503085,100.335283 155.908489,101.241169 C155.455546,100.580983 155.085927,99.8374732 155.002603,98.9721814 C154.835954,97.4296119 155.436317,96.0109606 156.425527,94.9832931 C150.315071,93.810342 147.806794,90.8298925 145.62754,88.1122353 C144.555006,86.8004102 143.546567,85.5441347 142.206967,84.6596143 L142.089458,84.5997916 C140.935736,83.6554485 139.497856,83.0636316 137.893327,83.0636316 M183.999492,83.0636316 L180.091792,83.0636316 C178.508628,83.0636316 177.047247,83.6554485 175.919162,84.6019281 L175.793108,84.6617508 C174.457781,85.5462713 173.430113,86.8025468 172.359715,88.1143718 C169.975356,91.0777292 167.259835,94.4726641 159.670905,95.3187272 C157.944595,95.5046047 156.707548,97.0471743 156.897699,98.7734848 C157.083576,100.378014 158.440268,101.56592 160.021295,101.56592 L160.369548,101.544555 C166.787663,100.82882 170.778688,98.5491499 173.511301,96.1135137 L173.511301,107.85798 L190.579983,107.85798 L190.579983,89.622757 C190.579983,86.0013507 187.618762,83.0636316 183.999492,83.0636316 M135.940545,66.8922895 C131.926019,66.8922895 128.702005,70.1419409 128.702005,74.1308292 C128.702005,78.1239906 131.926019,81.3501402 135.940545,81.3501402 C139.93157,81.3501402 143.15772,78.1239906 143.15772,74.1308292 C143.15772,70.1419409 139.93157,66.8922895 135.940545,66.8922895 M182.04671,66.8922895 C178.055685,66.8922895 174.827399,70.1419409 174.827399,74.1308292 C174.827399,78.1239906 178.055685,81.3501402 182.04671,81.3501402 C186.056964,81.3501402 189.28525,78.1239906 189.28525,74.1308292 C189.28525,70.1419409 186.056964,66.8922895 182.04671,66.8922895" id="Shape" fill="#231F20"></path>
                <path d="M249.285224,82.8457063 C247.031192,82.8457063 244.565644,81.7240317 243.349963,78.6132543 C243.168358,78.117581 243.181178,77.1240978 243.181178,77.0322274 L243.181178,75.6349414 C243.181178,71.6716913 246.550474,69.8684659 249.479647,69.8684659 C253.083961,69.8684659 255.87426,72.7527719 255.87426,76.3592226 C255.87426,79.9656734 252.891674,82.8457063 249.285224,82.8457063 M249.144213,59.3631826 C241.480505,59.3631826 233.04124,64.4993838 231.911019,75.094401 L231.911019,77.2586988 C231.911019,77.3484327 231.943067,78.1603115 231.985797,78.5662508 C232.618208,83.6148545 236.602823,88.9775271 239.576863,94.0261308 C242.775238,99.4358069 246.099668,104.757886 249.387777,110.077828 C251.41961,106.603841 253.440761,103.089261 255.421318,99.7071453 C255.963994,98.7157987 256.592132,97.724452 257.130536,96.7801089 C257.493745,96.1476981 258.181705,95.5174238 258.497911,94.9277435 C261.698422,89.0693976 266.849579,83.1640482 266.849579,77.3462962 L266.849579,74.9576636 C266.849579,74.3273893 266.067611,72.1203611 266.024881,71.9814871 C265.84114,71.3084824 265.477931,70.5863376 265.204456,69.9539269 C261.961214,62.1598912 254.870095,59.3631826 249.144213,59.3631826" id="Shape" fill="#231F20"></path>
                <path d="M506.373029,39.1773139 L500.491181,39.1773139 C495.598544,39.1773139 491.616065,43.1597927 491.616065,48.0524302 L491.616065,55.2482395 L491.635294,55.3572021 L492.130967,55.5131683 C496.79927,56.9702769 500.856527,57.4574042 504.195912,57.4574042 C510.718717,57.4574042 514.500362,55.5964927 514.733243,55.4789839 L515.194732,55.2482395 L515.243872,55.2482395 L515.243872,48.0524302 C515.243872,43.1597927 511.265667,39.1773139 506.373029,39.1773139 M494.207667,32.0242351 L488.330093,32.0242351 C483.435319,32.0242351 479.454977,36.0003043 479.454977,40.8950783 L479.454977,48.0887511 L479.474205,48.2019868 L479.969879,48.3558164 C483.713067,49.5244945 487.058862,50.0650348 489.964533,50.2338201 L489.964533,48.0631128 C489.964533,43.2986666 493.143679,39.2627748 497.49364,37.9680419 C495.925432,36.4682028 494.934085,34.3701373 494.861443,32.0520099 C494.643518,32.0391908 494.432002,32.0242351 494.207667,32.0242351 M517.839748,32.0242351 L512.002767,32.0242351 C511.940808,34.3594547 510.945188,36.4639298 509.368434,37.9701784 C513.718395,39.2649113 516.897541,43.2986666 516.897541,48.0652493 L516.897541,50.2808236 C522.659743,50.0650348 525.982037,48.4370043 526.199962,48.3259051 L526.665724,48.0908876 L526.712727,48.0908876 L526.712727,40.8950783 C526.712727,36.0003043 522.734522,32.0242351 517.839748,32.0242351 M529.265872,25.0463512 L523.428892,25.0463512 C523.369069,27.3837073 522.371313,29.4839093 520.796695,30.994431 C525.14452,32.2913005 528.325802,36.3250558 528.325802,41.0873654 L528.325802,43.3029397 C534.088005,43.0935604 537.410298,41.4612569 537.626087,41.3480212 L538.089712,41.1172767 L538.140989,41.1172767 L538.140989,33.923604 C538.140989,29.0309665 534.15851,25.0463512 529.265872,25.0463512 M503.433174,24.8433815 C499.604524,24.8433815 496.49802,27.9477493 496.49802,31.7742619 C496.49802,35.602911 499.604524,38.7051423 503.433174,38.7051423 C507.259686,38.7051423 510.361917,35.602911 510.361917,31.7742619 C510.361917,27.9477493 507.259686,24.8433815 503.433174,24.8433815 M506.274749,19.2264627 L499.892955,19.2264627 C499.21995,19.2264627 498.561901,19.2991045 497.92949,19.4272958 C498.897335,20.7690322 499.47206,22.4056088 499.480606,24.1746498 C500.655694,23.5272834 502.001703,23.1619379 503.433174,23.1619379 C504.593305,23.1619379 505.697888,23.403365 506.699917,23.8392157 C506.774695,22.1983661 507.340874,20.6814348 508.24676,19.4315689 C507.607939,19.2991045 506.952027,19.2264627 506.274749,19.2264627 M491.269948,17.6881662 C487.443436,17.6881662 484.339068,20.7882609 484.339068,24.6147735 C484.339068,28.4455592 487.443436,31.5477905 491.269948,31.5477905 C492.624504,31.5477905 493.887189,31.1525337 494.957587,30.4773925 C495.297294,28.2618182 496.485201,26.3261284 498.179464,25.0078938 L498.200829,24.612637 C498.200829,20.7882609 495.098598,17.6881662 491.269948,17.6881662 M514.897756,17.6881662 C511.105427,17.6881662 508.028834,20.7348479 507.973285,24.5122204 C510.158948,25.8860047 511.692971,28.2019956 511.970719,30.8918779 C512.859513,31.3063634 513.850859,31.5477905 514.897756,31.5477905 C518.726405,31.5477905 521.828636,28.4434226 521.828636,24.6147735 C521.828636,20.7882609 518.726405,17.6881662 514.897756,17.6881662 M526.326017,10.7124188 C522.533689,10.7124188 519.457096,13.7633735 519.401546,17.536473 C521.587209,18.9081208 523.119096,21.2241116 523.396844,23.9161305 C524.287774,24.3327525 525.276984,24.5720431 526.326017,24.5720431 C530.152529,24.5720431 533.254761,21.4698118 533.254761,17.6432992 C533.254761,13.8167866 530.152529,10.7124188 526.326017,10.7124188 M503.08492,3.66830262 C498.929383,3.66830262 495.560086,7.03546278 495.560086,11.1909999 C495.560086,15.3444005 498.929383,18.7136972 503.08492,18.7136972 C507.240457,18.7136972 510.607618,15.346537 510.607618,11.1909999 C510.607618,7.03546278 507.240457,3.66830262 503.08492,3.66830262" id="Shape" fill="#231F20"></path>
                <path d="M125.247248,34.0282936 L120.401614,37.9744515 C120.117456,38.2009229 119.76493,38.3162952 119.412404,38.3162952 C119.055604,38.3162952 118.703078,38.2009229 118.41892,37.9744515 L113.573286,34.0282936 L98.1689561,50.0522157 C99.0940705,50.5906194 100.177288,50.9132344 101.345966,50.9132344 L137.474569,50.9132344 C138.645383,50.9132344 139.726464,50.5906194 140.651578,50.0522157 L125.247248,34.0282936 Z M96.2631776,19.9464709 C95.6777703,20.8117627 95.325244,21.8266111 95.325244,22.9247839 L95.325244,45.3155443 C95.325244,46.2962083 95.6200842,47.2085036 96.0986653,48.0075632 L111.306436,32.1844743 L96.2631776,19.9464709 Z M142.557357,19.9464709 L127.511962,32.1866108 L142.724005,48.0054267 C143.20045,47.2063671 143.497427,46.2940718 143.497427,45.3134078 L143.497427,22.9226474 C143.497427,21.8266111 143.1449,20.8117627 142.557357,19.9464709 L142.557357,19.9464709 Z M137.474569,17.3228207 L101.345966,17.3228207 C100.299069,17.3228207 99.3333611,17.5920226 98.4766154,18.0300098 L119.412404,35.0580977 L140.346055,18.0300098 C139.485037,17.5920226 138.517192,17.3228207 137.474569,17.3228207 L137.474569,17.3228207 Z" id="Shape" fill="#231F20"></path>
                <path d="M213.703571,50.3940593 C203.668322,50.3940593 195.500395,42.2282687 195.500395,32.1887474 C195.500395,22.1513626 203.668322,13.9877084 213.703571,13.9877084 C223.743092,13.9877084 231.911019,22.1492261 231.911019,32.1887474 C231.911019,42.2261321 223.743092,50.3940593 213.703571,50.3940593 M213.703571,9.06302305 C200.952802,9.06302305 190.579983,19.4379784 190.579983,32.1866108 C190.579983,44.9395163 200.952802,55.3123351 213.703571,55.3123351 C226.45434,55.3123351 236.827158,44.9395163 236.827158,32.1866108 C236.827158,19.4379784 226.45434,9.06302305 213.703571,9.06302305" id="Shape" fill="#231F20"></path>
                <path d="M213.460007,17.0749841 C212.408838,17.0749841 211.556365,17.9274567 211.556365,18.9807625 L211.556365,33.3766541 C211.556365,34.4320964 212.408838,35.2824326 213.460007,35.2824326 L225.755697,35.2824326 C226.809002,35.2824326 227.661475,34.434233 227.661475,33.3766541 C227.661475,32.3297579 226.809002,31.4751487 225.755697,31.4751487 L215.363649,31.4751487 L215.363649,18.978626 C215.363649,17.9274567 214.511176,17.0749841 213.460007,17.0749841" id="Shape" fill="#231F20"></path>
                <path d="M298.356883,57.3569876 C297.416812,57.3569876 296.664756,56.6006585 296.664756,55.6627249 C296.664756,54.7269279 297.416812,53.9705987 298.356883,53.9705987 C299.29268,53.9705987 300.049009,54.7269279 300.049009,55.6627249 C300.049009,56.602795 299.29268,57.3569876 298.356883,57.3569876 L298.356883,57.3569876 Z M286.14879,14.2740025 L310.564975,14.2740025 L310.564975,52.7784189 L286.14879,52.7784189 L286.14879,14.2740025 Z M294.784616,12.1609813 C294.553872,12.1609813 294.370131,11.9815134 294.370131,11.759315 C294.370131,11.5285705 294.553872,11.3448295 294.784616,11.3448295 L301.931285,11.3448295 C302.164166,11.3448295 302.345771,11.5285705 302.345771,11.759315 C302.345771,11.9815134 302.164166,12.1609813 301.931285,12.1609813 L294.784616,12.1609813 Z M309.537307,8.90492035 L287.178595,8.90492035 C285.317683,8.90492035 283.792206,10.4303977 283.792206,12.2913092 L283.792206,55.6648614 C283.792206,57.5257729 285.317683,59.0512503 287.178595,59.0512503 L309.537307,59.0512503 C311.398219,59.0512503 312.925832,57.5257729 312.925832,55.6648614 L312.925832,12.2913092 C312.925832,10.4303977 311.398219,8.90492035 309.537307,8.90492035 L309.537307,8.90492035 Z" id="Shape" fill="#231F20"></path>
                <path d="M378.151741,52.4344387 C376.017355,52.4344387 374.280362,50.6995821 374.280362,48.5630592 L374.280362,15.812299 C374.280362,13.6779126 376.017355,11.943056 378.151741,11.943056 L414.598686,11.943056 C416.726663,11.943056 418.465793,13.6779126 418.465793,15.812299 L418.465793,48.5630592 C418.465793,50.6974456 416.726663,52.4344387 414.598686,52.4344387 L378.151741,52.4344387 Z M414.598686,7.37089688 L378.151741,7.37089688 C373.496258,7.37089688 369.710339,11.1568155 369.710339,15.812299 L369.710339,48.5630592 C369.710339,53.2185427 373.496258,57.0065978 378.151741,57.0065978 L419.017016,57.0065978 C423.670363,57.0065978 427.458418,53.2185427 427.458418,48.5630592 L427.458418,22.5893498 C427.458418,19.3802923 425.655192,16.5857203 423.00804,15.158523 C422.672606,10.8085623 419.027698,7.37089688 414.598686,7.37089688 L414.598686,7.37089688 Z" id="Shape" fill="#231F20"></path>
                <path d="M384.937338,14.2996408 L384.843331,14.2996408 C384.185282,14.2996408 383.651151,14.8337715 383.651151,15.4896841 L383.651151,19.6879516 L380.095977,14.7910411 C379.871642,14.4833817 379.512706,14.3017773 379.132405,14.3017773 L379.01917,14.3017773 L379.004214,14.3017773 L378.984985,14.3017773 L378.890978,14.3017773 C378.232929,14.3017773 377.698798,14.835908 377.698798,15.4918206 L377.698798,23.3157676 C377.698798,23.9716801 378.232929,24.5058109 378.890978,24.5058109 L378.984985,24.5058109 C379.643034,24.5058109 380.177165,23.9716801 380.177165,23.3157676 L380.177165,19.1153635 L383.732339,24.0144106 C383.956674,24.3220699 384.31561,24.5036743 384.695911,24.5036743 L384.811283,24.5036743 L384.824102,24.5015378 L384.843331,24.5036743 L384.937338,24.5036743 C385.597524,24.5036743 386.127381,23.9695436 386.127381,23.3136311 L386.127381,15.4896841 C386.129518,14.8337715 385.597524,14.2996408 384.937338,14.2996408" id="Shape" fill="#231F20"></path>
                <path d="M393.261232,14.2996408 L388.422007,14.2996408 C387.761822,14.2996408 387.229827,14.8337715 387.229827,15.4896841 L387.229827,23.3136311 C387.229827,23.9695436 387.761822,24.5036743 388.422007,24.5036743 L393.421471,24.5036743 C394.07952,24.5036743 394.611514,23.9695436 394.611514,23.3136311 C394.611514,22.655582 394.07952,22.1214513 393.419334,22.1214513 L389.708194,22.1214513 L389.708194,20.5211956 L392.737783,20.5211956 C393.395833,20.5211956 393.927827,19.9870648 393.927827,19.3268793 L393.927827,19.2328722 C393.927827,18.5748232 393.395833,18.0406924 392.737783,18.0406924 L389.708194,18.0406924 L389.708194,16.7737343 L393.261232,16.7737343 C393.917144,16.7737343 394.451275,16.2417401 394.451275,15.5815545 L394.451275,15.485411 C394.451275,14.8337715 393.919281,14.2996408 393.261232,14.2996408" id="Shape" fill="#231F20"></path>
                <path d="M406.920023,14.2996408 L406.800377,14.2996408 C406.287612,14.2996408 405.828259,14.6265288 405.670157,15.1157925 L404.200229,19.5490776 L402.726028,15.113656 C402.563652,14.6265288 402.108573,14.2996408 401.595808,14.2996408 L401.429159,14.2996408 C400.916393,14.2996408 400.459177,14.6265288 400.296802,15.1157925 L398.82901,19.5490776 L397.352673,15.113656 C397.192434,14.6265288 396.737354,14.2996408 396.224589,14.2996408 L396.102807,14.2996408 C395.718233,14.2996408 395.357161,14.4855183 395.134962,14.7953141 C394.910627,15.1072464 394.850805,15.5089128 394.974723,15.8699851 L397.626148,23.6917956 C397.788524,24.1789229 398.243603,24.5015378 398.754232,24.5015378 L398.826874,24.5015378 L398.833283,24.4994013 L398.83542,24.5015378 L398.897379,24.5015378 C399.408008,24.5015378 399.863087,24.1767863 400.0276,23.6917956 L401.51462,19.2734662 L402.997367,23.6896591 C403.159742,24.1767863 403.612685,24.5015378 404.125451,24.5015378 L404.200229,24.5015378 L404.202366,24.5015378 L404.208775,24.5015378 L404.268598,24.5015378 C404.779227,24.5015378 405.234306,24.1789229 405.398818,23.6917956 L408.050243,15.8699851 C408.174162,15.5089128 408.112203,15.109383 407.887868,14.7953141 C407.665669,14.4855183 407.304597,14.2996408 406.920023,14.2996408" id="Shape" fill="#231F20"></path>
                <path d="M412.222873,14.2996408 C409.691093,14.2996408 408.558736,15.7503399 408.558736,17.1882198 C408.558736,19.4871185 410.507245,20.0789353 411.793432,20.4677825 C413.194991,20.8929506 413.318909,21.0617359 413.314636,21.4441735 C413.314636,21.8458398 412.620266,22.0274443 411.972899,22.0274443 C411.340489,22.0274443 410.652528,21.7582424 410.250862,21.3587126 C410.0308,21.1343777 409.727414,21.0083228 409.411208,21.0083228 C409.095003,21.0083228 408.793753,21.1343777 408.569418,21.356576 L408.503186,21.4206717 C408.276715,21.6450066 408.15066,21.9526659 408.152796,22.2688713 C408.157069,22.5872133 408.287397,22.892736 408.513869,23.1149344 C409.39198,23.9695436 410.718761,24.4994013 411.972899,24.4994013 C414.609369,24.4994013 415.793002,22.9632413 415.793002,21.4505831 C415.810095,19.0897252 413.75476,18.467997 412.526259,18.096242 C411.165294,17.6860296 411.034966,17.5172443 411.034966,17.1839467 C411.034966,16.9831136 411.513547,16.7737343 412.222873,16.7737343 C412.695044,16.7737343 413.25695,16.9104718 413.588111,17.111305 C413.780398,17.2288137 413.991914,17.2822268 414.203429,17.2822268 C414.600823,17.2822268 414.987533,17.0835302 415.211868,16.7224578 L415.256735,16.6519525 C415.427657,16.3827506 415.48107,16.0579992 415.406292,15.7482033 C415.33365,15.436271 415.139226,15.1713421 414.865752,15.0046933 C414.139334,14.5667061 413.150124,14.2996408 412.222873,14.2996408" id="Shape" fill="#231F20"></path>
                <path d="M391.218716,27.9733876 L379.893008,27.9733876 C378.630322,27.9733876 377.604791,28.9967821 377.604791,30.2594671 C377.604791,31.5200157 378.630322,32.5455467 379.893008,32.5455467 L391.218716,32.5455467 C392.479264,32.5455467 393.502659,31.5200157 393.502659,30.2594671 C393.502659,28.9967821 392.481401,27.9733876 391.218716,27.9733876" id="Shape" fill="#231F20"></path>
                <path d="M391.218716,35.5922284 L379.893008,35.5922284 C378.630322,35.5922284 377.604791,36.6156229 377.604791,37.8761714 C377.604791,39.140993 378.630322,40.1601144 379.893008,40.1601144 L391.218716,40.1601144 C392.479264,40.1601144 393.502659,39.1388565 393.502659,37.8761714 C393.502659,36.6134864 392.481401,35.5922284 391.218716,35.5922284" id="Shape" fill="#231F20"></path>
                <path d="M391.218716,43.2089327 L379.893008,43.2089327 C378.630322,43.2089327 377.604791,44.2323272 377.604791,45.4950122 C377.604791,46.7576973 378.630322,47.7789553 379.893008,47.7789553 L391.218716,47.7789553 C392.479264,47.7789553 393.502659,46.7555608 393.502659,45.4950122 C393.502659,44.2344637 392.481401,43.2089327 391.218716,43.2089327" id="Shape" fill="#231F20"></path>
                <path d="M414.466222,27.6507726 L397.002283,27.6507726 C396.271592,27.6507726 395.679776,28.2425895 395.679776,28.9732803 L395.679776,46.781199 C395.679776,47.5118899 396.271592,48.1037067 397.002283,48.1037067 L414.466222,48.1037067 C415.199049,48.1037067 415.793002,47.5118899 415.793002,46.781199 L415.793002,28.9732803 C415.793002,28.244726 415.199049,27.6507726 414.466222,27.6507726" id="Shape" fill="#231F20"></path>
                <path d="M524.757809,101.597968 C524.586887,101.597968 524.512109,101.525326 524.512109,101.360814 L524.512109,73.0732503 L569.18253,73.0732503 L569.18253,73.3061313 L569.18253,101.360814 C569.18253,101.525326 569.107752,101.597968 568.934694,101.597968 L524.757809,101.597968 L524.757809,101.597968 Z M569.18253,70.4517367 L524.512109,70.4517367 L524.512109,70.5243785 C523.067819,70.6183855 521.988875,71.7251044 521.817953,73.0711138 L521.817953,101.358678 C521.817953,101.903491 521.965373,102.360707 522.211074,102.773056 C522.775116,103.730218 523.606223,104.217345 524.757809,104.217345 L540.882148,104.217345 L540.882148,108.135728 L537.818374,108.135728 C537.059908,108.135728 536.470228,108.70618 536.470228,109.430461 C536.470228,110.163289 537.059908,110.73374 537.818374,110.73374 L555.876266,110.73374 C556.634731,110.73374 557.245777,110.161152 557.245777,109.430461 C557.245777,108.704043 556.634731,108.135728 555.876266,108.135728 L552.814628,108.135728 L552.814628,104.217345 L568.934694,104.217345 C570.088416,104.217345 570.92807,103.730218 571.485702,102.773056 C571.737812,102.339342 571.900188,101.875716 571.900188,101.358678 L571.900188,73.0711138 C571.729266,71.7251044 570.579816,70.6183855 569.18253,70.5243785 L569.18253,70.4517367 L569.18253,70.4517367 Z" id="Shape" fill="#231F20"></path>
                <path d="M462.909743,77.0557291 L456.846291,83.0828603 L462.881968,89.1185376 C463.614795,87.2426705 464.029281,85.1916085 464.029281,83.0614951 C464.027144,80.9271087 463.614795,78.9294597 462.909743,77.0557291 L462.909743,77.0557291 Z M470.603362,69.2980143 L467.330209,72.5839866 C468.971058,75.7289484 469.879081,79.2606208 469.879081,83.0422664 C469.879081,86.8068198 468.947557,90.3726766 467.330209,93.487727 L470.447396,96.6134601 C472.970629,92.6053431 474.455513,87.8750813 474.455513,82.8029758 C474.436284,77.8847 473.024042,73.2612644 470.603362,69.2980143 L470.603362,69.2980143 Z M448.424117,99.1089189 L448.424117,89.3236438 L453.310345,94.2226909 L448.424117,99.1089189 Z M448.424117,76.7972098 L448.424117,67.0140713 L453.310345,71.9002993 L448.424117,76.7972098 Z M445.819696,57.0536013 L443.217411,57.0536013 L443.217411,76.7950733 L431.278521,64.8604562 L427.612247,68.5267295 L442.149149,83.0636316 L427.612247,97.5983972 L431.278521,101.266807 L443.215274,89.3257804 L443.215274,109.071525 L445.815423,109.071525 L460.672803,94.2248275 L449.490242,83.0636316 L460.672803,71.9002993 L445.819696,57.0536013 Z" id="Shape" fill="#231F20"></path>
                <path d="M8.20638461,16.1776444 L9.10158773,28.9177307 L6.74072988,29.086516 L5.84552677,16.3442932 L8.20638461,16.1776444 Z M50.6420033,38.8354702 C50.5202214,34.1671676 48.990471,29.686879 48.8708257,25.033532 C48.6934943,18.2586178 38.3121294,18.1090612 38.228805,24.7151901 C34.2548723,25.3903314 30.2852127,25.7514037 26.2471843,25.5612532 C22.5787744,25.3903314 22.5702283,31.0649363 26.2108634,31.2358581 C30.4518615,31.4366913 34.6586751,31.0328884 38.8398505,30.3470646 C39.2671551,32.8318408 39.7777841,35.3080709 39.9401598,37.8206218 C31.291515,40.8395287 26.5014306,48.1571198 25.2793394,57.4574042 C25.2686568,57.5214999 25.2686568,57.5877321 25.2643838,57.6561008 L25.2643838,37.0685658 L30.7125173,37.0685658 L30.7125173,32.2015665 L11.1590593,32.2015665 C11.174015,32.1417439 11.178288,32.0669655 11.1825611,31.9793681 C11.1825611,31.9238185 11.1868341,31.8661324 11.1932437,31.7977637 C11.2146089,31.3918243 11.2851142,31.2465407 11.688917,31.1717624 C11.7893336,31.1525337 11.9196615,31.1439876 12.0499894,31.1482607 L12.0499894,31.4879678 L17.2930167,31.4879678 C17.4468463,31.5200157 17.600676,31.5349713 17.743823,31.5349713 C17.9617484,31.5349713 18.1518989,31.4879678 18.2629981,31.3362747 C18.3228207,31.2572234 18.3228207,31.1461242 18.3228207,31.0435711 C18.3228207,30.9431545 18.3228207,30.8363283 18.3698242,30.7743692 C18.4488756,30.6824987 18.5920226,30.622676 18.6988488,30.6141299 C18.5877496,30.8213727 18.5172443,31.0435711 18.5172443,31.2849982 L24.4610511,31.2849982 C24.4610511,30.1398219 23.1321339,29.2104344 21.4891477,29.2104344 C20.9806553,29.2104344 20.5063472,29.3087144 20.0854522,29.4668171 C20.1837322,30.4496177 19.2650274,30.3513376 18.908228,30.2808324 C18.8654976,30.3321089 18.8291767,30.389795 18.7907193,30.4432081 C18.7779001,30.4389351 18.7629445,30.430389 18.7458523,30.4261159 C18.5877496,30.4218429 18.3612782,30.5179864 18.2394963,30.66327 C18.1476259,30.7722326 18.1518989,30.9153797 18.1518989,31.0414345 C18.1518989,31.1162128 18.1518989,31.1952642 18.1283971,31.227312 C18.0643015,31.312773 17.9425197,31.3384112 17.7993726,31.3490938 L17.7993726,30.5265325 L12.0499894,30.5265325 L12.0499894,30.9645197 C11.8961597,30.9645197 11.7530127,30.9773388 11.6547326,30.9965676 C11.1441037,31.0927111 11.0436871,31.3255921 11.0159123,31.7849445 C11.0159123,31.8490402 11.0116392,31.9152724 11.0052297,31.9644124 C11.0052297,32.0669655 11.0009566,32.1417439 10.9881375,32.1972934 L0.188014019,32.1972934 L0.188014019,37.0578831 L3.15564438,37.0578831 L3.15564438,60.6664616 L25.2601107,60.6664616 L25.2601107,58.3077403 C25.6211831,61.9419658 31.8299188,61.6086682 32.3768686,57.444585 C33.3233483,50.2551853 37.5152063,45.4501452 44.5721416,43.8605722 C47.5013145,44.313515 50.7424198,42.6427541 50.6420033,38.8354702 L50.6420033,38.8354702 Z M54.0219825,42.0594833 L53.8168763,40.4335894 C53.0284994,34.0817067 52.9964515,33.8402796 53.3019743,22.6491724 C53.3126569,22.2539157 53.0049976,21.9291642 52.6118774,21.9184816 C52.2358494,21.8907068 51.8940057,22.2175948 51.87905,22.610715 C51.5735273,33.9043753 51.6055751,34.156485 52.4067712,40.6066477 L52.6118774,42.2346782 C52.8148471,43.79434 52.6353792,44.8754206 52.1055215,45.289906 C51.4859298,45.7684872 50.4048492,45.3475921 50.3300709,45.3134078 C45.1041358,43.7088791 38.5984234,47.0290357 38.327085,47.1636366 C37.9745587,47.3452411 37.8399578,47.7768187 38.0194257,48.125072 C38.1454806,48.3686356 38.3954538,48.5032365 38.6497,48.5032365 C38.7607992,48.5032365 38.8676253,48.4797348 38.9744515,48.4263217 C39.0171819,48.407093 41.9249897,46.9286191 45.2216446,46.4372188 L45.2216446,57.489452 L42.2711064,57.489452 C41.6686069,57.489452 41.1814797,57.9765792 41.1814797,58.5790787 C41.1814797,59.1773051 41.6686069,59.6644324 42.2711064,59.6644324 L50.6505493,59.6644324 C51.2530488,59.6644324 51.740176,59.1773051 51.740176,58.5790787 C51.740176,57.9765792 51.2530488,57.489452 50.6505493,57.489452 L47.9328922,57.489452 L47.9328922,46.315437 C48.5866682,46.3581675 49.2318981,46.4585841 49.8536263,46.6487346 C49.9262681,46.6850555 51.6888995,47.4050637 52.9686767,46.4243997 C53.9472042,45.6702071 54.3040036,44.2002793 54.0219825,42.0594833 L54.0219825,42.0594833 Z M7.31545455,31.9836412 L8.78965538,31.9836412 L8.78965538,31.2743155 L7.31545455,31.2743155 C6.91165171,31.2743155 6.62108459,31.1974007 6.51425845,31.0563902 C6.4352071,30.9495641 6.46725494,30.8106901 6.46725494,30.8106901 L6.48648365,26.520552 L5.77715803,26.520552 L5.77715803,30.6589969 C5.74511019,30.8000074 5.70665277,31.1482607 5.93953377,31.4708756 C6.18950696,31.8063098 6.65313244,31.9836412 7.31545455,31.9836412 L7.31545455,31.9836412 Z M40.4166045,8.3408783 C43.4632862,8.3408783 45.9309702,10.8064258 45.9309702,13.855244 C45.9309702,16.8997892 43.4632862,19.3717462 40.4166045,19.3717462 C37.3699228,19.3717462 34.9043753,16.8997892 34.9043753,13.855244 C34.9043753,10.8064258 37.3699228,8.3408783 40.4166045,8.3408783 L40.4166045,8.3408783 Z M20.0854522,29.4646806 L20.0448582,29.4924554 C20.0576774,29.4839093 20.0704965,29.4796363 20.0854522,29.4753632 L20.0854522,29.4646806 Z M20.0106739,29.5629607 C19.8440251,29.5715068 19.2928022,30.0479514 19.2928022,30.0479514 C19.5897788,30.1697332 20.1837322,29.548005 20.0106739,29.5629607 L20.0106739,29.5629607 Z" id="Shape" fill="#0F1212"></path>
                <path d="M363.072162,98.561969 L350.167564,98.561969 L350.167564,90.8961247 L363.072162,90.8961247 L363.072162,98.561969 Z M334.70982,63.6148633 L347.678515,63.6148633 L347.678515,71.2807076 L334.70982,71.2807076 L334.70982,63.6148633 Z M332.408785,98.561969 L319.504187,98.561969 L319.504187,90.8961247 L332.408785,90.8961247 L332.408785,98.561969 Z M369.142024,106.417964 C368.971102,106.118851 368.716856,105.629587 368.375012,104.948036 L366.204305,100.666444 L366.204305,88.9753906 C366.204305,88.6762774 366.108162,88.4220311 365.915874,88.2105154 C365.723587,87.9947266 365.480024,87.8921735 365.180911,87.8921735 L348.125048,87.8921735 C347.825935,87.8921735 347.569552,87.9968631 347.358036,88.2105154 C347.144384,88.4241677 347.039694,88.6784139 347.039694,88.9753906 L347.039694,94.7247738 L343.14054,94.7247738 L343.14054,81.8821344 L352.979228,81.8821344 C354.34233,81.8821344 354.575211,80.9655661 353.682144,79.1367025 C353.553953,78.8375892 353.29757,78.3483255 352.915132,77.6667747 L350.806384,73.3873192 L350.806384,61.6962657 C350.806384,61.3971525 350.701695,61.1407697 350.488042,60.9313905 C350.27439,60.7177382 350.020144,60.6130486 349.721031,60.6130486 L332.665168,60.6130486 C332.366055,60.6130486 332.122491,60.7198747 331.930204,60.9313905 C331.737917,61.1429062 331.64391,61.399289 331.64391,61.6962657 L331.64391,73.3873192 L329.471066,77.6667747 L329.278779,78.0513488 C329.067263,78.5213838 328.907024,78.8632275 328.800198,79.0747433 C328.693372,79.2883956 328.56518,79.5853723 328.415624,79.9699464 C328.268204,80.352384 328.193425,80.6386781 328.193425,80.8309651 C328.193425,81.0232522 328.225473,81.2155393 328.289569,81.4078263 C328.353665,81.5979769 328.501085,81.7368509 328.736102,81.8223118 C328.97112,81.9077727 329.278779,81.9291379 329.663353,81.884271 L339.309754,81.884271 L339.309754,94.7269103 L335.538791,94.7269103 L335.538791,88.9775271 C335.538791,88.6784139 335.442648,88.4241677 335.252497,88.2126519 C335.06021,87.9968631 334.816647,87.89431 334.517533,87.89431 L317.459534,87.89431 C317.162557,87.89431 316.906175,87.9989996 316.694659,88.2126519 C316.481007,88.4263042 316.37418,88.6805504 316.37418,88.9775271 L316.37418,100.668581 L314.265432,104.950173 C314.224838,105.035634 314.139378,105.183054 314.011186,105.396706 C313.797534,105.821874 313.637295,106.153035 313.532605,106.388053 C313.425779,106.620934 313.297587,106.920047 313.148031,107.281119 C313.000611,107.644328 312.925832,107.922076 312.925832,108.112227 C312.925832,108.304514 312.955744,108.50962 313.021976,108.718999 C313.083935,108.932651 313.233492,109.071525 313.468509,109.135621 C313.70139,109.19758 314.011186,109.229628 314.393624,109.229628 L337.711635,109.229628 C339.117467,109.229628 339.371713,108.293831 338.478647,106.4201 C338.307725,106.120987 338.051342,105.631723 337.711635,104.950173 L335.538791,100.668581 L335.538791,98.561969 L347.039694,98.561969 L347.039694,100.668581 L344.930946,104.950173 C344.888216,105.035634 344.802755,105.183054 344.674563,105.396706 C344.460911,105.821874 344.302808,106.153035 344.195982,106.388053 C344.089156,106.620934 343.960965,106.920047 343.811408,107.283256 C343.661851,107.644328 343.58921,107.922076 343.58921,108.112227 C343.58921,108.304514 343.621258,108.50962 343.685353,108.718999 C343.749449,108.932651 343.896869,109.071525 344.131887,109.135621 C344.366904,109.19758 344.674563,109.229628 345.057001,109.229628 L368.375012,109.229628 C369.780844,109.229628 370.037227,108.291694 369.142024,106.417964 L369.142024,106.417964 Z" id="Shape" fill="#231F20"></path>
                <g id="Group" transform="translate(617.455130, 56.686119)" fill="#000000">
                    <path d="M12.6460793,5.04005762 C12.6460793,7.28981627 10.8214887,9.11867991 8.56959351,9.11867991 C6.31983486,9.11867991 4.50165384,7.28981627 4.50165384,5.04005762 C4.50165384,2.78816244 6.31983486,0.974254461 8.56959351,0.974254461 C10.8214887,0.974254461 12.6460793,2.79029896 12.6460793,5.04005762" id="Shape"></path>
                    <path d="M14.8531075,25.7750128 C15.7568567,25.7750128 16.5046397,25.0186836 16.5046397,24.1085249 C16.5217319,15.6372114 13.7827095,12.2529591 11.872658,10.945407 L8.47985955,15.6308018 L5.29644037,11.2381107 C3.38638886,12.5584818 0.636683836,15.9064133 0.664458634,24.3755902 C0.664458634,25.2772029 1.41224166,26.0164398 2.31599087,26.0164398 L2.32453696,26.0164398 C3.23042269,26.0164398 3.9675231,25.2686568 3.9675231,24.3649076 C3.95897701,21.8950871 4.10639709,19.9914452 4.57643214,18.5279269 L4.57643214,23.8500056 C4.57643214,24.6234269 4.94391408,25.3327525 5.18534118,25.9523442 L5.18534118,39.3184317 C5.18534118,40.235 5.95021639,40.9678274 6.86464821,40.9678274 C7.76839741,40.9678274 8.54395524,40.2328635 8.54395524,39.3184317 L8.68282923,39.3098856 C8.68282923,40.2243174 9.43915835,40.9678274 10.3514536,40.9678274 C11.2530663,40.9678274 12.0478529,40.2114983 12.0478529,39.2906569 L12.0478529,25.657504 C12.297826,25.0379123 12.6482158,24.3264502 12.6482158,23.561575 L12.6482158,18.2330868 C13.0092882,19.7051511 13.2464422,21.6280217 13.2378961,24.0957057 C13.22935,25.0015914 13.9386757,25.7750128 14.8445614,25.7750128 L14.8531075,25.7750128 L14.8531075,25.7750128 Z" id="Shape"></path>
                </g>
                <path d="M628.026645,66.2470596 L627.0588,66.6444528 C626.864377,66.3154283 626.496895,66.0718647 626.071727,66.0718647 C625.655105,66.0718647 625.287623,66.3047457 625.093199,66.6444528 L624.116808,66.2299674 C623.98648,66.1658717 623.819832,66.1851004 623.69164,66.2684248 C623.563449,66.3517492 623.480124,66.4991693 623.480124,66.6465893 L623.480124,67.8558613 C623.480124,67.9947353 623.554903,68.1314728 623.674548,68.2233433 C623.783511,68.3066677 623.941613,68.3344425 624.078351,68.2895755 C624.458652,68.1784763 624.928687,68.0289197 625.195752,67.9477318 C625.398722,68.2041146 625.721337,68.3728999 626.071727,68.3728999 C626.41357,68.3728999 626.719093,68.2147972 626.928473,67.9733701 C627.20622,68.0566945 627.686938,68.201978 628.065103,68.3130772 C628.203977,68.3536712 628.359943,68.3323059 628.479588,68.2404355 C628.590687,68.1571111 628.663329,68.0182371 628.663329,67.8814996 L628.663329,66.665818 C628.663329,66.5098519 628.582141,66.3667048 628.460359,66.285517 C628.332168,66.19151 628.165519,66.1808273 628.026645,66.2470596" id="Shape" fill="#000000"></path>
                <path d="M652.840223,71.8725245 C652.840223,74.2440649 650.923762,76.160526 648.552221,76.160526 C646.180681,76.160526 644.259947,74.2462014 644.259947,71.8725245 C644.259947,69.5138031 646.180681,67.593069 648.552221,67.593069 C650.925898,67.593069 652.840223,69.5138031 652.840223,71.8725245" id="Shape" fill="#000000"></path>
                <path d="M655.156214,93.6736045 C656.10483,93.6736045 656.89107,92.8809545 656.899616,91.9195192 C656.918845,83.0187646 654.030266,79.4785461 652.026207,78.0919427 L648.449668,83.0187646 L645.110283,78.4081481 C643.097678,79.7840689 640.211236,83.3499257 640.23901,92.2613629 C640.23901,93.2206617 641.012432,94.0325404 641.973867,94.0325404 C642.933166,94.0325404 643.751454,93.2099791 643.751454,92.2528168 C643.745045,89.6590779 643.836915,87.620835 644.437278,86.0718559 L644.437278,91.6802286 C644.437278,92.4921074 644.685115,93.2377539 644.926542,93.8808473 L644.926542,107.949851 C644.926542,108.911286 645.764059,109.684707 646.714811,109.684707 C647.684793,109.684707 648.503081,108.911286 648.503081,107.949851 L648.652638,107.932759 C648.652638,108.892057 649.428196,109.684707 650.385358,109.684707 C651.344657,109.684707 652.147989,108.881375 652.147989,107.922076 L652.147989,93.5689149 C652.506925,92.923685 652.756898,92.175902 652.756898,91.3747059 L652.756898,85.7556505 C653.235479,87.3067662 653.421357,89.3257804 653.410674,91.9173827 C653.412811,92.878818 654.196915,93.6736045 655.156214,93.6736045" id="Shape" fill="#000000"></path>
                <path d="M650.65456,76.6348341 L649.641848,77.0578656 C649.428196,76.7074759 649.050031,76.4575027 648.597088,76.4575027 C648.165511,76.4575027 647.7788,76.6989298 647.565148,77.047183 L646.550299,76.6156054 C646.402879,76.5515097 646.23623,76.5686019 646.108039,76.6519263 C645.969165,76.7459333 645.896523,76.8912168 645.896523,77.0578656 L645.896523,78.3226872 C645.896523,78.4701073 645.960619,78.6175274 646.080264,78.7115344 C646.210592,78.8034049 646.366558,78.8311797 646.505432,78.7841762 C646.909235,78.6623944 647.398499,78.5171108 647.686929,78.4231038 C647.904855,78.6923057 648.229606,78.8675006 648.607771,78.8675006 C648.966707,78.8675006 649.289322,78.7008518 649.51152,78.4508786 C649.787131,78.534203 650.295624,78.6923057 650.701563,78.811951 C650.848983,78.8504084 651.007086,78.8311797 651.126731,78.7393092 C651.24424,78.6474387 651.321155,78.5000186 651.321155,78.3483255 L651.321155,77.0770943 C651.321155,76.9104455 651.235694,76.7523428 651.107503,76.671155 C650.968629,76.577148 650.804116,76.5686019 650.65456,76.6348341" id="Shape" fill="#000000"></path>
                <path d="M674.649849,61.7154944 C674.649849,63.9652531 672.825258,65.7941167 670.573363,65.7941167 C668.330014,65.7941167 666.505423,63.9652531 666.505423,61.7154944 C666.505423,59.4657357 668.330014,57.6390086 670.573363,57.6390086 C672.823122,57.6390086 674.649849,59.4678723 674.649849,61.7154944" id="Shape" fill="#000000"></path>
                <path d="M673.872155,67.6293899 L670.479356,72.3083751 L667.295937,67.9242301 C665.388022,69.2339186 662.638317,72.5925327 662.663955,81.0531635 C662.674638,81.9633223 663.413875,82.7025592 664.315487,82.7025592 L664.324034,82.7025592 C665.229919,82.7025592 665.975566,81.9547762 665.975566,81.0531635 C665.96702,78.57907 666.014023,76.6797011 666.610113,75.2033637 L666.610113,80.5254424 C666.610113,81.3010002 666.85154,82.0103258 667.210476,82.6299175 L667.210476,95.996005 C667.210476,96.9104368 667.958259,97.6432642 668.870554,97.6432642 C669.78285,97.6432642 670.549861,96.9083003 670.549861,95.996005 L670.680189,95.9853224 C670.680189,96.8997542 671.453611,97.6432642 672.359496,97.6432642 C673.269655,97.6432642 674.072988,96.8890716 674.072988,95.9767763 L674.072988,82.3329408 C674.314415,81.7133491 674.562251,81.001887 674.562251,80.2391483 L674.562251,74.9085236 C675.040833,76.3741783 675.198935,78.3120046 675.190389,80.7754155 C675.190389,81.6770282 675.936036,82.4611321 676.848331,82.4611321 C677.754217,82.4611321 678.499863,81.6962569 678.499863,80.7839616 C678.531911,72.3233308 675.782206,68.9390785 673.872155,67.6293899" id="Shape" fill="#000000"></path>
                <path d="M672.573149,66.2363769 L671.605304,66.6423163 C671.408744,66.2940631 671.041262,66.0633186 670.616094,66.0633186 C670.195199,66.0633186 669.834126,66.2940631 669.637566,66.6359067 L668.661175,66.2214213 C668.524438,66.1573256 668.374881,66.1765543 668.248826,66.2598787 C668.116362,66.3432031 668.054403,66.4884866 668.054403,66.6380432 L668.054403,67.8473152 C668.054403,67.9840527 668.107816,68.1229267 668.229597,68.2062511 C668.340697,68.2981216 668.488117,68.3173503 668.626991,68.2788929 C669.005155,68.1592476 669.47519,68.0182371 669.742256,67.9391857 C669.945225,68.1870224 670.257158,68.3515346 670.616094,68.3515346 C670.957937,68.3515346 671.265597,68.2062511 671.474976,67.9562779 C671.750587,68.0481484 672.220622,68.1848859 672.609469,68.3045311 C672.746207,68.3429886 672.912856,68.3152138 673.034638,68.2318894 C673.1436,68.148565 673.226925,68.009691 673.226925,67.8622709 L673.226925,66.6551354 C673.226925,66.4991693 673.135054,66.3581587 673.013272,66.2769709 C672.885081,66.1829639 672.709886,66.1722812 672.573149,66.2363769" id="Shape" fill="#000000"></path>
                <path d="M650.885304,53.4984272 C650.885304,54.7910235 649.834135,55.8336467 648.543675,55.8336467 C647.251079,55.8336467 646.210592,54.7931601 646.210592,53.4984272 C646.210592,52.2079673 647.251079,51.156798 648.543675,51.156798 C649.834135,51.156798 650.885304,52.2058308 650.885304,53.4984272" id="Shape" fill="#000000"></path>
                <path d="M644.954317,65.6018296 L644.954317,65.6018296 C645.479901,65.6018296 645.905069,65.1488868 645.896523,64.6233021 C645.896523,63.2025144 645.896523,62.0872494 646.246913,61.2369133 L646.246913,64.3006872 C646.246913,64.7450839 646.375104,65.1574329 646.614395,65.5099591 L646.614395,66.4970327 C647.934766,66.2363769 649.263683,66.2278308 650.590464,66.4051622 L650.590464,65.3411738 C650.701563,64.9929206 650.831891,64.5784351 650.831891,64.1383114 L650.831891,61.072401 C651.071182,61.9206006 651.20151,62.9995447 651.190827,64.4203324 C651.190827,64.937371 651.624541,65.358266 652.150126,65.358266 C652.67571,65.358266 653.098742,64.9459171 653.098742,64.4203324 C653.117971,59.5597427 651.541217,57.6325991 650.445181,56.8741334 L648.496672,59.5682888 L646.661398,57.0600109 C645.563226,57.8056574 643.986472,59.7627124 644.0057,64.6339847 C644.0057,65.1488868 644.428732,65.6018296 644.954317,65.6018296" id="Shape" fill="#000000"></path>
                <path d="M649.686715,56.0900295 L649.144038,56.320774 C649.022256,56.1263504 648.819287,55.9874764 648.57145,55.9874764 C648.332159,55.9874764 648.118507,56.1178043 648.007408,56.320774 L647.454048,56.0836199 C647.372861,56.043026 647.28099,56.0537086 647.204075,56.0985756 C647.131433,56.1477156 647.095113,56.2395861 647.095113,56.320774 L647.095113,57.0108709 C647.095113,57.0941953 647.131433,57.1668371 647.195529,57.2266597 C647.261761,57.2715267 647.353632,57.2864823 647.426274,57.2629806 C647.648472,57.1967484 647.915537,57.117697 648.07364,57.0706935 C648.182603,57.207431 648.36848,57.3078476 648.57145,57.3078476 C648.772283,57.3078476 648.949614,57.2159771 649.067123,57.0771031 C649.225226,57.1241066 649.502974,57.2095675 649.725172,57.2800728 C649.797814,57.301438 649.917459,57.2886189 649.973009,57.2352058 C650.047787,57.1882023 650.111883,57.1027414 650.111883,57.0215535 L650.111883,56.3314566 C650.111883,56.2395861 650.039241,56.1648078 649.962326,56.1092582 C649.889685,56.0643912 649.770039,56.0537086 649.686715,56.0900295" id="Shape" fill="#000000"></path>
                <path d="M642.307165,99.3268442 L634.763102,93.062559 C633.978998,92.4045099 632.825276,92.5156091 632.169363,93.299713 C631.524133,94.0752709 631.635233,95.2396759 632.41079,95.8849058 L639.965535,102.155601 C640.307379,102.444031 640.719728,102.580769 641.13635,102.580769 C641.661935,102.580769 642.187519,102.352161 642.548592,101.918447 C643.191685,101.136479 643.082722,99.9806203 642.307165,99.3268442" id="Shape" fill="#000000"></path>
                <path d="M662.426801,93.062559 L654.878466,99.3247077 C654.096498,99.9806203 653.987536,101.136479 654.641312,101.920583 C655.000247,102.350024 655.525832,102.582905 656.051417,102.582905 C656.465902,102.582905 656.884661,102.444031 657.224368,102.159874 L664.76843,95.8870423 C665.552534,95.2396759 665.663633,94.0752709 665.007721,93.3039861 C664.362491,92.5177456 663.202359,92.408783 662.426801,93.062559" id="Shape" fill="#000000"></path>
                <path d="M633.590151,65.8304376 C634.006773,65.8304376 634.410576,65.7001097 634.760966,65.407406 L642.307165,59.1431208 C643.080586,58.4872082 643.202368,57.3334858 642.546455,56.5622011 C641.890543,55.7780971 640.738957,55.6669979 639.963399,56.320774 L632.408654,62.5829227 C631.635233,63.2324257 631.524133,64.3946942 632.169363,65.1659789 C632.536845,65.6103757 633.053884,65.8304376 633.590151,65.8304376" id="Shape" fill="#000000"></path>
                <path d="M654.878466,59.1409843 L662.426801,65.407406 C662.766508,65.6937001 663.18313,65.8304376 663.599752,65.8304376 C664.121064,65.8304376 664.648785,65.6082392 665.007721,65.1659789 C665.66577,64.3904211 665.554671,63.2281526 664.770567,62.5807862 L657.226504,56.3186374 C656.44881,55.6627249 655.286541,55.7759606 654.641312,56.5600645 C653.985399,57.3356224 654.094362,58.4893448 654.878466,59.1409843" id="Shape" fill="#000000"></path>
                <g id="Group" transform="translate(694.369956, 0.385146)" fill="#231F20">
                    <path d="M16.9917669,14.9870289 C21.0148396,14.9870289 24.2751736,11.7245584 24.2751736,7.69934917 C24.2751736,3.678413 21.0148396,0.415942468 16.9917669,0.415942468 C12.9665577,0.415942468 9.7040872,3.678413 9.7040872,7.69934917 C9.7040872,11.7245584 12.9665577,14.9870289 16.9917669,14.9870289" id="Shape"></path>
                    <path d="M19.7991581,27.7570265 L17.3977063,29.9661913 C17.1755079,30.1712975 16.808026,30.1712975 16.5815545,29.9661913 L14.1822393,27.7570265 C13.9579044,27.5519203 13.8233034,27.1374349 13.8873991,26.8404582 L15.137265,20.862467 C15.1564937,20.772733 15.2141799,20.5013946 15.2099068,20.441572 C15.1842685,20.1275031 15.1094902,19.1810235 15.1094902,19.1810235 C15.083852,18.8733642 15.316733,18.627664 15.6201192,18.627664 L18.3570051,18.627664 C18.6625279,18.627664 18.8911358,18.8733642 18.8676341,19.1810235 C18.8676341,19.1810235 18.7928558,20.1253666 18.769354,20.441572 C18.765081,20.5013946 18.8184941,20.772733 18.8398593,20.862467 L20.0918617,26.8404582 C20.1559574,27.1374349 20.023493,27.5519203 19.7991581,27.7570265 M32.1696259,36.3693505 C31.2637402,34.2905137 30.503138,32.1219429 29.7660376,30.0217409 C27.8367574,24.5180578 25.5314491,16.760343 21.837401,16.760343 L12.1140851,16.760343 C8.27902639,16.760343 6.11259213,24.5180578 4.18758496,30.0217409 C3.4462115,32.1198064 2.68774586,34.2905137 1.77972361,36.3693505 C1.20072589,37.6897217 1.25413897,39.2322912 2.40358831,39.9266612 C2.58732928,40.0377604 2.52964316,40.5783007 2.52109707,40.8923696 C2.51682402,41.0120149 2.49973184,41.2448959 2.19634558,41.2448959 L1.89509585,41.2448959 C0.999892736,41.2448959 0.267065368,41.9777232 0.267065368,42.8729263 L0.267065368,52.7863928 C0.267065368,53.6815959 0.999892736,54.4165598 1.89509585,54.4165598 L4.97168888,54.4165598 C5.86689199,54.4165598 6.59971936,53.6815959 6.59971936,52.7863928 L6.59971936,42.8729263 C6.59971936,41.9777232 5.86689199,41.2448959 4.97168888,41.2448959 L4.68325829,41.2448959 C4.47174251,41.2448959 4.44610424,40.9970592 4.40978335,40.8923696 C4.33927809,40.6829903 4.40978335,40.2620953 4.60634346,40.1809074 C5.31139603,39.9010229 5.83698067,39.2280182 6.18309739,38.4332317 C6.89242301,36.8052012 8.04828192,33.2671192 8.80888408,31.0964119 C8.98407896,30.5921925 9.20414083,30.2610314 9.16141037,31.1412789 L9.16141037,37.9375583 C9.16141037,38.2729924 9.09304163,39.3027965 9.37719919,39.6531863 C9.59726105,39.9202516 9.97542561,39.815562 9.97542561,40.4672015 L9.97542561,59.6232662 C9.97542561,61.5653655 11.3107524,63.139983 13.175937,63.139983 C15.038985,63.139983 16.0495603,61.5974134 16.0495603,59.655314 L16.0495603,41.2470324 C16.0495603,41.0162879 16.0944273,40.6808538 16.767432,40.6808538 L16.9212617,40.6808538 C17.6028125,40.6808538 17.6519525,41.0782471 17.6519525,41.2000289 L17.6519525,59.6104471 C17.6519525,61.5525464 18.6774835,63.1378464 20.5426681,63.1378464 C22.4078526,63.1378464 23.7431794,61.563229 23.7431794,59.6211297 L23.7303603,40.5654816 C23.7303603,40.2535492 24.1448458,40.0527161 24.305085,39.8582925 C24.6063347,39.4822644 24.7879392,39.0079563 24.7879392,38.4887813 L24.7879392,30.8549848 C24.7879392,30.1200209 24.9417688,30.5409159 25.0186836,30.8186639 C25.612637,32.9979173 26.772769,36.9291195 27.5141424,38.6319283 C27.9799044,39.6937802 28.6657283,40.3326006 29.755355,40.3326006 C30.1335196,40.3326006 30.5202302,40.2556857 30.8877122,40.0954465 C32.3149095,39.4694453 32.7934906,37.8029574 32.1696259,36.3693505" id="Shape"></path>
                </g>
                <path d="M743.962926,86.2534604 C739.061743,81.3501402 739.061743,73.3766366 743.962926,68.475453 C748.86411,63.5742694 756.83975,63.5742694 761.740934,68.475453 C766.642117,73.3766366 766.642117,81.3501402 761.740934,86.2534604 C756.83975,91.154644 748.86411,91.154644 743.962926,86.2534604 M764.881622,89.3941491 C771.515526,82.7623819 771.515526,71.968668 764.881622,65.3326277 C758.249855,58.7008605 747.454005,58.7008605 740.820101,65.3326277 C735.194636,70.9602292 734.342163,79.331126 738.262683,85.8667497 C738.262683,85.8667497 738.544704,86.3389213 738.162266,86.7170858 L729.48371,95.3977786 C727.755263,97.1240891 727.345051,99.53836 728.879074,101.072383 L729.141867,101.335176 C730.673753,102.869199 733.090161,102.454714 734.816471,100.73054 L743.480072,92.0648028 C743.877465,91.6674095 744.349637,91.9494305 744.349637,91.9494305 C750.88526,95.8742232 759.254021,95.0217505 764.881622,89.3941491" id="Shape" fill="#231F20"></path>
                <path d="M745.04828,76.3528131 C744.819672,76.3528131 744.588927,76.3079461 744.364592,76.2160756 C743.471526,75.8357745 743.05704,74.808107 743.430932,73.9150404 C745.806745,68.3002581 752.306048,65.6659253 757.920831,68.0417388 C758.813897,68.4199034 759.228383,69.4497074 758.852355,70.342774 C758.476326,71.2358406 757.444386,71.6524626 756.551319,71.2764346 C752.720534,69.6548136 748.287249,71.453766 746.665628,75.2824151 C746.383607,75.9532833 745.731967,76.3528131 745.04828,76.3528131" id="Shape" fill="#231F20"></path>
                <path d="M820.56582,45.8154907 L803.155294,45.8154907 L804.358157,34.0026553 L819.360821,34.0026553 L820.56582,45.8154907 Z M808.099208,24.4630804 L814.963856,22.1834104 C815.380478,22.7859099 815.626179,23.5208738 815.626179,24.3092508 C815.626179,26.3838145 813.936189,28.0716677 811.859489,28.0716677 C809.838338,28.0695311 808.184669,26.4671389 808.099208,24.4630804 L808.099208,24.4630804 Z M823.648822,45.7321663 L822.435277,33.8402796 C822.386137,32.2293413 821.05722,30.9324719 819.435599,30.9324719 L813.568707,30.9324719 C816.517109,30.1718697 818.700635,27.4905334 818.700635,24.3092508 C818.700635,21.9248912 817.476407,19.8225526 815.621906,18.5961884 C815.972295,18.1111977 816.170992,17.5514287 816.170992,16.9489292 C816.170992,15.0495603 814.2118,13.5604038 811.709932,13.5604038 C809.208064,13.5604038 807.246736,15.0495603 807.246736,16.9489292 C807.246736,17.6112513 807.48389,18.2222969 807.902648,18.7393354 C806.161382,19.9806553 805.024752,22.0124886 805.024752,24.3092508 C805.024752,27.4883969 807.208278,30.1697332 810.15668,30.9324719 L804.289788,30.9324719 C802.663894,30.9324719 801.337113,32.2293413 801.29011,33.8402796 L800.076565,45.7321663 C800.070155,45.7834428 800.068019,45.8368559 800.068019,45.8881325 C800.068019,47.5439377 801.414028,48.8899472 803.067697,48.8899472 L803.069833,48.8899472 L820.655554,48.8899472 C822.311359,48.8899472 823.657368,47.5439377 823.657368,45.8881325 C823.657368,45.8368559 823.655232,45.7834428 823.648822,45.7321663 L823.648822,45.7321663 Z" id="Shape" fill="#231F20"></path>
                <path d="M790.87456,45.8154907 L773.045276,45.8154907 L773.045276,31.737941 L779.217691,31.737941 L780.33082,33.130954 L778.88653,41.702684 C778.809615,42.1577634 778.94208,42.6235254 779.245466,42.9696421 L780.800855,44.7493657 C781.093558,45.0826633 781.514453,45.2749504 781.95885,45.2749504 C782.403247,45.2749504 782.826278,45.0826633 783.116846,44.7493657 L784.672234,42.9696421 C784.977757,42.6235254 785.105948,42.1577634 785.029034,41.702684 L783.589017,33.130954 L784.702146,31.737941 L790.876697,31.737941 L790.876697,45.8154907 L790.87456,45.8154907 Z M778.096017,21.8885703 C778.096017,19.7584569 779.830873,18.0214637 781.960987,18.0214637 C784.093237,18.0214637 785.825957,19.7563204 785.825957,21.8885703 C785.825957,24.0208202 784.093237,25.7535403 781.960987,25.7535403 C779.828737,25.7514037 778.096017,24.0186836 778.096017,21.8885703 L778.096017,21.8885703 Z M793.94688,45.8624942 L793.94688,31.6952106 C793.94688,30.0244496 792.588052,28.665621 790.917291,28.665621 L783.441597,28.665621 C786.556647,27.9840702 788.898277,25.2065904 788.898277,21.8885703 C788.898277,18.0620577 785.785363,14.9491438 781.95885,14.9491438 C778.134474,14.9491438 775.02156,18.0620577 775.02156,21.8885703 C775.02156,25.2044539 777.361053,27.9840702 780.476103,28.665621 L772.998273,28.665621 C771.329648,28.665621 769.97082,30.0244496 769.968683,31.6952106 L769.968683,45.8624942 C769.968683,47.5332551 771.329648,48.8920837 772.998273,48.8920837 L790.919427,48.8920837 C792.590188,48.8920837 793.94688,47.5332551 793.94688,45.8624942 L793.94688,45.8624942 Z" id="Shape" fill="#231F20"></path>
                <path d="M781.386262,11.2956895 C781.634099,11.8362298 782.170366,12.1844831 782.764319,12.1930292 L786.96686,12.2443057 L786.986089,12.2443057 C787.827879,12.2443057 788.513702,11.5691645 788.524385,10.7273744 C788.535068,9.87703829 787.85779,9.17839529 787.005317,9.1698492 L786.575876,9.16557615 C789.297806,7.11665065 792.624373,5.98429349 796.098359,5.98429349 C800.790163,5.98429349 805.214902,8.05031118 808.238082,11.6439428 C808.785032,12.2955823 809.752877,12.3789067 810.404517,11.8319568 C811.05402,11.2871434 811.137344,10.317162 810.592531,9.66552252 C806.983943,5.37324793 801.702459,2.90983698 796.100495,2.90983698 C791.801811,2.90983698 787.691141,4.36267258 784.383804,6.97991318 L784.407305,5.9479726 C784.428671,5.10190952 783.755666,4.39472042 782.907466,4.37549172 L782.871145,4.37549172 C782.035765,4.37549172 781.354214,5.04208688 781.332849,5.87533082 L781.251661,10.6376405 C781.243115,10.8598388 781.290118,11.0841738 781.386262,11.2956895" id="Shape" fill="#231F20"></path>
                <path d="M810.806183,51.6909288 C810.560483,51.1503885 810.024215,50.8021352 809.428126,50.7935891 L805.227721,50.7423126 L805.206356,50.7423126 C804.364566,50.7423126 803.678742,51.4174538 803.670196,52.2635169 C803.657377,53.10958 804.336791,53.808223 805.187128,53.8189056 L805.616569,53.8231787 C802.896775,55.8721042 799.568072,57.0044613 796.094086,57.0044613 C791.402282,57.0044613 786.979679,54.9405801 783.956499,51.344812 C783.411686,50.6953091 782.441704,50.6098481 781.790065,51.156798 C781.138425,51.7037479 781.055101,52.6715928 781.599914,53.3232323 C785.208502,57.6176434 790.489986,60.0789178 796.091949,60.0789178 C800.375678,60.0789178 804.473529,58.6367648 807.77873,56.0344799 L807.765911,56.5622011 C807.746682,57.4082641 808.419687,58.1133167 809.267886,58.1325454 L809.306344,58.1325454 C810.137451,58.1325454 810.823275,57.4680868 810.842504,56.6348428 L810.94292,52.3703431 C810.94933,52.1395986 810.904463,51.9088541 810.806183,51.6909288" id="Shape" fill="#231F20"></path>
                <path d="M854.186145,88.9668445 C844.98414,79.7669767 849.312736,84.0955722 844.360276,79.1324294 C844.360276,79.1324294 842.873256,77.651819 840.911928,78.5107012 C839.531734,79.1132007 837.760556,79.935762 836.425229,80.5660363 C834.959575,81.333048 833.906269,81.5723386 833.412732,81.5702021 C830.579703,81.5509734 828.280804,79.2734399 828.280804,76.442547 C828.280804,74.6094103 829.255058,73.0091547 830.710031,72.1011324 C832.754683,70.6888907 837.459307,68.1827493 837.459307,68.1827493 C837.459307,68.1827493 836.0257,66.3667048 832.885011,66.3667048 C829.744322,66.3667048 823.187333,70.6632525 823.187333,70.6632525 C823.187333,70.6632525 821.326422,71.8575688 818.67286,70.7828978 L813.560161,69.0031741 L813.560161,86.7726354 C813.560161,86.7726354 815.019406,87.195667 816.331231,87.7319342 C816.628208,86.8858712 817.102516,86.1060403 817.769111,85.4629469 C819.946228,83.3862466 823.552679,83.3670179 825.533235,85.4073973 C826.129325,86.0269889 826.545947,86.7662259 826.757463,87.5823776 C827.556523,87.8302143 828.278667,88.266065 828.857665,88.8664279 C829.455892,89.4817465 829.872514,90.2252565 830.084029,91.0371352 C830.880952,91.2849719 831.603097,91.7229591 832.184231,92.323322 C832.84228,92.9984633 833.278131,93.8146151 833.481101,94.7012721 C834.316481,94.9426992 835.066401,95.395642 835.673173,96.0152337 C836.863217,97.2373248 837.286248,98.8952666 837.029865,100.495522 C837.032002,100.495522 837.034138,100.495522 837.036275,100.497659 C837.05764,100.525434 837.777648,101.32663 838.224182,101.777436 C839.100156,102.655547 840.533763,102.655547 841.411874,101.777436 C842.285712,100.899325 842.289985,99.4699913 841.411874,98.5876073 C841.379826,98.557696 838.24982,95.2802698 838.50193,95.0260236 C838.751903,94.7739139 842.740791,98.9273144 842.817706,99.0020928 C843.69368,99.8759306 845.125151,99.8759306 846.005398,99.0020928 C846.883509,98.1239818 846.881373,96.694648 846.005398,95.8144005 C845.962668,95.7716701 845.7832,95.6007482 845.716968,95.5323795 C845.716968,95.5323795 841.755854,92.0071166 842.05924,91.7058669 C842.364763,91.4003441 847.278766,95.9917319 847.287312,95.9917319 C848.169696,96.7865185 849.532798,96.7822454 850.380997,95.9297728 C851.212105,95.1029384 851.22706,93.7953863 850.49637,92.9130024 C850.477141,92.8681354 846.746772,88.9668445 847.039475,88.6762774 C847.334316,88.3771642 851.024091,92.180175 851.034773,92.1887211 C851.906475,93.0646955 853.340082,93.0646955 854.220329,92.1887211 C855.096303,91.3127467 855.096303,89.8812763 854.220329,88.9967558 C854.209646,88.9818002 854.196827,88.9753906 854.186145,88.9668445 M830.96214,97.0493108 C831.374489,95.9895954 831.235615,94.8016886 830.445102,93.9898099 C829.73364,93.2612556 828.699562,93.0689685 827.708216,93.2975765 C827.985964,92.3169125 827.834271,91.2721528 827.118536,90.5350523 C826.407073,89.8086345 825.37086,89.6120744 824.38165,89.8428189 C824.655125,88.8642914 824.503431,87.8195317 823.787696,87.0845678 C822.670295,85.937255 820.732468,85.982122 819.463374,87.1978035 C818.198552,88.4113485 817.386674,90.6119672 818.516894,91.9067001 C819.642842,93.1950234 820.939711,92.4109195 821.928921,92.1865846 C821.651173,93.1651121 820.828612,94.0774074 821.845597,95.3593211 C822.858309,96.6433714 824.268414,95.8635406 825.255488,95.6413422 C824.979876,96.6177331 824.193636,97.6197624 825.16789,98.8076692 C826.152827,100.001985 827.763765,99.3674382 828.827754,99.0341406 C828.415405,100.089583 827.537294,101.22835 828.667515,102.503854 C829.793462,103.787904 832.40002,103.193951 833.673388,101.980406 C834.944619,100.764724 835.064264,98.8418535 833.948999,97.6902677 C833.169168,96.8997542 832.021856,96.7138767 830.96214,97.0493108 M864.866623,70.7316212 L864.866623,86.264143 C864.866623,86.264143 861.542193,86.9200555 860.858506,87.0055164 C860.174818,87.0909774 858.029749,87.7853473 856.476497,86.2897813 C854.077182,83.9930191 845.558865,75.5195691 845.558865,75.5195691 C845.558865,75.5195691 844.088937,74.0795527 841.732352,75.3251455 C839.568055,76.4639123 836.358997,78.1368097 835.019397,78.7884492 C832.483345,80.1387317 830.385279,77.9979357 830.385279,76.3656322 C830.385279,75.1029471 831.17152,74.2462014 832.299604,73.6137906 C835.354831,71.7614253 841.796448,68.1442919 844.479921,66.7192311 C846.110088,65.8518028 847.283039,65.7770245 849.524252,67.6635743 C852.282503,69.9817017 854.735231,72.0947228 854.735231,72.0947228 C854.735231,72.0947228 855.534291,72.761318 856.811931,72.4942526 C859.950484,71.8319305 864.866623,70.7316212 864.866623,70.7316212" id="Shape" fill="#231F20"></path>
                <path d="M48.0397183,76.1306147 L86.3133903,76.1306147 L86.3133903,97.4167927 L48.0397183,97.4167927 L48.0397183,76.1306147 Z M45.1554123,101.450548 L89.1976962,101.450548 C89.8322436,101.450548 90.3514186,100.933509 90.3514186,100.296826 L90.3514186,73.2463087 C90.3514186,72.6096249 89.8322436,72.0925863 89.1976962,72.0925863 L45.1554123,72.0925863 C44.5187285,72.0925863 44.00169,72.6096249 44.00169,73.2463087 L44.00169,100.296826 C44.00169,100.933509 44.5187285,101.450548 45.1554123,101.450548 L45.1554123,101.450548 Z" id="Shape" fill="#231F20"></path>
                <g id="Group" transform="translate(864.540414, 1.136523)" fill="#231F20">
                    <path d="M28.1928772,24.0636579 C28.1245085,23.9888796 26.2315492,21.6707522 28.3979834,19.7286528 L30.8058448,17.5622186 C30.8058448,17.5622186 33.3013036,15.835908 35.0853002,17.8228744 L37.3201032,15.8188159 L36.3586679,14.7484179 C32.4231926,10.3599997 25.6675071,9.99679084 21.279089,13.9322661 L17.1726919,17.6241777 L25.2786599,26.6573967 L28.1928772,24.0636579 Z" id="Shape"></path>
                    <path d="M4.71676315,28.8003292 C0.328345027,32.7422141 -1.32318721,40.6494855 2.62083414,45.0379036 L5.67819847,48.4499307 C9.62221982,52.8383488 17.6598191,52.0499719 22.0482372,48.1059505 L33.6495568,37.6968108 L16.3095366,18.4061451 L4.71676315,28.8003292 Z" id="Shape"></path>
                    <path d="M35.8929059,23.3692879 L33.6239185,25.4139404 C33.6239185,25.4139404 31.154098,27.3688589 29.2483195,25.2430185 L29.2483195,25.2643838 L26.3597405,27.8623957 L34.4998929,36.9340721 L38.6084266,33.244297 C42.9989812,29.2981391 43.3685997,22.5445901 39.4224418,18.1561719 L38.4716891,17.0921835 L36.1962922,19.1282899 C36.1941556,19.1304264 38.0251558,21.4635095 35.8929059,23.3692879" id="Shape"></path>
                    <path d="M45.9516559,1.73485663 C42.8259228,0.309795826 39.999303,0.467898524 38.3819551,2.16643426 C36.7133307,3.91624655 37.2709632,6.3048792 39.8006064,8.37516993 C42.9754794,11.0009566 42.4007548,12.5627549 41.8516684,13.3575414 C41.8516684,13.3575414 41.1444793,14.6480013 38.8284884,15.3829652 C38.5186926,15.4406513 37.4141102,15.549614 37.3115571,15.8551367 L38.4695526,17.0879105 C38.6212457,17.04518 41.3431759,15.876502 42.8942916,13.6117877 C44.2317549,11.6654153 43.5587502,9.62717237 40.8197278,7.37955024 C38.3541803,5.35626301 38.2900846,3.3436584 39.0378677,2.56596405 C39.7087359,1.86518453 41.8409858,1.34600945 45.0115858,2.79029896 C45.2188285,2.88003292 45.59272,2.72193023 45.8491028,2.42709006 C46.1054855,2.14720556 46.1503525,1.82459059 45.9516559,1.73485663" id="Shape"></path>
                </g>
                <path d="M896.796958,20.1131197 L894.433964,22.23896 C893.713956,22.88419 893.651996,23.9844993 894.301499,24.7045075 C894.948866,25.4245157 896.051312,25.4864749 896.77132,24.841245 L899.134314,22.7154046 C899.856459,22.0723112 899.916282,20.9613193 899.266779,20.2477206 C898.630095,19.5213028 897.516966,19.4572072 896.796958,20.1131197" id="Shape" fill="#231F20"></path>
                <path d="M911.244126,57.8270226 L912.139329,70.5671089 L909.780608,70.7358942 L908.883268,57.9915349 L911.244126,57.8270226 Z M953.679745,80.4848484 C953.555827,75.8165458 952.028213,71.3341207 951.908567,66.6829102 C951.731236,59.907996 941.349871,59.7563029 941.266547,66.3624318 C937.29475,67.0397096 933.322954,67.4007819 929.287063,67.2106314 C925.616516,67.0397096 925.60797,72.7143145 929.248605,72.8852363 C933.489603,73.0860695 937.696417,72.6801301 941.877592,71.9964428 C942.304897,74.481219 942.815526,76.9553125 942.977902,79.47 C934.329257,82.4889069 929.539172,89.806498 928.319218,99.1046459 C928.308535,99.1708781 928.308535,99.2371103 928.304262,99.3033425 L928.304262,78.7158074 L933.752395,78.7158074 L933.752395,73.8509447 L914.198938,73.8509447 C914.213893,73.7911221 914.218166,73.7163438 914.222439,73.6287463 C914.222439,73.5710602 914.226712,73.5155106 914.235258,73.4471419 C914.256624,73.039066 914.327129,72.8959189 914.728795,72.8211406 C914.829212,72.8019119 914.95954,72.7933658 915.089868,72.7976389 L915.089868,73.1352095 L920.332895,73.1352095 C920.486725,73.1693939 920.640554,73.1843495 920.783701,73.1843495 C921.003763,73.1843495 921.191777,73.1352095 921.302876,72.9856529 C921.362699,72.9066016 921.362699,72.7955024 921.362699,72.6929493 C921.362699,72.5903962 921.362699,72.48357 921.407566,72.4237474 C921.486617,72.3297404 921.629764,72.2720542 921.73659,72.2635082 C921.625491,72.4707509 921.554986,72.6929493 921.554986,72.9322398 L927.498793,72.9322398 C927.498793,71.7870635 926.169876,70.8598126 924.524753,70.8598126 C924.01626,70.8598126 923.541952,70.9580926 923.121057,71.1161953 C923.221474,72.0989959 922.300633,72.0007158 921.943833,71.9302106 C921.901103,71.9814871 921.864782,72.0370367 921.826324,72.0925863 C921.813505,72.0883133 921.79855,72.0797672 921.781457,72.0754941 C921.625491,72.0712211 921.396883,72.1673646 921.277238,72.3105117 C921.185368,72.4216108 921.189641,72.5647579 921.189641,72.6908127 C921.189641,72.7634545 921.189641,72.8425059 921.164002,72.8766902 C921.102043,72.9621512 920.978125,72.9877894 920.837114,72.998472 L920.837114,72.1759107 L915.087731,72.1759107 L915.087731,72.6138979 C914.933901,72.6138979 914.790754,72.6267171 914.692474,72.6459458 C914.181845,72.7420893 914.081429,72.9749703 914.053654,73.4343227 C914.053654,73.4984184 914.047244,73.5625141 914.040835,73.6137906 C914.040835,73.7163438 914.036562,73.7911221 914.023743,73.8466716 L903.223619,73.8466716 L903.223619,78.7072613 L906.19125,78.7072613 L906.19125,102.313703 L928.297852,102.313703 L928.297852,99.954982 C928.658925,103.589208 934.865524,103.25591 935.412474,99.0918267 C936.358953,91.9002905 940.550811,87.0952504 947.607747,85.5078139 C950.53692,85.9628932 953.780162,84.2921323 953.679745,80.4848484 L953.679745,80.4848484 Z M957.059724,83.706725 L956.852481,82.0829676 C956.064105,75.7310849 956.032057,75.4896578 956.339716,64.2964141 C956.350399,63.9032939 956.040603,63.5785424 955.649619,63.5678598 C955.273591,63.540085 954.931747,63.8648365 954.916792,64.2600932 C954.609132,75.5537535 954.64118,75.8037267 955.442376,82.2560259 L955.649619,83.8819199 C955.852589,85.4437182 955.673121,86.5247988 955.143263,86.9392842 C954.523671,87.4178654 953.442591,86.9948338 953.367813,86.962786 C948.141877,85.3582573 941.636165,88.6784139 941.364827,88.8130148 C941.0123,88.9946193 940.877699,89.4240604 941.057167,89.7723136 C941.183222,90.0180138 941.433195,90.1526147 941.687442,90.1526147 C941.798541,90.1526147 941.905367,90.1269765 942.012193,90.0756999 C942.054924,90.0564712 944.960595,88.5779973 948.259386,88.0844605 L948.259386,99.1388302 L945.308848,99.1388302 C944.706349,99.1388302 944.217085,99.6259574 944.217085,100.228457 C944.217085,100.826683 944.706349,101.313811 945.308848,101.313811 L953.688291,101.313811 C954.29079,101.313811 954.777918,100.826683 954.777918,100.228457 C954.777918,99.6259574 954.29079,99.1388302 953.688291,99.1388302 L950.970634,99.1388302 L950.970634,87.9648152 C951.626546,88.0075457 952.26964,88.1079623 952.891368,88.2981128 C952.96401,88.3322972 954.724505,89.0544419 956.006418,88.0716414 C956.984946,87.3195853 957.341745,85.847521 957.059724,83.706725 L957.059724,83.706725 Z M910.353196,73.6330194 L911.827397,73.6330194 L911.827397,72.9236937 L910.353196,72.9236937 C909.949393,72.9236937 909.658826,72.8446424 909.552,72.7057684 C909.472949,72.5968057 909.504997,72.4600683 909.504997,72.4600683 L909.526362,68.1699302 L908.817036,68.1699302 L908.817036,72.3062386 C908.782852,72.4493856 908.746531,72.7976389 908.979412,73.1181173 C909.225112,73.4578245 909.690874,73.6330194 910.353196,73.6330194 L910.353196,73.6330194 Z M943.454346,49.98812 C946.501028,49.98812 948.968712,52.4536674 948.968712,55.5024857 C948.968712,58.5491674 946.501028,61.0189879 943.454346,61.0189879 C940.407664,61.0189879 937.942117,58.5491674 937.942117,55.5024857 C937.942117,52.455804 940.407664,49.98812 943.454346,49.98812 L943.454346,49.98812 Z M923.121057,71.1140588 L923.080463,71.1418336 C923.093283,71.1332875 923.106102,71.1290145 923.121057,71.1247414 L923.121057,71.1140588 Z M923.048416,71.2123389 C922.881767,71.220885 922.330544,71.695193 922.330544,71.695193 C922.627521,71.8191114 923.221474,71.1973832 923.048416,71.2123389 L923.048416,71.2123389 Z" id="Shape" fill="#0F1212"></path>
                <path d="M987.750876,21.6108223 L982.903106,25.5548436 C982.618948,25.7834516 982.266422,25.8988238 981.913896,25.8988238 C981.557096,25.8988238 981.20457,25.7834516 980.920412,25.5548436 L976.074778,21.6108223 L960.670448,37.6347443 C961.595562,38.1731481 962.676643,38.4936266 963.845321,38.4936266 L999.973924,38.4936266 C1001.14474,38.4936266 1002.22582,38.1731481 1003.15093,37.6347443 L987.750876,21.6108223 Z M958.766806,7.52899958 C958.183535,8.39215485 957.831009,9.40913977 957.831009,10.505176 L957.831009,32.8959365 C957.831009,33.8766005 958.125849,34.7910323 958.602294,35.5900919 L973.810064,19.7648665 L958.766806,7.52899958 Z M1005.06099,7.52899958 L990.015591,19.7691395 L1005.22763,35.5900919 C1005.70408,34.7910323 1006.00106,33.8766005 1006.00106,32.8959365 L1006.00106,10.505176 C1006.00106,9.40913977 1005.64853,8.39215485 1005.06099,7.52899958 L1005.06099,7.52899958 Z M999.978197,4.90534941 L963.849594,4.90534941 C962.802698,4.90534941 961.839126,5.1745513 960.980244,5.6125385 L981.916032,22.6406263 L1002.84968,5.6125385 C1001.98867,5.1745513 1001.02296,4.90534941 999.978197,4.90534941 L999.978197,4.90534941 Z" id="Shape" fill="#231F20"></path>
                <path d="M1022.27922,97.9316948 L1013.91474,97.9316948 L1013.91474,96.0088241 L1022.27922,96.0088241 L1022.27922,97.9316948 Z M1046.11,94.3038788 C1046.05659,94.2419196 1045.97754,94.2055987 1045.89421,94.2055987 L990.299748,94.2055987 C990.216424,94.2055987 990.139509,94.2419196 990.086096,94.3038788 C990.02841,94.3679745 990.007044,94.4491624 990.017727,94.5324868 C990.026273,94.5837633 990.86379,99.7327836 997.373776,99.7327836 L1038.81591,99.7327836 C1045.3259,99.7327836 1046.16341,94.5858998 1046.16982,94.5324868 C1046.18905,94.4512989 1046.16341,94.370111 1046.11,94.3038788 L1046.11,94.3038788 Z" id="Shape" fill="#231F20"></path>
                <path d="M998.959076,66.8858799 L1037.23275,66.8858799 L1037.23275,88.1699214 L998.959076,88.1699214 L998.959076,66.8858799 Z M996.076906,92.2058133 L1040.11919,92.2058133 C1040.75374,92.2058133 1041.27291,91.6887747 1041.27291,91.0520909 L1041.27291,64.0015739 C1041.27291,63.3648901 1040.75374,62.8499881 1040.11919,62.8499881 L996.076906,62.8499881 C995.440222,62.8499881 994.923184,63.3648901 994.923184,64.0015739 L994.923184,91.0520909 C994.923184,91.6887747 995.440222,92.2058133 996.076906,92.2058133 L996.076906,92.2058133 Z" id="Shape" fill="#231F20"></path>
                <path d="M1064.46701,18.32485 L1060.55717,18.32485 C1056.94004,18.32485 1053.98095,21.262569 1053.98095,24.8861119 L1053.98095,43.1213352 L1071.0475,43.1213352 L1071.0475,31.3384112 C1073.53655,33.5176646 1077.07676,35.598638 1082.4843,36.5045237 C1082.03136,35.8443381 1081.66174,35.1008281 1081.57842,34.2355363 C1081.41177,32.6929668 1082.01,31.2743155 1083.00134,30.2445115 C1076.89089,29.0736969 1074.38261,26.0932474 1072.20122,23.3755902 C1071.12868,22.0616286 1070.12025,20.8074897 1068.78065,19.9208326 L1068.661,19.8631465 C1067.50941,18.9188034 1066.07153,18.32485 1064.46701,18.32485 M1110.57317,18.32485 L1106.66547,18.32485 C1105.08444,18.32485 1103.62092,18.9188034 1102.49498,19.865283 L1102.36679,19.9229692 C1101.03146,20.8096262 1100.00593,22.0637651 1098.93553,23.3777268 C1096.55117,26.3410841 1093.83351,29.736019 1086.24672,30.5820821 C1084.52041,30.7679596 1083.28336,32.3105292 1083.47351,34.0368397 C1083.65939,35.6413684 1085.01608,36.8292752 1086.59711,36.8292752 L1086.94536,36.80791 C1093.36348,36.0921748 1097.3545,33.8103683 1100.08498,31.3768686 L1100.08498,43.1213352 L1117.15366,43.1213352 L1117.15366,24.8861119 C1117.15366,21.262569 1114.19244,18.32485 1110.57317,18.32485 M1062.51422,2.15778091 C1058.4997,2.15778091 1055.27568,5.4074323 1055.27568,9.39632063 C1055.27568,13.389482 1058.4997,16.6156316 1062.51422,16.6156316 C1066.50525,16.6156316 1069.7314,13.389482 1069.7314,9.39632063 C1069.7314,5.40529578 1066.50525,2.15778091 1062.51422,2.15778091 M1108.62039,2.15778091 C1104.6315,2.15778091 1101.40108,5.4074323 1101.40108,9.39632063 C1101.40108,13.389482 1104.6315,16.6156316 1108.62039,16.6156316 C1112.63064,16.6156316 1115.86106,13.389482 1115.86106,9.39632063 C1115.85893,5.40529578 1112.63064,2.15778091 1108.62039,2.15778091" id="Shape" fill="#231F20"></path>
                <path d="M1098.42704,99.5533157 C1088.39179,99.5533157 1080.22173,91.3896615 1080.22173,81.3480037 C1080.22173,71.3106189 1088.38965,63.1448282 1098.42704,63.1448282 C1108.46442,63.1448282 1116.63235,71.3084824 1116.63235,81.3480037 C1116.63449,91.3896615 1108.46442,99.5533157 1098.42704,99.5533157 M1098.42704,58.2265524 C1085.67413,58.2265524 1075.30345,68.6015078 1075.30345,81.3501402 C1075.30345,94.1030456 1085.67413,104.475865 1098.42704,104.475865 C1111.17781,104.475865 1121.54849,94.1030456 1121.54849,81.3501402 C1121.54849,68.6015078 1111.17781,58.2265524 1098.42704,58.2265524" id="Shape" fill="#231F20"></path>
                <path d="M1098.18347,66.2385135 C1097.1323,66.2385135 1096.27983,67.0909861 1096.27983,68.1442919 L1096.27983,82.5401835 C1096.27983,83.5956258 1097.13017,84.445962 1098.18347,84.445962 L1110.47916,84.445962 C1111.53247,84.445962 1112.38708,83.5977624 1112.38708,82.5401835 C1112.38708,81.4932873 1111.53461,80.6386781 1110.47916,80.6386781 L1100.08712,80.6386781 L1100.08712,68.1421554 C1100.08712,67.0909861 1099.23464,66.2385135 1098.18347,66.2385135" id="Shape" fill="#231F20"></path>
                <path d="M1162.07619,23.864854 C1159.82216,23.864854 1157.35661,22.7410429 1156.14093,19.6302655 C1155.95933,19.1367287 1155.97215,18.1432455 1155.97215,18.0513751 L1155.97215,16.6540891 C1155.97215,12.6887025 1159.34144,10.8854771 1162.27062,10.8854771 C1165.87707,10.8854771 1168.66309,13.7719196 1168.66309,17.3783703 C1168.66309,20.9848211 1165.68264,23.864854 1162.07619,23.864854 M1161.93518,0.38019382 C1154.27147,0.38019382 1145.83221,5.51853149 1144.70412,16.1135488 L1144.70412,18.27571 C1144.70412,18.3654439 1144.73404,19.1773226 1144.77677,19.5853985 C1145.41131,24.6318657 1149.39166,29.9966748 1152.36997,35.0452785 C1155.56834,40.4528181 1158.89064,45.7748967 1162.18088,51.0969754 C1164.21058,47.6229891 1166.23387,44.1084088 1168.21442,40.726293 C1168.7571,39.7349464 1169.38524,38.7435997 1169.92364,37.8013931 C1170.28471,37.1668458 1170.97481,36.534435 1171.28888,35.9490277 C1174.49153,30.0906818 1179.64268,24.1853324 1179.64268,18.3675805 L1179.64268,15.9789478 C1179.64268,15.3486735 1178.86072,13.1437819 1178.81799,13.0070444 C1178.63425,12.3297666 1178.27104,11.6076219 1177.99542,10.9752111 C1174.75005,3.17690235 1167.65893,0.38019382 1161.93518,0.38019382" id="Shape" fill="#231F20"></path>
                <path d="M1191.99606,100.437836 C1191.05813,100.437836 1190.30393,99.681507 1190.30393,98.7435735 C1190.30393,97.8077764 1191.05813,97.0514473 1191.99606,97.0514473 C1192.93186,97.0514473 1193.68819,97.8077764 1193.68819,98.7435735 C1193.68819,99.681507 1192.93399,100.437836 1191.99606,100.437836 L1191.99606,100.437836 Z M1179.78797,57.3527145 L1204.20415,57.3527145 L1204.20415,95.857131 L1179.78797,95.857131 L1179.78797,57.3527145 Z M1188.42166,55.2396934 C1188.19091,55.2396934 1188.00717,55.0602254 1188.00717,54.8358905 C1188.00717,54.6072826 1188.19091,54.4235416 1188.42166,54.4235416 L1195.57046,54.4235416 C1195.80121,54.4235416 1195.98281,54.6072826 1195.98281,54.8358905 C1195.98281,55.0602254 1195.80121,55.2396934 1195.57046,55.2396934 L1188.42166,55.2396934 Z M1203.17435,51.9814959 L1180.8135,51.9814959 C1178.95472,51.9814959 1177.42711,53.5069733 1177.42711,55.3678847 L1177.42711,98.7435735 C1177.42711,100.604485 1178.95472,102.129962 1180.8135,102.129962 L1203.17435,102.129962 C1205.03526,102.129962 1206.56287,100.604485 1206.56287,98.7435735 L1206.56287,55.3678847 C1206.56287,53.5069733 1205.0374,51.9814959 1203.17435,51.9814959 L1203.17435,51.9814959 Z" id="Shape" fill="#231F20"></path>
                <path d="M1271.59436,41.5552639 L1258.68976,41.5552639 L1258.68976,33.8894196 L1271.59436,33.8894196 L1271.59436,41.5552639 Z M1243.23415,6.61029471 L1256.20071,6.61029471 L1256.20071,14.276139 L1243.23415,14.276139 L1243.23415,6.61029471 Z M1240.93098,41.5552639 L1228.02638,41.5552639 L1228.02638,33.8894196 L1240.93098,33.8894196 L1240.93098,41.5552639 Z M1277.66422,49.4133953 C1277.4933,49.1142821 1277.24119,48.6250183 1276.89934,47.9434675 L1274.7265,43.6640121 L1274.7265,31.970822 C1274.7265,31.6717088 1274.63036,31.4174626 1274.43807,31.2059468 C1274.24578,30.990158 1274.00222,30.8876049 1273.70311,30.8876049 L1256.64724,30.8876049 C1256.34813,30.8876049 1256.09175,30.9922945 1255.88237,31.2059468 C1255.66658,31.4195991 1255.56403,31.6738453 1255.56403,31.970822 L1255.56403,37.7202052 L1251.66487,37.7202052 L1251.66487,24.8797024 L1261.50356,24.8797024 C1262.86666,24.8797024 1263.09954,23.9609975 1262.20648,22.1321339 C1262.07615,21.8330207 1261.81977,21.3437569 1261.43946,20.6622061 L1259.33072,16.3827506 L1259.33072,4.69169711 C1259.33072,4.39472042 1259.22603,4.13833767 1259.01451,3.9268219 C1258.79872,3.71316961 1258.54661,3.60847998 1258.2475,3.60847998 L1241.19377,3.60847998 C1240.89252,3.60847998 1240.64896,3.71530613 1240.45667,3.9268219 C1240.26439,4.13833767 1240.17038,4.39685695 1240.17038,4.69169711 L1240.17038,16.3827506 L1237.99754,20.6622061 L1237.80525,21.0489167 C1237.5916,21.5168153 1237.43136,21.8586589 1237.32453,22.0701747 C1237.2177,22.283827 1237.09165,22.5808037 1236.93996,22.9653778 C1236.79254,23.3478154 1236.71776,23.636246 1236.71776,23.8263966 C1236.71776,24.0186836 1236.75194,24.2109707 1236.8139,24.4032578 C1236.878,24.5934083 1237.02969,24.7322823 1237.26043,24.8177432 C1237.49545,24.9032041 1237.80525,24.9245694 1238.18982,24.8818389 L1247.83622,24.8818389 L1247.83622,37.7223418 L1244.06526,37.7223418 L1244.06526,31.9729585 C1244.06526,31.6738453 1243.96912,31.4195991 1243.77897,31.2080833 C1243.58454,30.9922945 1243.34312,30.8897414 1243.04187,30.8897414 L1225.986,30.8897414 C1225.68689,30.8897414 1225.43478,30.994431 1225.22113,31.2080833 C1225.00748,31.4217356 1224.90279,31.6759819 1224.90279,31.9729585 L1224.90279,43.6661486 L1222.79404,47.945604 C1222.75131,48.031065 1222.66798,48.178485 1222.53979,48.3921373 C1222.32614,48.8194419 1222.1659,49.1484665 1222.06121,49.383484 C1221.95438,49.6142285 1221.82619,49.9154782 1221.6745,50.2765506 C1221.52922,50.6397595 1221.4523,50.9175075 1221.4523,51.107658 C1221.4523,51.2999451 1221.48221,51.5050513 1221.54845,51.7144305 C1221.6104,51.9280828 1221.75996,52.0669568 1221.99498,52.1310525 C1222.22786,52.1930116 1222.53766,52.2250595 1222.92009,52.2250595 L1246.23383,52.2250595 C1247.63966,52.2250595 1247.89391,51.2892624 1247.00084,49.4155318 C1246.82992,49.1164186 1246.57354,48.6271549 1246.23383,47.945604 L1244.06099,43.6661486 L1244.06099,41.5574005 L1255.56189,41.5574005 L1255.56189,43.6661486 L1253.45314,47.945604 C1253.41041,48.031065 1253.32495,48.178485 1253.19676,48.3921373 C1252.98311,48.8194419 1252.825,49.1484665 1252.71818,49.383484 C1252.61135,49.6142285 1252.48316,49.9154782 1252.3336,50.2786871 C1252.18618,50.6397595 1252.11141,50.9175075 1252.11141,51.107658 C1252.11141,51.2999451 1252.14559,51.5050513 1252.20541,51.7144305 C1252.27164,51.9280828 1252.4212,52.0669568 1252.65408,52.1310525 C1252.8891,52.1930116 1253.19676,52.2250595 1253.58133,52.2250595 L1276.89934,52.2250595 C1278.30518,52.222923 1278.55942,51.2871259 1277.66422,49.4133953 L1277.66422,49.4133953 Z" id="Shape" fill="#231F20"></path>
                <path d="M1275.70503,97.2245057 C1274.03427,97.2245057 1272.66903,95.861404 1272.66903,94.1885066 L1272.66903,68.5139104 C1272.66903,66.8388764 1274.03427,65.4800478 1275.70503,65.4800478 L1304.27889,65.4800478 C1305.94751,65.4800478 1307.31061,66.8388764 1307.31061,68.5139104 L1307.31061,94.1885066 C1307.31061,95.861404 1305.94751,97.2245057 1304.27889,97.2245057 L1275.70503,97.2245057 Z M1304.27889,61.8949623 L1275.70503,61.8949623 C1272.05585,61.8949623 1269.08822,64.8625927 1269.08822,68.5139104 L1269.08822,94.1885066 C1269.08822,97.8398243 1272.05585,100.811728 1275.70503,100.811728 L1307.74219,100.811728 C1311.39137,100.811728 1314.36327,97.8398243 1314.36327,94.1885066 L1314.36327,73.8274429 C1314.36327,71.3106189 1312.9489,69.1206829 1310.87433,68.0011449 C1310.61154,64.5912543 1307.75287,61.8949623 1304.27889,61.8949623 L1304.27889,61.8949623 Z" id="Shape" fill="#231F20"></path>
                <path d="M1281.02711,67.3260036 L1280.95447,67.3260036 C1280.43743,67.3260036 1280.01867,67.7447621 1280.01867,68.2596642 L1280.01867,71.5499095 L1277.23051,67.7105778 C1277.05317,67.4691507 1276.77115,67.3260036 1276.47418,67.3260036 L1276.38444,67.3260036 L1276.37376,67.3260036 L1276.3588,67.3260036 L1276.28616,67.3260036 C1275.77126,67.3260036 1275.35037,67.7447621 1275.35037,68.2596642 L1275.35037,74.3936215 C1275.35037,74.906387 1275.76912,75.327282 1276.28616,75.327282 L1276.3588,75.327282 C1276.87371,75.327282 1277.2946,74.9085236 1277.2946,74.3936215 L1277.2946,71.0991031 L1280.08276,74.9405714 C1280.25796,75.1819985 1280.53998,75.327282 1280.83909,75.327282 L1280.93096,75.327282 L1280.93951,75.327282 L1280.9566,75.327282 L1281.02924,75.327282 C1281.54628,75.327282 1281.9629,74.9085236 1281.9629,74.3936215 L1281.9629,68.2596642 C1281.95863,67.7468987 1281.54415,67.3260036 1281.02711,67.3260036" id="Shape" fill="#231F20"></path>
                <path d="M1287.55205,67.3260036 L1283.75758,67.3260036 C1283.24268,67.3260036 1282.82392,67.7447621 1282.82392,68.2596642 L1282.82392,74.3936215 C1282.82392,74.906387 1283.24055,75.327282 1283.75758,75.327282 L1287.6781,75.327282 C1288.19301,75.327282 1288.6139,74.9085236 1288.6139,74.3936215 C1288.6139,73.876583 1288.19514,73.4578245 1287.6781,73.4578245 L1284.7703,73.4578245 L1284.7703,72.2036855 L1287.14397,72.2036855 C1287.65887,72.2036855 1288.07977,71.784927 1288.07977,71.2678885 L1288.07977,71.1952467 C1288.07977,70.6824812 1287.66101,70.2615862 1287.14397,70.2615862 L1284.7703,70.2615862 L1284.7703,69.268103 L1287.55632,69.268103 C1288.07122,69.268103 1288.48998,68.851481 1288.48998,68.3323059 L1288.48998,68.2575276 C1288.48357,67.7468987 1288.06909,67.3260036 1287.55205,67.3260036" id="Shape" fill="#231F20"></path>
                <path d="M1298.25816,67.3260036 L1298.16416,67.3260036 C1297.76249,67.3260036 1297.40356,67.5845229 1297.2775,67.964824 L1296.12591,71.4409468 L1294.97219,67.964824 C1294.84186,67.5845229 1294.48507,67.3260036 1294.08554,67.3260036 L1293.95307,67.3260036 C1293.5514,67.3260036 1293.19461,67.5845229 1293.06641,67.964824 L1291.91483,71.4409468 L1290.75683,67.964824 C1290.63078,67.5845229 1290.27398,67.3260036 1289.87231,67.3260036 L1289.77831,67.3260036 C1289.47706,67.3260036 1289.19503,67.4691507 1289.02198,67.7169873 C1288.84464,67.9605509 1288.79764,68.2788929 1288.89378,68.5609139 L1290.97476,74.6927347 C1291.10081,75.0730358 1291.45761,75.327282 1291.85928,75.327282 L1291.91269,75.327282 L1291.9191,75.327282 L1291.96824,75.327282 C1292.36991,75.327282 1292.72457,75.0708993 1292.8549,74.6927347 L1294.0193,71.2272945 L1295.18371,74.6905982 C1295.30976,75.0708993 1295.66443,75.327282 1296.06609,75.327282 L1296.12378,75.327282 L1296.12805,75.327282 L1296.13232,75.327282 L1296.17719,75.327282 C1296.57886,75.327282 1296.93352,75.0730358 1297.06385,74.6927347 L1299.14269,68.5609139 C1299.24097,68.2788929 1299.18969,67.9626875 1299.01449,67.7169873 C1298.84571,67.4712872 1298.56155,67.3260036 1298.25816,67.3260036" id="Shape" fill="#231F20"></path>
                <path d="M1285.95179,78.0470758 L1277.0724,78.0470758 C1276.08319,78.0470758 1275.27772,78.8504084 1275.27772,79.8396185 C1275.27772,80.8266921 1276.08319,81.6321612 1277.0724,81.6321612 L1285.95179,81.6321612 C1286.93887,81.6321612 1287.7422,80.8266921 1287.7422,79.8396185 C1287.7422,78.8504084 1286.941,78.0470758 1285.95179,78.0470758" id="Shape" fill="#231F20"></path>
                <path d="M1285.95179,84.0186574 L1277.0724,84.0186574 C1276.08319,84.0186574 1275.27772,84.82199 1275.27772,85.8112001 C1275.27772,86.8025468 1276.08319,87.6037429 1277.0724,87.6037429 L1285.95179,87.6037429 C1286.93887,87.6037429 1287.7422,86.8025468 1287.7422,85.8112001 C1287.7422,84.82199 1286.941,84.0186574 1285.95179,84.0186574" id="Shape" fill="#231F20"></path>
                <path d="M1285.95179,89.9923755 L1277.0724,89.9923755 C1276.08319,89.9923755 1275.27772,90.7957081 1275.27772,91.7849183 C1275.27772,92.7741284 1276.08319,93.577461 1277.0724,93.577461 L1285.95179,93.577461 C1286.93887,93.577461 1287.7422,92.7741284 1287.7422,91.7849183 C1287.7422,90.7957081 1286.941,89.9923755 1285.95179,89.9923755" id="Shape" fill="#231F20"></path>
                <path d="M1304.17633,77.794966 L1290.48549,77.794966 C1289.91291,77.794966 1289.44928,78.2585915 1289.44928,78.8290431 L1289.44928,92.7912206 C1289.44928,93.3659452 1289.91504,93.8274342 1290.48549,93.8274342 L1304.17633,93.8274342 C1304.75319,93.8274342 1305.21682,93.3638087 1305.21682,92.7912206 L1305.21682,78.8290431 C1305.21682,78.2585915 1304.75106,77.794966 1304.17633,77.794966" id="Shape" fill="#231F20"></path>
            </g>
        </g>
    </g>
</svg>