<?xml version="1.0" encoding="UTF-8"?>
<svg width="798px" height="202px" viewBox="0 0 798 202" version="1.1" xmlns="http://www.w3.org/2000/svg" xmlns:xlink="http://www.w3.org/1999/xlink">
    <!-- Generator: Sketch 42 (36781) - http://www.bohemiancoding.com/sketch -->
    <title>cloud2-logo</title>
    <desc>Created with Sketch.</desc>
    <defs>
        <linearGradient x1="0.000324262627%" y1="50.0000646%" x2="99.9998703%" y2="50.0000646%" id="linearGradient-1">
            <stop stop-color="#0093C8" offset="0%"></stop>
            <stop stop-color="#24A2D0" offset="9.61%"></stop>
            <stop stop-color="#4CB3D9" offset="21.84%"></stop>
            <stop stop-color="#68BFDF" offset="33.06%"></stop>
            <stop stop-color="#79C6E2" offset="42.81%"></stop>
            <stop stop-color="#80C9E4" offset="50%"></stop>
            <stop stop-color="#7DC8E3" offset="62.2%"></stop>
            <stop stop-color="#73C4E1" offset="70.82%"></stop>
            <stop stop-color="#64BDDE" offset="78.34%"></stop>
            <stop stop-color="#4EB4D9" offset="85.23%"></stop>
            <stop stop-color="#31A8D3" offset="91.69%"></stop>
            <stop stop-color="#0F99CC" offset="97.75%"></stop>
            <stop stop-color="#0093C8" offset="100%"></stop>
        </linearGradient>
        <linearGradient x1="-9.47351192%" y1="111.165633%" x2="65.1531726%" y2="24.7839404%" id="linearGradient-2">
            <stop stop-color="#8DA0BE" offset="52.76%"></stop>
            <stop stop-color="#416192" offset="100%"></stop>
        </linearGradient>
    </defs>
    <g id="Page-1" stroke="none" stroke-width="1" fill="none" fill-rule="evenodd">
        <g id="cloud2-logo" fill-rule="nonzero">
            <g id="Group">
                <path d="M76.123,80.792 C53.201,80.792 35.449,99.067 35.449,124.712 C35.449,149.55 53.201,168.108 77.208,168.108 C95.766,168.108 108.042,160.19 114.04,144.359 L150.326,144.359 C141.6,180.384 114.326,201.938 77.473,201.938 C55.643,201.938 37.082,194.035 22.366,179.02 C8.17,164.565 0.257,144.359 0.257,124.998 C0.257,104.531 7.362,86.246 21.277,71.778 C36.566,55.688 55.926,47.222 78.037,47.222 C113.496,47.222 142.15,68.78 150.607,103.712 L114.327,103.712 C106.124,88.427 93.586,80.792 76.123,80.792 Z M158.545,4.112 L191.842,4.112 L191.842,198.123 L158.545,198.123 L158.545,4.112 L158.545,4.112 Z M457.69,182.29 C447.592,195.661 435.032,201.937 418.389,201.937 C382.105,201.937 361.369,179.019 361.369,136.457 L361.369,51.597 L395.734,51.597 L395.734,117.353 C395.734,152.014 400.923,168.926 426.027,168.926 C450.865,168.926 457.945,150.642 457.945,115.17 L457.945,51.597 L491.531,51.597 L491.531,198.123 L457.69,198.123 L457.69,182.29 Z M620.624,4.112 L654.186,4.112 L654.186,198.123 L620.624,198.123 L620.624,186.109 C606.974,197.025 592.237,201.937 575.046,201.937 C556.491,201.937 539.847,195.945 527.013,184.746 C509.284,169.469 499.472,147.915 499.472,124.448 C499.472,102.889 508.452,82.155 524.57,67.427 C538.22,54.606 555.947,48.043 575.047,48.043 C593.326,48.043 607.522,52.414 620.625,63.329 L620.625,4.112 L620.624,4.112 Z M577.511,81.614 C553.765,81.614 534.927,101.532 534.927,124.997 C534.927,149.279 553.222,168.107 579.148,168.107 C600.98,168.107 619.248,149.823 619.248,125.54 C619.247,100.432 601.239,81.614 577.511,81.614 Z M668.511,198.123 L668.511,161.836 L738.921,96.07 C752.294,83.51 759.109,71.244 759.109,60.332 C759.109,46.13 749.021,35.218 733.992,35.218 C718.445,35.218 709.441,45.588 709.441,64.142 L709.441,67.427 L671.261,67.427 L671.261,66.87 C671.261,26.481 697.165,0.567 734.822,0.567 C770.824,0.567 797.297,27.861 797.297,60.594 C797.297,79.431 787.77,96.615 768.385,114.081 L714.085,163.2 L796.489,163.2 L796.489,198.123 L668.511,198.123 Z" id="Shape" fill="#212936"></path>
                <g transform="translate(199.000000, 47.000000)" id="Shape">
                    <path d="M77.846,0.222 C36.305,0.222 0.498,33.947 0.498,77.844 C0.498,119.393 34.734,154.938 77.846,154.938 C118.102,154.938 154.694,124.901 154.694,77.333 C154.694,69.043 153.454,61.185 151.163,53.859 L121.087,63.586 C122.442,67.912 123.183,72.561 123.183,77.441 C123.183,105.564 101.55,123.328 77.759,123.328 C52.271,123.328 32.009,102.299 32.009,77.75 C32.009,51.773 53.189,31.855 77.759,31.855 C77.777,31.855 77.823,31.865 77.847,31.865 L77.847,0.247" fill="url(#linearGradient-1)"></path>
                    <path d="M77.846,31.864 C97.559,31.898 115.201,44.684 121.086,63.585 L151.162,53.858 C143.529,29.433 124.295,11.067 100.742,3.747 C100.262,3.586 99.763,3.452 99.283,3.309 C97.584,2.806 95.883,2.391 94.135,2.019 C93.416,1.872 92.699,1.706 91.979,1.579 C90.426,1.284 88.879,1.074 87.313,0.878 C86.481,0.766 85.655,0.649 84.805,0.569 C83.057,0.407 81.291,0.354 79.504,0.312 C78.957,0.299 78.41,0.246 77.846,0.246 L77.846,31.864 L77.846,31.864 Z" fill="url(#linearGradient-2)"></path>
                </g>
            </g>
        </g>
    </g>
</svg>