<?xml version="1.0" encoding="UTF-8"?>
<svg width="214px" height="267px" viewBox="0 0 214 267" version="1.1" xmlns="http://www.w3.org/2000/svg" xmlns:xlink="http://www.w3.org/1999/xlink">
    <!-- Generator: Sketch 43.1 (39012) - http://www.bohemiancoding.com/sketch -->
    <title>Artboard</title>
    <desc>Created with Sketch.</desc>
    <defs></defs>
    <g id="Page-1" stroke="none" stroke-width="1" fill="none" fill-rule="evenodd">
        <g id="Artboard">
            <g id="meson" opacity="0.1" transform="translate(20.000000, 74.441267)">
                <g transform="translate(0.515625, 0.484375)">
                    <g id="lines" transform="translate(6.372253, 5.882080)" stroke="#979797">
                        <polygon id="Polygon" stroke-width="3" fill="#FFFFFF" transform="translate(56.124847, 49.997681) rotate(-90.000000) translate(-56.124847, -49.997681) " points="56.1248474 -3.7825681 102.699909 23.1075563 102.699909 76.887805 56.1248474 103.777929 9.54978576 76.887805 9.54978576 23.1075563"></polygon>
                        <path d="M111.024261,49 L0.24508667,49" id="Line" stroke-width="1.5" stroke-linecap="square"></path>
                        <path d="M111.024261,48.75 L0.24508667,48.75" id="Line" stroke-width="1.5" stroke-linecap="square" transform="translate(55.634674, 48.750000) rotate(-300.000000) translate(-55.634674, -48.750000) "></path>
                    </g>
                    <g id="circles">
                        <ellipse id="Oval" fill="#72BF44" cx="35.5318229" cy="8.96385348" rx="8.57803345" ry="8.57803345"></ellipse>
                        <circle id="Oval-Copy-2" fill="#8C3694" cx="35.5318229" cy="102.420379" r="8.57803345"></circle>
                        <ellipse id="Oval-Copy-6" fill="#EF4E4E" cx="8.88247705" cy="55.8797607" rx="8.57803345" ry="8.57803345"></ellipse>
                        <ellipse id="Oval-Copy" fill="#E66E3D" cx="89.6634264" cy="8.96385348" rx="8.57803345" ry="8.57803345"></ellipse>
                        <circle id="Oval-Copy-3" fill="#FDB933" cx="89.6634264" cy="102.420379" r="8.57803345"></circle>
                        <circle id="Oval-Copy-5" fill="#C389BC" cx="71.5653076" cy="50.0742702" r="8.57803345"></circle>
                        <circle id="Oval-Copy-8" fill="#436291" cx="52.9387207" cy="50.0742702" r="8.57803345"></circle>
                        <ellipse id="Oval-Copy-9" fill="#BEDC8F" cx="62.4971008" cy="66.2499905" rx="8.57803345" ry="8.57803345"></ellipse>
                        <ellipse id="Oval-Copy-7" fill="#0092C8" cx="116.802946" cy="55.8797607" rx="8.57803345" ry="8.57803345"></ellipse>
                    </g>
                </g>
            </g>
            <g id="meson" opacity="0.1" transform="translate(20.000000, -52.000000)">
                <g transform="translate(0.515625, 0.484375)">
                    <g id="lines" transform="translate(6.372253, 5.882080)" stroke="#979797">
                        <polygon id="Polygon" stroke-width="3" fill="#FFFFFF" transform="translate(56.124847, 49.997681) rotate(-90.000000) translate(-56.124847, -49.997681) " points="56.1248474 -3.7825681 102.699909 23.1075563 102.699909 76.887805 56.1248474 103.777929 9.54978576 76.887805 9.54978576 23.1075563"></polygon>
                        <path d="M111.024261,49 L0.24508667,49" id="Line" stroke-width="1.5" stroke-linecap="square"></path>
                        <path d="M111.024261,48.75 L0.24508667,48.75" id="Line" stroke-width="1.5" stroke-linecap="square" transform="translate(55.634674, 48.750000) rotate(-300.000000) translate(-55.634674, -48.750000) "></path>
                    </g>
                    <g id="circles">
                        <ellipse id="Oval" fill="#72BF44" cx="35.5318229" cy="8.96385348" rx="8.57803345" ry="8.57803345"></ellipse>
                        <circle id="Oval-Copy-2" fill="#8C3694" cx="35.5318229" cy="102.420379" r="8.57803345"></circle>
                        <ellipse id="Oval-Copy-6" fill="#EF4E4E" cx="8.88247705" cy="55.8797607" rx="8.57803345" ry="8.57803345"></ellipse>
                        <ellipse id="Oval-Copy" fill="#E66E3D" cx="89.6634264" cy="8.96385348" rx="8.57803345" ry="8.57803345"></ellipse>
                        <circle id="Oval-Copy-3" fill="#FDB933" cx="89.6634264" cy="102.420379" r="8.57803345"></circle>
                        <circle id="Oval-Copy-5" fill="#C389BC" cx="71.5653076" cy="50.0742702" r="8.57803345"></circle>
                        <circle id="Oval-Copy-8" fill="#436291" cx="52.9387207" cy="50.0742702" r="8.57803345"></circle>
                        <ellipse id="Oval-Copy-9" fill="#BEDC8F" cx="62.4971008" cy="66.2499905" rx="8.57803345" ry="8.57803345"></ellipse>
                        <ellipse id="Oval-Copy-7" fill="#0092C8" cx="116.802946" cy="55.8797607" rx="8.57803345" ry="8.57803345"></ellipse>
                    </g>
                </g>
            </g>
            <g id="meson" opacity="0.1" transform="translate(130.000000, 138.446197)">
                <g transform="translate(0.515625, 0.484375)">
                    <g id="lines" transform="translate(6.372253, 5.882080)" stroke="#979797">
                        <polygon id="Polygon" stroke-width="3" fill="#FFFFFF" transform="translate(56.124847, 49.997681) rotate(-90.000000) translate(-56.124847, -49.997681) " points="56.1248474 -3.7825681 102.699909 23.1075563 102.699909 76.887805 56.1248474 103.777929 9.54978576 76.887805 9.54978576 23.1075563"></polygon>
                        <path d="M111.024261,49 L0.24508667,49" id="Line" stroke-width="1.5" stroke-linecap="square"></path>
                        <path d="M111.024261,48.75 L0.24508667,48.75" id="Line" stroke-width="1.5" stroke-linecap="square" transform="translate(55.634674, 48.750000) rotate(-300.000000) translate(-55.634674, -48.750000) "></path>
                    </g>
                    <g id="circles">
                        <ellipse id="Oval" fill="#72BF44" cx="35.5318229" cy="8.96385348" rx="8.57803345" ry="8.57803345"></ellipse>
                        <circle id="Oval-Copy-2" fill="#8C3694" cx="35.5318229" cy="102.420379" r="8.57803345"></circle>
                        <ellipse id="Oval-Copy-6" fill="#EF4E4E" cx="8.88247705" cy="55.8797607" rx="8.57803345" ry="8.57803345"></ellipse>
                        <ellipse id="Oval-Copy" fill="#E66E3D" cx="89.6634264" cy="8.96385348" rx="8.57803345" ry="8.57803345"></ellipse>
                        <circle id="Oval-Copy-3" fill="#FDB933" cx="89.6634264" cy="102.420379" r="8.57803345"></circle>
                        <circle id="Oval-Copy-5" fill="#C389BC" cx="71.5653076" cy="50.0742702" r="8.57803345"></circle>
                        <circle id="Oval-Copy-8" fill="#436291" cx="52.9387207" cy="50.0742702" r="8.57803345"></circle>
                        <ellipse id="Oval-Copy-9" fill="#BEDC8F" cx="62.4971008" cy="66.2499905" rx="8.57803345" ry="8.57803345"></ellipse>
                        <ellipse id="Oval-Copy-7" fill="#0092C8" cx="116.802946" cy="55.8797607" rx="8.57803345" ry="8.57803345"></ellipse>
                    </g>
                </g>
            </g>
            <g id="meson" opacity="0.15" transform="translate(130.000000, 11.935780)">
                <g transform="translate(0.515625, 0.484375)">
                    <g id="lines" transform="translate(6.372253, 5.882080)" stroke="#979797">
                        <polygon id="Polygon" stroke-width="3" fill="#FFFFFF" transform="translate(56.124847, 49.997681) rotate(-90.000000) translate(-56.124847, -49.997681) " points="56.1248474 -3.7825681 102.699909 23.1075563 102.699909 76.887805 56.1248474 103.777929 9.54978576 76.887805 9.54978576 23.1075563"></polygon>
                        <path d="M111.024261,49 L0.24508667,49" id="Line" stroke-width="1.5" stroke-linecap="square"></path>
                        <path d="M111.024261,48.75 L0.24508667,48.75" id="Line" stroke-width="1.5" stroke-linecap="square" transform="translate(55.634674, 48.750000) rotate(-300.000000) translate(-55.634674, -48.750000) "></path>
                    </g>
                    <g id="circles">
                        <ellipse id="Oval" fill="#72BF44" cx="35.5318229" cy="8.96385348" rx="8.57803345" ry="8.57803345"></ellipse>
                        <circle id="Oval-Copy-2" fill="#8C3694" cx="35.5318229" cy="102.420379" r="8.57803345"></circle>
                        <ellipse id="Oval-Copy-6" fill="#EF4E4E" cx="8.88247705" cy="55.8797607" rx="8.57803345" ry="8.57803345"></ellipse>
                        <ellipse id="Oval-Copy" fill="#E66E3D" cx="89.6634264" cy="8.96385348" rx="8.57803345" ry="8.57803345"></ellipse>
                        <circle id="Oval-Copy-3" fill="#FDB933" cx="89.6634264" cy="102.420379" r="8.57803345"></circle>
                        <circle id="Oval-Copy-5" fill="#C389BC" cx="71.5653076" cy="50.0742702" r="8.57803345"></circle>
                        <circle id="Oval-Copy-8" fill="#436291" cx="52.9387207" cy="50.0742702" r="8.57803345"></circle>
                        <ellipse id="Oval-Copy-9" fill="#BEDC8F" cx="62.4971008" cy="66.2499905" rx="8.57803345" ry="8.57803345"></ellipse>
                        <ellipse id="Oval-Copy-7" fill="#0092C8" cx="116.802946" cy="55.8797607" rx="8.57803345" ry="8.57803345"></ellipse>
                    </g>
                </g>
            </g>
        </g>
    </g>
</svg>