<?xml version="1.0" encoding="UTF-8"?>
<svg width="214px" height="279px" viewBox="0 0 214 279" version="1.1" xmlns="http://www.w3.org/2000/svg" xmlns:xlink="http://www.w3.org/1999/xlink">
    <!-- Generator: Sketch 43.2 (39069) - http://www.bohemiancoding.com/sketch -->
    <title>Artboard</title>
    <desc>Created with Sketch.</desc>
    <defs></defs>
    <g id="Page-1" stroke="none" stroke-width="1" fill="none" fill-rule="evenodd">
        <g id="Artboard">
            <g id="meson-white" transform="translate(20.000000, -52.000000)" opacity="0.1">
                <g id="meson-copy-2">
                    <g id="meson" transform="translate(0.515625, 0.484375)">
                        <g id="lines" transform="translate(6.372253, 5.882080)" stroke="#FFFFFF">
                            <polygon id="Polygon" stroke-width="3" fill-opacity="0.2" fill="#FFFFFF" transform="translate(56.124847, 49.997681) rotate(-90.000000) translate(-56.124847, -49.997681) " points="56.1248474 -3.7825681 102.699909 23.1075563 102.699909 76.887805 56.1248474 103.777929 9.54978576 76.887805 9.54978576 23.1075563"></polygon>
                            <path d="M111.024261,49 L0.24508667,49" id="Line" stroke-width="1.5" stroke-linecap="square"></path>
                            <path d="M111.024261,48.75 L0.24508667,48.75" id="Line" stroke-width="1.5" stroke-linecap="square" transform="translate(55.634674, 48.750000) rotate(-300.000000) translate(-55.634674, -48.750000) "></path>
                        </g>
                        <g id="circles" fill="#FFFFFF">
                            <circle id="Oval" cx="35.5318229" cy="8.96385348" r="8.57803345"></circle>
                            <circle id="Oval-Copy-2" cx="35.5318229" cy="102.420379" r="8.57803345"></circle>
                            <circle id="Oval-Copy-6" cx="8.88247705" cy="55.8797607" r="8.57803345"></circle>
                            <circle id="Oval-Copy" cx="89.6634264" cy="8.96385348" r="8.57803345"></circle>
                            <circle id="Oval-Copy-3" cx="89.6634264" cy="102.420379" r="8.57803345"></circle>
                            <circle id="Oval-Copy-5" cx="71.5653076" cy="50.0742702" r="8.57803345"></circle>
                            <circle id="Oval-Copy-8" cx="52.9387207" cy="50.0742702" r="8.57803345"></circle>
                            <circle id="Oval-Copy-9" cx="62.4971008" cy="66.2499905" r="8.57803345"></circle>
                            <circle id="Oval-Copy-7" cx="116.802946" cy="55.8797607" r="8.57803345"></circle>
                        </g>
                    </g>
                </g>
            </g>
            <g id="meson-white" transform="translate(129.500000, 12.000000)" opacity="0.1">
                <g id="meson-copy-2">
                    <g id="meson" transform="translate(0.515625, 0.484375)">
                        <g id="lines" transform="translate(6.372253, 5.882080)" stroke="#FFFFFF">
                            <polygon id="Polygon" stroke-width="3" fill-opacity="0.2" fill="#FFFFFF" transform="translate(56.124847, 49.997681) rotate(-90.000000) translate(-56.124847, -49.997681) " points="56.1248474 -3.7825681 102.699909 23.1075563 102.699909 76.887805 56.1248474 103.777929 9.54978576 76.887805 9.54978576 23.1075563"></polygon>
                            <path d="M111.024261,49 L0.24508667,49" id="Line" stroke-width="1.5" stroke-linecap="square"></path>
                            <path d="M111.024261,48.75 L0.24508667,48.75" id="Line" stroke-width="1.5" stroke-linecap="square" transform="translate(55.634674, 48.750000) rotate(-300.000000) translate(-55.634674, -48.750000) "></path>
                        </g>
                        <g id="circles" fill="#FFFFFF">
                            <circle id="Oval" cx="35.5318229" cy="8.96385348" r="8.57803345"></circle>
                            <circle id="Oval-Copy-2" cx="35.5318229" cy="102.420379" r="8.57803345"></circle>
                            <circle id="Oval-Copy-6" cx="8.88247705" cy="55.8797607" r="8.57803345"></circle>
                            <circle id="Oval-Copy" cx="89.6634264" cy="8.96385348" r="8.57803345"></circle>
                            <circle id="Oval-Copy-3" cx="89.6634264" cy="102.420379" r="8.57803345"></circle>
                            <circle id="Oval-Copy-5" cx="71.5653076" cy="50.0742702" r="8.57803345"></circle>
                            <circle id="Oval-Copy-8" cx="52.9387207" cy="50.0742702" r="8.57803345"></circle>
                            <circle id="Oval-Copy-9" cx="62.4971008" cy="66.2499905" r="8.57803345"></circle>
                            <circle id="Oval-Copy-7" cx="116.802946" cy="55.8797607" r="8.57803345"></circle>
                        </g>
                    </g>
                </g>
            </g>
            <g id="meson-white" opacity="0.9" transform="translate(20.000000, 74.000000)">
                <g id="meson-copy-2" opacity="0.1">
                    <g id="meson" transform="translate(0.515625, 0.484375)">
                        <g id="lines" transform="translate(6.372253, 5.882080)" stroke="#FFFFFF">
                            <polygon id="Polygon" stroke-width="3" fill-opacity="0.2" fill="#FFFFFF" transform="translate(56.124847, 49.997681) rotate(-90.000000) translate(-56.124847, -49.997681) " points="56.1248474 -3.7825681 102.699909 23.1075563 102.699909 76.887805 56.1248474 103.777929 9.54978576 76.887805 9.54978576 23.1075563"></polygon>
                            <path d="M111.024261,49 L0.24508667,49" id="Line" stroke-width="1.5" stroke-linecap="square"></path>
                            <path d="M111.024261,48.75 L0.24508667,48.75" id="Line" stroke-width="1.5" stroke-linecap="square" transform="translate(55.634674, 48.750000) rotate(-300.000000) translate(-55.634674, -48.750000) "></path>
                        </g>
                        <g id="circles" fill="#FFFFFF">
                            <circle id="Oval" cx="35.5318229" cy="8.96385348" r="8.57803345"></circle>
                            <circle id="Oval-Copy-2" cx="35.5318229" cy="102.420379" r="8.57803345"></circle>
                            <circle id="Oval-Copy-6" cx="8.88247705" cy="55.8797607" r="8.57803345"></circle>
                            <circle id="Oval-Copy" cx="89.6634264" cy="8.96385348" r="8.57803345"></circle>
                            <circle id="Oval-Copy-3" cx="89.6634264" cy="102.420379" r="8.57803345"></circle>
                            <circle id="Oval-Copy-5" cx="71.5653076" cy="50.0742702" r="8.57803345"></circle>
                            <circle id="Oval-Copy-8" cx="52.9387207" cy="50.0742702" r="8.57803345"></circle>
                            <circle id="Oval-Copy-9" cx="62.4971008" cy="66.2499905" r="8.57803345"></circle>
                            <circle id="Oval-Copy-7" cx="116.802946" cy="55.8797607" r="8.57803345"></circle>
                        </g>
                    </g>
                </g>
            </g>
            <g id="meson-white" opacity="0.9" transform="translate(129.500000, 136.000000)">
                <g id="meson-copy-2" opacity="0.1">
                    <g id="meson" transform="translate(0.515625, 0.484375)">
                        <g id="lines" transform="translate(6.372253, 5.882080)" stroke="#FFFFFF">
                            <polygon id="Polygon" stroke-width="3" fill-opacity="0.2" fill="#FFFFFF" transform="translate(56.124847, 49.997681) rotate(-90.000000) translate(-56.124847, -49.997681) " points="56.1248474 -3.7825681 102.699909 23.1075563 102.699909 76.887805 56.1248474 103.777929 9.54978576 76.887805 9.54978576 23.1075563"></polygon>
                            <path d="M111.024261,49 L0.24508667,49" id="Line" stroke-width="1.5" stroke-linecap="square"></path>
                            <path d="M111.024261,48.75 L0.24508667,48.75" id="Line" stroke-width="1.5" stroke-linecap="square" transform="translate(55.634674, 48.750000) rotate(-300.000000) translate(-55.634674, -48.750000) "></path>
                        </g>
                        <g id="circles" fill="#FFFFFF">
                            <circle id="Oval" cx="35.5318229" cy="8.96385348" r="8.57803345"></circle>
                            <circle id="Oval-Copy-2" cx="35.5318229" cy="102.420379" r="8.57803345"></circle>
                            <circle id="Oval-Copy-6" cx="8.88247705" cy="55.8797607" r="8.57803345"></circle>
                            <circle id="Oval-Copy" cx="89.6634264" cy="8.96385348" r="8.57803345"></circle>
                            <circle id="Oval-Copy-3" cx="89.6634264" cy="102.420379" r="8.57803345"></circle>
                            <circle id="Oval-Copy-5" cx="71.5653076" cy="50.0742702" r="8.57803345"></circle>
                            <circle id="Oval-Copy-8" cx="52.9387207" cy="50.0742702" r="8.57803345"></circle>
                            <circle id="Oval-Copy-9" cx="62.4971008" cy="66.2499905" r="8.57803345"></circle>
                            <circle id="Oval-Copy-7" cx="116.802946" cy="55.8797607" r="8.57803345"></circle>
                        </g>
                    </g>
                </g>
            </g>
        </g>
    </g>
</svg>