<?xml version="1.0" encoding="UTF-8"?>
<svg width="396px" height="254px" viewBox="0 0 396 254" version="1.1" xmlns="http://www.w3.org/2000/svg" xmlns:xlink="http://www.w3.org/1999/xlink">
    <!-- Generator: Sketch 43.1 (39012) - http://www.bohemiancoding.com/sketch -->
    <title>ROUDEDSADASD</title>
    <desc>Created with Sketch.</desc>
    <defs>
        <rect id="path-1" x="0" y="0.493409004" width="420" height="274"></rect>
        <linearGradient x1="0.000104123282%" y1="50.0004151%" x2="100.000104%" y2="50.0004151%" id="linearGradient-3">
            <stop stop-color="#0093C8" offset="0%"></stop>
            <stop stop-color="#2896CA" offset="3.27%"></stop>
            <stop stop-color="#61A6D3" offset="17.42%"></stop>
            <stop stop-color="#7FB3DA" offset="30.4%"></stop>
            <stop stop-color="#90BBDE" offset="41.69%"></stop>
            <stop stop-color="#96BEDF" offset="50%"></stop>
            <stop stop-color="#93BDDF" offset="63.28%"></stop>
            <stop stop-color="#8AB8DC" offset="72.66%"></stop>
            <stop stop-color="#7AB1D9" offset="80.85%"></stop>
            <stop stop-color="#64A7D3" offset="88.34%"></stop>
            <stop stop-color="#409BCD" offset="95.31%"></stop>
            <stop stop-color="#0093C8" offset="100%"></stop>
        </linearGradient>
        <linearGradient x1="-9.47269303%" y1="111.165213%" x2="65.1530679%" y2="24.7855622%" id="linearGradient-4">
            <stop stop-color="#858FB3" offset="52.76%"></stop>
            <stop stop-color="#416193" offset="100%"></stop>
        </linearGradient>
    </defs>
    <g id="Page-1" stroke="none" stroke-width="1" fill="none" fill-rule="evenodd" opacity="0.129415761">
        <g id="homepage" transform="translate(-1044.000000, -2945.000000)">
            <g id="Group-15" transform="translate(162.000000, 2944.935780)">
                <g id="ROUDEDSADASD" transform="translate(858.000000, 0.506591)">
                    <mask id="mask-2" fill="white">
                        <use xlink:href="#path-1"></use>
                    </mask>
                    <g id="Rectangle-3"></g>
                    <g id="roundel" mask="url(#mask-2)">
                        <g transform="translate(175.019531, -71.000000)" id="Shape">
                            <path d="M162.275322,0.0742486051 C75.3207036,0.0742486051 0.367590206,70.6717331 0.367590206,162.560042 C0.367590206,249.534826 72.033817,323.943486 162.275322,323.943486 C246.544642,323.943486 323.141198,261.065816 323.141198,161.4913 C323.141198,144.136001 320.546642,127.684764 315.750745,112.349321 L252.795776,132.712558 C255.632312,141.769981 257.181652,151.499568 257.181652,161.716475 C257.181652,220.588042 211.894539,257.772207 162.090477,257.772207 C108.737384,257.772207 66.3237758,213.748764 66.3237758,162.365115 C66.3237758,107.98697 110.659776,66.2925785 162.090477,66.2925785 C162.134168,66.2925785 162.228271,66.3093826 162.275322,66.3093826 L162.275322,0.124660976" fill="url(#linearGradient-3)"></path>
                            <path d="M162.275322,66.3093826 C203.542889,66.3799599 240.474992,93.148929 252.795776,132.712558 L315.750745,112.349321 C299.773384,61.2244548 259.510704,22.7799806 210.210765,7.45461974 C209.205879,7.11517644 208.160662,6.83622799 207.152415,6.54047541 C203.596662,5.48853726 200.037549,4.61808366 196.37425,3.83837232 C194.871961,3.52917644 193.369673,3.18301149 191.860662,2.91414551 C188.610745,2.29911458 185.37091,1.85884654 182.094106,1.44882592 C180.349838,1.21356819 178.622374,0.968227987 176.844497,0.803547574 C173.184559,0.464104275 169.491013,0.353197059 165.750415,0.262454791 C164.604374,0.238929018 163.461693,0.121300152 162.275322,0.121300152 L162.275322,66.3093826 L162.275322,66.3093826 Z" fill="url(#linearGradient-4)"></path>
                        </g>
                    </g>
                    <g id="roundel" mask="url(#mask-2)">
                        <g transform="translate(24.000000, -75.000000)" id="Shape">
                            <path d="M99.5554124,0.0455512915 C46.2090206,0.0455512915 0.225515464,43.3568915 0.225515464,99.7300874 C0.225515464,153.08885 44.1925258,198.738335 99.5554124,198.738335 C151.254381,198.738335 198.246134,160.163077 198.246134,99.0744173 C198.246134,88.4269946 196.654381,78.3342111 193.712113,68.9259637 L155.089433,81.4187472 C156.829639,86.9754482 157.780155,92.9445204 157.780155,99.2125616 C157.780155,135.330087 129.996649,158.142459 99.4420103,158.142459 C66.7100515,158.142459 40.689433,131.134211 40.689433,99.6104997 C40.689433,66.249675 67.889433,40.6702936 99.4420103,40.6702936 C99.4688144,40.6702936 99.5265464,40.6806028 99.5554124,40.6806028 L99.5554124,0.0764791265" fill="url(#linearGradient-3)"></path>
                            <path d="M99.5554124,40.6806028 C124.872938,40.7239018 147.53067,57.1465822 155.089433,81.4187472 L193.712113,68.9259637 C183.910052,37.5610152 159.209021,13.9754482 128.96366,4.57338634 C128.347165,4.36513892 127.705928,4.1940049 127.087371,4.0125616 C124.905928,3.36720078 122.722423,2.83318016 120.475,2.35482964 C119.553351,2.16513892 118.631701,1.95276779 117.705928,1.78781933 C115.712113,1.41049975 113.724485,1.14039665 111.714175,0.888850261 C110.644072,0.744520364 109.584278,0.5940049 108.493557,0.492973972 C106.248196,0.284726549 103.982216,0.216685312 101.687371,0.161015209 C100.984278,0.146582219 100.283247,0.0744172709 99.5554124,0.0744172709 L99.5554124,40.6806028 L99.5554124,40.6806028 Z" fill="url(#linearGradient-4)"></path>
                        </g>
                    </g>
                </g>
            </g>
        </g>
    </g>
</svg>