<?xml version="1.0" encoding="UTF-8"?>
<svg width="41px" height="41px" viewBox="0 0 41 41" version="1.1" xmlns="http://www.w3.org/2000/svg" xmlns:xlink="http://www.w3.org/1999/xlink">
    <!-- Generator: Sketch 43.1 (39012) - http://www.bohemiancoding.com/sketch -->
    <title>iconmonstr-networking-2</title>
    <desc>Created with Sketch.</desc>
    <defs></defs>
    <g id="Page-1" stroke="none" stroke-width="1" fill="none" fill-rule="evenodd">
        <g id="homepage" transform="translate(-184.000000, -2027.000000)" fill-rule="nonzero" fill="#FFFFFF">
            <g id="Group-18" transform="translate(162.000000, 2006.000000)">
                <g id="Group-2">
                    <g id="iconmonstr-networking-2" transform="translate(22.453125, 21.022939)">
                        <path d="M19.9782326,0.716796875 C8.94525364,0.716796875 0,9.66205052 0,20.6950295 C0,31.7280084 8.94525364,40.6732621 19.9782326,40.6732621 C31.0112115,40.6732621 39.9564652,31.7280084 39.9564652,20.6950295 C39.9564652,9.66205052 31.0112115,0.716796875 19.9782326,0.716796875 Z M29.5178387,34.3185192 C29.3413643,33.4428067 29.1249334,32.5770833 28.8552273,31.7296733 C30.3486002,30.3794777 30.2870006,28.0719918 28.7353579,26.9299029 C29.7043022,23.0707743 29.750918,18.8570321 28.7320282,14.7964563 C29.0416908,14.6116576 29.3113969,14.3735837 29.5228332,14.0888939 C31.9635073,14.7748132 34.2360312,15.8636269 36.2688164,17.2704274 C36.5018958,18.3775545 36.6267597,19.5213083 36.6267597,20.6950295 C36.6267597,26.3255613 33.809829,31.303471 29.5178387,34.3185192 L29.5178387,34.3185192 Z M3.32970543,20.6950295 C3.32970543,19.2715804 3.52948776,17.8947472 3.86745286,16.574519 C5.03118491,16.5012655 6.18659269,16.5079249 7.44189164,16.6277943 L7.50848575,17.004051 C5.9751564,18.2943118 4.5949935,19.7693714 3.36799704,21.4558672 L3.32970543,20.6950295 L3.32970543,20.6950295 Z M8.62893163,18.7138547 C10.0407267,19.784355 12.0968198,19.4397305 13.0607696,17.8980769 C17.8855127,19.6628208 21.9494182,23.0208287 24.6148474,27.3311324 C23.3395702,28.6213932 23.3562187,30.6575081 24.6464796,31.8179105 C23.5127149,33.8673442 22.0692876,35.7219901 20.3844567,37.3235784 C12.2233486,37.5183662 5.52731102,31.8928288 3.78753993,24.509207 C5.07280622,22.3182609 6.70935644,20.3570644 8.62893163,18.7138547 Z M13.4336966,15.5489697 C16.7484183,13.9274032 20.3511596,13.1649006 23.9622251,13.2564675 C24.4700052,14.2736925 25.5105382,15.0478491 26.7358698,15.1976858 L26.7458589,15.1976858 C27.6731818,18.7887731 27.716468,22.6429071 26.7941396,26.352199 L26.4228775,26.3904906 C23.5526714,21.6872817 19.0425854,17.8481313 13.4986258,15.9002536 L13.4336966,15.5489697 L13.4336966,15.5489697 Z M23.5260337,36.9539811 C24.6947603,35.5937964 25.7086556,34.1320557 26.5444117,32.580413 L26.9939219,32.5670942 C27.2802766,33.5027414 27.5066966,34.4633614 27.6731818,35.4456245 C26.3795913,36.1215547 24.9894393,36.6343294 23.5260337,36.9539811 L23.5260337,36.9539811 Z M35.3514826,14.3153139 C33.6716462,13.3829963 31.8952483,12.6471314 30.0422673,12.1326919 C29.8624632,10.4761635 28.3091556,9.09600059 26.5144444,9.10931942 C25.5954457,7.4128345 24.4633458,5.8212353 23.1447825,4.35782976 C28.6737583,5.42666521 33.2354548,9.23584822 35.3514826,14.3153139 Z M24.5765558,9.8068927 C24.1486886,10.1731603 23.839026,10.6642919 23.704173,11.2353363 C19.6152947,11.1853908 15.7495067,12.1110489 12.3032616,13.8408308 C10.8881368,12.7786548 8.85701645,13.1399278 7.89806128,14.6449547 C6.68604851,14.5184259 5.60222939,14.4917882 4.52839939,14.5250853 C6.985722,8.39343275 12.9791918,4.04650231 19.9782326,4.04650231 L19.9798974,4.04650231 C21.8062409,5.70136591 23.3662079,7.64258417 24.5765558,9.8068927 L24.5765558,9.8068927 Z" id="Shape"></path>
                    </g>
                </g>
            </g>
        </g>
    </g>
</svg>