<?xml version="1.0" encoding="UTF-8"?>
<svg width="34px" height="31px" viewBox="0 0 34 31" version="1.1" xmlns="http://www.w3.org/2000/svg" xmlns:xlink="http://www.w3.org/1999/xlink">
    <!-- Generator: Sketch 43.2 (39069) - http://www.bohemiancoding.com/sketch -->
    <title>iconmonstr-id-card-13</title>
    <desc>Created with Sketch.</desc>
    <defs></defs>
    <g id="Page-1" stroke="none" stroke-width="1" fill="none" fill-rule="evenodd">
        <g id="homepage" transform="translate(-473.000000, -2032.000000)" fill-rule="nonzero" fill="#FFFFFF">
            <g id="iconmonstr-id-card-13" transform="translate(473.144531, 2032.000000)">
                <path d="M14.0018155,0.0402417099 L14.0018155,8.36682638 L19.552872,8.36682638 L19.552872,0.0402417099 L14.0018155,0.0402417099 Z M16.7773438,5.59129815 C16.011298,5.59129815 15.3895796,4.96957983 15.3895796,4.20353404 C15.3895796,3.43748825 16.011298,2.81576993 16.7773438,2.81576993 C17.5433895,2.81576993 18.1651079,3.43748825 18.1651079,4.20353404 C18.1651079,4.96957983 17.5433895,5.59129815 16.7773438,5.59129815 Z M22.3284002,5.59129815 L22.3284002,9.75459049 L11.2262873,9.75459049 L11.2262873,5.59129815 L0.124174419,5.59129815 L0.124174419,30.5710521 L33.4305131,30.5710521 L33.4305131,5.59129815 L22.3284002,5.59129815 Z M18.1651079,26.4077598 L4.28746675,26.4077598 L4.28746675,25.8290622 C4.2819157,24.2858685 4.34852837,23.4046383 6.12486643,22.9938601 C8.07189948,22.5442245 9.99256501,22.1431607 9.06970188,20.4389864 C6.33164329,15.3916883 8.28839068,12.5301187 11.2262873,12.5301187 C14.1086734,12.5301187 16.1126047,15.2848305 13.3856483,20.4389864 C12.4877649,22.1320586 14.34043,22.5345102 16.3290959,22.9938601 C18.1109851,23.406026 18.1720467,24.2928073 18.1651079,25.8484909 L18.1651079,26.4077598 L18.1651079,26.4077598 Z M29.2672207,26.4077598 L20.9406361,26.4077598 L20.9406361,23.6322316 L29.2672207,23.6322316 L29.2672207,26.4077598 Z M29.2672207,20.8567034 L20.9406361,20.8567034 L20.9406361,18.0811752 L29.2672207,18.0811752 L29.2672207,20.8567034 Z M29.2672207,15.3056469 L20.9406361,15.3056469 L20.9406361,12.5301187 L29.2672207,12.5301187 L29.2672207,15.3056469 Z" id="Shape"></path>
            </g>
        </g>
    </g>
</svg>