<?xml version="1.0" encoding="UTF-8"?>
<svg width="38px" height="38px" viewBox="0 0 38 38" version="1.1" xmlns="http://www.w3.org/2000/svg" xmlns:xlink="http://www.w3.org/1999/xlink">
    <!-- Generator: Sketch 43.2 (39069) - http://www.bohemiancoding.com/sketch -->
    <title>Shape</title>
    <desc>Created with Sketch.</desc>
    <defs></defs>
    <g id="Page-1" stroke="none" stroke-width="1" fill="none" fill-rule="evenodd">
        <g id="homepage" transform="translate(-1040.000000, -2127.000000)" fill-rule="nonzero" fill="#FFFFFF">
            <g id="iconmonstr-flip-chart-7" transform="translate(1040.000000, 2127.000000)">
                <path d="M20.2553711,31.1652654 L23.371582,31.1652654 L23.371582,37.3945711 L20.2553711,37.3945711 L20.2553711,31.1652654 Z M9.50132715,37.3945711 L13.5944702,37.3945711 L18.9231909,31.1652654 L14.8206992,31.1652654 L9.50132715,37.3945711 L9.50132715,37.3945711 Z M24.7286919,31.1652654 L30.0574126,37.3945711 L34.1505557,37.3945711 L28.8311836,31.1652654 L24.7286919,31.1652654 L24.7286919,31.1652654 Z M37.3945313,4.6618914 C37.3945313,6.02679179 36.7728472,7.23899785 35.8364258,8.08972344 L35.8364258,28.0459383 L6.25735156,28.0459383 L6.25735156,21.8135164 L0,21.8135164 C1.33062207,19.7365618 1.58303516,17.2451512 1.58303516,13.312493 L1.58303516,5.23683232 C1.58303516,2.02401885 3.64285059,0.107549119 6.18412061,0.0343181617 C6.15763281,-0.0139831078 32.6656812,0.00315605235 32.7202148,0.00315605235 C35.3019956,0.00315605235 37.3945313,2.08011064 37.3945313,4.6618914 Z M7.88557178,4.69461162 C7.88557178,3.83609551 7.18754053,3.13650615 6.32746631,3.13650615 C5.16356152,3.13650615 4.67431641,4.06981133 4.67431641,5.23683232 L4.67431641,13.312493 C4.67431641,15.7789739 4.67431641,17.1173865 4.31751025,18.7004217 L6.25579346,18.7004217 L6.25579346,6.25271709 C7.11586768,6.25271709 7.88557178,5.55312773 7.88557178,4.69461162 Z M32.7451445,9.34867265 L9.34863281,9.34867265 L9.34863281,24.9328436 L32.7451445,24.9328436 L32.7451445,9.34867265 L32.7451445,9.34867265 Z M32.7202148,3.11625078 L10.7135332,3.11625078 C11.1108501,4.2053665 11.0843623,5.202554 10.7119751,6.23557793 L32.7202148,6.23557793 C34.7504263,6.23557793 34.8158667,3.11625078 32.7202148,3.11625078 Z M16.1014619,21.8135164 C18.1379058,18.1613172 19.5511074,16.2853582 21.4831582,14.5994881 L21.2323032,14.0229891 C18.8904707,15.4798177 17.6299634,16.578282 15.7244004,18.7409324 C14.7100737,18.0179715 14.138249,17.6845369 13.236106,17.2482674 L12.4648438,17.9618797 C14.0089263,19.3922205 14.8456289,20.3348743 16.1014619,21.8135164 L16.1014619,21.8135164 Z M29.6040039,14.0229891 L23.371582,14.0229891 L23.371582,15.5810945 L29.6040039,15.5810945 L29.6040039,14.0229891 Z M29.6040039,17.1392 L23.371582,17.1392 L23.371582,18.6973055 L29.6040039,18.6973055 L29.6040039,17.1392 Z M29.6040039,20.2554109 L23.371582,20.2554109 L23.371582,21.8135164 L29.6040039,21.8135164 L29.6040039,20.2554109 Z" id="Shape"></path>
            </g>
        </g>
    </g>
</svg>