<?xml version="1.0" encoding="UTF-8"?>
<svg width="160px" height="42px" viewBox="0 0 160 42" version="1.1" xmlns="http://www.w3.org/2000/svg" xmlns:xlink="http://www.w3.org/1999/xlink">
    <!-- Generator: Sketch 43.1 (39012) - http://www.bohemiancoding.com/sketch -->
    <title>cloud2-logo white</title>
    <desc>Created with Sketch.</desc>
    <defs>
        <linearGradient x1="0.000104123282%" y1="50.0004151%" x2="100.000104%" y2="50.0004151%" id="linearGradient-1">
            <stop stop-color="#0093C8" offset="0%"></stop>
            <stop stop-color="#2896CA" offset="3.27%"></stop>
            <stop stop-color="#61A6D3" offset="17.42%"></stop>
            <stop stop-color="#7FB3DA" offset="30.4%"></stop>
            <stop stop-color="#90BBDE" offset="41.69%"></stop>
            <stop stop-color="#96BEDF" offset="50%"></stop>
            <stop stop-color="#93BDDF" offset="63.28%"></stop>
            <stop stop-color="#8AB8DC" offset="72.66%"></stop>
            <stop stop-color="#7AB1D9" offset="80.85%"></stop>
            <stop stop-color="#64A7D3" offset="88.34%"></stop>
            <stop stop-color="#409BCD" offset="95.31%"></stop>
            <stop stop-color="#0093C8" offset="100%"></stop>
        </linearGradient>
        <linearGradient x1="-9.47269303%" y1="111.165213%" x2="65.1530679%" y2="24.7855622%" id="linearGradient-2">
            <stop stop-color="#858FB3" offset="52.76%"></stop>
            <stop stop-color="#416193" offset="100%"></stop>
        </linearGradient>
    </defs>
    <g id="Symbols" stroke="none" stroke-width="1" fill="none" fill-rule="evenodd">
        <g id="#-Footer" transform="translate(-161.000000, -50.000000)">
            <g transform="translate(-217.085938, -0.773438)" id="cloud2-logo-white">
                <g transform="translate(377.947266, 50.843810)">
                    <g transform="translate(0.553597, 0.773735)" id="Shape">
                        <path d="M55.2288469,9.32983151 C46.9523571,9.32983151 39.8181912,16.0741256 39.8181912,24.8523672 C39.8181912,33.1612116 46.6395056,40.2695935 55.2288469,40.2695935 C63.2497452,40.2695935 70.5403369,34.262786 70.5403369,24.7502685 C70.5403369,23.0922882 70.2933825,21.5206744 69.8369008,20.0556542 L63.8447389,22.0009878 C64.1147253,22.8662583 64.2621941,23.7957418 64.2621941,24.7717798 C64.2621941,30.3958777 59.951689,33.9481422 55.211253,33.9481422 C50.1330141,33.9481422 46.0960141,29.7425101 46.0960141,24.8337454 C46.0960141,19.6389117 50.3159906,15.6557777 55.211253,15.6557777 C55.2154115,15.6557777 55.2243684,15.657383 55.2288469,15.657383 L55.2288469,9.33464749" fill="url(#linearGradient-1)"></path>
                        <path d="M55.2288469,15.657383 C59.1567647,15.6641254 62.6720256,18.2214091 63.8447389,22.0009878 L69.8369008,20.0556542 C68.3161482,15.1716115 64.4838772,11.4989475 59.7914246,10.0348905 C59.6957777,10.0024629 59.5962922,9.97581454 59.5003255,9.94756081 C59.1618829,9.84706743 58.8231204,9.76391156 58.4744413,9.68942445 C58.3314509,9.65988646 58.1884605,9.62681675 58.0448303,9.60113154 C57.7354976,9.54237662 57.4271245,9.50031709 57.1152327,9.46114715 C56.9492102,9.43867259 56.7847873,9.41523483 56.6155659,9.39950264 C56.2672068,9.36707506 55.9156487,9.35647992 55.5596121,9.34781116 C55.45053,9.3455637 55.3417677,9.33432642 55.2288469,9.33432642 L55.2288469,15.657383 L55.2288469,15.657383 Z" fill="url(#linearGradient-2)"></path>
                        <path d="M15.2359962,16.0433033 C10.6686202,16.0433033 7.13192668,19.6979876 7.13192668,24.8260398 C7.13192668,29.7932384 10.6686202,33.5044302 15.4522412,33.5044302 C19.1498389,33.5044302 21.5957107,31.920937 22.7908162,28.7552349 L30.020629,28.7552349 C28.2823518,35.9596152 22.8477565,40.2695935 15.5050229,40.2695935 C11.1558112,40.2695935 7.45757374,38.6893109 4.5251507,35.6867099 C1.69669159,32.7958395 0.119958399,28.7552349 0.119958399,24.8835105 C0.119958399,20.7902512 1.53578739,17.1339615 4.30762613,14.2408437 C7.35424958,11.023129 11.2117918,9.33015257 15.6169841,9.33015257 C22.682054,9.33015257 28.391434,13.641094 30.0762897,20.626829 L22.8474366,20.626829 C21.2134433,17.569968 18.7154296,16.0433033 15.2359962,16.0433033 L15.2359962,16.0433033 Z M31.6581411,0.708911799 L38.2923204,0.708911799 L38.2923204,39.5064217 L31.6581411,39.5064217 L31.6581411,0.708911799 L31.6581411,0.708911799 Z M91.2614709,36.3407195 C89.2493687,39.014871 86.7465566,40.2695935 83.4309065,40.2695935 C76.2010938,40.2695935 72.0694066,35.6867099 72.0694066,27.1749523 L72.0694066,10.204734 L78.9163121,10.204734 L78.9163121,23.3542773 C78.9163121,30.2857523 79.9505135,33.6681734 84.9522989,33.6681734 C89.9009827,33.6681734 91.3116935,30.0115627 91.3116935,22.9182709 L91.3116935,10.204734 L98.0034528,10.204734 L98.0034528,39.5064217 L91.2608311,39.5064217 L91.2608311,36.3407195 L91.2614709,36.3407195 Z M123.725413,0.708911799 L130.412054,0.708911799 L130.412054,39.5064217 L123.725413,39.5064217 L123.725413,37.1042124 C121.005716,39.2871342 118.068814,40.2695935 114.644082,40.2695935 C110.947124,40.2695935 107.630834,39.0713784 105.073321,36.8316281 C101.540786,33.7763724 99.5862639,29.4663941 99.5862639,24.7733852 C99.5862639,20.4624437 101.375723,16.3155665 104.58677,13.3701151 C107.306467,10.806089 110.838682,9.49389579 114.644082,9.49389579 C118.286019,9.49389579 121.114158,10.3678351 123.725413,12.5507569 L123.725413,0.708911799 L123.725413,0.708911799 Z M115.134792,16.2073676 C110.403313,16.2073676 106.650694,20.1905015 106.650694,24.8831894 C106.650694,29.7389784 110.29583,33.5044302 115.461398,33.5044302 C119.81093,33.5044302 123.451268,29.8478195 123.451268,24.9917094 C123.450948,19.9705719 119.862752,16.2073676 115.134792,16.2073676 L115.134792,16.2073676 Z M133.266424,39.5067427 L133.266424,32.2503498 L147.294839,19.098559 C149.959515,16.5871876 151.317444,14.133929 151.317444,11.9516493 C151.317444,9.11150722 149.307581,6.92922756 146.312779,6.92922756 C143.214654,6.92922756 141.421036,9.00298721 141.421036,12.7135369 L141.421036,13.3701151 L133.814074,13.3701151 L133.814074,13.2587055 C133.814074,5.18199114 138.975484,4.68122273e-14 146.478162,4.68122273e-14 C153.651674,4.68122273e-14 158.926005,5.45810715 158.926005,12.0039829 C158.926005,15.7710401 157.027463,19.2074001 153.165443,22.7002676 L142.346475,32.5229341 L158.765421,32.5229341 L158.765421,39.5064217 L133.266424,39.5064217 L133.266424,39.5067427 Z" fill="#FFFFFF"></path>
                    </g>
                </g>
            </g>
        </g>
    </g>
</svg>