<?xml version="1.0" encoding="UTF-8"?>
<svg width="43px" height="26px" viewBox="0 0 43 26" version="1.1" xmlns="http://www.w3.org/2000/svg" xmlns:xlink="http://www.w3.org/1999/xlink">
    <title>googleplus</title>
    <g id="Page-1" stroke="none" stroke-width="1" fill="none" fill-rule="evenodd">
        <g id="googleplus" fill-rule="nonzero" fill="#ffffff">
            <path d="M12.614062,11.726562 L12.614062,16.026562 L19.714062,16.026562 C19.414062,17.826562 17.614062,21.426562 12.614062,21.426562 C8.314062,21.426562 4.914062,17.926562 4.914062,13.526562 C4.914062,9.226562 8.414062,5.626562 12.614062,5.626562 C15.014062,5.626562 16.614062,6.626562 17.614062,7.526562 L21.014062,4.226562 C18.814062,2.226562 16.014062,0.926562 12.614062,0.926562 C5.714062,0.926562 0.114062,6.526562 0.114062,13.426562 C0.114062,20.326562 5.714062,25.926562 12.614062,25.926562 C19.814062,25.926562 24.614062,20.826562 24.614062,13.726562 C24.614062,12.926562 24.514062,12.326562 24.414062,11.626562 L12.614062,11.626562 L12.614062,11.726562 Z M12.614062,11.726562 L42.914062,15.326562 L37.614062,15.326562 L37.614062,20.626562 L34.014062,20.626562 L34.014062,15.326562 L28.714062,15.326562 L28.714062,11.726562 L34.014062,11.726562 L34.014062,6.426562 L37.614062,6.426562 L37.614062,11.726562 L42.914062,11.726562 L42.914062,15.326562 L12.614062,11.726562 Z" id="Shape"></path>
        </g>
    </g>
</svg>