<?xml version="1.0" encoding="UTF-8"?>
<svg width="29px" height="29px" viewBox="0 0 29 29" version="1.1" xmlns="http://www.w3.org/2000/svg" xmlns:xlink="http://www.w3.org/1999/xlink">
    <title>linkedin</title>
    <g id="Page-1" stroke="none" stroke-width="1" fill="none" fill-rule="evenodd">
        <g id="linkedin" fill-rule="nonzero" fill="#ffffff">
            <path d="M6.123915,3.849164 C6.123915,5.498566 4.798183,6.835047 3.161919,6.835047 C1.525655,6.835047 0.199923,5.498566 0.199923,3.849164 C0.199923,2.200956 1.525655,0.863281 3.161919,0.863281 C4.798183,0.863281 6.123915,2.200956 6.123915,3.849164 L6.123915,3.849164 Z M6.147802,9.223754 L0.176036,9.223754 L0.176036,28.333406 L6.147802,28.333406 L6.147802,9.223754 L6.147802,9.223754 Z M15.68113,9.223754 L9.747583,9.223754 L9.747583,28.333406 L15.682324,28.333406 L15.682324,18.302033 C15.682324,12.724403 22.88308,12.26816 22.88308,18.302033 L22.88308,28.333406 L28.840514,28.333406 L28.840514,16.233413 C28.840514,6.821909 18.184494,7.164689 15.68113,11.797585 L15.68113,9.223754 L15.68113,9.223754 Z" id="Shape"></path>
        </g>
    </g>
</svg>